<?xml version="1.0" encoding="UTF-8"?>
<svg id="Layer_2" data-name="Layer 2" xmlns="http://www.w3.org/2000/svg" viewBox="0 0 292.79 192.51">
  <defs>
    <style>
      .cls-1 {
        fill: #73462d;
      }

      .cls-2 {
        fill: #a86644;
      }

      .cls-3 {
        fill: #5c3824;
      }

      .cls-4 {
        fill: #925a3b;
      }

      .cls-5 {
        fill: #7b4b30;
      }
    </style>
  </defs>
  <g id="BC_R">
    <g>
      <rect class="cls-4" x="260.12" y="89.72" width="9.86" height="102.79"/>
      <rect class="cls-1" x="229.57" y="52.24" width="9.86" height="102.79"/>
      <rect class="cls-4" x="54.12" y="89.72" width="9.86" height="102.79"/>
      <rect class="cls-1" x="21.49" y="30.56" width="9.86" height="118.51"/>
      <rect class="cls-2" x="30.46" y="63.08" width="258.25" height="38.44"/>
      <path class="cls-3" d="m1.29,15.5c9.94,29.21,19.88,58.42,29.82,87.63v-38.44C20.95,43.69,10.8,22.69.64,1.69c.21,4.6.43,9.21.64,13.81Z"/>
      <path class="cls-4" d="m23.56,61.11h269.09S256.18,0,256.18,0C170.79.03,85.39.05,0,.08c7.85,20.34,15.71,40.69,23.56,61.03Z"/>
      <rect class="cls-5" x="23.58" y="61.08" width="269.21" height="4.16"/>
    </g>
  </g>
</svg>