<?xml version="1.0" encoding="UTF-8"?>
<svg id="Layer_2" data-name="Layer 2" xmlns="http://www.w3.org/2000/svg" viewBox="0 0 65.85 55.25">
  <defs>
    <style>
      .cls-1 {
        fill: #d8e8f7;
        opacity: .41;
      }

      .cls-2 {
        fill: #2e69a0;
      }

      .cls-3 {
        fill: #1c1919;
      }

      .cls-4 {
        fill: #3c2315;
      }
    </style>
  </defs>
  <g id="Black_rounded_eraser" data-name="Black rounded eraser">
    <path class="cls-3" d="m48.34.87S.44,3.03,0,31.42c0,0,6,31.4,35.34,21.43l28.62-11.23-.44-2.89-7.78-30.79-7.39-7.07Z"/>
    <polygon class="cls-2" points="19.57 7.01 27.53 47.3 31.24 53.63 53.67 45.48 49.13 39.07 40.65 1.75 19.57 7.01"/>
    <path class="cls-1" d="m1.12,34.52S4.4,7.45,49.31,4.5l8.29,30.47,7.37,5.24L54.89,7.13l-6.55-6.26S-7.77,4.91,1.12,34.52Z"/>
    <path class="cls-4" d="m48.2,1.1c1.06,3.91,2.12,7.83,3.18,11.74,1.69,6.23,3.37,12.46,5.06,18.68.38,1.42.77,2.83,1.15,4.25.2-.35.4-.7.6-1.06-1.95.74-3.9,1.48-5.85,2.23-4.07,1.55-8.14,3.1-12.22,4.65-3.53,1.34-7.05,2.68-10.58,4.03-.72.27-1.44.62-2.17.83-.11.03-.43.07-.06.02-.36.04-.72.09-1.08.12-3.33.32-6.76.31-10.05-.2-4.18-.65-8.49-2.13-11.27-5.48-1.63-1.96-2.33-4.4-2.77-6.87-.51-2.82-.57-5.76.01-8.58,1.12-5.44,4.56-9.95,9.12-13.02,2.67-1.8,5.6-3.13,8.65-4.13,3.91-1.29,7.89-2.38,11.9-3.33,5.45-1.29,10.97-2.36,16.52-3.15.22-.03.43-.06.65-.09.04,0-.23.03-.03,0,.02,0,.04,0,.06,0,.46-.06.85-.35.86-.86,0-.42-.4-.92-.86-.86-4.15.53-8.28,1.29-12.38,2.14-3.93.81-7.83,1.74-11.7,2.82-3.67,1.03-7.35,2.13-10.78,3.81-5.24,2.57-9.95,6.59-12.32,12.02C.69,23.46.09,26.3.04,29.19c-.06,3.01.35,6.25,1.42,9.07,1.73,4.53,5.66,7.4,10.16,8.83,3.89,1.24,8.09,1.54,12.15,1.38,1.46-.06,3.12-.02,4.51-.55,2.89-1.1,5.78-2.2,8.67-3.3,4.28-1.63,8.55-3.25,12.83-4.88,2.81-1.07,5.63-2.14,8.44-3.21l.42-.16c.44-.17.73-.57.6-1.06-1.06-3.91-2.12-7.83-3.18-11.74-1.69-6.23-3.37-12.46-5.06-18.68-.38-1.42-.77-2.83-1.15-4.25-.29-1.07-1.95-.61-1.66.46Z"/>
    <path class="cls-4" d="m.33,33.49c1.67,7.73,5.43,15.53,12.75,19.3,4.63,2.39,9.96,2.88,15.06,2.14,1.99-.29,3.83-.82,5.71-1.5,5.66-2.02,11.32-4.05,16.98-6.07,4.71-1.68,9.42-3.37,14.13-5.05l.24-.09c.44-.16.73-.58.6-1.06-.49-1.76-.97-3.53-1.46-5.29-1.06-3.85-2.12-7.7-3.19-11.55-1.06-3.83-2.11-7.66-3.17-11.49-.35-1.25-.69-2.51-1.04-3.76-.15-.54-.23-1.28-.59-1.73-.84-1.05-1.88-1.99-2.81-2.96-1.22-1.29-2.44-2.57-3.66-3.86-.08-.08-.16-.17-.24-.25-.76-.8-1.98.41-1.22,1.22,2.15,2.27,4.3,4.54,6.45,6.81.1.1.38.48.14.08-.21-.37-.09-.19-.08-.09.02.24.14.5.2.73.3,1.1.61,2.21.91,3.31,1.02,3.68,2.03,7.37,3.05,11.05,1.09,3.94,2.17,7.88,3.26,11.81.39,1.42.78,2.83,1.17,4.25.19.69.31,1.45.58,2.11.01.03.02.06.03.09.2-.35.4-.7.6-1.06-3.92,1.4-7.84,2.8-11.77,4.21-5.97,2.14-11.95,4.27-17.92,6.41-1.91.68-3.76,1.41-5.75,1.81-.39.08-.79.15-1.18.21-.11.02-.23.04-.34.05-.06,0-.43.06-.19.03-.25.03-.49.06-.74.09-1.08.12-2.18.17-3.27.16-2.6-.02-4.97-.39-7.46-1.29-2.78-1-5.38-2.74-7.44-4.96-2.77-2.98-4.57-6.73-5.75-10.59-.37-1.21-.68-2.43-.95-3.67-.23-1.08-1.89-.62-1.66.46H.33Z"/>
    <path class="cls-4" d="m65.58,40.79c-2.19-1.95-4.37-3.91-6.56-5.86-.82-.74-2.04.48-1.22,1.22,2.19,1.95,4.37,3.91,6.56,5.86.82.74,2.04-.48,1.22-1.22h0Z"/>
    <path class="cls-4" d="m54.7,44.9c-.86-1.3-1.72-2.6-2.57-3.9-.48-.73-.97-1.46-1.45-2.2-.06-.09-.12-.19-.18-.28-.13-.16.05-.07.02.1,0-.03-.02-.08-.03-.11-.09-.69-.33-1.4-.49-2.08-.33-1.4-.66-2.8-.99-4.21-.94-4-1.89-8.01-2.83-12.01-.94-3.98-1.88-7.96-2.82-11.94-.49-2.08-.88-4.21-1.48-6.26,0-.03-.01-.06-.02-.09-.25-1.08-1.91-.62-1.66.46.4,1.71.81,3.43,1.21,5.14.92,3.89,1.83,7.77,2.75,11.66.97,4.1,1.93,8.2,2.9,12.3.57,2.42,1.14,4.84,1.71,7.26.16.69.62,1.23,1.01,1.81,1.07,1.62,2.13,3.23,3.2,4.85.08.12.16.24.23.36.61.92,2.1.06,1.48-.87h0Z"/>
    <path class="cls-4" d="m32.72,52.76c-1.02-1.35-2.03-2.7-3.05-4.04-.29-.39-.58-.77-.87-1.16-.14-.18-.29-.5-.48-.63-.15-.11.01.22.03.09,0-.06-.03-.16-.05-.22-.52-2.42-1.03-4.84-1.55-7.26-.91-4.28-1.82-8.56-2.73-12.83-.89-4.19-1.79-8.38-2.68-12.58-.46-2.15-.8-4.37-1.38-6.49,0-.03-.01-.06-.02-.09-.23-1.08-1.89-.62-1.66.46.38,1.8.77,3.59,1.15,5.39.87,4.07,1.74,8.15,2.6,12.22.93,4.37,1.86,8.73,2.79,13.1.58,2.74,1.17,5.47,1.75,8.21.04.19.07.4.12.58.11.35.4.64.62.93,1.21,1.61,2.42,3.22,3.64,4.83.09.13.19.25.28.38.28.37.74.56,1.18.31.37-.21.59-.81.31-1.18h0Z"/>
  </g>
</svg>