<?xml version="1.0" encoding="UTF-8"?>
<svg id="Layer_2" data-name="Layer 2" xmlns="http://www.w3.org/2000/svg" viewBox="0 0 5.53 121.97">
  <defs>
    <style>
      .cls-1 {
        fill: #fff;
      }

      .cls-2 {
        fill: #e7dfb9;
      }

      .cls-3 {
        fill: #d5c2b3;
      }

      .cls-4 {
        fill: #e3e5e3;
      }

      .cls-5 {
        fill: #cbccca;
      }

      .cls-6 {
        fill: #272626;
      }
    </style>
  </defs>
  <g id="black_pencil_with_eraser" data-name="black pencil with eraser">
    <g>
      <g>
        <rect x=".02" y="15.18" width="5.5" height="98.12" transform="translate(5.53 128.47) rotate(180)"/>
        <rect class="cls-1" x="1.22" y="15.18" width="3.15" height="98.12" transform="translate(5.59 128.47) rotate(180)"/>
        <rect x="2.01" y="15.18" width="1.57" height="98.12" transform="translate(5.59 128.47) rotate(180)"/>
      </g>
      <path class="cls-2" d="m.02,1.05C.02-.35,5.51-.35,5.51,1.05v14.13H.02V1.05Z"/>
      <rect class="cls-5" x=".02" y="3.82" width="5.5" height="11.36" transform="translate(5.53 18.99) rotate(180)"/>
      <rect class="cls-1" x=".02" y="8.02" width="5.5" height="1.91" transform="translate(5.53 17.94) rotate(180)"/>
      <rect class="cls-4" x=".02" y="13.08" width="5.5" height=".95" transform="translate(5.53 27.11) rotate(180)"/>
    </g>
    <g>
      <polygon class="cls-3" points="0 113.35 1.84 119.64 2.53 121.97 2.97 121.97 3.51 120.13 5.5 113.35 5.53 113.35 4.38 110.78 3.6 113.35 2.81 111.78 1.86 112.54 1.23 109.34 .03 113.35 0 113.35"/>
      <polygon class="cls-6" points="1.84 119.64 2.53 121.97 2.97 121.97 3.51 120.13 3.26 119.25 2.76 119.69 2.3 119.01 1.84 119.64"/>
    </g>
  </g>
</svg>