<?xml version="1.0" encoding="UTF-8"?>
<svg id="Layer_2" data-name="Layer 2" xmlns="http://www.w3.org/2000/svg" viewBox="0 0 6.12 118.51">
  <defs>
    <style>
      .cls-1 {
        fill: #424241;
      }

      .cls-2 {
        fill: #f9d594;
      }

      .cls-3 {
        fill: #323231;
      }

      .cls-4 {
        fill: #181815;
      }

      .cls-5 {
        fill: #fbfbf9;
      }

      .cls-6 {
        fill: #005d93;
      }

      .cls-7 {
        fill: #2c2c2a;
      }

      .cls-8 {
        fill: #b0b0ae;
      }

      .cls-9 {
        fill: #0076a7;
      }

      .cls-10 {
        fill: none;
      }

      .cls-11 {
        fill: #373737;
      }

      .cls-12 {
        fill: #131416;
      }

      .cls-13 {
        fill: #474c4e;
      }
    </style>
  </defs>
  <g id="blue_pencil" data-name="blue pencil">
    <polygon class="cls-6" points="0 22.1 0 98.43 6.12 98.43 6.12 22.1 4.53 22.1 4.53 1.61 1.58 1.61 1.58 22.1 0 22.1"/>
    <rect class="cls-6" x=".08" y="11.23" width="6.04" height="21"/>
    <rect class="cls-9" x="1.58" y="1.61" width="2.95" height="96.81"/>
    <path class="cls-12" d="m0,2.2v13.03h1.58V1.61H.08c-.05.19-.08.38-.08.59Z"/>
    <path class="cls-12" d="m4.53,1.61v13.62h1.58V2.2c0-.2-.03-.4-.08-.59h-1.5Z"/>
    <rect class="cls-11" x="1.58" y="1.61" width="2.95" height="13.62"/>
    <path class="cls-13" d="m.08,1.61h5.96c-.2-.73-.77-1.31-1.5-1.52-.19-.06-.4-.09-.61-.09h-1.72c-.21,0-.42.03-.61.09C.85.3.28.88.08,1.61Z"/>
    <rect class="cls-8" y="15.23" width="1.58" height="2.37"/>
    <rect class="cls-8" x="4.53" y="15.23" width="1.58" height="2.37"/>
    <g>
      <polygon class="cls-10" points="2.95 109.1 2.57 106.6 1.65 110.14 2.46 105.04 2.95 109.1"/>
      <path class="cls-4" d="m1.65,110.14v6.26c0,.33.06.66.16.97.11.31.27.61.47.87.06-.16.12-.39.17-.66.11-.59.21-1.4.29-2.28h0s-1.09-5.17-1.09-5.17Z"/>
      <path class="cls-7" d="m1.65,104.49v5.65l.82-5.1.49,4.06.1.87c0-.1,0-.15,0-.15l.77-1.8.07,5.36.05,3.44.15-.4c.25-.68.37-1.39.37-2.11v-9.81H1.65Z"/>
      <path class="cls-1" d="m2.28,118.24c.12.15.29.24.46.26.18.02.36-.02.5-.12.11-.08.2-.19.25-.33l.45-1.23h0s-.05-3.44-.05-3.44l-.07-5.36-.77,1.8s0,.05,0,.15c-.02.64-.11,3.18-.31,5.33h0c-.08.88-.18,1.69-.29,2.28-.05.27-.11.5-.17.66Z"/>
      <path class="cls-3" d="m2.95,109.1l.1.87c-.02.64-.11,3.18-.31,5.33l-1.09-5.16.93-3.54.38,2.5Z"/>
    </g>
    <rect class="cls-5" x="1.58" y="15.23" width="2.95" height="2.37"/>
    <polygon class="cls-2" points="0 98.43 1.65 110.14 2.46 105.04 2.95 109.1 3.06 109.82 3.83 108.02 4.47 109.04 6.12 98.43 5.4 95.86 4.53 98.43 3.75 94.14 3.06 95.63 1.58 93.75 0 98.43"/>
    <polygon class="cls-2" points="1.65 110.14 2.57 106.6 2.95 109.1 2.46 105.04 1.65 110.14"/>
    <path d="m3.24,118.38c.11-.08.2-.19.25-.33l.45-1.23h0s.15-.41.15-.41c.25-.68.37-1.39.37-2.11v-5.27l-.57,4.34-.66,5Z"/>
    <path d="m1.65,115v1.4c0,.33.06.66.16.97.11.31.27.61.47.87.12.15.29.24.46.26l-.29-.92-.8-2.58Z"/>
  </g>
</svg>