<?xml version="1.0" encoding="UTF-8"?>
<svg id="Layer_2" data-name="Layer 2" xmlns="http://www.w3.org/2000/svg" xmlns:xlink="http://www.w3.org/1999/xlink" viewBox="0 0 58.62 55.45">
  <defs>
    <style>
      .cls-1 {
        fill: #316e92;
        opacity: .66;
      }

      .cls-2 {
        fill: #3e8cba;
      }

      .cls-3 {
        fill: #f5d6ab;
      }

      .cls-4 {
        fill: #f1c88d;
      }

      .cls-5 {
        fill: #f8e1c1;
      }

      .cls-6 {
        clip-path: url(#clippath);
      }

      .cls-7 {
        fill: #5da5c9;
      }
    </style>
    <clipPath id="clippath">
      <path id="path39922-2" data-name="path39922" class="cls-2" d="m58.62,40.8s-3.4-23.78-3.29-31.8c-5.94-.15-18.52-4.3-22.15-7.18-3.63-2.88-7.47-1.9-10.1-.05-2.63,1.84-15.3,6.06-20.92,6.91.13,17.51-1.18,28.09-2.17,33.3,6.08,1.29,19.91-3.09,24.75-7.89,2.81-2.79,5.11-3.73,7.24-1.41,2.13,2.32,6.62,4.44,9.34,5.45,3.94,1.47,14.06,4.08,17.29,2.68h0Z"/>
    </clipPath>
  </defs>
  <g id="Blue_textbook" data-name="Blue textbook">
    <g id="g53033">
      <path id="path44130" class="cls-4" d="m49.93,44.68c0,.36-.42,4.23-.42,4.23,0,0-11.74-3.4-15.1-8.07-3.37-4.67-5.02-7.95-5.02-7.95,0,0-1.7,12.63-5.51,15.41-3.82,2.78-10.31,7.16-10.31,7.16l1.56-17.29,12.87-10.36,5.7,1.12,16.24,15.76Z"/>
      <path id="path43571" class="cls-3" d="m53.12,40.09l1.1,6.04s-19.7-1.36-24.89-13.79c-3.63,6.86-13.78,13.59-23.93,14.4.44-4.24.18-9.6.18-9.6l24-11.87,23.55,14.81Z"/>
      <path id="path42475" class="cls-5" d="m55.3,38.5l1.17,5.43s-21.56-1.13-27.17-12.29c-4.01,6.19-15.15,12.29-26.26,13.07.5-3.82.24-8.63.24-8.63l26.32-10.79,25.71,13.21Z"/>
      <g>
        <path id="path39922" class="cls-2" d="m58.62,40.8s-3.4-23.78-3.29-31.8c-5.94-.15-18.52-4.3-22.15-7.18-3.63-2.88-7.47-1.9-10.1-.05-2.63,1.84-15.3,6.06-20.92,6.91.13,17.51-1.18,28.09-2.17,33.3,6.08,1.29,19.91-3.09,24.75-7.89,2.81-2.79,5.11-3.73,7.24-1.41,2.13,2.32,6.62,4.44,9.34,5.45,3.94,1.47,14.06,4.08,17.29,2.68h0Z"/>
        <g class="cls-6">
          <path class="cls-7" d="m-3.86,18.55c18.41.57,23.05-8.26,33.66-7.93,10.62.33,23.38,10.51,32,10.23l1.82,10.74c-18.24-1.24-19.53-10.54-34.32-10.49-14.79.05-14.72,9.75-33.17,7.76-18.44-1.99,0-10.31,0-10.31Z"/>
        </g>
      </g>
      <path id="path41833" class="cls-1" d="m24.68,34.14s.05-.04.07-.07c2.81-2.79,5.11-3.73,7.24-1.4.24.26.51.51.8.77l-.17-32.02c-2.4-1.64-4.85-1.68-6.96-.97l-.99,33.7Z"/>
    </g>
  </g>
</svg>