<?xml version="1.0" encoding="UTF-8"?>
<svg xmlns="http://www.w3.org/2000/svg" viewBox="0 0 58.37 9.78">
  <defs>
    <style>
      .cls-1 {
        fill: #00aad0;
      }

      .cls-1, .cls-2 {
        opacity: .5;
      }

      .cls-3 {
        fill: #2f476d;
      }

      .cls-4 {
        fill: #5f5e5e;
      }

      .cls-5 {
        isolation: isolate;
      }

      .cls-6 {
        fill: #4b89c8;
      }

      .cls-7 {
        fill: #919292;
      }

      .cls-8 {
        fill: #fff;
        mix-blend-mode: screen;
        opacity: .6;
      }

      .cls-9 {
        fill: #2b2c2b;
      }

      .cls-2 {
        fill: #8a8b8b;
        mix-blend-mode: multiply;
      }

      .cls-10 {
        fill: #dcdcdc;
      }

      .cls-11 {
        fill: #3265b0;
      }

      .cls-12 {
        fill: #192f5a;
        mix-blend-mode: color-dodge;
      }
    </style>
  </defs>
  <g class="cls-5">
    <g id="Layer_2" data-name="Layer 2">
      <g id="Blue_marker" data-name="Blue marker">
        <g>
          <g>
            <path class="cls-4" d="m30.01,7.63V2.14H1.09c-.47,0-.85,1.23-.85,2.74s.38,2.74.85,2.74h28.91Z"/>
            <path class="cls-9" d="m0,4.89C0,3.45.34,1.91,1.09,1.91h28.91c.13,0,.24.11.24.24v5.49c0,.13-.11.24-.24.24H1.09c-.75,0-1.09-1.55-1.09-2.98Zm29.77-2.5H1.09c-.18,0-.62.85-.62,2.5s.43,2.51.62,2.51h28.67V2.38Z"/>
          </g>
          <g>
            <path class="cls-10" d="m45,8.84V.93H3.32c-.68,0-1.23,1.77-1.23,3.95s.55,3.96,1.23,3.96h41.68Z"/>
            <path class="cls-7" d="m1.85,4.89C1.85,2.8,2.36.69,3.32.69h41.68c.13,0,.24.11.24.24v7.91c0,.13-.11.24-.24.24H3.32c-.97,0-1.47-2.11-1.47-4.2ZM44.76,1.17H3.32c-.4,0-.99,1.45-.99,3.72s.59,3.72.99,3.72h41.44V1.17Z"/>
          </g>
          <path class="cls-1" d="m22.52,7.74c-9.6,0-17.38-1.35-17.38-3.01S12.92,1.72,22.52,1.72s17.38,1.35,17.38,3.01-7.78,3.01-17.38,3.01Z"/>
          <path class="cls-2" d="m45,6.37H2.18c.18,1.45.62,2.48,1.14,2.48h41.68v-2.48Z"/>
          <path class="cls-8" d="m45,3.89v-1.44H2.35c-.1.42-.17.91-.22,1.44h42.87Z"/>
          <g>
            <g>
              <path class="cls-6" d="m57.01,8.49V1.29L44.77.24h-.13c-.8,0-1.45,2.08-1.45,4.65s.65,4.65,1.45,4.65l12.36-1.05Z"/>
              <path class="cls-3" d="m42.95,4.89c0-2.37.59-4.89,1.69-4.89h.13l12.26,1.05c.12.01.22.11.22.24v7.2c0,.12-.1.23-.22.24l-12.36,1.05c-1.12,0-1.71-2.52-1.71-4.89Zm13.81-3.38l-12.02-1.03h-.11c-.5,0-1.21,1.68-1.21,4.41s.7,4.41,1.21,4.41l12.12-1.03V1.51Z"/>
            </g>
            <g>
              <path class="cls-11" d="m57.01,8.49c-.62,0-1.12-1.61-1.12-3.6s.5-3.6,1.12-3.6,1.12,1.61,1.12,3.6-.5,3.6-1.12,3.6Z"/>
              <path class="cls-3" d="m55.65,4.89c0-1.91.47-3.84,1.36-3.84s1.36,1.93,1.36,3.84-.47,3.84-1.36,3.84-1.36-1.93-1.36-3.84Zm2.24,0c0-2.02-.53-3.36-.88-3.36s-.88,1.34-.88,3.36.53,3.36.88,3.36.88-1.34.88-3.36Z"/>
            </g>
          </g>
          <path class="cls-12" d="m55.44,2.5s0-.65-.92-.78c-.92-.13-8.37-.78-8.37-.78,0,0-1.2-.36-1.59.78-.4,1.14-.4,4.01,1.08,4.33,1.48.32,8.45.24,8.45.24,0,0,.92.08,1-.96.08-1.04.36-2.83.36-2.83Z"/>
          <path class="cls-8" d="m54.96,2.26l-9.49-.97s-.92,1.17-.47,1.17c.23,0,9.96.56,9.96.56v-.76Z"/>
        </g>
      </g>
    </g>
  </g>
</svg>