<?xml version="1.0" encoding="UTF-8"?>
<svg id="Layer_2" data-name="Layer 2" xmlns="http://www.w3.org/2000/svg" viewBox="0 0 108.99 186.41">
  <defs>
    <style>
      .cls-1 {
        fill: #cc493c;
      }

      .cls-2 {
        fill: #4a4d8a;
      }

      .cls-3 {
        fill: #ba4236;
      }

      .cls-4 {
        fill: #d3822b;
      }

      .cls-5 {
        fill: #6768a2;
      }

      .cls-6 {
        fill: #d6cdc5;
      }

      .cls-7 {
        fill: #5c61ab;
      }

      .cls-8 {
        fill: #d4765a;
      }

      .cls-9 {
        fill: #169dc1;
      }

      .cls-10 {
        fill: #4cb978;
      }

      .cls-11 {
        fill: #7475b6;
      }

      .cls-12 {
        fill: #ef8f71;
      }

      .cls-13 {
        fill: #d6992b;
      }

      .cls-14 {
        fill: #c77c27;
      }

      .cls-15 {
        fill: #41437c;
      }

      .cls-16 {
        fill: #71c38b;
      }

      .cls-17 {
        fill: #ed5646;
      }

      .cls-18 {
        fill: #1393b4;
      }

      .cls-19 {
        fill: #17abd2;
      }

      .cls-20 {
        fill: #a95d46;
      }
    </style>
  </defs>
  <g id="Bookshelf">
    <g>
      <g>
        <path class="cls-8" d="m108.99,6.43V2.2c0-1.22-.99-2.2-2.2-2.2H2.2C.99,0,0,.99,0,2.2v4.23h108.99Z"/>
        <rect class="cls-12" x="4.91" y="6.43" width="99.18" height="179.98"/>
        <rect class="cls-20" x="11.4" y="12.39" width="86.19" height="78.31"/>
      </g>
      <g>
        <g>
          <g>
            <path class="cls-19" d="m82.83,20.57h-19.78c-1.25,0-2.27-1.02-2.27-2.27s1.02-2.27,2.27-2.27h19.78c.25,0,.45.2.45.45s-.2.45-.45.45h-19.78c-.76,0-1.37.61-1.37,1.37s.61,1.37,1.37,1.37h19.78c.25,0,.45.2.45.45s-.2.45-.45.45Z"/>
            <path class="cls-6" d="m63.05,16.93c-.76,0-1.37.61-1.37,1.37s.61,1.37,1.37,1.37h19.78v-2.74h-19.78Z"/>
            <path class="cls-18" d="m82.83,20.57h-19.78c-1.25,0-2.27-1.02-2.27-2.27v25.61c0,1.25,1.02,2.27,2.27,2.27h19.78c.25,0,.45-.2.45-.45v-25.61c0,.25-.2.45-.45.45Z"/>
          </g>
          <path class="cls-9" d="m65.36,20.57h-2.31c-1.25,0-2.27-1.02-2.27-2.27v25.61c0,1.25,1.02,2.27,2.27,2.27h2.31v-25.61Z"/>
          <rect class="cls-19" x="67.36" y="30.11" width="12.49" height="5.59"/>
        </g>
        <g>
          <g>
            <path class="cls-7" d="m75.04,25.43h-16.26c-.9,0-1.64-.73-1.64-1.64s.73-1.64,1.64-1.64h16.26c.18,0,.32.15.32.32s-.14.33-.32.33h-16.26c-.54,0-.99.44-.99.99s.44.99.99.99h16.26c.18,0,.32.15.32.32s-.14.33-.32.33Z"/>
            <path class="cls-6" d="m58.77,22.81c-.54,0-.99.44-.99.99s.44.99.99.99h16.26v-1.97h-16.26Z"/>
            <path class="cls-15" d="m75.04,25.43h-16.26c-.9,0-1.64-.73-1.64-1.64v20.75c0,.9.73,1.64,1.64,1.64h16.26c.18,0,.32-.14.32-.32v-20.75c0,.18-.14.33-.32.33Z"/>
          </g>
          <path class="cls-2" d="m59.9,25.43h-1.12c-.9,0-1.64-.73-1.64-1.64v20.75c0,.9.73,1.64,1.64,1.64h1.12v-20.75Z"/>
          <rect class="cls-7" x="62.06" y="28.03" width="10.89" height="7.13"/>
        </g>
        <g>
          <g>
            <path class="cls-13" d="m79.74,29.93h-12c-1.09,0-1.98-.89-1.98-1.98s.89-1.98,1.98-1.98h12c.22,0,.39.18.39.39s-.18.39-.39.39h-12c-.66,0-1.19.54-1.19,1.19s.53,1.19,1.19,1.19h12c.22,0,.39.18.39.39s-.18.39-.39.39Z"/>
            <path class="cls-6" d="m67.74,26.76c-.66,0-1.19.54-1.19,1.19s.53,1.19,1.19,1.19h12v-2.39h-12Z"/>
            <path class="cls-14" d="m79.74,29.93h-12c-1.09,0-1.98-.89-1.98-1.98v16.24c0,1.09.89,1.98,1.98,1.98h12c.22,0,.39-.18.39-.39v-16.24c0,.22-.18.39-.39.39Z"/>
          </g>
          <path class="cls-4" d="m68.81,29.93h-1.07c-1.09,0-1.98-.89-1.98-1.98v16.24c0,1.09.89,1.98,1.98,1.98h1.07v-16.25Z"/>
          <rect class="cls-13" x="70.21" y="31.62" width="8.03" height="1.05"/>
          <rect class="cls-13" x="71.09" y="33.11" width="6.26" height="2.9"/>
        </g>
      </g>
      <g>
        <g>
          <path class="cls-9" d="m36.06,18.34c0-1.09.88-1.97,1.97-1.97h-13.54c-1.09,0-1.97.88-1.97,1.97s.88,1.97,1.97,1.97h13.54c-1.09,0-1.97-.88-1.97-1.97Z"/>
          <path class="cls-19" d="m28.3,18.34c0-1.09.88-1.97,1.97-1.97h-3.53c-1.09,0-1.97.88-1.97,1.97s.88,1.97,1.97,1.97h3.53c-1.09,0-1.97-.88-1.97-1.97Z"/>
          <path class="cls-6" d="m49.99,16.76h-11.96c-.87,0-1.58.71-1.58,1.58s.71,1.58,1.58,1.58h11.96v-3.16Z"/>
          <path class="cls-19" d="m49.99,20.31h-11.96c-1.09,0-1.97-.88-1.97-1.97s.88-1.97,1.97-1.97h11.96c.22,0,.39.18.39.39s-.17.39-.39.39h-11.96c-.66,0-1.19.53-1.19,1.19s.53,1.19,1.19,1.19h11.96c.22,0,.39.18.39.39s-.17.39-.39.39Z"/>
        </g>
        <g>
          <path class="cls-3" d="m36.58,44.44c0-1.09.88-1.97,1.97-1.97h-18.39c-1.09,0-1.97.88-1.97,1.97s.88,1.97,1.97,1.97h18.39c-1.09,0-1.97-.88-1.97-1.97Z"/>
          <g>
            <path class="cls-17" d="m21.06,44.44c0-1.09.89-1.97,1.97-1.97h-1.25c-1.09,0-1.97.88-1.97,1.97s.88,1.97,1.97,1.97h1.25c-1.09,0-1.97-.88-1.97-1.97Z"/>
            <path class="cls-17" d="m23.02,44.44c0-1.09.88-1.97,1.97-1.97h-1.25c-1.09,0-1.97.88-1.97,1.97s.88,1.97,1.97,1.97h1.25c-1.09,0-1.97-.88-1.97-1.97Z"/>
          </g>
          <path class="cls-6" d="m50.5,42.86h-11.96c-.87,0-1.58.71-1.58,1.58s.71,1.58,1.58,1.58h11.96v-3.16Z"/>
          <path class="cls-17" d="m50.5,46.41h-11.96c-1.09,0-1.97-.88-1.97-1.97s.88-1.97,1.97-1.97h11.96c.22,0,.39.17.39.39s-.17.39-.39.39h-11.96c-.66,0-1.19.53-1.19,1.19s.53,1.19,1.19,1.19h11.96c.22,0,.39.18.39.39s-.17.39-.39.39Z"/>
        </g>
        <g>
          <path class="cls-4" d="m37.1,36.85c0-.83.68-1.51,1.51-1.51h-16.76c-.83,0-1.51.68-1.51,1.51s.68,1.51,1.51,1.51h16.76c-.84,0-1.51-.68-1.51-1.51Z"/>
          <path class="cls-13" d="m22.75,36.85c0-.83.68-1.51,1.51-1.51h-.95c-.83,0-1.51.68-1.51,1.51s.68,1.51,1.51,1.51h.95c-.83,0-1.51-.68-1.51-1.51Z"/>
          <path class="cls-6" d="m50.03,35.64h-11.41c-.67,0-1.21.54-1.21,1.21s.54,1.21,1.21,1.21h11.41v-2.43Z"/>
          <path class="cls-13" d="m50.03,38.37h-11.41c-.84,0-1.51-.68-1.51-1.51s.68-1.51,1.51-1.51h11.41c.17,0,.3.13.3.3s-.13.3-.3.3h-11.41c-.5,0-.91.41-.91.91s.41.91.91.91h11.41c.17,0,.3.13.3.3s-.13.3-.3.3Z"/>
        </g>
        <g>
          <path class="cls-15" d="m37.36,40.42c0-1.13.92-2.05,2.05-2.05h-18.45c-1.13,0-2.05.92-2.05,2.05s.92,2.05,2.05,2.05h18.45c-1.13,0-2.05-.92-2.05-2.05Z"/>
          <g>
            <path class="cls-7" d="m22.35,40.42c0-1.13.92-2.05,2.05-2.05h-2.09c-1.13,0-2.05.92-2.05,2.05s.92,2.05,2.05,2.05h2.09c-1.13,0-2.05-.92-2.05-2.05Z"/>
            <path class="cls-7" d="m33.53,40.42c0-1.13.92-2.05,2.05-2.05h-1.26c-1.13,0-2.05.92-2.05,2.05s.92,2.05,2.05,2.05h1.26c-1.13,0-2.05-.92-2.05-2.05Z"/>
          </g>
          <path class="cls-6" d="m52.86,38.78h-13.44c-.91,0-1.64.73-1.64,1.64s.73,1.64,1.64,1.64h13.44v-3.29Z"/>
          <path class="cls-7" d="m52.86,42.47h-13.44c-1.13,0-2.05-.92-2.05-2.05s.92-2.05,2.05-2.05h13.44c.23,0,.41.18.41.41s-.18.41-.41.41h-13.44c-.68,0-1.24.55-1.24,1.24s.55,1.24,1.24,1.24h13.44c.23,0,.41.18.41.41s-.18.41-.41.41Z"/>
        </g>
        <g>
          <path class="cls-6" d="m51.85,20.7h-11.96c-.87,0-1.58.2-1.58,3.15s.71,3.15,1.58,3.15h11.96v-6.29Z"/>
          <path class="cls-16" d="m51.85,27.38h-11.96c-.4,0-1.02,0-1.44-.59-.37-.52-.53-1.43-.53-2.95s.16-2.43.53-2.95c.42-.59,1.03-.59,1.44-.59h11.96c.22,0,.39.18.39.39s-.17.39-.39.39h-11.96c-.45,0-.64.04-.8.26-.26.37-.39,1.2-.39,2.49s.13,2.13.39,2.49c.16.22.35.26.8.26h11.96c.22,0,.39.17.39.39s-.17.39-.39.39Z"/>
          <path class="cls-10" d="m38.45,26.8c-.37-.52-.53-1.43-.53-2.95s.16-2.43.53-2.95c.42-.59,1.03-.59,1.44-.59h-20.49c-.4,0-1.02,0-1.44.59-.37.52-.53,1.43-.53,2.95s.16,2.43.53,2.95c.42.59,1.03.59,1.44.59h20.49c-.4,0-1.02,0-1.44-.59Z"/>
          <path class="cls-16" d="m23.15,26.8c-.37-.52-.54-1.43-.54-2.95s.17-2.43.54-2.95c.42-.59,1.03-.59,1.44-.59h-2.4c-.41,0-1.02,0-1.44.59-.37.52-.53,1.43-.53,2.95s.17,2.43.53,2.95c.42.59,1.03.59,1.44.59h2.4c-.41,0-1.02,0-1.44-.59Z"/>
          <path class="cls-16" d="m36.48,26.8c-.37-.52-.54-1.43-.54-2.95s.16-2.43.54-2.95c.42-.59,1.03-.59,1.44-.59h-1.2c-.4,0-1.02,0-1.44.59-.37.52-.53,1.43-.53,2.95s.16,2.43.53,2.95c.42.59,1.03.59,1.44.59h1.2c-.41,0-1.02,0-1.44-.59Z"/>
        </g>
        <g>
          <path class="cls-6" d="m51.26,27.78h-11.96c-.87,0-3.01.69-3.01,3.59s2.14,3.59,3.01,3.59h11.96v-7.17Z"/>
          <path class="cls-11" d="m51.26,35.34h-11.96c-1.26,0-3.41-.84-3.41-3.98s2.14-3.98,3.41-3.98h11.96c.22,0,.39.18.39.39s-.17.39-.39.39h-11.96c-.21,0-.94.04-1.59.55-.69.54-1.03,1.43-1.03,2.64s.35,2.1,1.03,2.64c.65.51,1.38.55,1.59.55h11.96c.22,0,.39.17.39.39s-.17.39-.39.39Z"/>
          <path class="cls-5" d="m35.9,31.36c0-3.14,2.14-3.98,3.41-3.98h-18.48c-1.26,0-3.4.84-3.4,3.98s2.14,3.98,3.4,3.98h18.48c-1.26,0-3.41-.84-3.41-3.98Z"/>
          <path class="cls-11" d="m22.34,31.36c0-3.14,2.14-3.98,3.41-3.98h-1.87c-1.27,0-3.41.84-3.41,3.98s2.14,3.98,3.41,3.98h1.87c-1.27,0-3.41-.84-3.41-3.98Z"/>
          <path class="cls-11" d="m34.36,31.36c0-3.14,2.14-3.98,3.41-3.98h-.93c-1.27,0-3.41.84-3.41,3.98s2.14,3.98,3.41,3.98h.93c-1.26,0-3.41-.84-3.41-3.98Z"/>
        </g>
      </g>
      <g>
        <g>
          <path class="cls-3" d="m69.66,82.58c0-1.08.88-1.97,1.97-1.97h-18.37c-1.09,0-1.97.89-1.97,1.97s.88,1.97,1.97,1.97h18.37c-1.09,0-1.97-.88-1.97-1.97Z"/>
          <g>
            <path class="cls-17" d="m54.16,82.58c0-1.08.88-1.97,1.97-1.97h-1.25c-1.09,0-1.97.89-1.97,1.97s.89,1.97,1.97,1.97h1.25c-1.09,0-1.97-.88-1.97-1.97Z"/>
            <path class="cls-17" d="m56.11,82.58c0-1.08.88-1.97,1.97-1.97h-1.25c-1.09,0-1.97.89-1.97,1.97s.88,1.97,1.97,1.97h1.25c-1.09,0-1.97-.88-1.97-1.97Z"/>
          </g>
          <path class="cls-6" d="m83.57,81h-11.95c-.87,0-1.58.71-1.58,1.58s.71,1.58,1.58,1.58h11.95v-3.16Z"/>
          <path class="cls-17" d="m83.57,84.55h-11.95c-1.09,0-1.97-.88-1.97-1.97s.88-1.97,1.97-1.97h11.95c.21,0,.39.18.39.39s-.17.39-.39.39h-11.95c-.66,0-1.19.53-1.19,1.19s.53,1.19,1.19,1.19h11.95c.21,0,.39.18.39.39s-.17.39-.39.39Z"/>
        </g>
        <g>
          <path class="cls-4" d="m70.18,75c0-.83.68-1.51,1.51-1.51h-16.73c-.84,0-1.52.68-1.52,1.51s.68,1.51,1.52,1.51h16.73c-.83,0-1.51-.68-1.51-1.51Z"/>
          <path class="cls-13" d="m55.85,75c0-.83.68-1.51,1.51-1.51h-.95c-.83,0-1.51.68-1.51,1.51s.68,1.51,1.51,1.51h.95c-.83,0-1.51-.68-1.51-1.51Z"/>
          <path class="cls-6" d="m83.09,73.79h-11.4c-.67,0-1.21.54-1.21,1.21s.54,1.21,1.21,1.21h11.4v-2.43Z"/>
          <path class="cls-13" d="m83.09,76.52h-11.4c-.83,0-1.51-.68-1.51-1.51s.68-1.51,1.51-1.51h11.4c.17,0,.3.13.3.3s-.13.3-.3.3h-11.4c-.5,0-.91.41-.91.91s.41.91.91.91h11.4c.17,0,.3.13.3.3s-.13.3-.3.3Z"/>
        </g>
        <g>
          <path class="cls-15" d="m70.44,78.57c0-1.13.92-2.05,2.05-2.05h-18.43c-1.13,0-2.05.92-2.05,2.05s.92,2.04,2.05,2.04h18.43c-1.13,0-2.05-.92-2.05-2.04Z"/>
          <g>
            <path class="cls-7" d="m55.45,78.57c0-1.13.92-2.05,2.05-2.05h-2.09c-1.13,0-2.05.92-2.05,2.05s.92,2.04,2.05,2.04h2.09c-1.13,0-2.05-.92-2.05-2.04Z"/>
            <path class="cls-7" d="m66.62,78.57c0-1.13.92-2.05,2.05-2.05h-1.25c-1.13,0-2.05.92-2.05,2.05s.92,2.04,2.05,2.04h1.25c-1.13,0-2.05-.92-2.05-2.04Z"/>
          </g>
          <path class="cls-6" d="m85.92,76.92h-13.43c-.91,0-1.64.73-1.64,1.64s.74,1.64,1.64,1.64h13.43v-3.28Z"/>
          <path class="cls-7" d="m85.92,80.61h-13.43c-1.13,0-2.05-.92-2.05-2.04s.92-2.05,2.05-2.05h13.43c.22,0,.41.18.41.41s-.18.41-.41.41h-13.43c-.68,0-1.24.55-1.24,1.24s.55,1.23,1.24,1.23h13.43c.22,0,.41.18.41.41s-.18.4-.41.4Z"/>
        </g>
      </g>
      <rect class="cls-12" x="8.16" y="46.49" width="92.66" height="6.11"/>
      <rect class="cls-12" x="8.16" y="84.59" width="92.66" height="6.11"/>
      <g>
        <g>
          <g>
            <path class="cls-3" d="m44.16,58.74h-19.07c-.82,0-1.48-.66-1.48-1.48v25.87c0,.82.66,1.48,1.48,1.48h19.07c.16,0,.29-.13.29-.29v-25.87c0,.16-.13.29-.29.29Z"/>
            <path class="cls-17" d="m44.16,58.74h-19.07c-.82,0-1.48-.66-1.48-1.48s.66-1.48,1.48-1.48h19.07c.16,0,.29.13.29.29s-.13.29-.29.29h-19.07c-.49,0-.89.4-.89.89s.4.89.89.89h19.07c.16,0,.29.13.29.29s-.13.29-.29.29Z"/>
            <path class="cls-6" d="m25.08,56.36c-.49,0-.89.4-.89.89s.4.89.89.89h19.07v-1.79h-19.07Z"/>
          </g>
          <path class="cls-1" d="m26.54,58.74h-1.46c-.82,0-1.48-.66-1.48-1.48v25.87c0,.82.66,1.48,1.48,1.48h1.46v-25.87Z"/>
          <rect class="cls-17" x="28.73" y="62.95" width="13.48" height="13.15"/>
          <rect class="cls-17" x="28.73" y="77.84" width="13.48" height="1.66"/>
        </g>
        <g>
          <g>
            <path class="cls-13" d="m37.67,66.85h-13.11c-1.19,0-2.16-.97-2.16-2.16s.97-2.16,2.16-2.16h13.11c.24,0,.43.19.43.43s-.19.43-.43.43h-13.11c-.72,0-1.3.58-1.3,1.3s.58,1.3,1.3,1.3h13.11c.24,0,.43.19.43.43s-.19.43-.43.43Z"/>
            <path class="cls-6" d="m24.55,63.39c-.72,0-1.3.58-1.3,1.3s.58,1.3,1.3,1.3h13.11v-2.61h-13.11Z"/>
            <path class="cls-14" d="m37.67,66.85h-13.11c-1.19,0-2.16-.97-2.16-2.16v17.75c0,1.19.97,2.16,2.16,2.16h13.11c.24,0,.43-.19.43-.43v-17.75c0,.24-.19.43-.43.43Z"/>
          </g>
          <path class="cls-4" d="m25.72,66.85h-1.17c-1.19,0-2.16-.97-2.16-2.16v17.75c0,1.19.97,2.16,2.16,2.16h1.17v-17.75Z"/>
          <rect class="cls-13" x="27.26" y="68.7" width="8.77" height="1.14"/>
          <rect class="cls-13" x="28.22" y="70.32" width="6.84" height="3.17"/>
        </g>
      </g>
      <g>
        <g>
          <rect class="cls-8" x="12.02" y="89.56" width="41.49" height="28.63"/>
          <path class="cls-12" d="m41.1,92.77c0,.66-.53,1.19-1.19,1.19h-14.27c-.66,0-1.19-.53-1.19-1.19h0c0-.66.53-1.19,1.19-1.19h14.27c.66,0,1.19.53,1.19,1.19h0Z"/>
        </g>
        <g>
          <rect class="cls-8" x="56.1" y="89.56" width="41.49" height="28.63"/>
          <path class="cls-12" d="m85.18,92.77c0,.66-.53,1.19-1.19,1.19h-14.27c-.66,0-1.19-.53-1.19-1.19h0c0-.66.53-1.19,1.19-1.19h14.27c.66,0,1.19.53,1.19,1.19h0Z"/>
        </g>
      </g>
      <g>
        <g>
          <rect class="cls-8" x="12.02" y="120.91" width="41.49" height="28.63"/>
          <path class="cls-12" d="m41.1,124.12c0,.66-.53,1.19-1.19,1.19h-14.27c-.66,0-1.19-.53-1.19-1.19h0c0-.66.53-1.19,1.19-1.19h14.27c.66,0,1.19.53,1.19,1.19h0Z"/>
        </g>
        <g>
          <rect class="cls-8" x="56.1" y="120.91" width="41.49" height="28.63"/>
          <path class="cls-12" d="m85.18,124.12c0,.66-.53,1.19-1.19,1.19h-14.27c-.66,0-1.19-.53-1.19-1.19h0c0-.66.53-1.19,1.19-1.19h14.27c.66,0,1.19.53,1.19,1.19h0Z"/>
        </g>
      </g>
      <g>
        <g>
          <rect class="cls-8" x="12.02" y="152.25" width="41.49" height="28.63"/>
          <path class="cls-12" d="m41.1,155.46c0,.66-.53,1.19-1.19,1.19h-14.27c-.66,0-1.19-.53-1.19-1.19h0c0-.66.53-1.19,1.19-1.19h14.27c.66,0,1.19.53,1.19,1.19h0Z"/>
        </g>
        <g>
          <rect class="cls-8" x="56.1" y="152.25" width="41.49" height="28.63"/>
          <path class="cls-12" d="m85.18,155.46c0,.66-.53,1.19-1.19,1.19h-14.27c-.66,0-1.19-.53-1.19-1.19h0c0-.66.53-1.19,1.19-1.19h14.27c.66,0,1.19.53,1.19,1.19h0Z"/>
        </g>
      </g>
    </g>
  </g>
</svg>