<?xml version="1.0" encoding="UTF-8"?>
<svg id="Layer_2" data-name="Layer 2" xmlns="http://www.w3.org/2000/svg" xmlns:xlink="http://www.w3.org/1999/xlink" viewBox="0 0 264.37 465.79">
  <defs>
    <style>
      .cls-1 {
        fill: #f98a81;
      }

      .cls-2 {
        fill: #fff;
      }

      .cls-3 {
        stroke: #3b763d;
      }

      .cls-3, .cls-4 {
        stroke-width: 4px;
      }

      .cls-3, .cls-4, .cls-5, .cls-6 {
        fill: none;
      }

      .cls-3, .cls-4, .cls-6 {
        stroke-linecap: round;
        stroke-linejoin: round;
      }

      .cls-7 {
        clip-path: url(#clippath-2);
      }

      .cls-8 {
        fill: #ffd3a1;
      }

      .cls-9 {
        fill: #283746;
      }

      .cls-10 {
        fill: #6a4922;
      }

      .cls-11 {
        fill: #1f4962;
      }

      .cls-12 {
        fill: #5d401e;
      }

      .cls-13 {
        clip-path: url(#clippath-7);
      }

      .cls-14 {
        fill: #1e2022;
      }

      .cls-15 {
        clip-path: url(#clippath-1);
      }

      .cls-16 {
        clip-path: url(#clippath-4);
      }

      .cls-4 {
        stroke: #282b2d;
      }

      .cls-17 {
        fill: #a13930;
      }

      .cls-18 {
        fill: #1c2631;
      }

      .cls-19 {
        fill: #593d1d;
      }

      .cls-20 {
        clip-path: url(#clippath-9);
      }

      .cls-21 {
        fill: #282b2d;
      }

      .cls-22 {
        clip-path: url(#clippath);
      }

      .cls-23 {
        fill: #fb8d77;
      }

      .cls-24 {
        clip-path: url(#clippath-3);
      }

      .cls-6 {
        stroke: #1a232d;
        stroke-width: 6px;
      }

      .cls-25 {
        clip-path: url(#clippath-8);
      }

      .cls-26 {
        clip-path: url(#clippath-5);
      }

      .cls-27 {
        fill: #3b763d;
      }

      .cls-28 {
        fill: #52a457;
      }

      .cls-29 {
        fill: #eebd5e;
      }

      .cls-30 {
        fill: #50371a;
      }

      .cls-31 {
        fill: #265a78;
      }
    </style>
    <clipPath id="clippath">
      <path class="cls-5" d="m94.37,237.76c-6.78,2.05-10.68,4.73-15.2,8.94-4.52,4.21-15.47,25.3-17.35,30.24-1.89,4.94-.15,30.8,1.89,38.21,2.03,7.41,4.5,15.83,7.26,16.71,2.76.87,11.91.29,11.77-.29-.15-.58,4.36-49.68,4.36-49.68l7.28-44.12Z"/>
    </clipPath>
    <clipPath id="clippath-1">
      <path class="cls-5" d="m86.69,377.38l7.22,67.88s-16.6,6.08-20.58,9.35c-3.97,3.27-4.27,8.93-.47,9.12,6.9.35,43.02,1.95,42.79-2.57-.26-5.02-.21-81.68-.21-81.68l-28.76-2.1Z"/>
    </clipPath>
    <clipPath id="clippath-2">
      <path class="cls-5" d="m157.55,379.41l12.24,65.85s16.6,6.08,20.58,9.35c3.97,3.27,4.27,8.93.47,9.12-6.9.35-43.02,1.95-42.79-2.57.26-5.02-19.26-79.64-19.26-79.64l28.76-2.1Z"/>
    </clipPath>
    <clipPath id="clippath-3">
      <path class="cls-5" d="m90.29,443.57c1.96,3.06,3.92,5.67,11.77,9.15,7.84,3.49,12.39,7.71,16.13,5.23,2.1-1.4,1.31-114.62,1.31-114.62,0,0,2.32-27.02,1.45-27.02s-42.27-1.74-42.27-1.74c0,0,4.5,58.25,4.94,65.23.44,6.97,4.59,60.5,6.68,63.77h0Z"/>
    </clipPath>
    <clipPath id="clippath-4">
      <path class="cls-5" d="m77.32,314.5s.82,12.33,1.44,16.74c.62,4.42,14.07,7.29,21.16,8.22,7.09.92,31.33,1.64,41.81.41,10.48-1.23,16.85-1.64,19.62-4.01,2.77-2.36,2.47-16.13,2.47-16.13l-86.49-5.24Z"/>
    </clipPath>
    <clipPath id="clippath-5">
      <path class="cls-5" d="m93.55,237.76c-4.11,2.47-9.04,20.54-12.53,34.52-3.49,13.97-9.86,35.95-4.93,44.79,4.93,8.83,23.42,10.27,38.62,10.68,15.2.41,42.32-2.26,48.49-5.34,6.16-3.08,7.6-1.03,7.81-10.68s0-32.67-1.44-45.2c-1.44-12.53-.62-19.11-5.14-23.01-4.52-3.9-18.28-8.42-30.82-9.25-12.53-.82-34.31,1.64-40.06,3.49h0Z"/>
    </clipPath>
    <clipPath id="clippath-7">
      <path class="cls-12" d="m217.77,223.92c.67-1,1.6-2.19,2.86-3.39.98-.93,1.94-1.64,2.79-2.19-.32-1.78-.84-4.37-1.67-7.46-.83-3.1-1.25-4.05-.7-4.98,1.24-2.1,6.4-2.42,8.79-.12,2.35,2.26.82,5.84,2.2,6.46,2.89,1.28,9.93-14.13,16.06-12.93,1.71.33,3.33,1.96,3.54,3.54.5,3.87-7.38,8.28-6.52,9.73.15.25.46.24,1.02.85.54.58.81,1.2.96,1.62,1.18-1.12,2.36-2.24,3.53-3.37.97-.99,2.42-2.34,4.37-3.69,2.24-1.55,3.39-2.32,4.71-2.2,2.46.23,4.92,3.11,4.61,5.41-.28,2.07-2.67,2.63-6.75,5.77-2.72,2.09-4.65,4.14-5.84,5.49,0,.43.09.97.48,1.32.73.66,1.94.1,3.86-.21,2.05-.33,4-.65,5.14.32,1.22,1.04,1.46,3.53.43,4.61-.75.79-1.75.38-5.89.21-4.6-.18-5.91.23-6.82.66-1.57.75-2.44,1.86-2.81,2.23-2.61,2.7-7.39,5.96-16.9,8.22l-11.48-15.92Z"/>
    </clipPath>
    <clipPath id="clippath-8">
      <path class="cls-5" d="m147.79,257.9c.62,9.45,7.4,20.75,12.94,22.19.26.07.99.26,2.38.38,8.7.78,15.55-3.46,36.7-15.64.65-.37,5.29-3.05,11.29-6.85,4.38-2.78,6.18-4.06,7.07-4.71,6.02-4.39,9.04-6.58,9.64-8.79,1.82-6.58-7.9-17.65-17.95-18-3.47-.12-6.12,1.08-9.48,2.57-7.45,3.3-12.32,8.09-14.99,11.18-10.27,1.51-20.54,3.01-30.82,4.52,0,0-6.99,4.11-6.78,13.15Z"/>
    </clipPath>
    <clipPath id="clippath-9">
      <path class="cls-5" d="m121.59,183.57c-11.81-.01-20.82-2.66-21.26,3.24-.76,10.25,8.62,17.98,20.61,18.22,11.99.24,18.52-6.67,19.89-17.6.62-4.91-9.16-2.86-19.25-3.87Z"/>
    </clipPath>
  </defs>
  <g id="Boy1">
    <g>
      <path id="path242132" class="cls-30" d="m72.64,338.03c.44,8.28,4.94,17.58,10.68,17.21,5.74-.36.65-20.19.65-20.19l-11.33,2.98Z"/>
      <path id="path241617" class="cls-31" d="m71.33,330.69s-.94,6.32.22,8.21c1.16,1.89,10.6.15,10.6.15,0,0-.36-10.1-.73-9.88-.36.22-10.1,1.53-10.1,1.53h0Z"/>
      <g class="cls-22">
        <g id="g259190">
          <path id="path241192-9" class="cls-28" d="m94.37,237.76c-6.78,2.05-10.68,4.73-15.2,8.94-4.52,4.21-15.47,25.3-17.35,30.24-1.89,4.94-.15,30.8,1.89,38.21,2.03,7.41,4.5,15.83,7.26,16.71,2.76.87,11.91.29,11.77-.29-.15-.58,4.36-49.68,4.36-49.68l7.28-44.12Z"/>
          <path id="path258666" class="cls-27" d="m87.18,257.49c-6.16.21-9.45,14.59-11.71,22.8-2.26,8.22-5.55,22.19-3.49,32.05,2.05,9.86,3.49,10.48,3.49,10.48,0,0-.41,7.81.82,11.09,5.55,2.05,7.19-13.56,7.19-13.56l.21-40.06,3.49-22.8Z"/>
        </g>
      </g>
      <path id="path247292" class="cls-21" d="m118.61,0c-.23,0-.46,0-.7.02-2.17.31-3.27,1.06-4.66,2.71-.56.69-1.07,1.37-1.5,2.16-.08.15-.16.29-.23.45-.03.05-.08.11-.06.17.01.04.08-.02.12-.03-.66.78-2.06.6-2.95.85-2.16.18-4.34.21-6.51.19-2.01.03-4.04.23-5.75,1.4-.26.23-.54.44-.78.69-.75.79-1.12,1.83-1.63,2.77-.38.84-1,1.03-1.83,1.38-1.34.5-2.75.69-4.15.97-1.12.29-2.22.67-3.28,1.14-1.1-.57-2.28-.99-3.49-1.28-2.88-.54-5.44-.65-8.24.38-2.64,1.05-4.73,2.27-6.47,4.58-1.19,1.66-2.4,3.31-3.3,5.15-.72,1.32-1.44,2.65-2.45,3.77-.98,1.01-2.02,1.96-3.21,2.72-1.04.66-2.08,1.41-3.3,1.69-1.09.18-1.8.18-2.89-.15-1.63-.4-3.28-.67-4.96-.35-.38.1-.77.17-1.14.3-1.73.64-2.94,2.07-3.39,3.84-.27,1.35-.31,2.72-.61,4.07-.01.09-.06.18-.05.27,0,.03.12-.02.1.01-.18.42-.89.52-1.2.7-1.78.78-3.52,1.63-4.79,3.17-.25.31-.52.61-.75.94-.9,1.32-1.26,2.93-1.25,4.51.15,1.04.47,2.01.7,3.03.36-.23.09.18-.07.28-1.27.82-2.72,1.4-3.75,2.55-.99,1.25-1.55,2.47-1.55,4.09,0,.1.06.2.04.3-.09.53-.43,1-.58,1.51-.52,1.04-1.23,1.98-1.9,2.93-.47.65-1.08,1.21-1.83,1.52-1.15.38-2.41.45-3.41,1.24-1.43,1.07-2.63,2.39-3.34,4.06-.34.89-.73,1.92-.77,2.88.28.23-1.5,1.01-1.69,1.07-1.27.41-2.6.62-3.85,1.09-1.74.66-3.19,1.38-4.09,3.12-.73,1.43-1.23,2.96-1.28,4.58-.05,1.58.04,3.18.51,4.7.33.85.73,1.66,1.24,2.4-.58.7-1.79,1.37-2.29,2.04-1.48,1.39-2.89,2.85-3.58,4.81-.62,1.96-1.1,3.96-1.18,6.03.02,1.77.24,3.53,1.01,5.15.04.08.39.73.72,1.32-1.07.82-2,1.78-2.31,3.17-.18,1.39-.02,2.74.45,4.07.43,1.49,1.08,2.89,1.99,4.15.79,1.08,1.73,2,2.75,2.87.1.08.14.11.17.13-.07.74-.2,1.46-.4,2.18-.31,1.29-.6,2.58-.82,3.88-.19,1.61-.28,3.27.21,4.84.6,1.8,1.36,3.63,3.01,4.71,1.26.64,2.6.98,4.02,1.02.34,0,.68,0,1.02.02.07,1.35.25,2.7.78,3.95.94,1.96,1.96,3.05,3.92,4.02,1.96.89,4,1.4,6.17,1.26,1.38-.08,2.75-.26,4.05-.71.32.24.71.43,1.21.52,1.13.08.62.11,1.54-.02.83-.24,1.62-.57,2.44-.83,1.02-.3,2.02-.64,3.04-.93.88-.22,1.76-.43,2.63-.65,1.27-.3,2.53-.61,3.81-.83,1.62-.28,3.22-.64,4.87-.65,2.67-.14,5.33-.15,8,.03,4.48.21,8.97.38,13.45.66,8.11.61,16.2,1.42,24.3,2.16,5.2.51,10.4,1.01,15.58,1.66,4.77.6,5.71.78,10.54,1.46,1.83.26,3.65.51,5.48.76,11.47,1.49,22.98,2.75,34.42,4.47,9.41,1.42,18.77,3.12,28.16,4.68,5.89.95,11.79,1.82,17.71,2.48,3.37.34,6.75.65,10.14.76,1.64,0,3.29,0,4.93-.12,1.49-.13,2.97-.35,4.44-.61,1.48-.34,2.9-.87,4.27-1.52,1.75-.78,3.46-1.65,4.99-2.82,1.58-1.14,3.07-2.39,4.49-3.73,1.5-1.42,2.78-3.03,3.74-4.87,1.11-1.92,2.35-3.77,3.33-5.78.98-2.02,1.89-4.07,2.19-6.32.36-2.14.64-4.29.68-6.47,0-2.18-.02-4.35-.19-6.52-.24-2.51-.66-5-1.38-7.42-.54-1.66-1.08-3.32-1.68-4.96-.05-.14-.1-.29-.15-.43-.03-.07-.05-.14-.08-.21-.01-.03-.06-.04-.06-.07.05-.59.36-1.15.52-1.72.83-2.06,1.77-4.07,2.45-6.18.69-2.32,1.14-4.7.49-7.09-.58-2.01-1.37-3.99-2.82-5.55-.93-1.05-1.98-1.94-3.27-2.52-.9-.47-1.82-.92-2.78-1.26-.09-.04-.17-.13-.26-.11-.05.01,0,.17-.04.15-.04-.02-.03-.08-.05-.11-.13-.79-.14-1.56-.04-2.36.12-1.63.25-3.29-.28-4.88-.83-2.25-1.93-3.84-4.04-5.08-.91-.45-1.08-.57-2.07-.89-1.03-.34-2.12-.48-3.15-.82-.06-.01-.11,0-.17-.03-.08-.03-.13-.17-.21-.14-.01,0,.2.81-.02-.06-.19-1.33.02-2.71-.24-4.04-.29-1.91-.85-3.73-1.8-5.42-.94-1.48-2.07-2.76-3.64-3.6-.09-.07-.17-.16-.28-.2-.01,0-.1.36-.12.35-.16-.06.23-.56.03-.51.31-1.24.91-2.39,1.14-3.65.29-2.28.06-3.94-1.52-5.71-1.38-1.27-2.96-2.19-4.76-2.78-.92-.37-2.03-.65-2.6-1.52-.63-1.31-1.01-2.7-1.18-4.14-.45-2.33-1.08-4.58-2.85-6.28-.88-.76-.98-.91-2.01-1.51-1.16-.68-2.48-1.08-3.72-1.6-1.56-.58-3.12-1.15-4.75-1.5.02-2.03-.19-4.07-.6-6.06-.8-3.12-1.86-6.21-4.12-8.6-2.06-2-4.28-3.86-6.69-5.43-2.36-1.42-4.8-2.72-7.36-3.75-2.2-.83-4.45-1.5-6.82-1.59-2.3.04-3.88.37-5.8,1.68-.96.65-1.85,1.45-2.92,1.92-1.3.34-2.68.48-3.89-.22-1.66-1-2.96-2.44-4.45-3.67-2.02-1.56-4.2-2.96-6.71-3.58-2.3-.51-4.61-.75-6.91-.06-1.86.65-3.51,1.6-4.65,3.27-.39.68-.44.7-.69,1.32,0,.02-.02.04-.04.07-1.14.04-2.28-.08-3.41-.26-1.1-.23-2.25-.43-3.17-1.1-1.26-.91-2.35-2.02-3.61-2.94-1.51-1.17-3.15-2.13-5-2.66C121.84.44,120.24,0,118.61,0h0Z"/>
      <g class="cls-15">
        <g id="g225768">
          <path id="path225580-4" class="cls-8" d="m86.69,377.38l7.22,67.88s-16.6,6.08-20.58,9.35c-3.97,3.27-4.27,8.93-.47,9.12,6.9.35,43.02,1.95,42.79-2.57-.26-5.02-.21-81.68-.21-81.68l-28.76-2.1Z"/>
          <path id="path225582" class="cls-29" d="m93.91,445.26s5.51,5.61,12,6.08c6.49.47,9.18-.82,10.53.82,1.35,1.64-.61,11.57-.61,11.57-14.99,3.14-30.88,2.05-46.78.93,0,0-.98-8.64-.86-9.11.12-.47,8.69-4.32,9.55-4.91.86-.58,13.83-6.9,13.83-6.9l2.33,1.52Z"/>
        </g>
      </g>
      <g class="cls-7">
        <g id="g226954">
          <path id="path226724-0" class="cls-8" d="m157.55,379.41l12.24,65.85s16.6,6.08,20.58,9.35c3.97,3.27,4.27,8.93.47,9.12-6.9.35-43.02,1.95-42.79-2.57.26-5.02-19.26-79.64-19.26-79.64l28.76-2.1Z"/>
          <path id="path226726" class="cls-29" d="m168.77,445.26s-5.51,5.61-12,6.08c-6.49.47-9.18-.82-10.53.82-1.35,1.64.61,11.57.61,11.57,14.99,3.14,30.88,2.05,46.78.93,0,0,.98-8.64.86-9.11-.12-.47-8.69-4.32-9.55-4.91-.86-.58-13.83-6.9-13.83-6.9l-2.33,1.52Z"/>
        </g>
      </g>
      <g class="cls-24">
        <g id="g233698">
          <path id="path227257-3" class="cls-9" d="m90.29,443.57c1.96,3.06,3.92,5.67,11.77,9.15,7.84,3.49,12.39,7.71,16.13,5.23,2.1-1.4,1.31-114.62,1.31-114.62,0,0,2.32-27.02,1.45-27.02s-42.27-1.74-42.27-1.74c0,0,4.5,58.25,4.94,65.23.44,6.97,4.59,60.5,6.68,63.77Z"/>
          <path id="path233210" class="cls-18" d="m97.55,344.93c.44,5.96,8.28,11.77,13.07,13.22,2.18,9.44,10.46,34.28,10.46,34.28l7.7-27.17-13.37-18.59-17.87-1.74Z"/>
        </g>
      </g>
      <path id="path232508" class="cls-9" d="m84.48,311.22s3.78,23.82,8.43,31.38c4.65,7.55,23.24,11.91,23.24,11.91,0,0,28.4,98.5,29.35,100.89.94,2.4,3.12,1.6,5.23.87,2.11-.73,16.71-6.9,19.18-8.64,2.47-1.74,2.91-2.47,2.25-5.16s-16.78-93.63-16.78-93.63c0,0,8.57-23.39,8.86-32.83-14.09-.15-79.75-4.79-79.75-4.79h0Z"/>
      <g class="cls-16">
        <g id="g267425">
          <path id="path234277-5" class="cls-31" d="m77.32,314.5s.82,12.33,1.44,16.74c.62,4.42,14.07,7.29,21.16,8.22,7.09.92,31.33,1.64,41.81.41,10.48-1.23,16.85-1.64,19.62-4.01,2.77-2.36,2.47-16.13,2.47-16.13l-86.49-5.24Z"/>
          <path id="path263408" class="cls-11" d="m75.68,325.28s18.9,5.55,42.12,5.34c23.22-.21,50.13-3.9,50.13-3.9l-1.64-12.94-90.4-1.03-.21,12.53Z"/>
        </g>
      </g>
      <g class="cls-26">
        <g id="g259809">
          <path id="path238331-8" class="cls-28" d="m93.55,237.76c-4.11,2.47-9.04,20.54-12.53,34.52-3.49,13.97-9.86,35.95-4.93,44.79,4.93,8.83,23.42,10.27,38.62,10.68,15.2.41,42.32-2.26,48.49-5.34,6.16-3.08,7.6-1.03,7.81-10.68.21-9.66,0-32.67-1.44-45.2-1.44-12.53-.62-19.11-5.14-23.01-4.52-3.9-18.28-8.42-30.82-9.25-12.53-.82-34.31,1.64-40.06,3.49h0Z"/>
          <path id="path260527" class="cls-3" d="m86.37,326.91s6.68-17.72,7.26-24.41c6.68-.73,36.9,1.16,36.9,1.16,0,0,7.84,23.68,13.66,25.71"/>
          <path id="path259564" class="cls-27" d="m159.09,278.85c1.44,4.93,5.64,10.98,5.64,10.98,0,0-1.33,24.97,7.3,25.79,5.82.55.62-41.91.62-41.91l-13.56,5.14Z"/>
        </g>
      </g>
      <path id="path245891" class="cls-31" d="m121.23,231.9c-12.49-3.49-22.81-.29-21.79,4.36,1.02,4.65,20.92,8.72,20.92,8.72,0,0,18.3-.87,22.66-3.49,4.36-2.61,6.25-9.44-2.03-10.17-8.28-.73-19.76.58-19.76.58h0Z"/>
      <path id="path245893" class="cls-30" d="m112.52,218.54c-.15.58-.73,11.48-.73,11.48,0,0,7.12,7.55,8.43,12.06,4.36-6.97,16.56-9.73,16.56-9.73l1.02-7.99-25.28-5.81Z"/>
      <path id="path192894-0-9" class="cls-10" d="m145.48,35.12c-30.9-5.12-64.45-2.52-82.48,10.05-26.23,18.27-39.89,46.46-40.59,63.83-.63,15.65,1.67,32.71,2.15,36.07-11.08-2.77-19.76,3.33-19.07,17.61.78,15.94,14.51,23.75,23.8,24.2,4.16.2,7.56-.35,10.05-1.01,4.38,9.01,9.52,17.28,15.11,21.89,16.91,13.94,45.18,19.3,63.7,20.6,18.52,1.3,50.17-4.04,64.03-12.64,8.6-5.34,14.74-12.35,19.62-20.44,2.54.83,6.39,1.67,11.31,1.47,9.29-.38,23.08-8.09,23.98-24.02.82-14.55-8.16-20.67-19.56-17.59,2.87-10.59,5.21-21.31,6.42-28.85,2.21-13.79-3.71-62.6-39.69-79.59-11.24-5.31-24.74-9.23-38.79-11.56h0Z"/>
      <path id="path273772" class="cls-30" d="m140.2,49.25c-7.15,0-14.31.63-21.39,1.69-2.4.36-4.78.82-7.17,1.24-9.83,1.97-19.64,4.25-29.11,7.69-5.58,2.02-6.44,2.59-11.68,5.1-6.93,3.59-13.59,7.79-19.81,12.61-3.01,2.31-5.77,4.92-8.22,7.88-1.7,2.22-3.24,4.58-4.48,7.11-.8,1.7-1.18,3.49-1.1,5.38.1,1.2.19,2.4.41,3.59.29,1.05.71,2.39,1.69,3,.14.5.45,1,.99,1.42h0c.92.65,1.88,1.24,2.84,1.84,1.14.78,2.45,1.14,3.76,1.48,1.41.31,2.86.38,4.29.57,1.83.15,3.66.04,5.46-.33,1.4-.29,2.68-.94,3.85-1.77.72-.55,1.43-1.1,2.13-1.68.82-.66,1.52-1.47,2.22-2.26.8-.81,1.57-1.64,2.27-2.55.58-.81,1.27-1.52,1.83-2.35.39-.58.85-1.1,1.3-1.64,0-.03.31-.34.49-.53.1-.05.34-.25.54-.42.5.02.99.17,1.52.26,1.11.16,2.22.19,3.34.21,1.44,0,2.72-.52,3.96-1.25.94-.65,1.77-1.45,2.56-2.28.6-.69,1.15-1.43,1.7-2.15.03,0,.12-.09.2-.16t.03.03c.94.61,1.84,1.28,2.75,1.94.9.68,1.8,1.37,2.65,2.11.95.9,1.95,1.72,3,2.48,1.08.82,2.39,1.1,3.65,1.45,1.21.34,2.47.22,3.69.02,1.22-.21,2.36-.72,3.49-1.24,1.28-.6,2.4-1.42,3.39-2.45.99-.96,1.74-2.14,2.46-3.34.24-.43.5-.96.81-1.37,0,0,0,0,.01,0,.15.04.3.1.45.15,2.05.68,4.18.96,6.31,1.15,2.36.25,4.71-.07,7.03-.49,2.05-.34,3.94-1.16,5.74-2.21,1.62-.95,3.1-2.1,4.42-3.46,1.25-1.35,2.07-3.03,2.95-4.64.59-1.26,1.19-2.53,1.89-3.73.13-.42.65-.5.28-.28.93.06,1.85.25,2.78.39,1.74.29,3.48.63,5.23.9,1.31.25,2.61.26,3.93.07.13.06.77-.24.87-.08.03.05-.14.03-.09.08.1.1.23.16.34.24,1.56,1.17,3.29,1.83,5.15,2.23,1.98.44,3.89.08,5.77-.6,1.47-.59,2.88-1.34,4.27-2.11.79-.34,1.51-.9,2.34-1.15-.27.16-.09.01-.04.09.02.03-.08.05-.06.07.18.13.38.23.57.35,1.1.84,2.23,1.62,3.41,2.34,1.13.76,2.34,1.35,3.57,1.9,0,0,0,.03-.01.04.02,1.02.19,2.03.31,3.04.21,1.61.74,3.09,1.47,4.52.96,1.88,2.51,3.17,4.26,4.18,1.41.72,2.93,1.06,4.45,1.39.63.19,1.79.26,2.43.59,0,0,0,0,0,0,0,.14.48.99.55,1.16.54,1.31,1.2,2.57,1.81,3.84.67,1.31,1.39,2.59,2.15,3.85.65,1.29,1.53,2.39,2.53,3.39,1.16,1.17,2.56,1.97,3.98,2.73,1.01.53,2.09.9,3.13,1.36,0,.31.14.61.19.92.2,1.47.38,2.95.64,4.41.41,1.66,1.24,3.1,2.24,4.44.94,1.21,2.18,1.99,3.5,2.63,1.13.36,2.26.93,3.45,1.05.31.03.63.01.94.02,2.75-.39,3.68-2.18,4.28-4.77.43-2.67.3-5.38.09-8.06-.42-5.37-2.26-10.41-4.3-15.29-1.77-3.71-3.7-7.35-5.94-10.77-1.29-1.97-2.28-3.3-3.65-5.2-2.78-3.64-5.68-7.21-8.99-10.34-2.4-2.28-3.4-2.95-6.01-4.97-5.23-3.74-10.79-6.99-16.6-9.6-1.16-.52-2.35-.98-3.52-1.48-6.18-2.42-12.64-4.1-19.19-4.93-1.48-.19-2.97-.29-4.46-.44-2.38-.15-4.77-.23-7.15-.23h0Z"/>
      <path id="path201814-1" class="cls-23" d="m47.78,159.74c-.02,2.78,5.34,5.07,11.97,5.13h0c6.63.06,12.02-2.14,12.04-4.92.02-2.78-5.34-5.07-11.97-5.13-6.63-.06-12.02,2.14-12.04,4.92h0Z"/>
      <path id="path52711-5-7-0" class="cls-19" d="m117.99,164.14c4.22.01,10.54-6.78,10.63-9.39.1-2.62-5.26-4.39-9.74-4.7-4.49-.31-9.97,1.35-10.23,3.72-.26,2.37,5.81,10.36,9.35,10.37Z"/>
      <path id="path250942" class="cls-21" d="m94.07,26.2l-41.55,20.92s-13.95,16.27-16.27,18.89c-2.32,2.61-15.4,23.24-15.98,25.28-.58,2.03.29,22.66.29,23.82s.87,24.99.87,24.99l3.13,4.97s-1.68-3.52,5.59-8.16c2.61-1.67,4.02-7.54,4.75-14.38.81-.39,1.6-.82,2.37-1.27,1.6-.94,2.97-2.15,4.15-3.56,1.1-1.39,1.98-2.91,2.76-4.49.87-1.87,1.36-3.87,1.68-5.9.25-2.08.3-4.17.32-6.26.63.24,1.28.46,1.93.66,1.24.32,2.54.53,3.82.44.95-.06,1.2-.15,2.11-.36,2.32-.71,3.69-1.91,5.16-3.78.93-1.43,1.84-2.86,2.95-4.15.79-.89,1.79-1.55,2.79-2.18.6-.36,1.21-.68,1.9-.82.08,0,.32-.05.4.04.03.03-.09.06-.07.09.06.08.15.13.22.2.78.69,1.48,1.49,2.42,1.97.31.16.64.25.96.38,1.6.42,3.23.36,4.76-.31.36-.16.69-.36,1.04-.54,2.22-1.3,3.47-3.53,4.58-5.76.22-.57.46-1.13.71-1.68,1.01-.11,2.03-.17,3.04-.17,1.37.02,1.87.42,2.81,1.35,1.44,1.7,2.87,3.4,4.45,4.96,1.43,1.29,3.09,2.37,4.97,2.88.39.1.78.16,1.18.24,1.36.18,2.77.2,4.11-.14.88-.22,1.23-.4,2.05-.73,1.2-.54,2.38-1.16,3.36-2.05.67-.61.94-1,1.5-1.7.92-1.22,1.76-2.51,2.82-3.61.77-.8,1.84-1.04,2.89-1.27,1.74-.34,3.52-.43,5.28-.59,2.06-.07,4-.7,5.88-1.51,1.88-.85,3.41-2.23,4.51-3.98.28-.44.51-.91.77-1.37.49-.99.92-2,1.31-3.03,1.7.05,3.41,0,5.11-.15,1.53-.14,2.27-.28,3.76-.52,2.13-.33,4.19-.99,6.29-1.46.6-.12,1.2-.23,1.8-.09.05.02.11.03.16.06.01,0-.02.03,0,.04.17.16.38.28.57.42.01,0,1.01.7,1.06.73,1.18.76,2.51,1.19,3.93,1.16.91-.02,1.48-.19,2.36-.39,2.34-.68,4.51-1.82,6.63-3,.02-.01.04-.02.06-.03,3.54,2.05,7.56,2.9,11.57,3.52.09.01.19.03.28.04.06.16.13.31.2.47.15.32.33.62.5.93.17.26.33.53.5.78.17.24.38.46.54.71.49.79.75,2.49.92,3.39.34,2.16.7,4.31,1.13,6.45.37,1.56.95,3.15,2.18,4.26.3.27.64.48.96.73,2.44,1.36,5.29,1.43,8.01,1.59.38.02.76.03,1.13.03.62.51,1.27.99,1.89,1.51,1.01.76,1.76,1.74,2.43,2.79.65,1.05,1.39,2.04,1.94,3.14.49,1.11.8,2.28,1.27,3.4.66,1.57,1.93,2.69,3.24,3.72.63.5,1.38.87,1.93,1.48.24.26.34.45.53.75.48.88.71,1.88,1.14,2.78.13.27.28.53.42.79,1.03,1.46,2.44,2.55,4.07,3.23-1.01,3.84-1.13,8.02,1.31,11.27.58,12.2-1.18,18.44,4.93,26.07,11.34-12.42,16.86-46.99,16.86-46.99l-24.12-54.62-29.64-19.47-86.58-7.84Z"/>
      <path id="path251740" class="cls-14" d="m124.26,28.26c-1.78,0-3.42.65-4.9,1.64-.35.27-.71.51-1.04.8-1.21,1.04-2.21,2.36-2.66,3.9-.93,3.25,3.67,4.56,4.6,1.31.3-.98,1.18-1.62,1.97-2.19,1.65-1,2.38-.83,4.08-.12.97.53,1.89,1.15,2.57,2.04.53.7.86,1.54,1.18,2.35-.28,1.7,1.42,3.55,3.57,2.48,1.05-.68,2.22-.91,3.44-1.04,2.25-.09,4.42.73,6.25,2.03.41.29.77.64,1.16.96.94.81,1.56,1.84,2.15,2.91,1.68,2.93,5.83.57,4.15-2.37-.94-1.62-1.85-3.03-3.31-4.26-.57-.45-1.11-.94-1.71-1.35-2.73-1.86-5.96-2.88-9.27-2.66-.85.11-1.66.24-2.44.44-.19-.43-.4-.86-.67-1.3-1.28-2.12-3.14-3.66-5.37-4.7-1.28-.46-1.82-.75-3.19-.85-.19-.01-.37-.02-.56-.02h0Zm58.96,12.92c-1.6.02-3.22.33-4.69.89-1.96.75-2.71,1.38-4.41,2.51-.55.46-1.09.91-1.64,1.37-2.58,2.18.51,5.83,3.09,3.65.41-.36.83-.71,1.24-1.07,1.07-.74,1.84-1.36,3.04-1.87,1.32-.56,2.89-.82,4.33-.69.31.03.61.13.92.19.26.11.52.2.77.33,1.52.82,2.29,2.38,2.78,3.97.45,1.85.85,3.77.49,5.68-.32,1.27.18,2.22.96,2.72.41.69,1.19,1.19,2.31,1.13,1.73-.09,3.53-.22,5.09.7.13.08.29.12.4.23.69.69.74,1.77.67,2.67-.1.55-.34,1.19-.34,1.75,0,1.66.68,2.62,2.34,3,.95.1,1.93-.02,2.83.37,1.43.8,1.97,1.8,2.45,3.35.19,1.07.23,2.14.06,3.21-.56,3.33,4.16,4.12,4.71.79.27-1.61.19-3.18-.06-4.78-.56-2.25-1.63-4.38-3.48-5.85-.35-.28-.75-.5-1.12-.75-.83-.45-1.71-.75-2.63-.91.12-1.81-.18-3.74-1.29-5.22-.37-.5-.85-.9-1.28-1.34-.48-.31-.92-.67-1.43-.93-1.73-.9-3.48-1.12-5.3-1.12.07-1.95-.3-3.9-.74-5.81-.63-2.14-1.63-4.21-3.31-5.73-1.09-.99-1.52-1.1-2.81-1.76-.6-.17-1.18-.41-1.8-.51-.71-.12-1.43-.17-2.16-.16h0Zm-92.83,3.61c-.4,0-.81.03-1.21.06-.47.05-.94.14-1.41.21-2.49.51-4.58,1.9-5.96,4.05-.26.41-.46.85-.69,1.27-.5,1.02-.79,2.09-.99,3.18-.89-.13-1.81-.14-2.71-.13-2.12.08-4.2.6-6.08,1.6-.39.21-.75.45-1.13.67-1.8,1.29-3.33,2.95-4.27,4.98-.18.4-.32.82-.48,1.22-.21.57-.32,1.17-.46,1.75-.49-.01-1.1.04-1.3.05-1.51.06-2.7.25-4.18.55-2.29.55-4.48,1.51-6.28,3.06-1.34,1.16-1.49,1.56-2.53,3.01-1.1,1.69-1.49,3.61-1.86,5.55-.62,3.32,4.08,4.2,4.7.88.23-1.28.41-2.57,1.1-3.71.23-.34.42-.71.68-1.03,1.29-1.66,3.18-2.59,5.18-3.08,1.11-.24,1.13-.28,2.25-.39.94-.09,1.87-.05,2.81-.08.39-.01.77-.05,1.16-.07.53-.26,1.12-.42,1.6-.78,1.05-.79,1.28-2.85,1.63-4.04.56-1.6,1.4-2.76,2.75-3.8,1.47-.92,3.05-1.55,4.81-1.58.78-.02,1.6-.08,2.34.18.91,2.07,4.38,1.85,4.56-1.02,0-.27,0-.08.07-.58.2-1.41.3-2.86.88-4.19.75-1.54,1.45-2.41,3.19-2.82.28-.05.56-.12.85-.15,1.67-.18,3.36.08,5,.36,1.58.4,3.15,1,4.35,2.14.64.64,1.12,1.35,1.41,2.22,1.07,3.21,5.6,1.7,4.53-1.51h0c-.42-1.13-.94-2.22-1.71-3.16-.24-.29-.51-.56-.77-.83-1.48-1.44-3.32-2.47-5.28-3.11-.43-.14-.88-.24-1.32-.36-1.71-.33-3.47-.6-5.22-.58h0Zm-25.61,19.65s-.03.09-.05.14c-.02.06-.12.23-.1.17.06-.14.1-.23.14-.31h0Zm-30.71,20.83c-.91.01-1.82.24-2.71.73-.47.25-.88.61-1.32.91-1.23,1.27-1.99,2.75-2.42,4.46-.21.84-.27,1.71-.4,2.56-.05.01-.11.05-.15.06-.83.25-1.17.44-2.03.82-2.29,1.15-4.13,2.95-5.23,5.28-.89,1.89-.95,2.8-1.36,4.84-.22,3.35-.2,1.7-.08,4.95.15,3.38,4.92,3.17,4.77-.21-.13-2.55-.13-1.27,0-3.84.11-.61.18-1.22.33-1.83.52-2.15,1.54-3.8,3.53-4.84.27-.13.54-.26.82-.38.53-.21,1.44-.45,1.91-.71,1.13-.63,1.82-1.55,2.12-2.8.28-1.58.29-3.08,1.07-4.54.3-.28.78-.8,1.24-.73.18.02.34.11.52.12,3.02,1.51,5.16-2.76,2.14-4.27h0c-.91-.38-1.83-.58-2.74-.57h0Zm179.88,8.25c-.98,0-1.97.12-2.93.33-3.25.93-1.94,5.52,1.31,4.6h0c1.35-.3,2.65-.1,3.97.22.86.3,2,.68,2.35,1.63.03.64-.31,1.29-.58,1.85-.35.68-1.36,2.22-1.23,2.97.11.64.4,1.23.6,1.85.61.31,1.19.7,1.83.93.23.08,1.14-.04,1.44-.05.59-.01,1.12.21,1.66.4,1.11.58,2.13,1.53,2.44,2.8.17.71.03,1.13-.08,1.84-.29,1.24-.87,2.35-1.5,3.45-1.64,2.95,2.53,5.28,4.18,2.32.29-.53.61-1.04.86-1.58.77-1.65.77-2.02,1.23-3.83.03-.73.15-1.47.09-2.2-.25-2.75-1.94-5.11-4.21-6.59-.47-.31-1.01-.51-1.51-.76-.37-.11-.74-.23-1.11-.33.73-1.87.97-3.54.01-5.54-.21-.31-.39-.65-.62-.94-1.18-1.5-2.96-2.35-4.74-2.87-.98-.22-1.43-.36-2.45-.45-.33-.03-.66-.05-.98-.05h0Zm-186.78.64c-.01.09-.03.18-.05.26-.03.04-.09.17-.09.12.01-.12.06-.24.11-.35,0-.01.01-.03.02-.04h0Zm194.38,11.57c-.02.06-.04.13-.07.21,0,.03,0-.06.01-.08.02-.04.04-.09.06-.13h0Z"/>
      <path id="path253816" class="cls-2" d="m98.28,145.21c0,6.75-5.61,12.22-12.53,12.22s-12.53-5.47-12.53-12.22,5.9-9.9,12.74-10.99c7.74-1.23,12.33,4.24,12.33,10.99Z"/>
      <ellipse id="path42144-8-9-9" class="cls-21" cx="86.31" cy="147.07" rx="7.2" ry="8.3" transform="translate(-14.19 9.3) rotate(-5.7)"/>
      <path id="path254304" class="cls-2" d="m140.02,149.06c0,6.75,5.61,12.22,12.53,12.22s12.53-5.47,12.53-12.22-5.9-9.9-12.74-10.99c-7.74-1.23-12.33,4.24-12.33,10.99Z"/>
      <path id="path254554" class="cls-4" d="m73.38,147.21c-.11-.65-.17-1.32-.17-2,0-6.75,5.9-9.9,12.74-10.99,4.23-.67,7.52.66,9.64,3.11"/>
      <path id="path254798" class="cls-4" d="m165.29,150.84c.11-.65.17-1.32.17-2,0-6.75-5.9-9.9-12.74-10.99-4.23-.67-7.52.66-9.64,3.11"/>
      <ellipse id="ellipse254800" class="cls-21" cx="150.96" cy="151.03" rx="7.2" ry="8.3" transform="translate(-14.26 15.75) rotate(-5.7)"/>
      <path id="path255749" class="cls-6" d="m61.52,127.7c-.79-9.17,3.79-17.87,11.57-22.07,10.31-5.57,20.65-.21,21.43.21"/>
      <path id="path255901" class="cls-6" d="m151.09,103.27c1.21-.37,11.36-3.3,20.04,3,7.54,5.48,10.85,15.67,8.07,25.4"/>
      <path id="path257007" class="cls-23" d="m165.16,166.13c-.02,2.78,5.34,5.07,11.97,5.13h0c6.63.06,12.02-2.14,12.04-4.92.02-2.78-5.34-5.07-11.97-5.13-6.63-.06-12.02,2.14-12.04,4.92h0Z"/>
      <g id="g257316">
        <path id="path257312" class="cls-30" d="m18.23,152.53c-4.01,1.35-6.94,8.12-4.5,15.25,2.44,7.14,12.96,13.48,17.1,12.57,4.14-.9.94-10.12-1.7-17.87-3.66-10.71-5.59-10.44-10.9-9.96h0Z"/>
        <path id="circle257314" class="cls-30" d="m28.84,160.46c-2.31-.29-4.41,1.34-4.7,3.65-.29,2.31,1.34,4.41,3.65,4.7,2.31.29,4.41-1.34,4.7-3.65.29-2.31-1.34-4.41-3.65-4.7Z"/>
      </g>
      <g id="g257322">
        <path id="path257318" class="cls-30" d="m225.3,161.54c4.01,1.35,6.94,8.12,4.5,15.25-2.44,7.14-12.96,13.48-17.1,12.57-4.14-.9-.94-10.12,1.7-17.87,3.66-10.71,5.59-10.44,10.9-9.96h0Z"/>
        <path id="circle257320" class="cls-30" d="m214.68,169.47c2.31-.29,4.41,1.34,4.7,3.65.29,2.31-1.34,4.41-3.65,4.7-2.31.29-4.41-1.34-4.7-3.65-.29-2.31,1.34-4.41,3.65-4.7Z"/>
      </g>
      <g>
        <path class="cls-12" d="m217.77,223.92c.67-1,1.6-2.19,2.86-3.39.98-.93,1.94-1.64,2.79-2.19-.32-1.78-.84-4.37-1.67-7.46-.83-3.1-1.25-4.05-.7-4.98,1.24-2.1,6.4-2.42,8.79-.12,2.35,2.26.82,5.84,2.2,6.46,2.89,1.28,9.93-14.13,16.06-12.93,1.71.33,3.33,1.96,3.54,3.54.5,3.87-7.38,8.28-6.52,9.73.15.25.46.24,1.02.85.54.58.81,1.2.96,1.62,1.18-1.12,2.36-2.24,3.53-3.37.97-.99,2.42-2.34,4.37-3.69,2.24-1.55,3.39-2.32,4.71-2.2,2.46.23,4.92,3.11,4.61,5.41-.28,2.07-2.67,2.63-6.75,5.77-2.72,2.09-4.65,4.14-5.84,5.49,0,.43.09.97.48,1.32.73.66,1.94.1,3.86-.21,2.05-.33,4-.65,5.14.32,1.22,1.04,1.46,3.53.43,4.61-.75.79-1.75.38-5.89.21-4.6-.18-5.91.23-6.82.66-1.57.75-2.44,1.86-2.81,2.23-2.61,2.7-7.39,5.96-16.9,8.22l-11.48-15.92Z"/>
        <g class="cls-13">
          <g id="g244174">
            <path id="path243454-3" class="cls-12" d="m217.77,223.92s5.02-6.41,7.86-7.85c-4.94-2.75-3.94-5.02.49-8.7,4.43-3.68,12.1-.34,15.08.84,2.99,1.19,4.95,5.22,4.95,5.22l3.69-3.58s-4.39-2.14-6.02-4.27c-1.63-2.13,1.79-6.01,4.68-5.56,2.88.45,9.26,6.05,10.55,9.03,1.29,2.98.85,5.58-1.46,7.92-2.31,2.34-5.84,5.49-5.84,5.49,0,0-.05,6.11-5.6,9.14-5.55,3.04-16.9,8.22-16.9,8.22l-11.48-15.92Z"/>
            <path id="path243884" class="cls-12" d="m225.63,216.07s5.8-.91,8.82.93c.98-1.84-2.06-3.53-4.15-3.87-2.09-.34-7.55-.28-8.93,2.19.97.78,4.25.75,4.25.75h0Z"/>
            <path id="path244036" class="cls-12" d="m246.15,213.44s.94,5.04.32,6.96c2.46-1.61.93-9.21.93-9.21l-1.25,2.25h0Z"/>
            <path id="path244038" class="cls-12" d="m249.84,209.86l4.03,2.26s.02-1.28-1.21-2.33c-1.23-1.05-9.31-4.53-10.18-6.49-1.91,1.02-.06,3.75-.06,3.75l7.41,2.81Z"/>
            <path id="path244497" class="cls-12" d="m253.88,212.11s-2.18.29-3.23-.43c-1.98,1.56-3.53,3.37-3.53,3.37,0,0,0-3.78-.06-3.53-.05.25,2.74-2.17,2.74-2.17,0,0,3.39,1.59,4.08,2.77h0Z"/>
          </g>
        </g>
      </g>
      <path id="path242711" class="cls-31" d="m209.03,229.25s5.73-6.23,7.86-7.85c2.13-1.63,8.35,4.11,10.75,8.02,2.4,3.92,4.25,7.22,3.82,9.82s-9.39,9.22-9.39,9.22l-13.04-19.21Z"/>
      <g class="cls-25">
        <g id="g268756">
          <path id="path242559-7" class="cls-28" d="m147.79,257.9c.62,9.45,7.4,20.75,12.94,22.19,11.02,2.86,17.04-9.04,44.17-16.85,2.94-.84,8.06-2.19,14.98-5.04,3.82-1.57,10.14-4.22,17.36-9,9.73-6.44,16.49-10.92,18.25-19.06.35-1.61,1.65-7.65-1.53-12.22-6.75-9.7-28.29-5.07-38.57-1.29-15.39,5.66-24.96,16.54-29.99,23.6l-30.82,4.52s-6.98,4.11-6.78,13.15Z"/>
          <path id="path268613" class="cls-27" d="m185.39,240.23l-.09,12.45s-2.18-1.45-2.76-6.39c-.58-4.94-.58-11.04-.58-11.04l1.89-.87,1.54,5.85"/>
        </g>
      </g>
      <g class="cls-20">
        <g id="g46425">
          <path id="path204380-1-5-6" class="cls-17" d="m121.59,183.57c-11.81-.01-20.82-2.66-21.26,3.24-.76,10.25,8.62,17.98,20.61,18.22,11.99.24,18.52-6.67,19.89-17.6.62-4.91-9.16-2.86-19.25-3.87Z"/>
          <path id="path204382-4" class="cls-2" d="m106.24,183.95c.81,4.56,3.1,6.74,10.3,6.98,7.2.24,12.94.16,15.25-.6,2.31-.75,3.16-9.72,3.16-9.72l-25.03-1.39-3.69,4.73Z"/>
          <path id="path204384-7" class="cls-1" d="m108.61,205.14c-.55-9.74,8.14-11.73,12.01-7.07,5.95-5.7,14.95,2.02,11.13,7.03-3.81,5.01-16.94,2.76-16.94,2.76l-6.2-2.72Z"/>
        </g>
      </g>
    </g>
  </g>
</svg>