<?xml version="1.0" encoding="UTF-8"?>
<svg id="Layer_2" data-name="Layer 2" xmlns="http://www.w3.org/2000/svg" viewBox="0 0 11.2 58.38">
  <defs>
    <style>
      .cls-1 {
        fill: #371c06;
      }

      .cls-2 {
        fill: #6d411c;
      }

      .cls-3 {
        fill: #8a6749;
      }

      .cls-4 {
        fill: #6d380c;
      }

      .cls-5 {
        fill: #fff;
        opacity: .2;
      }

      .cls-6 {
        fill: #726e6e;
      }
    </style>
  </defs>
  <g id="Brown_crayon" data-name="Brown crayon">
    <g>
      <polygon class="cls-2" points="6.22 0 5.6 0 4.98 0 1.47 11.68 5.6 11.68 9.74 11.68 6.22 0"/>
      <path class="cls-3" d="m5.6.94c-.22-.05-.71,1.1-1.7,4.89-1,3.79-1.69,5.22.77,5.22s3.12-.1,2.74-2.47c-.38-2.37-1.2-7.5-1.81-7.64Z"/>
    </g>
    <g>
      <path class="cls-1" d="m11.2,13.27c0,.88-.75,1.59-1.68,1.59H1.67c-.92,0-1.67-.71-1.67-1.59h0c0-.88.75-1.59,1.67-1.59h7.85c.92,0,1.68.71,1.68,1.59h0Z"/>
      <g>
        <path class="cls-1" d="m1.35,56.01h8.5c.31,0,.57.26.57.57v1.23c0,.31-.26.57-.57.57H1.35c-.31,0-.57-.26-.57-.57v-1.23c0-.31.26-.57.57-.57Z"/>
        <g>
          <rect class="cls-4" y="14.29" width="11.2" height="41.72"/>
          <rect class="cls-6" y="17.47" width="11.2" height="1.99"/>
          <rect class="cls-6" y="51.07" width="11.2" height="1.99"/>
          <path class="cls-5" d="m5.15,17.47s-3.69-2.85-3.69,15.95,3.69,19.27,3.69,19.27c0,0,3.74.52,3.74-19.55,0-16.33-3.74-15.66-3.74-15.66Z"/>
        </g>
      </g>
    </g>
  </g>
</svg>