<?xml version="1.0" encoding="UTF-8"?>
<svg id="Layer_2" data-name="Layer 2" xmlns="http://www.w3.org/2000/svg" viewBox="0 0 52.71 65.86">
  <defs>
    <style>
      .cls-1 {
        fill: #de3b2a;
      }

      .cls-2 {
        fill: #f8cf68;
      }

      .cls-3 {
        fill: #f9e284;
      }

      .cls-4 {
        fill: #f6653d;
      }

      .cls-5 {
        fill: #f9eba4;
      }
    </style>
  </defs>
  <g id="Brown_tape" data-name="Brown tape">
    <g>
      <path class="cls-2" d="m21.35,14.29s8.71.81,12.13-2.61c3.41-3.41,3.87-11.68,3.87-11.68l9.69,7.1s-.1,6.67-3.59,9.16c-4.4,3.14-12.4,1.98-12.4,1.98l-9.7-3.95Z"/>
      <g>
        <path class="cls-5" d="m24.2,13.48C10.83,13.48,0,24.31,0,37.67s10.83,24.2,24.2,24.2,24.2-10.83,24.2-24.2-10.83-24.2-24.2-24.2Zm0,38.09c-7.67,0-13.9-6.22-13.9-13.9s6.22-13.9,13.9-13.9,13.9,6.22,13.9,13.9-6.22,13.9-13.9,13.9Z"/>
        <path class="cls-5" d="m24.2,13.48C10.83,13.48,0,24.31,0,37.67s10.83,24.2,24.2,24.2,24.2-10.83,24.2-24.2-10.83-24.2-24.2-24.2Zm0,38.09c-7.67,0-13.9-6.22-13.9-13.9s6.22-13.9,13.9-13.9,13.9,6.22,13.9,13.9-6.22,13.9-13.9,13.9Z"/>
        <path class="cls-5" d="m24.2,13.48C10.83,13.48,0,24.31,0,37.67s10.83,24.2,24.2,24.2,24.2-10.83,24.2-24.2-10.83-24.2-24.2-24.2Zm0,38.09c-7.67,0-13.9-6.22-13.9-13.9s6.22-13.9,13.9-13.9,13.9,6.22,13.9,13.9-6.22,13.9-13.9,13.9Z"/>
        <path class="cls-2" d="m39.09,18.6C28.98,9.87-3.11,38.33,3.38,50.01c5.31,9.56,12.43,15.85,25.79,15.85s23.54-10,23.54-23.36-3.93-15.52-13.62-23.9Zm-9.77,38.72c-7.67,0-12.03-6.45-13.9-13.9-2.46-9.81,8.21-16.64,15.27-13.96,7.17,2.73,12.52,6.28,12.52,13.96s-6.22,13.9-13.9,13.9Z"/>
        <path class="cls-3" d="m24.2,13.48C10.83,13.48,0,24.31,0,37.67s10.83,24.2,24.2,24.2,24.2-10.83,24.2-24.2-10.83-24.2-24.2-24.2Zm0,38.09c-7.67,0-13.9-6.22-13.9-13.9s6.22-13.9,13.9-13.9,13.9,6.22,13.9,13.9-6.22,13.9-13.9,13.9Z"/>
        <path class="cls-4" d="m24.2,23.78c-7.67,0-13.9,6.22-13.9,13.9s6.22,13.9,13.9,13.9,13.9-6.22,13.9-13.9-6.22-13.9-13.9-13.9Zm0,23.83c-5.48,0-9.93-4.45-9.93-9.93s4.45-9.93,9.93-9.93,9.93,4.45,9.93,9.93-4.45,9.93-9.93,9.93Z"/>
      </g>
      <path class="cls-1" d="m24.2,50.83c-.76,0-1.53-.07-2.27-.2l.37-2.12c1.25.22,2.57.22,3.82,0l.37,2.12c-.75.13-1.52.2-2.3.2Zm-6.57-1.75c-1.33-.77-2.51-1.75-3.5-2.93l1.65-1.39c.83.99,1.82,1.81,2.93,2.45l-1.08,1.87Zm13.15-.01l-1.08-1.87c1.11-.64,2.1-1.47,2.92-2.46l1.65,1.39c-.99,1.18-2.17,2.17-3.49,2.94Zm-18.95-6.87c-.53-1.44-.8-2.95-.8-4.5h2.16c0,1.29.23,2.55.67,3.75l-2.02.74Zm24.73-.02l-2.03-.74c.44-1.2.66-2.47.66-3.76l1.78-.04h.38c0,1.59-.26,3.1-.79,4.54Zm-22.72-8.24l-2.03-.73c.52-1.44,1.29-2.78,2.28-3.96l1.66,1.38c-.83.99-1.47,2.1-1.9,3.31Zm20.67-.06c-.44-1.2-1.09-2.31-1.92-3.3l1.65-1.39c1,1.18,1.77,2.5,2.3,3.94l-2.02.75Zm-15.85-5.71l-1.09-1.86c1.33-.78,2.77-1.3,4.29-1.57l.38,2.12c-1.26.23-2.47.67-3.58,1.32Zm10.99-.03c-1.12-.64-2.32-1.08-3.59-1.29l.37-2.13c1.52.26,2.96.78,4.3,1.55l-1.07,1.87Z"/>
    </g>
  </g>
</svg>