<svg width="275" height="114" viewBox="0 0 275 114" fill="none" xmlns="http://www.w3.org/2000/svg">
<g filter="url(#filter0_d_41_185440)">
<rect x="4" width="267" height="106" rx="9" fill="#C42F2F"/>
<path d="M109.194 53.2857H114.337V58.4286H109.194V53.2857ZM109.194 48.1429H114.337V53.2857H109.194V48.1429ZM114.337 48.1429H119.48V53.2857H114.337V48.1429ZM114.337 53.2857H119.48V58.4286H114.337V53.2857ZM114.337 58.4286H119.48V63.5714H114.337V58.4286ZM109.194 58.4286H114.337V63.5714H109.194V58.4286ZM109.194 37.8571H114.337V43H109.194V37.8571ZM109.194 43H114.337V48.1429H109.194V43ZM104.051 48.1429H109.194V53.2857H104.051V48.1429ZM104.051 43H109.194V48.1429H104.051V43ZM104.051 37.8571H109.194V43H104.051V37.8571ZM93.7656 27.5714H98.9085V32.7143H93.7656V27.5714ZM98.9085 27.5714H104.051V32.7143H98.9085V27.5714ZM104.051 27.5714H109.194V32.7143H104.051V27.5714ZM104.051 32.7143H109.194V37.8571H104.051V32.7143ZM98.9085 32.7143H104.051V37.8571H98.9085V32.7143ZM93.7656 32.7143H98.9085V37.8571H93.7656V32.7143ZM93.7656 37.8571H98.9085V43H93.7656V37.8571ZM98.9085 37.8571H104.051V43H98.9085V37.8571ZM98.9085 43H104.051V48.1429H98.9085V43ZM98.9085 48.1429H104.051V53.2857H98.9085V48.1429ZM93.7656 48.1429H98.9085V53.2857H93.7656V48.1429ZM93.7656 43H98.9085V48.1429H93.7656V43ZM93.7656 53.2857H98.9085V58.4286H93.7656V53.2857ZM98.9085 53.2857H104.051V58.4286H98.9085V53.2857ZM98.9085 58.4286H104.051V63.5714H98.9085V58.4286ZM98.9085 63.5714H104.051V68.7143H98.9085V63.5714ZM98.9085 68.7143H104.051V73.8571H98.9085V68.7143ZM98.9085 73.8571H104.051V79H98.9085V73.8571ZM93.7656 73.8571H98.9085V79H93.7656V73.8571ZM93.7656 68.7143H98.9085V73.8571H93.7656V68.7143ZM93.7656 63.5714H98.9085V68.7143H93.7656V63.5714ZM93.7656 58.4286H98.9085V63.5714H93.7656V58.4286ZM114.337 63.5714H119.48V68.7143H114.337V63.5714ZM114.337 68.7143H119.48V73.8571H114.337V68.7143ZM119.48 63.5714H124.623V68.7143H119.48V63.5714ZM119.48 58.4286H124.623V63.5714H119.48V58.4286ZM119.48 68.7143H124.623V73.8571H119.48V68.7143ZM119.48 73.8571H124.623V79H119.48V73.8571ZM124.623 73.8571H129.766V79H124.623V73.8571ZM129.766 73.8571H134.908V79H129.766V73.8571ZM129.766 68.7143H134.908V73.8571H129.766V68.7143ZM129.766 63.5714H134.908V68.7143H129.766V63.5714ZM124.623 63.5714H129.766V68.7143H124.623V63.5714ZM124.623 68.7143H129.766V73.8571H124.623V68.7143ZM124.623 58.4286H129.766V63.5714H124.623V58.4286ZM129.766 53.2857H134.908V58.4286H129.766V53.2857ZM129.766 48.1429H134.908V53.2857H129.766V48.1429ZM129.766 58.4286H134.908V63.5714H129.766V58.4286ZM124.623 53.2857H129.766V58.4286H124.623V53.2857ZM124.623 48.1429H129.766V53.2857H124.623V48.1429ZM124.623 43H129.766V48.1429H124.623V43ZM129.766 43H134.908V48.1429H129.766V43ZM129.766 37.8571H134.908V43H129.766V37.8571ZM124.623 27.5714H129.766V32.7143H124.623V27.5714ZM129.766 27.5714H134.908V32.7143H129.766V27.5714ZM129.766 32.7143H134.908V37.8571H129.766V32.7143ZM124.623 32.7143H129.766V37.8571H124.623V32.7143ZM124.623 37.8571H129.766V43H124.623V37.8571ZM150.364 27.5714H155.507V32.7143H150.364V27.5714ZM145.221 27.5714H150.364V32.7143H145.221V27.5714ZM145.221 32.7143H150.364V37.8571H145.221V32.7143ZM150.364 32.7143H155.507V37.8571H150.364V32.7143ZM155.507 32.7143H160.65V37.8571H155.507V32.7143ZM155.507 27.5714H160.65V32.7143H155.507V27.5714ZM160.65 27.5714H165.792V32.7143H160.65V27.5714ZM165.792 27.5714H170.935V32.7143H165.792V27.5714ZM165.792 32.7143H170.935V37.8571H165.792V32.7143ZM160.65 32.7143H165.792V37.8571H160.65V32.7143ZM160.65 37.8571H165.792V43H160.65V37.8571ZM165.792 37.8571H170.935V43H165.792V37.8571ZM170.935 32.7143H176.078V37.8571H170.935V32.7143ZM170.935 37.8571H176.078V43H170.935V37.8571ZM170.935 43H176.078V48.1429H170.935V43ZM170.935 48.1429H176.078V53.2857H170.935V48.1429ZM170.935 53.2857H176.078V58.4286H170.935V53.2857ZM170.935 58.4286H176.078V63.5714H170.935V58.4286ZM170.935 63.5714H176.078V68.7143H170.935V63.5714ZM170.935 68.7143H176.078V73.8571H170.935V68.7143ZM165.792 68.7143H170.935V73.8571H165.792V68.7143ZM165.792 63.5714H170.935V68.7143H165.792V63.5714ZM165.792 58.4286H170.935V63.5714H165.792V58.4286ZM165.792 53.2857H170.935V58.4286H165.792V53.2857ZM165.792 48.1429H170.935V53.2857H165.792V48.1429ZM165.792 43H170.935V48.1429H165.792V43ZM160.65 63.5714H165.792V68.7143H160.65V63.5714ZM160.65 68.7143H165.792V73.8571H160.65V68.7143ZM165.792 73.8571H170.935V79H165.792V73.8571ZM160.65 73.8571H165.792V79H160.65V73.8571ZM155.507 73.8571H160.65V79H155.507V73.8571ZM155.507 68.7143H160.65V73.8571H155.507V68.7143ZM150.364 73.8571H155.507V79H150.364V73.8571ZM145.221 73.8571H150.364V79H145.221V73.8571ZM145.221 68.7143H150.364V73.8571H145.221V68.7143ZM150.364 68.7143H155.507V73.8571H150.364V68.7143ZM150.364 63.5714H155.507V68.7143H150.364V63.5714ZM145.221 63.5714H150.364V68.7143H145.221V63.5714ZM140.078 68.7143H145.221V73.8571H140.078V68.7143ZM140.078 63.5714H145.221V68.7143H140.078V63.5714ZM140.078 58.4286H145.221V63.5714H140.078V58.4286ZM140.078 53.2857H145.221V58.4286H140.078V53.2857ZM140.078 48.1429H145.221V53.2857H140.078V48.1429ZM140.078 43H145.221V48.1429H140.078V43ZM140.078 37.8571H145.221V43H140.078V37.8571ZM145.221 37.8571H150.364V43H145.221V37.8571ZM140.078 32.7143H145.221V37.8571H140.078V32.7143ZM150.364 37.8571H155.507V43H150.364V37.8571ZM145.221 43H150.364V48.1429H145.221V43ZM145.221 48.1429H150.364V53.2857H145.221V48.1429ZM145.221 53.2857H150.364V58.4286H145.221V53.2857ZM145.221 58.4286H150.364V63.5714H145.221V58.4286Z" fill="#FFF9F9"/>
</g>
<defs>
<filter id="filter0_d_41_185440" x="0" y="0" width="275" height="114" filterUnits="userSpaceOnUse" color-interpolation-filters="sRGB">
<feFlood flood-opacity="0" result="BackgroundImageFix"/>
<feColorMatrix in="SourceAlpha" type="matrix" values="0 0 0 0 0 0 0 0 0 0 0 0 0 0 0 0 0 0 127 0" result="hardAlpha"/>
<feOffset dy="4"/>
<feGaussianBlur stdDeviation="2"/>
<feComposite in2="hardAlpha" operator="out"/>
<feColorMatrix type="matrix" values="0 0 0 0 0 0 0 0 0 0 0 0 0 0 0 0 0 0 0.25 0"/>
<feBlend mode="normal" in2="BackgroundImageFix" result="effect1_dropShadow_41_185440"/>
<feBlend mode="normal" in="SourceGraphic" in2="effect1_dropShadow_41_185440" result="shape"/>
</filter>
</defs>
</svg>
