<svg width="275" height="114" viewBox="0 0 275 114" fill="none" xmlns="http://www.w3.org/2000/svg">
<g filter="url(#filter0_d_41_185444)">
<rect x="4" width="267" height="106" rx="9" fill="#45BC3A"/>
<path d="M75.7656 27.5714H80.9085V32.7143H75.7656V27.5714ZM80.9085 27.5714H86.0513V32.7143H80.9085V27.5714ZM80.9085 32.7143H86.0513V37.8571H80.9085V32.7143ZM80.9085 37.8571H86.0513V43H80.9085V37.8571ZM75.7656 37.8571H80.9085V43H75.7656V37.8571ZM75.7656 32.7143H80.9085V37.8571H75.7656V32.7143ZM75.7656 43H80.9085V48.1429H75.7656V43ZM75.7656 48.1429H80.9085V53.2857H75.7656V48.1429ZM80.9085 48.1429H86.0513V53.2857H80.9085V48.1429ZM80.9085 43H86.0513V48.1429H80.9085V43ZM80.9085 53.2857H86.0513V58.4286H80.9085V53.2857ZM86.0513 53.2857H91.1942V58.4286H86.0513V53.2857ZM86.0513 48.1429H91.1942V53.2857H86.0513V48.1429ZM86.0513 58.4286H91.1942V63.5714H86.0513V58.4286ZM91.1942 58.4286H96.3371V63.5714H91.1942V58.4286ZM91.1942 53.2857H96.3371V58.4286H91.1942V53.2857ZM96.3371 53.2857H101.48V58.4286H96.3371V53.2857ZM96.3371 58.4286H101.48V63.5714H96.3371V58.4286ZM101.48 58.4286H106.623V63.5714H101.48V58.4286ZM101.48 53.2857H106.623V58.4286H101.48V53.2857ZM101.48 48.1429H106.623V53.2857H101.48V48.1429ZM106.623 48.1429H111.766V53.2857H106.623V48.1429ZM106.623 53.2857H111.766V58.4286H106.623V53.2857ZM106.623 43H111.766V48.1429H106.623V43ZM106.623 37.8571H111.766V43H106.623V37.8571ZM106.623 32.7143H111.766V37.8571H106.623V32.7143ZM106.623 27.5714H111.766V32.7143H106.623V27.5714ZM111.766 27.5714H116.908V32.7143H111.766V27.5714ZM111.766 32.7143H116.908V37.8571H111.766V32.7143ZM111.766 37.8571H116.908V43H111.766V37.8571ZM111.766 43H116.908V48.1429H111.766V43ZM111.766 48.1429H116.908V53.2857H111.766V48.1429ZM91.1942 63.5714H96.3371V68.7143H91.1942V63.5714ZM91.1942 68.7143H96.3371V73.8571H91.1942V68.7143ZM91.1942 73.8571H96.3371V79H91.1942V73.8571ZM96.3371 73.8571H101.48V79H96.3371V73.8571ZM96.3371 68.7143H101.48V73.8571H96.3371V68.7143ZM96.3371 63.5714H101.48V68.7143H96.3371V63.5714ZM122.078 27.5714H127.221V32.7143H122.078V27.5714ZM127.221 27.5714H132.364V32.7143H127.221V27.5714ZM127.221 32.7143H132.364V37.8571H127.221V32.7143ZM127.221 37.8571H132.364V43H127.221V37.8571ZM127.221 43H132.364V48.1429H127.221V43ZM122.078 43H127.221V48.1429H122.078V43ZM122.078 37.8571H127.221V43H122.078V37.8571ZM122.078 32.7143H127.221V37.8571H122.078V32.7143ZM122.078 48.1429H127.221V53.2857H122.078V48.1429ZM122.078 53.2857H127.221V58.4286H122.078V53.2857ZM122.078 58.4286H127.221V63.5714H122.078V58.4286ZM127.221 53.2857H132.364V58.4286H127.221V53.2857ZM127.221 48.1429H132.364V53.2857H127.221V48.1429ZM127.221 58.4286H132.364V63.5714H127.221V58.4286ZM127.221 63.5714H132.364V68.7143H127.221V63.5714ZM122.078 68.7143H127.221V73.8571H122.078V68.7143ZM122.078 63.5714H127.221V68.7143H122.078V63.5714ZM122.078 73.8571H127.221V79H122.078V73.8571ZM127.221 73.8571H132.364V79H127.221V73.8571ZM127.221 68.7143H132.364V73.8571H127.221V68.7143ZM132.364 73.8571H137.507V79H132.364V73.8571ZM137.507 73.8571H142.65V79H137.507V73.8571ZM142.65 73.8571H147.792V79H142.65V73.8571ZM142.65 68.7143H147.792V73.8571H142.65V68.7143ZM137.507 68.7143H142.65V73.8571H137.507V68.7143ZM132.364 68.7143H137.507V73.8571H132.364V68.7143ZM132.364 27.5714H137.507V32.7143H132.364V27.5714ZM137.507 27.5714H142.65V32.7143H137.507V27.5714ZM142.65 27.5714H147.792V32.7143H142.65V27.5714ZM147.792 27.5714H152.935V32.7143H147.792V27.5714ZM142.65 32.7143H147.792V37.8571H142.65V32.7143ZM137.507 32.7143H142.65V37.8571H137.507V32.7143ZM132.364 32.7143H137.507V37.8571H132.364V32.7143ZM132.364 53.2857H137.507V58.4286H132.364V53.2857ZM137.507 48.1429H142.65V53.2857H137.507V48.1429ZM132.364 48.1429H137.507V53.2857H132.364V48.1429ZM137.507 53.2857H142.65V58.4286H137.507V53.2857ZM147.792 32.7143H152.935V37.8571H147.792V32.7143ZM147.792 68.7143H152.935V73.8571H147.792V68.7143ZM147.792 73.8571H152.935V79H147.792V73.8571ZM142.65 48.1429H147.792V53.2857H142.65V48.1429ZM142.65 53.2857H147.792V58.4286H142.65V53.2857ZM188.935 37.8571H194.078V43H188.935V37.8571ZM183.792 37.8571H188.935V43H183.792V37.8571ZM183.792 32.7143H188.935V37.8571H183.792V32.7143ZM188.935 32.7143H194.078V37.8571H188.935V32.7143ZM183.792 27.5714H188.935V32.7143H183.792V27.5714ZM178.65 27.5714H183.792V32.7143H178.65V27.5714ZM178.65 32.7143H183.792V37.8571H178.65V32.7143ZM173.507 32.7143H178.65V37.8571H173.507V32.7143ZM168.364 32.7143H173.507V37.8571H168.364V32.7143ZM168.364 27.5714H173.507V32.7143H168.364V27.5714ZM163.221 27.5714H168.364V32.7143H163.221V27.5714ZM173.507 27.5714H178.65V32.7143H173.507V27.5714ZM163.221 32.7143H168.364V37.8571H163.221V32.7143ZM158.078 32.7143H163.221V37.8571H158.078V32.7143ZM158.078 37.8571H163.221V43H158.078V37.8571ZM163.221 37.8571H168.364V43H163.221V37.8571ZM163.221 43H168.364V48.1429H163.221V43ZM163.221 48.1429H168.364V53.2857H163.221V48.1429ZM158.078 48.1429H163.221V53.2857H158.078V48.1429ZM158.078 43H163.221V48.1429H158.078V43ZM163.221 53.2857H168.364V58.4286H163.221V53.2857ZM168.364 53.2857H173.507V58.4286H168.364V53.2857ZM168.364 48.1429H173.507V53.2857H168.364V48.1429ZM173.507 48.1429H178.65V53.2857H173.507V48.1429ZM178.65 48.1429H183.792V53.2857H178.65V48.1429ZM183.792 48.1429H188.935V53.2857H183.792V48.1429ZM183.792 53.2857H188.935V58.4286H183.792V53.2857ZM178.65 53.2857H183.792V58.4286H178.65V53.2857ZM173.507 53.2857H178.65V58.4286H173.507V53.2857ZM188.935 53.2857H194.078V58.4286H188.935V53.2857ZM188.935 58.4286H194.078V63.5714H188.935V58.4286ZM183.792 58.4286H188.935V63.5714H183.792V58.4286ZM178.65 68.7143H183.792V73.8571H178.65V68.7143ZM183.792 68.7143H188.935V73.8571H183.792V68.7143ZM183.792 63.5714H188.935V68.7143H183.792V63.5714ZM188.935 63.5714H194.078V68.7143H188.935V63.5714ZM188.935 68.7143H194.078V73.8571H188.935V68.7143ZM183.792 73.8571H188.935V79H183.792V73.8571ZM178.65 73.8571H183.792V79H178.65V73.8571ZM173.507 73.8571H178.65V79H173.507V73.8571ZM168.364 73.8571H173.507V79H168.364V73.8571ZM163.221 73.8571H168.364V79H163.221V73.8571ZM163.221 68.7143H168.364V73.8571H163.221V68.7143ZM168.364 68.7143H173.507V73.8571H168.364V68.7143ZM173.507 68.7143H178.65V73.8571H173.507V68.7143ZM158.078 68.7143H163.221V73.8571H158.078V68.7143ZM158.078 63.5714H163.221V68.7143H158.078V63.5714ZM163.221 63.5714H168.364V68.7143H163.221V63.5714Z" fill="#FFF9F9"/>
</g>
<defs>
<filter id="filter0_d_41_185444" x="0" y="0" width="275" height="114" filterUnits="userSpaceOnUse" color-interpolation-filters="sRGB">
<feFlood flood-opacity="0" result="BackgroundImageFix"/>
<feColorMatrix in="SourceAlpha" type="matrix" values="0 0 0 0 0 0 0 0 0 0 0 0 0 0 0 0 0 0 127 0" result="hardAlpha"/>
<feOffset dy="4"/>
<feGaussianBlur stdDeviation="2"/>
<feComposite in2="hardAlpha" operator="out"/>
<feColorMatrix type="matrix" values="0 0 0 0 0 0 0 0 0 0 0 0 0 0 0 0 0 0 0.25 0"/>
<feBlend mode="normal" in2="BackgroundImageFix" result="effect1_dropShadow_41_185444"/>
<feBlend mode="normal" in="SourceGraphic" in2="effect1_dropShadow_41_185444" result="shape"/>
</filter>
</defs>
</svg>
