<?xml version="1.0" encoding="UTF-8"?>
<svg id="Layer_2" data-name="Layer 2" xmlns="http://www.w3.org/2000/svg" xmlns:xlink="http://www.w3.org/1999/xlink" viewBox="0 0 129.82 182.08">
  <defs>
    <style>
      .cls-1 {
        fill: #ffc277;
      }

      .cls-2 {
        fill: #fff;
      }

      .cls-3 {
        stroke-width: 2px;
      }

      .cls-3, .cls-4, .cls-5 {
        fill: none;
      }

      .cls-3, .cls-5 {
        stroke: #014568;
        stroke-miterlimit: 10;
      }

      .cls-6 {
        clip-path: url(#clippath-2);
      }

      .cls-7 {
        opacity: .5;
      }

      .cls-7, .cls-8 {
        fill: #afe7e8;
      }

      .cls-9 {
        font-size: 5.51px;
      }

      .cls-9, .cls-10, .cls-11 {
        fill: #014568;
        font-family: Futura-Bold, Futura;
        font-weight: 700;
      }

      .cls-12 {
        clip-path: url(#clippath-1);
      }

      .cls-10 {
        font-size: 47.49px;
      }

      .cls-11 {
        font-size: 12.72px;
      }

      .cls-13 {
        clip-path: url(#clippath);
      }

      .cls-14 {
        fill: #d7dde1;
      }

      .cls-15 {
        clip-path: url(#clippath-3);
      }

      .cls-5 {
        stroke-width: 4px;
      }

      .cls-16 {
        fill: #35b5f6;
      }

      .cls-17 {
        fill: #e87a79;
      }
    </style>
    <clipPath id="clippath">
      <rect class="cls-4" y="157.81" width="79.14" height="24.27"/>
    </clipPath>
    <clipPath id="clippath-1">
      <rect class="cls-4" x="90.2" width="39.63" height="35.12"/>
    </clipPath>
    <clipPath id="clippath-2">
      <rect class="cls-4" x="112.53" y="43.98" width="17.3" height="62.95"/>
    </clipPath>
    <clipPath id="clippath-3">
      <rect class="cls-4" width="47.91" height="50.94"/>
    </clipPath>
  </defs>
  <g id="Calendar">
    <rect class="cls-14" x="1.8" y="1.8" width="126.22" height="178.51"/>
    <g>
      <g class="cls-13">
        <g>
          <path class="cls-7" d="m3.61,189.98c-9.25-2.79-12.76-12.65-10.59-19.56.99-3.15,2.68-6.15,5.34-8.4,2.66-2.25,6.88-3.48,10.62-2.18,5.03,1.75,6.93,6.84,9.72,10.82,1.33,1.9,3.29,3.8,5.82,4.11,2.84.35,5.21-1.47,6.59-3.46,1.38-1.99,2.22-4.31,4.11-5.96,2.92-2.54,8.23-2.85,11.99-.68,2.78,1.6,4.49,4.18,6.51,6.45,2.02,2.27,4.83,4.48,8.06,4.52,3.59.05,6.67-2.61,10.21-1.79,1.83.43,3.27,1.72,4.36,3.06,2.72,3.38,3.76,8.1.92,11.01-2.37,2.43-7.12,2.93-13.82,3.76-7.78.96-49.61,1.37-59.84-1.71Z"/>
          <path class="cls-2" d="m8.23,190.27h0c-.14,0-.29,0-.43-.02-.12,0-.21-.11-.2-.22,0-.12.11-.2.22-.2.14,0,.28.01.42.02.12,0,.21.1.21.22,0,.12-.1.21-.21.21Zm1.06-.02c-.11,0-.21-.09-.21-.2,0-.12.09-.22.2-.22.14,0,.28-.01.42-.02.12,0,.22.08.22.2,0,.12-.08.22-.2.22-.14,0-.28.02-.43.02,0,0,0,0-.01,0Zm-2.54-.11s-.02,0-.03,0c-.14-.02-.28-.04-.43-.07-.12-.02-.19-.13-.17-.25.02-.12.13-.19.25-.17.14.02.27.05.41.07.12.02.2.12.18.24-.02.11-.11.18-.21.18Zm4.02,0c-.11,0-.2-.08-.21-.19-.01-.12.07-.22.19-.23.14-.01.28-.03.42-.05.12-.02.22.07.24.18.02.12-.07.22-.18.24-.14.02-.28.03-.43.05,0,0-.02,0-.02,0Zm1.47-.22c-.1,0-.19-.07-.21-.17-.02-.11.05-.23.16-.25.14-.03.27-.06.41-.09.11-.03.23.04.26.15.03.11-.04.23-.15.26-.14.03-.28.07-.42.1-.01,0-.03,0-.04,0Zm-6.94-.07s-.04,0-.05,0c-.14-.04-.28-.07-.41-.12-.11-.03-.18-.15-.14-.26.03-.11.15-.18.26-.14.13.04.27.08.4.11.11.03.18.15.15.26-.03.1-.11.16-.2.16Zm8.36-.35c-.09,0-.17-.05-.2-.14-.04-.11.01-.23.12-.27.13-.05.26-.1.38-.16.11-.05.23,0,.28.11.05.11,0,.23-.11.28-.13.06-.27.12-.4.17-.03,0-.05.01-.08.01Zm-9.77-.11s-.05,0-.08-.01c-.13-.05-.27-.1-.4-.16-.11-.05-.16-.17-.11-.28.05-.11.17-.16.28-.11.13.05.26.11.39.16.11.04.16.16.12.27-.03.08-.11.14-.2.14Zm11.09-.57c-.07,0-.14-.03-.18-.09-.07-.1-.04-.23.06-.29.11-.08.22-.16.33-.24.09-.07.23-.06.3.04.07.09.06.23-.04.3-.11.09-.23.18-.35.26-.04.02-.08.04-.12.04Zm-12.44-.04s-.07,0-.1-.02c-.13-.07-.25-.13-.38-.2-.1-.06-.14-.19-.08-.29.06-.1.19-.14.29-.08.12.07.25.13.37.2.1.05.15.18.09.29-.04.07-.11.12-.19.12Zm-1.29-.74s-.08-.01-.11-.03c-.12-.08-.24-.16-.36-.24-.1-.07-.12-.2-.06-.29.07-.1.2-.12.29-.06.12.08.23.16.35.23.1.06.13.19.06.29-.04.06-.11.1-.18.1Zm14.84-.19c-.05,0-.1-.02-.14-.06-.09-.08-.09-.21-.01-.3.09-.1.18-.2.27-.31.07-.09.21-.1.3-.03.09.07.1.21.03.3-.09.11-.19.23-.28.33-.04.05-.1.07-.16.07ZM.04,187.2s-.09-.01-.13-.04c-.11-.09-.22-.18-.34-.27-.09-.07-.1-.21-.03-.3.07-.09.21-.1.3-.03.11.09.22.18.33.26.09.07.11.21.04.3-.04.05-.1.08-.17.08Zm16.94-.52s-.08,0-.11-.03c-.1-.06-.13-.19-.07-.29.07-.12.14-.23.21-.36.06-.1.19-.14.29-.08.1.06.14.19.08.29-.07.13-.14.25-.22.37-.04.07-.11.1-.18.1Zm-18.07-.44c-.05,0-.1-.02-.14-.06-.1-.1-.21-.2-.31-.3-.08-.08-.09-.22,0-.3.08-.08.22-.09.3,0,.1.1.2.19.3.29.09.08.09.21.01.3-.04.05-.1.07-.16.07Zm18.75-.87s-.06,0-.09-.02c-.11-.05-.16-.17-.11-.28.05-.1.09-.21.13-.32l.03-.07c.04-.11.17-.16.28-.12.11.04.16.17.12.28l-.03.07c-.05.11-.09.22-.14.33-.04.08-.11.13-.19.13Zm-19.79-.18c-.06,0-.11-.02-.16-.07-.1-.11-.19-.21-.29-.32-.08-.09-.07-.22.02-.3.09-.08.22-.07.3.02.09.1.19.21.28.31.08.09.07.22-.01.3-.04.04-.09.06-.14.06Zm-.96-1.13c-.06,0-.13-.03-.17-.08-.09-.11-.18-.23-.26-.34-.07-.09-.05-.23.04-.3.09-.07.23-.05.3.04.08.11.17.22.26.33.07.09.06.23-.04.3-.04.03-.09.05-.13.05Zm21.26-.08s-.04,0-.06,0c-.11-.03-.18-.15-.15-.26.04-.13.07-.27.1-.4.03-.11.14-.19.25-.16.11.03.19.14.16.25-.03.14-.07.28-.11.42-.03.09-.11.16-.2.16Zm-22.13-1.12c-.07,0-.14-.03-.18-.09-.08-.12-.16-.24-.23-.36-.06-.1-.03-.23.06-.29.1-.06.23-.03.29.06.08.12.15.23.23.35.07.1.04.23-.06.29-.04.02-.08.04-.12.04Zm22.42-.34s-.02,0-.03,0c-.12-.02-.2-.12-.18-.24.02-.14.03-.28.05-.41.01-.12.11-.2.23-.19.12.01.2.12.19.23-.01.14-.03.29-.05.43-.01.11-.11.18-.21.18Zm-23.2-.93c-.07,0-.15-.04-.18-.11-.07-.13-.14-.25-.21-.38-.06-.1-.02-.23.09-.29.1-.06.23-.02.29.09.07.12.13.25.2.37.06.1.02.23-.08.29-.03.02-.07.03-.1.03Zm23.31-.55h0c-.12,0-.21-.1-.21-.22,0-.09,0-.19,0-.28v-.14c0-.12.09-.21.21-.21h0c.12,0,.21.09.21.21v.14c0,.1,0,.19,0,.29,0,.12-.1.21-.21.21Zm-23.99-.77c-.08,0-.16-.05-.19-.12-.06-.13-.12-.26-.18-.39-.05-.11,0-.23.11-.28.11-.05.23,0,.28.11.06.13.11.25.17.38.05.11,0,.23-.1.28-.03.01-.06.02-.09.02Zm23.95-.72c-.11,0-.2-.09-.21-.2,0-.07-.01-.15-.02-.22,0-.07-.01-.13-.02-.2-.01-.12.07-.22.19-.23.12-.01.22.07.23.19,0,.07.01.14.02.2,0,.07.01.15.02.22,0,.12-.08.22-.2.23,0,0-.01,0-.02,0Zm-24.52-.65c-.09,0-.17-.05-.2-.14-.05-.14-.1-.27-.14-.4-.04-.11.02-.23.13-.27.11-.04.23.02.27.13.04.13.09.26.14.4.04.11-.02.23-.13.27-.02,0-.05.01-.07.01Zm24.35-.82c-.1,0-.19-.07-.21-.18-.02-.14-.04-.28-.07-.41-.02-.12.06-.23.17-.25.12-.02.23.06.25.17.02.14.05.28.07.42.02.12-.06.22-.18.24-.01,0-.02,0-.03,0Zm-24.8-.59c-.09,0-.18-.06-.2-.16-.04-.14-.07-.28-.1-.42-.03-.11.04-.23.16-.25.11-.03.23.04.25.16.03.13.07.27.1.41.03.11-.04.23-.15.26-.02,0-.04,0-.05,0Zm24.52-.86c-.1,0-.18-.07-.21-.16-.03-.14-.06-.27-.1-.41-.03-.11.04-.23.15-.26.11-.03.23.04.26.15.04.14.07.28.1.42.03.11-.04.23-.16.25-.02,0-.03,0-.05,0Zm-24.83-.59c-.1,0-.19-.08-.21-.18-.02-.14-.04-.28-.05-.43-.01-.12.07-.22.19-.23.12-.01.22.07.23.19.02.14.03.28.05.41.02.12-.06.22-.18.24-.01,0-.02,0-.03,0Zm24.44-.84c-.09,0-.17-.06-.2-.15-.04-.13-.08-.27-.13-.4-.04-.11.02-.23.13-.27.11-.04.23.02.27.13.04.14.09.27.13.41.03.11-.03.23-.14.27-.02,0-.04,0-.06,0Zm-24.55-.64c-.12,0-.21-.09-.21-.21v-.12c0-.1,0-.21,0-.31,0-.12.1-.2.22-.21.12,0,.21.1.21.22,0,.1,0,.2,0,.3v.12c0,.12-.09.21-.21.21h0Zm24.07-.76c-.08,0-.17-.05-.2-.14-.05-.13-.1-.26-.16-.39-.04-.11,0-.23.12-.28.11-.04.23,0,.28.12.05.13.11.26.16.4.04.11-.01.23-.12.27-.03,0-.05.01-.08.01Zm-23.98-.72s-.02,0-.03,0c-.12-.01-.2-.12-.18-.24.02-.14.04-.28.06-.43.02-.12.13-.19.24-.18.12.02.19.13.18.24-.02.14-.04.28-.06.41-.01.11-.1.19-.21.19Zm23.4-.65c-.08,0-.16-.04-.19-.12-.06-.13-.12-.25-.18-.38-.05-.1,0-.23.1-.28.1-.05.23,0,.28.1.06.13.13.26.19.39.05.11,0,.23-.1.28-.03.01-.06.02-.09.02Zm-23.12-.81s-.04,0-.05,0c-.11-.03-.18-.15-.15-.26.04-.14.08-.28.12-.42.03-.11.15-.17.27-.14.11.03.17.15.14.27-.04.13-.08.27-.12.4-.03.1-.11.16-.2.16Zm22.44-.51c-.07,0-.15-.04-.19-.11-.07-.12-.14-.24-.21-.36-.06-.1-.03-.23.08-.29.1-.06.23-.03.29.08.07.12.14.25.21.37.06.1.02.23-.08.29-.03.02-.07.03-.1.03Zm-21.96-.89s-.06,0-.08-.02c-.11-.05-.16-.17-.11-.28.06-.13.12-.26.18-.39.05-.11.18-.15.28-.1.11.05.15.18.1.28-.06.13-.12.25-.17.38-.03.08-.11.13-.19.13Zm21.19-.38c-.07,0-.14-.03-.18-.1-.08-.12-.16-.23-.23-.35-.07-.1-.04-.23.05-.29.1-.07.23-.04.29.05.08.12.16.24.24.36.06.1.04.23-.06.29-.04.02-.08.03-.12.03Zm-20.5-.94s-.08-.01-.11-.03c-.1-.06-.13-.19-.07-.29.08-.12.15-.24.24-.36.07-.1.2-.12.29-.06.1.07.12.2.06.29-.08.12-.15.23-.23.35-.04.06-.11.1-.18.1Zm19.64-.27c-.06,0-.13-.03-.17-.08-.09-.11-.17-.22-.26-.33-.07-.09-.06-.22.03-.3.09-.07.22-.06.3.03.09.11.18.22.27.34.07.09.05.23-.04.3-.04.03-.08.04-.13.04Zm-18.77-.93s-.1-.02-.14-.05c-.09-.08-.1-.21-.03-.3.09-.11.19-.22.29-.33.04-.04.1-.07.15-.07,0-.06.02-.11.06-.16.1-.1.2-.2.31-.31.08-.08.22-.08.3,0,.08.08.08.22,0,.3-.1.1-.2.19-.29.29-.04.04-.09.06-.15.06,0,.05-.02.11-.06.15-.09.1-.19.21-.27.31-.04.05-.1.08-.16.08Zm17.82-.21c-.06,0-.12-.02-.16-.07-.09-.1-.19-.21-.28-.31-.08-.08-.08-.22,0-.3.08-.08.22-.08.3,0,.1.1.2.21.29.32.08.09.07.22-.02.3-.04.04-.09.05-.14.05Zm-1.04-1.06c-.05,0-.1-.02-.14-.06-.1-.1-.21-.19-.31-.28-.09-.08-.1-.21-.02-.3.08-.09.21-.1.3-.02.11.1.21.19.32.29.09.08.09.21,0,.3-.04.04-.1.07-.15.07Zm-15.19-.27c-.06,0-.12-.03-.17-.08-.07-.09-.06-.22.03-.3.11-.09.23-.18.34-.26.09-.07.23-.05.3.04.07.09.05.23-.04.3-.11.08-.22.17-.33.26-.04.03-.09.05-.13.05Zm14.07-.7s-.09-.01-.13-.04c-.11-.09-.22-.17-.33-.25-.09-.07-.11-.2-.04-.3.07-.09.2-.11.3-.04.12.09.23.17.34.26.09.07.11.21.04.3-.04.05-.1.08-.17.08Zm-12.86-.16c-.07,0-.14-.04-.18-.1-.06-.1-.03-.23.07-.29.12-.08.24-.15.37-.22.1-.06.23-.03.29.08.06.1.03.23-.08.29-.12.07-.24.14-.36.22-.04.02-.07.03-.11.03Zm11.65-.7s-.08-.01-.11-.03l-.1-.06c-.09-.05-.17-.11-.26-.16-.1-.06-.14-.19-.08-.29.06-.1.19-.14.29-.08.09.05.18.11.27.16l.1.06c.1.06.13.19.06.29-.04.06-.11.1-.18.1Zm-10.35-.03c-.08,0-.15-.04-.19-.12-.05-.11,0-.23.1-.28.13-.06.26-.12.39-.18.11-.05.23,0,.28.11.05.11,0,.23-.11.28-.13.06-.25.12-.38.18-.03.01-.06.02-.09.02Zm1.37-.58c-.09,0-.17-.05-.2-.14-.04-.11.02-.23.13-.27.14-.05.27-.1.41-.14.11-.04.23.03.27.14.04.11-.02.23-.14.27-.13.04-.26.09-.39.14-.02,0-.05.01-.07.01Zm7.67-.09s-.05,0-.08-.02c-.13-.05-.26-.1-.39-.15-.11-.04-.17-.16-.13-.27s.16-.17.27-.13c.14.05.27.1.41.16.11.04.16.17.12.28-.03.08-.11.13-.2.13Zm-6.25-.34c-.1,0-.18-.07-.21-.16-.03-.11.04-.23.16-.26.14-.03.28-.06.42-.09.12-.02.23.05.25.17.02.11-.05.23-.17.25-.14.03-.27.06-.41.09-.02,0-.03,0-.05,0Zm4.83-.1s-.03,0-.05,0c-.13-.03-.27-.06-.41-.08-.12-.02-.19-.13-.17-.25.02-.12.13-.19.25-.17.14.02.28.05.43.08.11.03.19.14.16.25-.02.1-.11.17-.21.17Zm-3.37-.15c-.11,0-.2-.08-.21-.19-.01-.12.07-.22.19-.23.14-.02.29-.03.43-.04.12,0,.22.08.23.2,0,.12-.08.22-.2.23-.14.01-.28.02-.41.04,0,0-.02,0-.02,0Zm1.9-.05s0,0-.01,0c-.14,0-.28-.01-.41-.02-.12,0-.21-.1-.21-.22,0-.12.1-.22.22-.21.14,0,.29,0,.43.02.12,0,.21.11.2.23,0,.11-.1.2-.21.2Z"/>
        </g>
      </g>
      <g>
        <g>
          <g>
            <line class="cls-5" x1="7.76" y1="169.74" x2="122.57" y2="169.74"/>
            <line class="cls-5" x1="7.26" y1="110.43" x2="122.06" y2="110.43"/>
            <line class="cls-3" x1="7.26" y1="122.23" x2="122.06" y2="122.23"/>
            <line class="cls-3" x1="7.26" y1="134.02" x2="122.06" y2="134.02"/>
            <line class="cls-3" x1="7.26" y1="145.82" x2="122.06" y2="145.82"/>
            <line class="cls-3" x1="7.26" y1="157.61" x2="122.06" y2="157.61"/>
            <line class="cls-3" x1="23.73" y1="110.43" x2="23.73" y2="169.74"/>
            <line class="cls-3" x1="40.11" y1="110.43" x2="40.11" y2="169.74"/>
            <line class="cls-3" x1="56.49" y1="110.43" x2="56.49" y2="169.74"/>
            <line class="cls-3" x1="72.87" y1="110.43" x2="72.87" y2="169.74"/>
            <line class="cls-3" x1="89.25" y1="110.43" x2="89.25" y2="169.74"/>
            <line class="cls-3" x1="105.63" y1="110.43" x2="105.63" y2="169.74"/>
          </g>
          <g>
            <text class="cls-9" transform="translate(46.55 118) scale(1.03 1)"><tspan x="0" y="0">1</tspan></text>
            <text class="cls-9" transform="translate(62.97 118) scale(1.03 1)"><tspan x="0" y="0">2</tspan></text>
            <text class="cls-9" transform="translate(79.38 118) scale(1.03 1)"><tspan x="0" y="0">3</tspan></text>
            <text class="cls-9" transform="translate(95.8 118) scale(1.03 1)"><tspan x="0" y="0">4</tspan></text>
            <text class="cls-9" transform="translate(112.22 118) scale(1.03 1)"><tspan x="0" y="0">5</tspan></text>
            <text class="cls-9" transform="translate(13.72 129.38) scale(1.03 1)"><tspan x="0" y="0">6</tspan></text>
            <text class="cls-9" transform="translate(30.14 129.38) scale(1.03 1)"><tspan x="0" y="0">7</tspan></text>
            <text class="cls-9" transform="translate(46.55 129.38) scale(1.03 1)"><tspan x="0" y="0">8</tspan></text>
            <text class="cls-9" transform="translate(62.97 129.38) scale(1.03 1)"><tspan x="0" y="0">9</tspan></text>
            <text class="cls-9" transform="translate(77.61 129.38) scale(1.03 1)"><tspan x="0" y="0">10</tspan></text>
            <text class="cls-9" transform="translate(94.02 129.38) scale(1.03 1)"><tspan x="0" y="0">11</tspan></text>
            <text class="cls-9" transform="translate(110.44 129.38) scale(1.03 1)"><tspan x="0" y="0">12</tspan></text>
            <text class="cls-9" transform="translate(11.94 141.42) scale(1.03 1)"><tspan x="0" y="0">13</tspan></text>
            <text class="cls-9" transform="translate(28.36 141.42) scale(1.03 1)"><tspan x="0" y="0">14</tspan></text>
            <text class="cls-9" transform="translate(44.77 141.42) scale(1.03 1)"><tspan x="0" y="0">15</tspan></text>
            <text class="cls-9" transform="translate(61.19 141.42) scale(1.03 1)"><tspan x="0" y="0">16</tspan></text>
            <text class="cls-9" transform="translate(77.61 141.42) scale(1.03 1)"><tspan x="0" y="0">17</tspan></text>
            <text class="cls-9" transform="translate(94.02 141.42) scale(1.03 1)"><tspan x="0" y="0">18</tspan></text>
            <text class="cls-9" transform="translate(110.44 141.42) scale(1.03 1)"><tspan x="0" y="0">19</tspan></text>
            <text class="cls-9" transform="translate(11.94 153.04) scale(1.03 1)"><tspan x="0" y="0">20</tspan></text>
            <text class="cls-9" transform="translate(28.36 153.04) scale(1.03 1)"><tspan x="0" y="0">21</tspan></text>
            <text class="cls-9" transform="translate(44.77 153.04) scale(1.03 1)"><tspan x="0" y="0">22</tspan></text>
            <text class="cls-9" transform="translate(61.19 153.04) scale(1.03 1)"><tspan x="0" y="0">23</tspan></text>
            <text class="cls-9" transform="translate(77.61 153.04) scale(1.03 1)"><tspan x="0" y="0">24</tspan></text>
            <text class="cls-9" transform="translate(94.02 153.04) scale(1.03 1)"><tspan x="0" y="0">26</tspan></text>
            <text class="cls-9" transform="translate(110.44 153.04) scale(1.03 1)"><tspan x="0" y="0">26</tspan></text>
            <text class="cls-9" transform="translate(11.94 164.71) scale(1.03 1)"><tspan x="0" y="0">27</tspan></text>
            <text class="cls-9" transform="translate(28.36 164.71) scale(1.03 1)"><tspan x="0" y="0">28</tspan></text>
            <text class="cls-9" transform="translate(44.77 164.71) scale(1.03 1)"><tspan x="0" y="0">29</tspan></text>
            <text class="cls-9" transform="translate(61.19 164.71) scale(1.03 1)"><tspan x="0" y="0">30</tspan></text>
            <text class="cls-9" transform="translate(77.61 164.71) scale(1.03 1)"><tspan x="0" y="0">31</tspan></text>
          </g>
          <g>
            <text class="cls-9" transform="translate(13.25 106.94) scale(1.03 1)"><tspan x="0" y="0">M</tspan></text>
            <text class="cls-9" transform="translate(30.65 106.94) scale(1.03 1)"><tspan x="0" y="0">T</tspan></text>
            <text class="cls-9" transform="translate(45.81 106.94) scale(1.03 1)"><tspan x="0" y="0">W</tspan></text>
            <text class="cls-9" transform="translate(63.34 106.94) scale(1.03 1)"><tspan x="0" y="0">T</tspan></text>
            <text class="cls-9" transform="translate(79.7 106.94) scale(1.03 1)"><tspan x="0" y="0">F</tspan></text>
            <text class="cls-9" transform="translate(95.94 106.94) scale(1.03 1)"><tspan x="0" y="0">S</tspan></text>
            <text class="cls-9" transform="translate(112.28 106.94) scale(1.03 1)"><tspan x="0" y="0">S</tspan></text>
          </g>
        </g>
        <text class="cls-11" transform="translate(49.31 96.85)"><tspan x="0" y="0">April</tspan></text>
      </g>
      <g>
        <g class="cls-12">
          <g>
            <path class="cls-16" d="m97.1-1.8c-3.4,4.94-3.14,7.91-3.49,11.69-.56,5.97,1.62,12.31,6.12,16.28,6.6,5.81,17.52,3.89,22.06,2.68,7.29-1.94,11.85-3.91,14.65-10.92,1.22-3.07.85-6.81.12-10.03-2.28-10.03-7.52-13.93-13.54-15.27-8.5-1.88-20.73-1.95-25.91,5.57Z"/>
            <path class="cls-2" d="m112.18,34.68h0c-.14,0-.28,0-.43,0-.12,0-.21-.1-.21-.22,0-.12.11-.21.22-.21.14,0,.28,0,.42,0,.12,0,.21.1.21.21,0,.12-.1.21-.21.21Zm1.06-.02c-.11,0-.21-.09-.21-.21,0-.12.09-.21.21-.22.14,0,.28,0,.42-.02.12,0,.22.09.22.2,0,.12-.09.22-.2.22-.14,0-.28.01-.43.02,0,0,0,0,0,0Zm-2.54-.02s0,0-.01,0c-.14,0-.28-.02-.43-.02-.12,0-.21-.11-.2-.23,0-.12.11-.2.23-.2.14,0,.28.02.42.02.12,0,.21.11.2.22,0,.11-.1.2-.21.2Zm4.03-.06c-.11,0-.2-.09-.21-.2,0-.12.08-.22.2-.23.14-.01.28-.02.42-.03.12,0,.22.08.23.19,0,.12-.08.22-.19.23-.14.01-.28.02-.43.03,0,0-.01,0-.02,0Zm-5.51-.06s-.01,0-.02,0c-.14-.01-.28-.03-.43-.05-.12-.01-.2-.12-.18-.24.01-.12.12-.2.24-.18.14.02.28.03.42.05.12.01.2.12.19.23-.01.11-.1.19-.21.19Zm6.99-.08c-.11,0-.2-.08-.21-.19-.01-.12.07-.22.19-.23.14-.02.28-.03.42-.05.12-.01.22.07.24.18.01.12-.07.22-.18.24-.14.02-.28.03-.42.05,0,0-.02,0-.02,0Zm-8.46-.12s-.02,0-.04,0c-.14-.02-.28-.05-.42-.07-.12-.02-.19-.13-.17-.25.02-.12.13-.19.25-.17.14.03.28.05.41.07.12.02.19.13.17.24-.02.1-.11.18-.21.18Zm9.93-.07c-.1,0-.19-.08-.21-.18-.02-.12.06-.22.18-.24.14-.02.28-.04.42-.06.11-.02.22.06.24.18.02.12-.06.22-.18.24-.14.02-.28.04-.42.07-.01,0-.02,0-.03,0Zm-11.38-.22s-.03,0-.05,0c-.14-.03-.28-.07-.42-.1-.11-.03-.18-.15-.15-.26.03-.11.14-.18.26-.15.14.04.27.07.41.1.11.03.18.14.16.26-.02.1-.11.16-.21.16Zm12.85-.02c-.1,0-.19-.07-.21-.17-.02-.12.05-.23.17-.25.14-.03.28-.05.41-.08.12-.02.23.05.25.17.02.11-.05.23-.17.25-.14.03-.28.05-.42.08-.01,0-.03,0-.04,0Zm1.45-.3c-.1,0-.18-.07-.21-.17-.03-.11.05-.23.16-.25.14-.03.28-.06.41-.09.11-.03.23.04.25.16.03.11-.04.23-.16.25-.13.03-.27.06-.42.09-.02,0-.03,0-.05,0Zm-15.73-.08s-.04,0-.06-.01c-.14-.04-.27-.09-.41-.14-.11-.04-.17-.16-.13-.27.04-.11.16-.17.27-.13.13.05.26.09.4.13.11.04.17.16.14.27-.03.09-.11.15-.2.15Zm17.18-.27c-.09,0-.18-.06-.21-.16-.03-.11.04-.23.15-.26.14-.04.27-.07.41-.11.11-.03.23.04.26.15.03.11-.04.23-.15.26-.14.04-.27.07-.41.11-.02,0-.04,0-.05,0Zm-18.57-.25s-.06,0-.08-.02c-.13-.06-.26-.11-.39-.17-.11-.05-.15-.17-.11-.28.05-.11.17-.15.28-.11.13.06.26.11.38.17.11.05.16.17.11.28-.03.08-.11.13-.2.13Zm20-.16c-.09,0-.17-.06-.2-.15-.03-.11.03-.23.14-.26.14-.04.27-.08.4-.12.11-.03.23.03.27.14.04.11-.03.23-.14.27-.13.04-.27.08-.41.13-.02,0-.04,0-.06,0Zm1.41-.46c-.09,0-.17-.05-.2-.14-.04-.11.02-.23.13-.27.13-.05.26-.1.4-.14.11-.04.23.01.27.12.04.11-.01.23-.12.27-.13.05-.27.1-.4.15-.02,0-.05.01-.07.01Zm-22.75-.02s-.07,0-.1-.03c-.13-.07-.25-.14-.38-.21-.1-.06-.14-.19-.08-.29.06-.1.19-.14.29-.08.12.07.24.14.37.2.1.06.14.18.09.29-.04.07-.11.11-.19.11Zm24.13-.52c-.08,0-.16-.05-.2-.13-.05-.11,0-.23.11-.28.13-.05.26-.11.39-.17.11-.05.23,0,.28.11.05.11,0,.23-.11.28-.13.06-.26.11-.39.17-.03.01-.05.02-.08.02Zm-25.4-.25s-.08-.01-.12-.04c-.12-.08-.24-.16-.35-.25-.09-.07-.12-.2-.05-.3.07-.09.2-.12.3-.05.11.08.23.16.34.24.1.07.12.2.06.29-.04.06-.11.09-.18.09Zm26.75-.37c-.08,0-.15-.04-.19-.12-.05-.1-.01-.23.09-.28.13-.06.25-.13.37-.19.1-.05.23-.02.29.09.05.1.02.23-.09.29-.13.07-.25.13-.38.2-.03.02-.06.02-.1.02Zm-27.93-.53s-.1-.02-.14-.05c-.11-.09-.22-.19-.32-.28-.09-.08-.09-.21-.02-.3.08-.09.21-.09.3-.02.1.09.21.18.31.28.09.08.1.21.02.3-.04.05-.1.07-.16.07Zm29.22-.19c-.07,0-.14-.04-.18-.1-.06-.1-.03-.23.07-.29.12-.07.24-.15.35-.22.1-.06.23-.03.29.06.06.1.03.23-.06.29-.12.08-.24.15-.36.23-.03.02-.07.03-.11.03Zm-30.31-.82c-.06,0-.11-.02-.15-.06-.1-.1-.2-.21-.3-.31-.08-.09-.07-.22.01-.3.09-.08.22-.08.3.01.09.1.19.2.29.3.08.08.08.22,0,.3-.04.04-.09.06-.15.06Zm31.54,0c-.07,0-.13-.03-.17-.09-.07-.09-.05-.23.04-.3.11-.08.22-.17.33-.25.09-.07.23-.06.3.04.07.09.06.23-.04.3-.11.09-.23.17-.34.26-.04.03-.08.04-.13.04Zm1.15-.94c-.06,0-.12-.02-.16-.07-.08-.09-.07-.22.02-.3.1-.09.21-.19.31-.28.09-.08.22-.08.3,0,.08.09.08.22,0,.3-.1.1-.21.19-.32.29-.04.04-.09.05-.14.05Zm-33.68-.16c-.06,0-.12-.03-.16-.08-.09-.11-.18-.22-.27-.34-.07-.09-.06-.23.04-.3.09-.07.23-.06.3.04.09.11.17.22.26.33.07.09.06.22-.03.3-.04.03-.09.05-.13.05Zm34.73-.87c-.05,0-.1-.02-.14-.06-.09-.08-.09-.21-.01-.3.09-.1.19-.21.28-.31.08-.09.21-.1.3-.02.09.08.1.21.02.3-.09.11-.19.21-.29.32-.04.05-.1.07-.16.07Zm-35.62-.31c-.07,0-.13-.03-.18-.09-.08-.12-.16-.24-.24-.36-.06-.1-.04-.23.06-.29.1-.06.23-.04.29.06.08.12.15.23.23.35.07.1.04.23-.06.29-.04.02-.08.04-.12.04Zm36.58-.82s-.09-.01-.13-.04c-.09-.07-.11-.2-.04-.3.08-.11.17-.22.25-.33.07-.09.2-.12.3-.05.09.07.12.2.05.3-.08.12-.17.23-.26.34-.04.05-.1.08-.17.08Zm-37.36-.44c-.07,0-.15-.04-.18-.11-.07-.12-.14-.25-.21-.38-.06-.1-.02-.23.09-.29.1-.06.23-.02.29.09.07.12.13.25.2.37.06.1.02.23-.08.29-.03.02-.07.03-.1.03Zm38.21-.77s-.08-.01-.11-.03c-.1-.06-.13-.19-.06-.29.08-.12.15-.23.22-.35.06-.1.19-.13.29-.07.1.06.13.19.07.29-.08.12-.15.24-.23.36-.04.06-.11.1-.18.1Zm-38.89-.55c-.08,0-.16-.05-.19-.12-.06-.13-.12-.26-.18-.39-.05-.11,0-.23.11-.28.11-.05.23,0,.28.11.06.13.11.26.17.38.05.11,0,.23-.1.28-.03.01-.06.02-.09.02Zm39.65-.73s-.07,0-.1-.03c-.1-.06-.14-.18-.08-.29.07-.12.13-.25.2-.37.05-.1.18-.14.29-.09.1.05.14.18.09.29-.07.13-.13.25-.2.38-.04.07-.11.11-.19.11Zm-40.22-.64c-.09,0-.17-.05-.2-.14-.05-.13-.1-.27-.14-.4-.04-.11.02-.23.13-.27.11-.04.23.02.27.13.05.13.09.26.14.39.04.11-.02.23-.13.27-.02,0-.05.01-.07.01Zm40.88-.68s-.06,0-.09-.02c-.11-.05-.15-.18-.1-.28.06-.13.12-.25.17-.38.05-.11.17-.15.28-.11.11.05.15.17.11.28-.06.13-.12.26-.18.39-.04.08-.11.12-.19.12Zm-41.34-.73c-.09,0-.18-.06-.2-.15-.04-.14-.08-.28-.11-.41-.03-.11.04-.23.15-.26.11-.03.23.04.26.15.03.14.07.27.11.4.03.11-.03.23-.15.26-.02,0-.04,0-.06,0Zm41.93-.63s-.05,0-.08-.01c-.11-.04-.16-.17-.12-.27.05-.13.1-.26.15-.39.04-.11.16-.17.27-.13.11.04.17.16.13.27-.05.14-.1.27-.15.4-.03.08-.11.13-.2.13Zm-42.28-.81c-.1,0-.19-.07-.21-.17-.03-.14-.05-.28-.08-.42-.02-.12.06-.23.17-.25.12-.02.23.06.25.17.02.14.05.27.08.41.02.11-.05.23-.17.25-.01,0-.03,0-.04,0Zm42.76-.59s-.04,0-.06,0c-.11-.03-.18-.15-.14-.26.04-.13.08-.27.11-.4.03-.11.15-.18.26-.15.11.03.18.15.15.26-.04.14-.08.28-.12.41-.03.09-.11.15-.2.15Zm-42.99-.87c-.11,0-.2-.08-.21-.19-.02-.14-.03-.28-.05-.43-.01-.12.07-.22.19-.23.12-.01.22.07.23.19.01.14.03.28.04.42.01.12-.07.22-.19.24,0,0-.02,0-.03,0Zm43.36-.56s-.03,0-.04,0c-.11-.02-.19-.14-.16-.25.03-.14.06-.27.08-.41.02-.11.13-.19.25-.17.12.02.19.13.17.25-.03.14-.06.28-.09.42-.02.1-.11.17-.21.17Zm-43.47-.91c-.11,0-.21-.09-.21-.2,0-.14,0-.29-.01-.43,0-.12.09-.21.21-.22.11,0,.21.09.22.21,0,.14,0,.28.01.42,0,.12-.09.22-.2.22,0,0,0,0,0,0Zm43.73-.55s-.02,0-.03,0c-.12-.02-.2-.12-.18-.24.02-.14.04-.28.05-.42.01-.12.12-.2.23-.19.12.01.2.12.19.24-.02.14-.03.28-.05.43-.01.11-.11.18-.21.18Zm-43.73-.94s0,0,0,0c-.12,0-.21-.1-.2-.22,0-.14.01-.29.02-.43,0-.12.11-.21.23-.2.12,0,.21.11.2.23,0,.14-.02.28-.02.42,0,.11-.1.2-.21.2Zm43.88-.54s0,0-.01,0c-.12,0-.21-.11-.2-.22,0-.14.02-.28.02-.42,0-.12.1-.21.22-.2.12,0,.21.1.2.22,0,.14-.01.29-.02.43,0,.11-.1.2-.21.2Zm-43.76-.94s-.02,0-.03,0c-.12-.01-.2-.12-.18-.24.02-.14.04-.28.06-.42.02-.12.13-.2.24-.18.12.02.2.13.18.24-.02.14-.04.28-.06.42-.01.11-.1.19-.21.19Zm43.79-.55c-.12,0-.21-.09-.21-.21,0-.14,0-.28-.01-.42,0-.12.09-.22.2-.22.12,0,.22.09.22.2,0,.14.01.29.01.43,0,.12-.09.21-.21.22h0Zm-43.55-.92s-.03,0-.04,0c-.11-.02-.19-.13-.17-.25.03-.14.06-.28.09-.42.02-.11.14-.19.25-.16.11.02.19.14.16.25-.03.14-.06.28-.08.41-.02.1-.11.17-.21.17Zm43.46-.56c-.11,0-.2-.08-.21-.19-.02-.14-.03-.28-.05-.41-.02-.12.06-.22.18-.24.12-.02.22.06.24.18.02.14.04.28.05.43.01.12-.07.22-.19.23,0,0-.02,0-.02,0Zm-43.13-.89s-.03,0-.05,0c-.11-.03-.18-.14-.15-.26.03-.14.07-.27.11-.41.03-.11.15-.18.26-.15.11.03.18.15.15.26-.04.14-.07.27-.11.41-.02.1-.11.16-.21.16Zm42.9-.58c-.1,0-.19-.07-.21-.17-.03-.14-.05-.28-.08-.41-.02-.11.05-.23.16-.25.11-.02.23.05.25.16.03.14.06.28.09.42.02.11-.05.23-.17.25-.01,0-.03,0-.04,0Zm-42.5-.85s-.04,0-.06,0c-.11-.03-.18-.15-.14-.26.04-.14.08-.27.13-.41.04-.11.15-.17.27-.14.11.04.17.15.14.27-.04.14-.08.27-.12.4-.03.09-.11.15-.2.15Zm42.18-.6c-.09,0-.18-.06-.21-.16-.03-.14-.07-.27-.11-.41-.03-.11.04-.23.15-.26.11-.03.23.04.26.15.04.14.07.27.11.41.03.11-.04.23-.15.26-.02,0-.03,0-.05,0Zm-41.72-.82s-.05,0-.07-.01c-.11-.04-.17-.16-.13-.27.05-.13.09-.27.14-.4.04-.11.16-.17.27-.13.11.04.17.16.13.27-.05.13-.09.27-.14.4-.03.09-.11.14-.2.14Zm41.32-.61c-.09,0-.17-.06-.2-.15-.04-.13-.08-.27-.13-.4-.04-.11.02-.23.14-.27.11-.04.23.02.27.14.04.13.09.27.13.41.03.11-.03.23-.14.27-.02,0-.04,0-.06,0Zm-40.81-.78s-.05,0-.08-.01c-.11-.04-.16-.17-.12-.27.05-.13.1-.26.16-.4.04-.11.17-.16.28-.12.11.04.16.17.12.28-.05.13-.11.26-.16.39-.03.08-.11.13-.2.13Zm40.33-.62c-.09,0-.17-.05-.2-.14-.05-.13-.1-.26-.15-.39-.04-.11.01-.23.12-.28.11-.04.23.01.28.12.05.13.1.27.15.4.04.11-.01.23-.12.27-.02,0-.05.01-.07.01Zm-39.76-.75s-.06,0-.09-.02c-.11-.05-.16-.17-.11-.28.06-.13.12-.26.17-.39.05-.11.17-.15.28-.11.11.05.15.17.11.28-.06.13-.12.26-.17.38-.03.08-.11.13-.19.13Zm39.2-.63c-.08,0-.16-.05-.19-.13-.06-.13-.12-.26-.17-.38-.05-.11,0-.23.1-.28.11-.05.23,0,.28.1.06.13.12.26.18.39.05.11,0,.23-.11.28-.03.01-.06.02-.09.02Zm-38.57-.72s-.06,0-.09-.02c-.11-.05-.15-.18-.1-.28.06-.13.13-.26.19-.38.05-.1.18-.15.29-.09.1.05.15.18.09.29-.06.13-.13.25-.19.38-.04.07-.11.12-.19.12Zm37.92-.62c-.08,0-.15-.04-.19-.11-.07-.12-.13-.25-.2-.37-.06-.1-.02-.23.08-.29.1-.06.23-.02.29.08.07.12.14.25.2.38.05.1.01.23-.09.29-.03.02-.07.02-.1.02Zm-37.24-.7s-.07,0-.1-.03c-.1-.06-.14-.19-.08-.29.07-.12.14-.25.21-.37.06-.1.19-.14.29-.08.1.06.14.19.08.29-.07.12-.14.24-.21.37-.04.07-.11.11-.19.11Zm36.51-.59c-.07,0-.14-.04-.18-.1-.07-.12-.15-.24-.22-.36-.06-.1-.03-.23.06-.29.1-.06.23-.03.29.06.08.12.15.24.23.36.06.1.03.23-.07.29-.03.02-.07.03-.11.03Zm-35.76-.69s-.08-.01-.11-.03c-.1-.06-.13-.19-.07-.29.07-.12.15-.24.23-.36.06-.1.19-.13.29-.06.1.06.13.19.06.29-.08.12-.15.24-.22.36-.04.07-.11.1-.18.1Zm34.94-.54c-.07,0-.13-.03-.17-.09-.08-.11-.16-.23-.25-.34-.07-.09-.05-.23.04-.3.09-.07.23-.05.3.04.09.11.17.23.25.35.07.1.05.23-.05.3-.04.03-.08.04-.12.04Zm-34.13-.7s-.08-.01-.12-.04c-.1-.07-.12-.2-.05-.3.08-.12.16-.23.25-.35.07-.1.2-.12.3-.05.1.07.12.2.05.3-.08.11-.16.23-.24.34-.04.06-.11.09-.17.09Zm33.22-.47c-.06,0-.12-.03-.16-.08-.09-.11-.18-.21-.27-.32-.08-.09-.07-.22.02-.3.09-.08.22-.07.3.02.09.11.19.22.28.33.08.09.06.22-.03.3-.04.03-.09.05-.14.05ZM99.76.12s-.09-.02-.13-.05c-.09-.07-.11-.21-.03-.3.09-.11.18-.22.28-.33.08-.09.21-.1.3-.02.09.08.1.21.02.3-.09.11-.18.21-.27.32-.04.05-.1.08-.17.08Zm31.5-.6c-.05,0-.11-.02-.15-.06-.1-.1-.2-.2-.3-.3-.08-.08-.09-.22,0-.3.08-.08.22-.09.3,0,.1.1.2.2.3.3.08.08.08.22,0,.3-.04.04-.09.06-.15.06Zm-30.51-.51c-.05,0-.11-.02-.15-.06-.08-.08-.08-.22,0-.3.1-.1.2-.2.31-.3.09-.08.22-.08.3,0,.08.09.08.22,0,.3-.1.1-.2.19-.3.29-.04.04-.1.06-.15.06Zm29.43-.51s-.1-.02-.14-.05c-.11-.09-.21-.18-.32-.27-.09-.07-.1-.21-.03-.3.07-.09.21-.1.3-.03.11.09.22.18.33.28.09.08.1.21.02.3-.04.05-.1.07-.16.07Zm-28.32-.48c-.06,0-.12-.03-.17-.08-.07-.09-.06-.22.03-.3.11-.09.22-.18.34-.26.09-.07.23-.05.3.04.07.09.05.23-.04.3-.11.08-.22.17-.33.26-.04.03-.09.05-.13.05Zm27.16-.44s-.09-.01-.12-.04c-.11-.08-.23-.16-.34-.24-.1-.07-.12-.2-.06-.29.07-.1.2-.12.29-.06.12.08.24.16.35.25.09.07.12.2.05.3-.04.06-.11.09-.17.09Zm-25.96-.43c-.07,0-.14-.03-.18-.1-.06-.1-.04-.23.06-.29.12-.08.24-.15.36-.23.1-.06.23-.03.29.07.06.1.03.23-.07.29-.12.07-.24.15-.35.22-.04.02-.08.03-.12.03Zm24.72-.38s-.07,0-.11-.03c-.12-.07-.24-.14-.36-.21-.1-.06-.14-.19-.08-.29.06-.1.19-.14.29-.08.12.07.25.14.37.21.1.06.13.19.08.29-.04.07-.11.1-.18.1Zm-23.44-.37c-.08,0-.15-.04-.19-.11-.05-.1-.01-.23.09-.29.13-.07.26-.13.38-.19.11-.05.23,0,.28.1.05.11,0,.23-.1.28-.13.06-.25.12-.37.19-.03.02-.06.02-.1.02Zm22.13-.32s-.06,0-.09-.02c-.13-.06-.25-.12-.38-.17-.11-.05-.16-.17-.11-.28.05-.11.17-.16.28-.11.13.06.26.11.39.18.11.05.15.18.1.28-.04.08-.11.12-.19.12Zm-20.78-.3c-.08,0-.16-.05-.2-.13-.04-.11,0-.23.12-.28.13-.05.27-.11.4-.16.11-.04.23.01.27.12.04.11-.01.23-.12.27-.13.05-.26.1-.39.15-.03.01-.05.02-.08.02Zm19.4-.26s-.05,0-.07-.01c-.13-.05-.26-.09-.4-.13-.11-.03-.17-.15-.14-.27.03-.11.15-.17.27-.14.14.04.27.09.41.13.11.04.17.16.13.27-.03.09-.11.14-.2.14Zm-18.01-.25c-.09,0-.17-.06-.2-.15-.04-.11.03-.23.14-.27.14-.04.27-.09.41-.13.11-.03.23.03.26.14.03.11-.03.23-.14.26-.13.04-.27.08-.4.12-.02,0-.04.01-.06.01Zm16.58-.15s-.03,0-.05,0c-.14-.03-.27-.06-.41-.09-.11-.02-.19-.13-.17-.25.02-.12.13-.19.25-.17.14.03.28.06.42.09.11.03.19.14.16.25-.02.1-.11.17-.21.17Zm-15.15-.25c-.1,0-.18-.07-.21-.16-.03-.11.04-.23.16-.26.14-.03.28-.07.42-.1.11-.03.23.05.25.16.03.11-.05.23-.16.25-.14.03-.27.06-.41.09-.02,0-.03,0-.05,0Zm13.7-.03s-.02,0-.04,0c-.14-.02-.28-.05-.42-.07-.12-.02-.19-.13-.17-.24.02-.12.13-.19.24-.17.14.02.28.05.42.07.12.02.19.13.17.25-.02.1-.11.18-.21.18Zm-1.47-.23s-.02,0-.03,0c-.14-.02-.28-.04-.42-.06-.12-.02-.2-.12-.18-.24.02-.12.12-.2.24-.18.14.02.28.04.42.06.12.02.2.12.18.24-.02.11-.11.18-.21.18Zm-10.78-.04c-.1,0-.19-.07-.21-.18-.02-.12.06-.23.17-.25.14-.02.28-.05.42-.07.12-.02.22.06.24.18.02.12-.06.22-.18.24-.14.02-.28.04-.42.07-.01,0-.02,0-.04,0Zm9.3-.15s-.02,0-.02,0c-.14-.02-.28-.03-.42-.04-.12-.01-.2-.12-.19-.23.01-.12.12-.2.23-.19.14.01.28.03.42.04.12.01.2.12.19.23-.01.11-.1.19-.21.19Zm-7.83-.06c-.11,0-.2-.08-.21-.19-.01-.12.07-.22.19-.23.14-.02.28-.03.43-.05.12-.01.22.07.23.19.01.12-.07.22-.19.23-.14.01-.28.03-.42.04,0,0-.02,0-.02,0Zm6.36-.08s-.01,0-.02,0c-.14-.01-.28-.02-.42-.03-.12,0-.21-.11-.2-.23,0-.12.11-.2.23-.2.14,0,.28.02.43.03.12,0,.2.11.2.23,0,.11-.1.2-.21.2Zm-4.88-.05c-.11,0-.2-.09-.21-.2,0-.12.08-.22.2-.22.14,0,.28-.02.43-.02.11,0,.22.08.22.2,0,.12-.08.22-.2.22-.14,0-.28.01-.42.02,0,0,0,0-.01,0Zm3.39-.03s0,0,0,0c-.14,0-.28-.01-.42-.01-.12,0-.21-.1-.21-.22,0-.12.1-.21.22-.21.14,0,.28,0,.43.01.12,0,.21.1.2.22,0,.11-.1.2-.21.2Zm-1.91-.02c-.12,0-.21-.09-.21-.21,0-.12.09-.21.21-.22.14,0,.28,0,.43,0h0c.12,0,.21.09.21.21,0,.12-.09.21-.21.21-.14,0-.28,0-.42,0h0Z"/>
          </g>
        </g>
        <g class="cls-6">
          <path class="cls-8" d="m134.53,106.44c-3.15,1.09-6.31-.79-8.18-3.84s-2.75-6.87-2.42-10.59c.31-3.51,1.66-7.02,1.05-10.46-.65-3.68-3.1-6.1-5.52-8.32-2.57-2.36-4.69-5.46-5.54-9.12-2.13-9.23,5.45-16.39,12.66-18.59,4.13-1.26,7.48-.34,9.78,1.64,3.37,2.9,5.03,7.77,5.66,10.47,2.54,10.9,1.93,32.35-1.78,42.9-.85,2.4-3.3,5.07-5.71,5.91Z"/>
        </g>
        <g class="cls-15">
          <g>
            <path class="cls-1" d="m32.31-11.37c7.37.85,13.19,4.42,10.81,9.19-2.38,4.78-5.6,8.28-10.58,10.79-4.7,2.37-10.19,3.42-14.08,6.9-4.15,3.72-5.29,8.73-6.21,13.53-.97,5.11-3.23,10.23-7.21,14.19-3.58,3.56-5.22,4.26-9.56,4.73-7.01.76-8.91-7.02-9.36-15.71-.32-6.21,1.17-25.9,4.12-31.37C-6.48-5.18-2.33-8.72,4.5-10.42c7.27-1.81,20.36-1.8,27.8-.95Z"/>
            <path class="cls-17" d="m20.77,6.9c-.64.67-1.12,1.48-1.54,2.31-.8,1.55-1.46,3.21-1.54,4.95-.09,1.74.47,3.58,1.78,4.73,1.92,1.69,4.84,1.5,7.28.75,2.09-.65,4.24-1.81,5.05-3.85.36-.89.42-1.88.34-2.83-.23-2.78-1.75-5.78-4.14-7.33-2.12-1.38-5.58-.42-7.22,1.29Z"/>
          </g>
        </g>
        <text class="cls-10" transform="translate(6.86 71.36)"><tspan x="0" y="0">2025</tspan></text>
      </g>
    </g>
  </g>
</svg>