<?xml version="1.0" encoding="UTF-8"?>
<svg id="Layer_2" data-name="Layer 2" xmlns="http://www.w3.org/2000/svg" xmlns:xlink="http://www.w3.org/1999/xlink" viewBox="0 0 30.09 9.25">
  <defs>
    <style>
      .cls-1 {
        fill: url(#linear-gradient-2);
      }

      .cls-2 {
        fill: url(#linear-gradient-3);
      }

      .cls-3 {
        fill: url(#linear-gradient);
      }

      .cls-4 {
        fill: url(#linear-gradient-4);
      }
    </style>
    <linearGradient id="linear-gradient" x1="22.16" y1="9.1" x2="22.16" y2="4.79" gradientUnits="userSpaceOnUse">
      <stop offset="0" stop-color="#988774"/>
      <stop offset=".06" stop-color="#afa193"/>
      <stop offset=".15" stop-color="#cbc3b9"/>
      <stop offset=".24" stop-color="#e2ddd7"/>
      <stop offset=".32" stop-color="#f2efed"/>
      <stop offset=".4" stop-color="#fbfbfa"/>
      <stop offset=".48" stop-color="#fff"/>
      <stop offset=".61" stop-color="#fff"/>
      <stop offset=".62" stop-color="#fff"/>
      <stop offset=".73" stop-color="#fdfcfb"/>
      <stop offset=".81" stop-color="#f8f5f1"/>
      <stop offset=".89" stop-color="#efe8e0"/>
      <stop offset=".97" stop-color="#e3d7c7"/>
      <stop offset="1" stop-color="#decfbc"/>
    </linearGradient>
    <linearGradient id="linear-gradient-2" x1="13.11" y1="5.83" x2="15.34" y2="8.06" gradientUnits="userSpaceOnUse">
      <stop offset="0" stop-color="#fffffe"/>
      <stop offset="1" stop-color="#decfbc"/>
    </linearGradient>
    <linearGradient id="linear-gradient-3" x1="-91.96" y1="152.44" x2="-91.96" y2="148.14" gradientTransform="translate(53.9 -166.03) rotate(-16.91)" xlink:href="#linear-gradient"/>
    <linearGradient id="linear-gradient-4" x1="-102.26" y1="149.18" x2="-100.04" y2="151.4" gradientTransform="translate(53.9 -166.03) rotate(-16.91)" xlink:href="#linear-gradient-2"/>
  </defs>
  <g id="Chalk">
    <g>
      <g>
        <path class="cls-3" d="m14.22,9.1h13.81c.52,0,2.05-1.88,2.05-2.15s-1.6-2.15-2.05-2.15h-13.81v4.31Z"/>
        <ellipse class="cls-1" cx="14.22" cy="6.95" rx=".56" ry="2.15"/>
      </g>
      <g>
        <path class="cls-2" d="m1.45,9.24s13.1-3.98,16.82-5.11c.5-.15.47-1.48.06-2.54-.12-.32-.89-1.71-1.32-1.58C11.7,1.62.2,5.12.2,5.12l1.25,4.12Z"/>
        <path class="cls-4" d="m.29,7.34c.35,1.14.87,1.99,1.16,1.9.3-.09.26-1.09-.09-2.22-.35-1.14-.87-1.99-1.16-1.9-.3.09-.26,1.09.09,2.22Z"/>
      </g>
    </g>
  </g>
</svg>