<?xml version="1.0" encoding="UTF-8"?>
<svg id="Layer_1" data-name="Layer 1" xmlns="http://www.w3.org/2000/svg" xmlns:xlink="http://www.w3.org/1999/xlink" viewBox="0 0 1920 1080">
  <defs>
    <style>
      .cls-1 {
        opacity: .37;
      }

      .cls-1, .cls-2 {
        fill: #fd8e70;
      }

      .cls-1, .cls-3, .cls-4, .cls-5, .cls-6 {
        isolation: isolate;
      }

      .cls-7 {
        fill: #726160;
      }

      .cls-8 {
        fill: #e5e7da;
      }

      .cls-9 {
        fill: #6dceee;
      }

      .cls-10 {
        fill: #d35f59;
      }

      .cls-11 {
        fill: #917e7e;
      }

      .cls-12 {
        opacity: .81;
      }

      .cls-12, .cls-13 {
        fill: #fdc18f;
      }

      .cls-14 {
        fill: #f1f2ea;
      }

      .cls-15 {
        fill: #d39bc8;
      }

      .cls-3 {
        fill: #6fccd3;
        opacity: .27;
      }

      .cls-16 {
        clip-path: url(#clippath-1);
      }

      .cls-17, .cls-5 {
        fill: #d0cdc6;
      }

      .cls-18 {
        fill: #f3896f;
      }

      .cls-19 {
        fill: #826f6a;
      }

      .cls-4 {
        fill: #b4e4f2;
        opacity: .7;
      }

      .cls-20 {
        fill: #bfb5a5;
      }

      .cls-21, .cls-6 {
        fill: #e48267;
      }

      .cls-5 {
        opacity: .4;
      }

      .cls-22 {
        clip-path: url(#clippath);
      }

      .cls-23 {
        fill: #f2d3e6;
      }

      .cls-24, .cls-25 {
        fill: none;
      }

      .cls-26 {
        fill: #bcb3ad;
      }

      .cls-27 {
        fill: #bf4b4b;
      }

      .cls-28 {
        fill: #5b4848;
      }

      .cls-29 {
        fill: #c95047;
      }

      .cls-6 {
        opacity: .39;
      }

      .cls-30 {
        fill: #f8966f;
      }

      .cls-31 {
        fill: #fab3a1;
      }

      .cls-25 {
        stroke: #fab3a1;
        stroke-miterlimit: 10;
      }

      .cls-32 {
        fill: #e5b1ce;
      }

      .cls-33 {
        fill: #aa9993;
      }
    </style>
    <clipPath id="clippath">
      <polygon class="cls-24" points="1763.01 93.14 1505.51 211.81 412.58 211.81 145.4 91.39 145.4 2.75 1763.01 2.75 1763.01 93.14"/>
    </clipPath>
    <clipPath id="clippath-1">
      <rect class="cls-24" y="2.75" width="1920" height="1079.85"/>
    </clipPath>
  </defs>
  <g id="class">
    <g>
      <polygon class="cls-12" points="414.21 682.18 1501.7 682.18 1763.01 800.81 1763.01 1082.6 143.23 1082.6 143.23 800.81 414.21 682.18"/>
      <g>
        <polygon class="cls-13" points="562.63 709.26 448.8 709.26 500.1 682.18 602.28 682.18 562.63 709.26"/>
        <polygon class="cls-13" points="448.8 709.26 367.12 752.37 253.87 752.37 143.23 800.81 253.87 752.37 352.36 709.26 414.21 682.18 414.21 682.18 352.36 709.26 448.8 709.26"/>
        <polygon class="cls-13" points="143.23 822 235.19 822 143.23 870.55 143.23 822"/>
        <polygon class="cls-13" points="499.5 752.37 397.51 822 235.19 822 367.12 752.37 499.5 752.37"/>
        <path class="cls-13" d="m562.63,709.26l-63.14,43.12h125.82l45.51-43.12h-108.2.01Zm62.68,43.12l-73.51,69.63h118.01l52.55-69.63h-97.05Zm-62.68-43.12l-63.14,43.12h125.82l45.51-43.12h-108.2.01Zm62.68,43.12l-73.51,69.63h118.01l52.55-69.63h-97.05Zm74.1-70.19l-28.58,27.08h84.08l20.43-27.08h-75.93Zm55.5,27.08l-32.55,43.12h118.57l15.44-43.12h-101.47,0Zm-192.28,0l-63.14,43.12h125.82l45.51-43.12h-108.2.01Zm62.68,43.12l-73.51,69.63h118.01l52.55-69.63h-97.05Zm129.6-43.12l-32.55,43.12h118.57l15.44-43.12h-101.47.01Zm-192.28,0l-63.14,43.12h125.82l45.51-43.12h-108.2.01Zm62.68,43.12l-73.51,69.63h118.01l52.55-69.63h-97.05Zm129.6-43.12l-32.55,43.12h118.57l15.44-43.12h-101.47.01Zm-192.28,0l-63.14,43.12h125.82l45.51-43.12h-108.2.01Zm62.68,43.12l-73.51,69.63h118.01l52.55-69.63h-97.05Zm129.6-43.12l-32.55,43.12h118.57l15.44-43.12h-101.47.01Zm419.4,43.12h-118.57l24.91,69.63h146.21l-52.55-69.63Zm-611.68-43.12l-63.14,43.12h125.82l45.51-43.12h-108.2.01Zm62.68,43.12l-73.51,69.63h118.01l52.55-69.63h-97.05Zm129.6-43.12l-32.55,43.12h118.57l15.44-43.12h-101.47.01Zm419.4,43.12h-118.57l24.91,69.63h146.21l-52.55-69.63Zm51.53-43.12h-84.08l32.55,43.12h97.05l-45.51-43.12h-.01Zm68.55-27.08h-97.13l28.58,27.08h108.2l-39.65-27.08h0Zm-731.77,27.08l-63.14,43.12h125.82l45.51-43.12h-108.2.01Zm62.68,43.12l-73.51,69.63h118.01l52.55-69.63h-97.05Zm129.6-43.12l-32.55,43.12h118.57l15.44-43.12h-101.47.01Zm419.4,43.12h-118.57l24.91,69.63h146.21l-52.55-69.63Zm51.53-43.12h-84.08l32.55,43.12h97.05l-45.51-43.12h-.01Zm222.03,0h-113.83l63.14,43.12h132.38l-81.69-43.12h0Zm-885.25,0l-63.14,43.12h125.82l45.51-43.12h-108.2.01Zm62.68,43.12l-73.51,69.63h118.01l52.55-69.63h-97.05Zm129.6-43.12l-32.55,43.12h118.57l15.44-43.12h-101.47.01Zm419.4,43.12h-118.57l24.91,69.63h146.21l-52.55-69.63Zm51.53-43.12h-84.08l32.55,43.12h97.05l-45.51-43.12h-.01Zm171.34,43.12h-125.82l73.51,69.63h154.3l-101.99-69.63h0Zm50.69-43.12h-113.83l63.14,43.12h132.38l-81.69-43.12h0Zm-885.25,0l-63.14,43.12h125.82l45.51-43.12h-108.2.01Zm62.68,43.12l-73.51,69.63h118.01l52.55-69.63h-97.05Zm129.6-43.12l-32.55,43.12h118.57l15.44-43.12h-101.47.01Zm-85.1,112.75l-77.01,102.03c60.01-.24,122.76-.48,186.91-.69l36.3-101.34h-146.21.01Zm85.1-112.75l-32.55,43.12h118.57l15.44-43.12h-101.47.01Zm419.4,43.12h-118.57l24.91,69.63h146.21l-52.55-69.63Zm222.87,0h-125.82l73.51,69.63h154.3l-101.99-69.63h0Zm50.69-43.12h-113.83l63.14,43.12h132.38l-81.69-43.12h0Zm-822.56,43.12l-73.51,69.63h118.01l52.55-69.63h-97.05Zm44.5,69.63l-77.01,102.03c60.01-.24,122.76-.48,186.91-.69l36.3-101.34h-146.21.01Zm85.1-112.75l-32.55,43.12h118.57l15.44-43.12h-101.47,0Zm419.4,43.12h-118.57l24.91,69.63h146.21l-52.55-69.63Zm51.53-43.12h-84.08l32.55,43.12h97.05l-45.51-43.12h-.01Zm68.55-27.08h-97.13l28.58,27.08h108.2l-39.65-27.08h0Zm102.78,70.19h-125.82l73.51,69.63h154.3l-101.99-69.63h0Zm50.69-43.12h-113.83l63.14,43.12h132.38l-81.69-43.12h0Zm311.33,89.82l-102.89-46.71-94.98-43.12-59.64-27.08h-105.11l51.3,27.08,112.34-.51,84.95,38.56,9.31,4.23-124.91.84,131.93,69.63h101.51v-21.19l-3.8-1.73h-.01Zm-425.16-89.82l63.14,43.12h132.38l-81.69-43.12h-113.83Zm10.83,112.75h154.3l-101.99-69.63h-125.82l73.51,69.63h0Zm-147.61-139.82l28.58,27.08h108.2l-39.65-27.08h-97.13,0Zm387.39,366.94h-186.39l-95.84-127.01c51.1-.06,100.67-.09,148.06-.09l-105.61-100.02h-118.01l75.54,100.1c-60.27.04-122.61.15-185.79.3l45.36,126.71h-211.67v-126.29c55.54-.17,111.24-.3,166.31-.41l-35.96-100.41h-130.35v-69.63h105.44l-15.44-43.12h-89.99v-27.08h-84.23l-9.69,27.08h91.37l-.15,43.12h-106.67l-24.91,69.63h131.32l-.39,100.82c-56.21.15-112.23.32-167.24.52l-45.02,125.78h-236.29l94.39-125.08c-52.16.19-102.22.41-149.38.61l-131.41,124.48h-168.79v33.48h1619.77v-80.45l-116.91-79.82c-58.54-.2-124.57-.28-195.6-.3l134.17,127.1v-.02Zm178.35-173.54l-101.51-53.57h-162.32l146.92,100.32c43.44.15,82.75.35,116.91.61v-47.36h0Zm-537.16-166.32h-84.08l32.55,43.12h97.05l-45.51-43.12h-.01Zm1.01,112.75l-52.55-69.63h-118.57l24.91,69.63h146.21Zm-370.48-112.75h-101.47l-32.55,43.12h118.57l15.44-43.12h0Zm-40.36,112.75h-146.21l-77.01,102.03c60.01-.24,122.76-.48,186.91-.69l36.3-101.34h.01Zm-190.71-69.63l-73.51,69.63h118.01l52.55-69.63h-97.05Zm822.56-43.12h-113.83l63.14,43.12h132.38l-81.69-43.12Zm-50.69,43.12h-125.82l73.51,69.63h154.3l-101.99-69.63h0Zm-102.78-70.19h-97.13l28.58,27.08h108.2l-39.65-27.08h0Zm-68.55,27.08h-84.08l32.55,43.12h97.05l-45.51-43.12h-.01Zm-51.53,43.12h-118.57l24.91,69.63h146.21l-52.55-69.63Zm-419.4-43.12l-32.55,43.12h118.57l15.44-43.12h-101.47.01Zm-85.1,112.75l-77.01,102.03c60.01-.24,122.76-.48,186.91-.69l36.3-101.34h-146.21.01Zm-44.5-69.63l-73.51,69.63h118.01l52.55-69.63h-97.05Zm-227.81,69.63l-151.62,103.52c56.3-.26,123.28-.58,197.55-.89l108.37-102.64h-154.3Zm-254.28,104.02v69.61l102.66-70.11c-40.04.19-74.66.37-102.66.5Zm1304.65-216.77h-113.83l63.14,43.12h132.38l-81.69-43.12Zm-50.69,43.12h-125.82l73.51,69.63h154.3l-101.99-69.63h0Zm-222.87,0h-118.57l24.91,69.63h146.21l-52.55-69.63Zm-419.4-43.12l-32.55,43.12h118.57l15.44-43.12h-101.47.01Zm-129.6,43.12l-73.51,69.63h118.01l52.55-69.63h-97.05Zm-62.68-43.12l-63.14,43.12h125.82l45.51-43.12h-108.2.01Zm885.25,0h-113.83l63.14,43.12h132.38l-81.69-43.12Zm-50.69,43.12h-125.82l73.51,69.63h154.3l-101.99-69.63h0Zm-171.34-43.12h-84.08l32.55,43.12h97.05l-45.51-43.12h-.01Zm-51.53,43.12h-118.57l24.91,69.63h146.21l-52.55-69.63Zm-419.4-43.12l-32.55,43.12h118.57l15.44-43.12h-101.47.01Zm-129.6,43.12l-73.51,69.63h118.01l52.55-69.63h-97.05Zm-62.68-43.12l-63.14,43.12h125.82l45.51-43.12h-108.2.01Zm663.22,0h-84.08l32.55,43.12h97.05l-45.51-43.12h-.01Zm-51.53,43.12h-118.57l24.91,69.63h146.21l-52.55-69.63Zm-419.4-43.12l-32.55,43.12h118.57l15.44-43.12h-101.47.01Zm-129.6,43.12l-73.51,69.63h118.01l52.55-69.63h-97.05Zm-62.68-43.12l-63.14,43.12h125.82l45.51-43.12h-108.2.01Zm663.22,0h-84.08l32.55,43.12h97.05l-45.51-43.12h-.01Zm-51.53,43.12h-118.57l24.91,69.63h146.21l-52.55-69.63Zm-52.98-70.19h-90.73l9.69,27.08h101.47l-20.43-27.08h0Zm-366.42,27.08l-32.55,43.12h118.57l15.44-43.12h-101.47.01Zm-129.6,43.12l-73.51,69.63h118.01l52.55-69.63h-97.05Zm-62.68-43.12l-63.14,43.12h125.82l45.51-43.12h-108.2.01Zm611.68,43.12h-118.57l24.91,69.63h146.21l-52.55-69.63Zm-419.4-43.12l-32.55,43.12h118.57l15.44-43.12h-101.47.01Zm-129.6,43.12l-73.51,69.63h118.01l52.55-69.63h-97.05Zm-62.68-43.12l-63.14,43.12h125.82l45.51-43.12h-108.2.01Zm192.28,0l-32.55,43.12h118.57l15.44-43.12h-101.47.01Zm-129.6,43.12l-73.51,69.63h118.01l52.55-69.63h-97.05Zm-62.68-43.12l-63.14,43.12h125.82l45.51-43.12h-108.2.01Zm192.28,0l-32.55,43.12h118.57l15.44-43.12h-101.47.01Zm-129.6,43.12l-73.51,69.63h118.01l52.55-69.63h-97.05Zm-62.68-43.12l-63.14,43.12h125.82l45.51-43.12h-108.2.01Zm62.68,43.12l-73.51,69.63h118.01l52.55-69.63h-97.05Zm-62.68-43.12l-63.14,43.12h125.82l45.51-43.12h-108.2.01Z"/>
      </g>
    </g>
    <rect class="cls-14" x="412.24" y="258.36" width="1081.75" height="327.11"/>
    <polygon class="cls-13" points="955.31 1049.12 955.31 1082.6 728.09 1082.6 739.71 1049.12 955.31 1049.12"/>
    <polygon class="cls-13" points="1166.98 1049.12 1177.64 1082.6 1428.78 1082.6 1403.27 1049.12 1166.98 1049.12"/>
    <polygon class="cls-13" points="1589.66 1049.12 1621.54 1082.6 1763.01 1082.6 1763.01 1049.12 1589.66 1049.12"/>
    <polygon class="cls-13" points="503.42 1049.12 480.4 1082.6 284.48 1082.6 317.03 1049.12 503.42 1049.12"/>
    <g>
      <polygon class="cls-17" points="1763.01 93.14 1505.51 211.81 412.58 211.81 143.23 91.39 143.23 2.75 1763.01 2.75 1763.01 93.14"/>
      <path class="cls-5" d="m1565.29,2.75l-101.92,83.45h299.64V2.75h-197.72Zm-606.38,83.45v62.11h428.59l75.87-62.11h-504.46Zm-406.41,100.34h-195.99l56.07,25.27h171.13l-31.21-25.27Zm-47.21-38.23l47.21,38.23h406.41v-38.23h-453.62Zm882.22,0l-46.69,38.23h219.53l82.93-38.23h-255.77Zm-428.59,63.5h351.04l30.86-25.27h-381.9v25.27Zm0-209.06H325.51l76.91,62.29.22.17,1.34,1.1c.86.73,1.73,1.45,2.57,2.14,1.25,1.04,2.46,2.05,3.63,3.02,1.94,1.62,3.76,3.15,5.4,4.56.97.8,1.86,1.55,2.7,2.29.63.54,1.21,1.04,1.77,1.53.52.45,1.02.89,1.49,1.3,1.88,1.66,3.3,2.94,4.17,3.82.13.11.22.22.3.3.17.17.32.35.43.48.09.09.15.17.19.26.04.06.06.11.06.15,0,.02-.02.04-.06.04l-283.4.15v5.04l128.46,56.92h233.59l-76.71-62.11h530.34V2.75h.01Z"/>
      <g>
        <g>
          <polygon class="cls-33" points="833.31 117.03 833.31 125.03 610.27 125.03 601.48 117.03 833.31 117.03"/>
          <polygon class="cls-14" points="833.31 125.03 833.31 129.89 615.01 129.89 610.27 125.03 833.31 125.03"/>
        </g>
        <g>
          <polygon class="cls-33" points="833.31 168.83 833.31 173.75 653.36 173.75 646.27 168.83 833.31 168.83"/>
          <polygon class="cls-14" points="833.31 173.75 833.31 176.74 657.18 176.74 653.36 173.75 833.31 173.75"/>
        </g>
        <g>
          <polygon class="cls-33" points="833.31 37.65 833.31 50.94 498.69 50.94 485.52 37.65 833.31 37.65"/>
          <polygon class="cls-14" points="833.31 50.94 833.31 59.01 505.81 59.01 498.69 50.94 833.31 50.94"/>
        </g>
        <g>
          <polygon class="cls-33" points="1059.22 117.03 1059.22 125.03 1282.26 125.03 1291.04 117.03 1059.22 117.03"/>
          <polygon class="cls-14" points="1059.22 125.03 1059.22 129.89 1277.52 129.89 1282.26 125.03 1059.22 125.03"/>
        </g>
        <g>
          <polygon class="cls-33" points="1059.22 168.83 1059.22 173.75 1239.17 173.75 1246.26 168.83 1059.22 168.83"/>
          <polygon class="cls-14" points="1059.22 173.75 1059.22 176.74 1235.34 176.74 1239.17 173.75 1059.22 173.75"/>
        </g>
        <g>
          <polygon class="cls-33" points="1059.22 37.65 1059.22 50.94 1393.83 50.94 1407.01 37.65 1059.22 37.65"/>
          <polygon class="cls-14" points="1059.22 50.94 1059.22 59.01 1386.72 59.01 1393.83 50.94 1059.22 50.94"/>
        </g>
      </g>
      <g class="cls-22">
        <g>
          <rect class="cls-8" x="142.25" y="146.94" width="1622.53" height="2.16"/>
          <rect class="cls-8" x="142.25" y="185.16" width="1622.53" height="2.16"/>
          <rect class="cls-8" x="957.83" y="-41.56" width="2.16" height="253.37"/>
          <rect class="cls-8" x="1268.66" y="96.19" width="361.62" height="2.16" transform="translate(266.06 939.86) rotate(-39.29)"/>
          <path class="cls-8" d="m583.4,212.65l-155.21-125.66H108.02v-2.16h316.32c-3.19-3.03-11.56-10.11-23.06-19.62l-113.4-91.81h0l1.35-1.69h0c.87.7,35.38,28.31,69.36,55.84,20.42,16.54,34.84,28.33,45.02,36.76l25.34,20.52h1367.81v2.16H431.62l153.13,123.98-1.36,1.68h.01Z"/>
        </g>
      </g>
    </g>
    <g>
      <polygon class="cls-14" points="143.23 91.39 412.25 211.81 412.25 683.06 145.07 801.43 143.23 91.39"/>
      <g>
        <polygon class="cls-32" points="143.23 650.55 412.24 580.05 412.25 683.06 143.23 802.4 143.23 650.55"/>
        <polyline class="cls-23" points="412.24 594.88 143.23 671.74 143.23 665.51 412.24 587.88"/>
      </g>
      <g>
        <g>
          <path class="cls-17" d="m311.12,319.88s2.52,238.51,0,235.99-25.98-8.82-25.98-8.82v-215.78l25.98-11.39h0Z"/>
          <polygon class="cls-26" points="285.14 331.26 143.23 309.09 143.23 285.74 311.12 319.88 285.14 331.26"/>
          <polygon class="cls-8" points="284.15 547.04 143.23 566.71 143.23 586.99 361.31 550.99 284.15 547.04"/>
          <polygon class="cls-20" points="361.31 550.99 361.31 559.54 143.23 600.33 143.23 586.99 361.31 550.99"/>
        </g>
        <g>
          <polygon class="cls-3" points="273 342.65 272.64 434.56 143.23 436.31 143.23 325.7 273 342.65"/>
          <path class="cls-18" d="m143.23,309.09v16.61l66.36,8.67v203.9l-66.36,8.78v19.67l141.9-19.67v-215.78l-141.9-22.18h0Zm129.03,220.89l-52.94,7v-201.34l53.67,7.01-.74,187.33h.01Z"/>
        </g>
      </g>
      <path class="cls-11" d="m143.23,170.05l269.01,88.31v-46.55c-89.67-40.14-179.34-80.28-269.01-120.42v78.66h0Z"/>
    </g>
    <g>
      <polygon class="cls-14" points="1493.99 217.23 1493.99 688.48 1763.01 806.85 1763.01 96.81 1493.99 217.23"/>
      <g>
        <polygon class="cls-32" points="1763.98 655.97 1493.99 585.47 1493.99 688.48 1763.01 806.85 1763.98 655.97"/>
        <polyline class="cls-23" points="1493.99 593.3 1762.89 668.35 1763.01 674.6 1493.99 600.38"/>
      </g>
      <g>
        <g>
          <polygon class="cls-2" points="1616.24 368.66 1616.24 328.21 1747.48 299.73 1747.48 347.71 1616.24 368.66"/>
          <polygon class="cls-1" points="1747.48 309.66 1626.8 334.2 1626.8 366.97 1616.24 368.66 1616.24 328.21 1747.48 299.73 1747.48 309.66"/>
        </g>
        <g>
          <path class="cls-31" d="m1616.12,378.77v363.62l9.16,4.15v-357.79l105.42-9.97v413.87l17.34,7.56s1.52-439.37.42-439.37-132.34,17.93-132.34,17.93h0Z"/>
          <g>
            <polygon class="cls-2" points="1625.29 388.74 1625.29 746.53 1730.7 792.64 1730.7 378.77 1625.29 388.74"/>
            <polygon class="cls-1" points="1625.29 746.53 1628.38 747.88 1628.38 394.62 1730.7 386.66 1730.7 378.77 1625.29 388.74 1625.29 746.53"/>
          </g>
          <g>
            <polygon class="cls-25" points="1637.76 578.8 1637.76 726.47 1713.36 755.98 1713.36 591.59 1637.76 578.8"/>
            <path class="cls-31" d="m1708.03,577.99c0,4.26-1.93,7.72-4.3,7.72s-4.31-3.46-4.31-7.72,1.93-7.72,4.31-7.72,4.3,3.46,4.3,7.72Z"/>
            <g>
              <polygon class="cls-31" points="1635.88 424.03 1635.88 556.74 1715.38 568.87 1715.38 419.62 1635.88 424.03"/>
              <g>
                <polygon class="cls-9" points="1641.86 427.89 1641.86 551.96 1708.03 562.25 1708.03 426.24 1641.86 427.89"/>
                <polygon class="cls-9" points="1649.19 427.71 1649.19 553.1 1641.86 551.96 1641.86 427.89 1649.19 427.71"/>
                <path class="cls-4" d="m1641.86,465.34l66.35-35.97v37.96c-1.53,0-66.35,34.1-66.35,34.1v-36.08h0Z"/>
                <polygon class="cls-4" points="1708.03 477.34 1641.86 509.59 1641.86 525.49 1708.03 494.25 1708.03 477.34"/>
              </g>
            </g>
          </g>
        </g>
      </g>
      <path class="cls-11" d="m1763.01,172.96l-269.01,85.41v-46.01c89.67-39.74,179.34-79.47,269.01-119.21v79.82h0Z"/>
    </g>
    <rect class="cls-19" x="412.24" y="211.81" width="1081.75" height="46.55"/>
    <polygon class="cls-24" points="413.77 681.7 146.6 800.07 145.97 1082.6 1764.54 1082.6 1764.54 800.07 1495.53 681.7 413.77 681.7"/>
    <g>
      <polygon class="cls-15" points="1493.99 580.05 412.24 580.05 412.24 683.06 1493.99 683.06 1493.99 683.06 1493.99 580.05"/>
      <polygon class="cls-23" points="1493.99 594.96 412.24 594.88 412.24 587.88 1493.99 587.88 1493.99 594.96"/>
    </g>
    <g class="cls-16">
      <g>
        <polygon class="cls-6" points="498.9 951.96 442.29 1013.24 274.64 1044.59 181.69 1045.26 143.23 981.41 143.23 954.28 191.67 953.73 376.93 955 498.9 951.96"/>
        <g>
          <polyline class="cls-6" points="1137.44 691.44 1154.03 720.09 1419.52 720.09 1390.33 699.1 1141.18 697.9"/>
          <g>
            <g>
              <g>
                <g>
                  <g>
                    <rect class="cls-28" x="1278.61" y="621.74" width="3.53" height="44.81"/>
                    <rect class="cls-28" x="1236.73" y="621.74" width="3.53" height="44.81"/>
                    <polygon class="cls-30" points="1215.85 636.57 1303.57 636.57 1296.46 617.85 1220.66 617.85 1215.85 636.57"/>
                    <rect class="cls-29" x="1215.85" y="636.57" width="87.72" height="4.63"/>
                  </g>
                  <polygon class="cls-29" points="1288.27 557.78 1296.46 575.82 1288.27 575.82 1288.27 557.78"/>
                  <polyline class="cls-29" points="1234.15 557.78 1242.83 575.82 1234.15 575.82 1234.18 559.75"/>
                </g>
                <rect class="cls-7" x="1230" y="557.78" width="4.56" height="131.24"/>
                <rect class="cls-7" x="1284.12" y="557.78" width="4.56" height="131.24"/>
              </g>
              <rect class="cls-30" x="1220.94" y="534.8" width="80.6" height="41.02" rx="3.82" ry="3.82"/>
            </g>
            <g>
              <g>
                <rect class="cls-10" x="1148.56" y="691.55" width="5.46" height="28.54"/>
                <rect class="cls-10" x="1131.97" y="662.9" width="5.46" height="28.54"/>
                <rect class="cls-10" x="1419.52" y="691.55" width="5.46" height="28.54"/>
              </g>
              <polygon class="cls-21" points="1428.13 611.91 1385.46 593.33 1129.03 593.33 1148.97 611.91 1428.13 611.91"/>
              <rect class="cls-10" x="1148.56" y="611.91" width="277.27" height="10.85"/>
              <rect class="cls-27" x="1148.56" y="622.76" width="277.27" height="68.79"/>
              <polygon class="cls-10" points="1148.56 611.91 1129.03 593.33 1129.03 603.95 1148.56 622.76 1148.56 611.91"/>
              <polygon class="cls-10" points="1131.97 606.79 1131.97 670.79 1148.56 691.55 1148.56 622.76 1131.97 606.79"/>
            </g>
          </g>
        </g>
        <polygon class="cls-6" points="1417.15 960.94 1474.2 1016.57 1640.15 1030.24 1735.64 1030.24 1763.01 1016.11 1763.01 978.72 1741.52 960.94 1417.15 960.94"/>
      </g>
    </g>
  </g>
</svg>