<?xml version="1.0" encoding="UTF-8"?>
<svg id="Layer_2" data-name="Layer 2" xmlns="http://www.w3.org/2000/svg" viewBox="0 0 10.9 118.58">
  <defs>
    <style>
      .cls-1 {
        fill: #e3e0e0;
      }

      .cls-2 {
        fill: #003281;
      }

      .cls-3 {
        fill: #7fa0cd;
      }

      .cls-4 {
        fill: #a29d9a;
      }

      .cls-5 {
        fill: #001f49;
      }

      .cls-6 {
        fill: #6279b0;
      }

      .cls-7 {
        fill: #2052b5;
      }

      .cls-8 {
        fill: #c2bfbf;
      }

      .cls-9 {
        opacity: .4;
      }

      .cls-10 {
        fill: #049;
      }

      .cls-11 {
        fill: #3672ba;
      }

      .cls-12 {
        fill: #f7f4f4;
      }

      .cls-13 {
        fill: #e4e7ea;
      }

      .cls-14 {
        fill: #3e4f79;
      }

      .cls-15 {
        fill: #8290be;
      }

      .cls-16 {
        fill: #f5f8fb;
      }

      .cls-17 {
        fill: #b1adad;
      }
    </style>
  </defs>
  <g id="clicking_pen" data-name="clicking pen">
    <g>
      <rect class="cls-5" x=".64" y="8.16" width="3.02" height="5.95" transform="translate(4.29 22.28) rotate(180)"/>
      <path class="cls-7" d="m.64,36.43h0c.35,0,.64-.29.64-.64V8.15c0-.35-.29-.64-.64-.64h0c-.35,0-.64.29-.64.64v27.64c0,.35.29.64.64.64Z"/>
    </g>
    <g>
      <rect class="cls-13" x="3.27" y="1.91" width="6.69" height="7.36" rx="2.65" ry="2.65" transform="translate(13.24 11.18) rotate(180)"/>
      <g>
        <g>
          <g>
            <rect class="cls-14" x="3.27" y="46.58" width="6.69" height="55.68" transform="translate(13.24 148.83) rotate(180)"/>
            <rect class="cls-15" x="4.71" y="46.58" width="3.83" height="55.68" transform="translate(13.24 148.83) rotate(180)"/>
            <rect class="cls-6" x="6.27" y="46.58" width=".69" height="55.68" transform="translate(13.24 148.83) rotate(180)"/>
          </g>
          <rect class="cls-3" x="3.9" y="43.86" width="5.44" height="2.72" transform="translate(13.24 90.43) rotate(180)"/>
        </g>
        <polygon class="cls-1" points="3.27 102.25 4.71 109.1 6.16 116.03 7.08 116.03 8.53 109.1 9.97 102.25 3.27 102.25"/>
        <rect class="cls-4" x="6.49" y="116.72" width=".26" height="1.86" transform="translate(13.24 235.3) rotate(180)"/>
        <rect class="cls-8" x="6.22" y="116.03" width=".81" height="1.38" transform="translate(13.24 233.44) rotate(180)"/>
        <polygon class="cls-12" points="4.71 102.25 4.71 109.1 6.16 116.03 7.08 116.03 8.53 109.1 8.53 102.25 4.71 102.25"/>
        <rect class="cls-17" x="6.27" y="102.25" width=".69" height="13.78" transform="translate(13.24 218.29) rotate(180)"/>
        <rect class="cls-2" x="3.27" y="7.51" width="6.69" height="36.34" transform="translate(13.24 51.37) rotate(180)"/>
        <rect class="cls-10" x="4.71" y="7.51" width="3.83" height="36.34" transform="translate(13.24 51.37) rotate(180)"/>
        <rect class="cls-11" x="3.27" y="42.72" width="6.69" height="1.13" transform="translate(13.24 86.58) rotate(180)"/>
      </g>
      <g class="cls-9">
        <path class="cls-16" d="m2.34,12.56h8.56l-.8-11.91C10.1-.22,3.14-.22,3.14.65l-.8,11.91Z"/>
      </g>
    </g>
  </g>
</svg>