<?xml version="1.0" encoding="UTF-8"?>
<svg id="Layer_2" data-name="Layer 2" xmlns="http://www.w3.org/2000/svg" viewBox="0 0 59.21 59.21">
  <defs>
    <style>
      .cls-1 {
        fill: #fff;
      }

      .cls-2, .cls-3 {
        opacity: .5;
      }

      .cls-4 {
        fill: #ffc800;
      }

      .cls-5 {
        fill: #c8c8c8;
      }

      .cls-6 {
        opacity: .1;
      }

      .cls-7 {
        fill: #375a64;
      }

      .cls-3 {
        fill: #ececec;
      }

      .cls-8 {
        fill: #1a2e35;
      }
    </style>
  </defs>
  <g id="Clock">
    <circle class="cls-4" cx="29.6" cy="29.6" r="29.6"/>
    <circle class="cls-6" cx="28.72" cy="29.38" r="27.86" transform="translate(-.9 .9) rotate(-1.77)"/>
    <g>
      <circle class="cls-1" cx="29.6" cy="29.6" r="26.11" transform="translate(-1.58 57.54) rotate(-86.85)"/>
      <g class="cls-2">
        <path class="cls-3" d="m55.12,24.06c-11.89,7.2-31.43,19.02-42.35,25.5-3.06-2.59-5.52-5.86-7.13-9.59L41.76,6.49c6.73,3.54,11.72,9.94,13.37,17.57Z"/>
        <path class="cls-3" d="m55.63,31.69c-.24,3.05-1.01,5.95-2.2,8.62l-30.66,14.5c-1.53-.41-3.01-.96-4.42-1.64,9.6-5.55,26.67-15.37,37.28-21.48Z"/>
      </g>
    </g>
    <g>
      <polygon class="cls-4" points="29.98 10.73 30.84 31.41 28.37 31.38 29.31 10.72 29.98 10.73"/>
      <polygon class="cls-7" points="15.18 29.42 31.28 28.36 31.25 30.84 15.17 30.1 15.18 29.42"/>
      <path class="cls-5" d="m30.45,29.6c0,.47-.38.85-.85.85s-.85-.38-.85-.85.38-.85.85-.85.85.38.85.85Z"/>
    </g>
    <g>
      <g>
        <path class="cls-8" d="m28.85,5.89v2.37c0,.12-.1.22-.23.22s-.22-.1-.22-.22v-1.98l-.16.09s-.08.03-.11.03c-.08,0-.15-.04-.19-.11-.07-.1-.03-.24.07-.3l.49-.29s.01,0,.02,0c0,0,.01,0,.02-.01,0,0,.02,0,.02,0,0,0,.01,0,.02,0,0,0,.02,0,.03,0h.04s.01,0,.02,0c.01,0,.02,0,.02,0,0,0,.01,0,.02,0,.01,0,.02.01.02.01,0,0,0,0,.02.01,0,0,.01,0,.02.01,0,0,.01.01.02.02,0,0,0,0,.01.02,0,0,.01.01.02.02h0s0,.02,0,.02c0,0,0,.01,0,.02,0,0,0,.02,0,.02,0,0,0,.02,0,.02,0,.01,0,.02,0,.03h0Z"/>
        <path class="cls-8" d="m31.18,8.26c0,.12-.1.22-.22.22h-1.43c-.06,0-.12-.02-.16-.07-.08-.09-.08-.23.01-.31l1.19-1.08c.12-.1.17-.24.17-.39,0-.13-.04-.25-.13-.35-.1-.12-.25-.17-.39-.17-.12,0-.25.04-.35.13l-.12.11c-.09.08-.23.08-.31-.02-.08-.09-.08-.23.02-.31l.12-.11c.18-.17.42-.25.65-.25.26,0,.53.11.72.32.17.18.25.42.25.65,0,.26-.11.53-.32.72l-.76.69h.86c.12,0,.22.1.22.23Z"/>
      </g>
      <path class="cls-8" d="m41.03,8.85v2.37c0,.12-.1.22-.23.22s-.22-.1-.22-.22v-1.98l-.16.09s-.08.03-.11.03c-.08,0-.15-.04-.19-.11-.07-.1-.03-.24.07-.3l.49-.29s.01,0,.02,0c0,0,.01,0,.02-.01,0,0,.02,0,.02,0,0,0,.01,0,.02,0,0,0,.02,0,.03,0h.04s.01,0,.02,0c.01,0,.02,0,.02,0,0,0,.01,0,.02,0,.01,0,.02.01.02.01,0,0,0,0,.02.01,0,0,.01,0,.02.01,0,0,.01.01.02.02,0,0,0,0,.01.02,0,0,.01.01.02.02h0s0,.02,0,.02c0,0,0,.01,0,.02,0,0,0,.02,0,.02,0,0,0,.02,0,.02,0,.01,0,.02,0,.03h0Z"/>
      <g>
        <path class="cls-8" d="m17.74,8.85v2.37c0,.12-.1.22-.23.22s-.22-.1-.22-.22v-1.98l-.16.09s-.08.03-.11.03c-.08,0-.15-.04-.19-.11-.07-.1-.03-.24.07-.3l.49-.29s.01,0,.02,0c0,0,.01,0,.02-.01,0,0,.02,0,.02,0,0,0,.01,0,.02,0,0,0,.02,0,.03,0h.04s.01,0,.02,0c.01,0,.02,0,.02,0,0,0,.01,0,.02,0,.01,0,.02.01.02.01,0,0,0,0,.02.01,0,0,.01,0,.02.01,0,0,.01.01.02.02,0,0,0,0,.01.02,0,0,.01.01.02.02h0s0,.02,0,.02c0,0,0,.01,0,.02,0,0,0,.02,0,.02,0,0,0,.02,0,.02,0,.01,0,.02,0,.03h0Z"/>
        <path class="cls-8" d="m19.08,8.85v2.37c0,.12-.1.22-.23.22s-.22-.1-.22-.22v-1.98l-.16.09s-.08.03-.11.03c-.08,0-.15-.04-.19-.11-.07-.1-.03-.24.07-.3l.49-.29s.01,0,.02,0c0,0,.01,0,.02-.01,0,0,.02,0,.02,0,0,0,.01,0,.02,0,0,0,.02,0,.03,0h.04s.01,0,.02,0c.01,0,.02,0,.02,0,0,0,.01,0,.02,0,.01,0,.02.01.02.01,0,0,0,0,.02.01,0,0,.01,0,.02.01,0,0,.01.01.02.02,0,0,0,0,.01.02,0,0,.01.01.02.02h0s0,.02,0,.02c0,0,0,.01,0,.02,0,0,0,.02,0,.02,0,0,0,.02,0,.02,0,.01,0,.02,0,.03h0Z"/>
      </g>
      <path class="cls-8" d="m50.08,19.6c0,.12-.1.22-.22.22h-1.43c-.06,0-.12-.02-.16-.07-.08-.09-.08-.23.01-.31l1.19-1.08c.12-.1.17-.24.17-.39,0-.13-.04-.25-.13-.35-.1-.12-.25-.17-.39-.17-.12,0-.25.04-.35.13l-.12.11c-.09.08-.23.08-.31-.02-.08-.09-.08-.23.02-.31l.12-.11c.18-.17.42-.25.65-.25.26,0,.53.11.72.32.17.18.25.42.25.65,0,.26-.11.53-.32.72l-.76.69h.86c.12,0,.22.1.22.23Z"/>
      <g>
        <path class="cls-8" d="m9.26,17.22v2.37c0,.12-.1.22-.23.22s-.22-.1-.22-.22v-1.98l-.16.09s-.08.03-.11.03c-.08,0-.15-.04-.19-.11-.07-.1-.03-.24.07-.3l.49-.29s.01,0,.02,0c0,0,.01,0,.02-.01,0,0,.02,0,.02,0,0,0,.01,0,.02,0,0,0,.02,0,.03,0h.04s.01,0,.02,0c.01,0,.02,0,.02,0,0,0,.01,0,.02,0,.01,0,.02.01.02.01,0,0,0,0,.02.01,0,0,.01,0,.02.01,0,0,.01.01.02.02,0,0,0,0,.01.02,0,0,.01.01.02.02h0s0,.02,0,.02c0,0,0,.01,0,.02,0,0,0,.02,0,.02,0,0,0,.02,0,.02,0,.01,0,.02,0,.03h0Z"/>
        <path class="cls-8" d="m9.77,18.41c0-.37.1-.7.27-.96.17-.26.43-.45.75-.45s.58.19.74.45c.17.26.27.59.27.96s-.1.7-.27.96c-.17.25-.43.45-.74.45s-.58-.19-.75-.45c-.18-.26-.27-.6-.27-.96Zm1.59,0c0-.29-.08-.54-.19-.72-.12-.17-.25-.25-.37-.25-.12,0-.26.08-.38.25-.11.17-.19.43-.19.72s.08.54.19.71c.12.17.26.25.38.25s.26-.08.37-.25c.11-.17.19-.43.19-.71Z"/>
      </g>
      <path class="cls-8" d="m6.15,29.13c0-.54.44-.97.98-.97.51,0,.92.38.97.87t0,0c0,.08,0,.15,0,.23,0,.27-.04.56-.14.82-.1.27-.27.52-.52.69-.17.11-.37.18-.6.19-.12,0-.23-.09-.23-.21,0-.12.09-.22.22-.23.15,0,.27-.05.38-.11.1-.07.18-.16.25-.28.02-.03.04-.07.05-.1-.12.05-.25.08-.39.08-.54,0-.98-.43-.98-.97Zm.45,0c0,.29.24.53.53.53s.53-.24.53-.53-.23-.53-.53-.53-.53.23-.53.53Z"/>
      <path class="cls-8" d="m52.65,29.27c.2.19.29.45.29.7s-.1.51-.29.71c-.19.19-.45.29-.71.29s-.51-.1-.7-.29c-.09-.09-.09-.23,0-.32.09-.09.23-.09.32,0,.1.1.24.16.38.16s.28-.05.39-.16c.11-.11.16-.25.16-.39s-.05-.28-.16-.38c-.1-.11-.24-.16-.38-.16-.06,0-.12-.02-.16-.07t0,0c-.09-.09-.09-.23,0-.32l.41-.42h-.65c-.12,0-.23-.1-.23-.23s.1-.23.23-.23h1.19c.13,0,.23.1.23.23,0,.04-.01.08-.03.11-.01.02-.02.04-.04.06l-.51.52c.1.05.2.11.28.2Z"/>
      <path class="cls-8" d="m50,41.43c0,.12-.1.22-.23.22h-.04v.31c0,.12-.1.22-.22.22s-.22-.1-.22-.22v-.31h-1.27s-.1-.01-.14-.05c-.1-.08-.11-.21-.04-.31l1.49-1.85s0,0,0,0c0,0,0,0,.01-.02.01,0,.02,0,.02-.01,0,0,.01,0,.02-.01,0,0,.01,0,.02,0,0,0,0-.01.02-.01,0,0,.01,0,.02,0,0,0,.01,0,.02,0h.07s.01,0,.02,0c0,0,.02,0,.02,0,0,0,.01,0,.02,0,0,0,.02.01.02.02,0,0,.01,0,.02.01,0,0,0,0,0,0,0,0,.01,0,.01,0,0,0,.01.01.02.02,0,0,0,.01.01.02,0,0,0,0,.02.02,0,0,0,.01,0,.02,0,0,0,.01,0,.02,0,0,0,.01,0,.02,0,0,0,.01,0,.02,0,0,0,.01,0,.02h0v1.64h.04c.12,0,.23.1.23.22Zm-.71-1.21l-.8.99h.8v-.99Z"/>
      <path class="cls-8" d="m11.13,41.22c0,.53-.43.96-.96.96s-.97-.43-.97-.96c0-.33.17-.63.43-.8-.08-.11-.13-.25-.13-.4,0-.36.3-.66.67-.66s.66.3.66.66c0,.15-.05.29-.13.4.26.17.43.47.43.8Zm-.44,0c0-.29-.23-.52-.52-.52s-.52.24-.53.52c0,.29.24.52.53.52s.52-.23.52-.52Zm-.75-1.2c0,.12.1.23.23.23.12,0,.22-.1.22-.23s-.1-.22-.22-.22c-.13,0-.23.1-.23.22Z"/>
      <path class="cls-8" d="m41.31,48.93c.2.19.29.45.29.71s-.1.51-.29.7c-.19.2-.45.29-.7.29h0c-.25,0-.51-.1-.7-.29-.09-.08-.09-.23,0-.32.08-.09.23-.09.32,0,.1.11.24.16.39.16.14,0,.28-.05.38-.16.1-.1.16-.25.16-.38,0-.14-.05-.28-.16-.39-.1-.11-.24-.16-.38-.16s-.28.05-.39.16c-.09.09-.23.09-.32,0-.02-.02-.03-.04-.04-.05,0,0,0-.01,0-.01,0,0,0-.02,0-.02,0-.01,0-.02,0-.03,0,0,0,0,0,0,0-.02,0-.05,0-.07l.12-1.04c.01-.07.05-.12.1-.16,0,0,.01,0,.02,0,0,0,0,0,.01,0,.03-.02.06-.02.1-.02h1.19c.13,0,.23.1.23.23,0,.12-.1.23-.23.23h-.99l-.05.4c.09-.02.18-.04.27-.04.25,0,.51.1.7.29Z"/>
      <path class="cls-8" d="m19.28,48.13l-1.01,2.38c-.03.08-.11.13-.21.13-.02,0-.06,0-.08-.02-.11-.05-.16-.18-.12-.29l.87-2.06h-1.04c-.12,0-.22-.1-.22-.23s.1-.22.22-.22h1.38s.02,0,.04,0c.03,0,.06.02.08.03,0,0,0,0,.01.01,0,0,.01,0,.02.02,0,0,.01.01.02.02,0,0,0,.01.01.02,0,0,0,.02,0,.02,0,0,0,.01.02.02,0,0,0,.02,0,.02,0,0,0,.01,0,.02,0,.03,0,.06,0,.09,0,.02,0,.03-.01.04Z"/>
      <path class="cls-8" d="m30.54,52.41c0,.54-.44.97-.98.97-.51,0-.92-.38-.97-.87t0,0c0-.08,0-.15,0-.23,0-.27.04-.56.14-.82.1-.27.27-.52.52-.69.17-.11.37-.18.6-.19.12,0,.23.09.23.21,0,.12-.09.22-.22.23-.15,0-.27.05-.38.11-.1.07-.18.16-.25.28-.02.03-.04.07-.05.1.12-.05.25-.08.39-.08.54,0,.98.43.98.97Zm-.45,0c0-.29-.24-.53-.53-.53s-.53.24-.53.53.23.53.53.53.53-.23.53-.53Z"/>
    </g>
  </g>
</svg>