<?xml version="1.0" encoding="UTF-8"?>
<svg id="Layer_2" data-name="Layer 2" xmlns="http://www.w3.org/2000/svg" viewBox="0 0 28.56 52.98">
  <defs>
    <style>
      .cls-1 {
        fill: #ee2a7b;
      }

      .cls-2 {
        fill: #39b54a;
      }

      .cls-3 {
        fill: #505050;
      }
    </style>
  </defs>
  <g id="Colorful_paper_clip" data-name="Colorful paper clip">
    <g>
      <rect class="cls-3" x="5.56" y="38.42" width=".05" height="1" transform="translate(-5.73 1.26) rotate(-8.55)"/>
      <path class="cls-3" d="m6.23,4.63c-3.12.47-5.27,3.39-4.8,6.5l.15.99c-.47-3.12,1.69-6.04,4.8-6.5s6.04,1.69,6.5,4.8l-.15-.99c-.47-3.12-3.39-5.27-6.5-4.8Z"/>
      <rect class="cls-3" x="16.9" y="36.61" width="1.36" height="1" transform="translate(-5.32 3.03) rotate(-8.55)"/>
      <path class="cls-3" d="m8.02,16.51c-1.79.27-3.02,1.94-2.75,3.73l.15.99c-.27-1.79.97-3.46,2.75-3.73s3.46.97,3.73,2.75l-.15-.99c-.27-1.79-1.94-3.02-3.73-2.75Z"/>
      <rect class="cls-3" x="14.48" y="36.94" width=".05" height="1" transform="translate(-5.41 2.57) rotate(-8.55)"/>
      <rect class="cls-3" x="6.64" y="38.02" width="1.36" height="1" transform="translate(-5.65 1.52) rotate(-8.55)"/>
      <path class="cls-3" d="m12.11,51.93c-3.19.48-6.2-1.82-6.7-5.13l.15.99c.5,3.31,3.5,5.61,6.7,5.13,3.19-.48,5.39-3.56,4.89-6.87l-.15-.99c.5,3.31-1.7,6.39-4.89,6.87Z"/>
      <path class="cls-2" d="m6.03,3.28C2.17,3.86-.5,7.48.08,11.34l.15.99,3.25,21.59.15.99.56,3.72.15.99,1.08,7.19c.5,3.31,3.5,5.61,6.7,5.13,3.19-.48,5.39-3.56,4.89-6.87l-1.1-7.32-.15-.99-.54-3.58-.15-.99-1.82-12.13-.15-.99c-.38-2.53-2.75-4.28-5.27-3.9s-4.28,2.75-3.9,5.27l.15.99,2.51,16.7,1.35-.2-2.51-16.7-.15-.99c-.27-1.79.97-3.46,2.75-3.73s3.46.97,3.73,2.75l.15.99,2.51,16.7h.05s.15.98.15.98l1.1,7.32c.39,2.57-1.32,4.96-3.79,5.33s-4.81-1.41-5.19-3.98l-1.08-7.19-.15-.99h.05S1.57,12.12,1.57,12.12l-.15-.99c-.47-3.12,1.69-6.04,4.8-6.5s6.04,1.69,6.5,4.8l.15.99,3.95,26.3,1.35-.2-3.95-26.3-.15-.99c-.58-3.86-4.19-6.53-8.05-5.95Z"/>
    </g>
    <g>
      <rect class="cls-3" x="15.72" y="34.67" width=".05" height="1"/>
      <path class="cls-3" d="m21.48,1.36c-3.15,0-5.72,2.56-5.72,5.72v1c0-3.15,2.56-5.72,5.72-5.72s5.72,2.56,5.72,5.72v-1c0-3.15-2.56-5.72-5.72-5.72Z"/>
      <rect class="cls-3" x="27.2" y="34.67" width="1.36" height="1"/>
      <path class="cls-3" d="m21.48,13.37c-1.81,0-3.28,1.47-3.28,3.28v1c0-1.81,1.47-3.28,3.28-3.28s3.28,1.47,3.28,3.28v-1c0-1.81-1.47-3.28-3.28-3.28Z"/>
      <rect class="cls-3" x="24.76" y="34.54" width=".05" height="1"/>
      <rect class="cls-3" x="16.84" y="34.54" width="1.36" height="1"/>
      <path class="cls-3" d="m20.26,49.01c-3.23,0-5.86-2.72-5.86-6.07v1c0,3.35,2.63,6.07,5.86,6.07s5.86-2.72,5.86-6.07v-1c0,3.35-2.63,6.07-5.86,6.07Z"/>
      <path class="cls-1" d="m21.48,0c-3.9,0-7.08,3.17-7.08,7.08v35.86c0,3.35,2.63,6.07,5.86,6.07s5.86-2.72,5.86-6.07v-26.29c0-2.56-2.08-4.64-4.64-4.64s-4.64,2.08-4.64,4.64v17.89h1.36v-17.89c0-1.81,1.47-3.28,3.28-3.28s3.28,1.47,3.28,3.28v17.89h.05v8.4c0,2.6-2.04,4.71-4.54,4.71s-4.54-2.11-4.54-4.71v-8.27h.05V7.08c0-3.15,2.56-5.72,5.72-5.72s5.72,2.56,5.72,5.72v27.59h1.36V7.08c0-3.9-3.18-7.08-7.08-7.08Z"/>
    </g>
  </g>
</svg>