<?xml version="1.0" encoding="UTF-8"?>
<svg id="Layer_2" data-name="Layer 2" xmlns="http://www.w3.org/2000/svg" viewBox="0 0 32.63 79.37">
  <defs>
    <style>
      .cls-1 {
        fill: #ff9f67;
      }

      .cls-2 {
        fill: #006a93;
      }

      .cls-3 {
        fill: #ccccc6;
      }

      .cls-4 {
        fill: #9b968d;
      }

      .cls-5 {
        fill: #f9834a;
      }

      .cls-6 {
        fill: #ff7f29;
      }

      .cls-7 {
        fill: #f06004;
      }

      .cls-8 {
        fill: #d9d5cc;
      }

      .cls-9 {
        fill: #f3f3f1;
      }
    </style>
  </defs>
  <g id="Glue">
    <path class="cls-3" d="m32.63,34.26v41.82c0,.3-.04.59-.12.87-.38,1.39-1.66,2.41-3.18,2.41H3.29c-1.52,0-2.79-1.02-3.18-2.41-.08-.28-.12-.57-.12-.87v-41.82c0-.16,0-.31.02-.46.23-2.54,2.37-4.53,4.98-4.53h22.63c2.61,0,4.75,1.99,4.98,4.53.01.15.02.31.02.46Z"/>
    <path class="cls-9" d="m32.61,33.8H.02c.23-2.54,2.37-4.53,4.98-4.53h22.63c2.61,0,4.75,1.99,4.98,4.53Z"/>
    <g>
      <path class="cls-8" d="m24.94,22.39v4.26c0,.32-.08.61-.21.88-.32.64-.99,1.08-1.75,1.08h-13.32c-.77,0-1.43-.44-1.75-1.08-.13-.26-.21-.56-.21-.88v-4.26c0-.27.05-.52.15-.76.3-.71,1-1.21,1.81-1.21h13.32c.82,0,1.51.5,1.81,1.21.1.23.15.49.15.76Z"/>
      <rect class="cls-9" x="7.7" y="26.89" width="17.24" height="1.59"/>
      <rect class="cls-4" x="7.7" y="28.48" width="17.24" height=".79"/>
      <path class="cls-9" d="m24.79,21.63H7.85c.3-.71,1-1.21,1.81-1.21h13.32c.82,0,1.51.5,1.81,1.21Z"/>
      <g>
        <g>
          <path class="cls-6" d="m22.11,18.68v1.75h-11.58v-1.75h1.27l1.22-12.34v-.14h.02c.29-3.53,1.65-6.2,3.28-6.2v6.34h3.3l1.22,12.34h1.27Z"/>
          <path class="cls-1" d="m16.32,0v6.34h-3.3v-.14h.02c.29-3.53,1.65-6.2,3.28-6.2Z"/>
        </g>
        <path class="cls-5" d="m19.61,6.34h-3.3V0c1.63,0,2.99,2.67,3.28,6.2h0v.14Z"/>
        <polygon class="cls-7" points="22.11 18.68 22.11 20.43 16.32 20.43 16.32 6.34 19.61 6.34 20.83 18.68 22.11 18.68"/>
      </g>
    </g>
    <path class="cls-4" d="m32.52,76.95c-.38,1.39-1.66,2.41-3.18,2.41H3.29c-1.52,0-2.79-1.02-3.18-2.41h32.4Z"/>
    <g>
      <rect class="cls-9" x="6.47" y="40.36" width="19.69" height="30.86"/>
      <rect class="cls-2" x="6.47" y="55.79" width="19.69" height="15.43"/>
    </g>
  </g>
</svg>