<?xml version="1.0" encoding="UTF-8"?>
<svg id="Layer_2" data-name="Layer 2" xmlns="http://www.w3.org/2000/svg" viewBox="0 0 105.05 75.41">
  <defs>
    <style>
      .cls-1 {
        fill: #85f29a;
      }

      .cls-2 {
        fill: #498655;
      }

      .cls-3 {
        fill: #64b674;
      }

      .cls-4 {
        fill: #9df5ae;
      }

      .cls-5 {
        fill: #42794d;
      }
    </style>
  </defs>
  <g id="Light_green_SN" data-name="Light green SN">
    <polygon class="cls-4" points="8.66 68.27 5.85 57.46 26.49 .34 104.12 4.22 104.71 15.3 93.26 75.05 8.66 68.27"/>
    <polygon class="cls-5" points="104.43 3.9 92.57 64.01 93.53 75.41 105.05 15.32 104.43 3.9"/>
    <polygon class="cls-2" points="92.57 64.01 5.5 57.44 8.39 68.58 93.53 75.41 92.57 64.01"/>
    <polygon class="cls-3" points="26.26 0 5.5 57.44 92.57 64.01 104.43 3.9 26.26 0"/>
    <path class="cls-1" d="m26.26,0S18.22,23.13,0,49.51c13.62,1.74,63.42,7.07,87.07,6.57,10.55-22.32,17.37-52.17,17.37-52.17L26.26,0Z"/>
  </g>
</svg>