<?xml version="1.0" encoding="UTF-8"?>
<svg id="Layer_2" data-name="Layer 2" xmlns="http://www.w3.org/2000/svg" viewBox="0 0 79.05 68.26">
  <defs>
    <style>
      .cls-1 {
        fill: #002947;
      }

      .cls-2 {
        fill: #fff;
      }

      .cls-3 {
        opacity: .6;
      }

      .cls-4 {
        fill: #4a5359;
      }

      .cls-5 {
        opacity: .4;
      }

      .cls-6 {
        fill: #787e7f;
      }

      .cls-7 {
        fill: #697072;
      }

      .cls-8 {
        fill: #ccdbe5;
      }

      .cls-9 {
        fill: #656f75;
      }

      .cls-10 {
        fill: #34454c;
      }

      .cls-11 {
        fill: #485359;
      }
    </style>
  </defs>
  <g id="modern_sharpener" data-name="modern sharpener">
    <g>
      <g>
        <path class="cls-7" d="m68.68,41.9c.31-2.34,1.31-2.71,2.58-3.16,1.31-.46,3.73-.92,4.12-.95,1.07-.08,2.55.68,2.98,2.89.34,1.72-.15,3.11-1.03,3.66-.33.2-3.65,1.46-4.89,1.72-.51.1-1.4.25-2.25-.2l-1.51-3.95Z"/>
        <g class="cls-5">
          <path class="cls-2" d="m78.36,40.68c-.09-.47-.23-.87-.4-1.22l-5.19,1.29.63,2.08,5.05-1.6c-.02-.18-.04-.36-.08-.55Z"/>
        </g>
        <g class="cls-5">
          <path class="cls-2" d="m71.66,39.58l5.36-1.28c-.53-.4-1.13-.55-1.63-.51-.39.03-2.81.49-4.12.95-.18.06-.35.12-.52.19l.91.65Z"/>
        </g>
        <path class="cls-4" d="m69.01,41.56l1.17,3.07c.85.45,1.75.3,2.25.2,1.24-.25,4.4-1.42,4.72-1.64.36-.25.52-.8.42-1.39l-4.25,1.47c-.53-2.06-2.88-3.49-4.31-1.71Z"/>
        <path class="cls-1" d="m71.21,46.58c-1.96,0-2.83-1.99-2.97-3.69h0c-.12-1.38.17-2.54.81-3.27.42-.48.96-.74,1.57-.77,1.21-.06,2.98,1.22,3.15,3.78.09,1.37-.23,2.51-.89,3.22-.45.48-1.03.74-1.67.74Zm-2.05-3.77c.11,1.31.72,2.85,2.05,2.85.38,0,.72-.15.99-.44.49-.52.72-1.42.65-2.53-.13-1.94-1.37-2.96-2.18-2.92-.36.02-.67.17-.92.46-.47.53-.68,1.48-.59,2.59h0Z"/>
        <path class="cls-1" d="m71.52,46.73c-.48,0-1.04-.08-1.59-.37l.54-1.02c.64.33,1.33.25,1.87.14,1.19-.24,4.39-1.46,4.71-1.64.6-.37,1.07-1.46.76-3.05-.4-2.02-1.68-2.47-2.37-2.42-.35.03-2.7.47-3.97.92-1.21.42-1.94.68-2.2,2.69l-1.14-.15c.36-2.71,1.68-3.18,2.96-3.63,1.38-.48,3.83-.95,4.27-.98,1.39-.1,3.11.9,3.59,3.35.37,1.88-.14,3.55-1.29,4.26-.43.26-3.81,1.53-5.08,1.79-.21.04-.59.12-1.04.12Z"/>
        <rect class="cls-1" x="72.26" y="39.03" width="5.39" height=".92" transform="translate(-7.38 19.52) rotate(-14.15)"/>
        <rect class="cls-1" x="73.13" y="40.93" width="5.34" height=".92" transform="translate(-9.14 25.77) rotate(-18.22)"/>
        <rect class="cls-1" x="73.04" y="42.85" width="5.54" height=".92" transform="translate(-10.05 27.47) rotate(-19.29)"/>
      </g>
      <g>
        <g>
          <path class="cls-2" d="m60.84,26.55c2.43,2.9,10.08,12.73,10.8,14.85,1.04,3.05-1.78,5.4-4.56,4.59-7.99-9.36-12.25-16.9-6.24-19.44Z"/>
          <path class="cls-1" d="m68.22,46.73c-.43,0-.87-.06-1.3-.19-.11-.03-.2-.09-.28-.18-7-8.2-9.88-13.61-9.07-17.05.35-1.48,1.37-2.59,3.05-3.3.23-.1.5-.03.67.16,2,2.39,10.11,12.7,10.9,15.04.53,1.56.22,3.09-.85,4.2-.82.85-1.94,1.31-3.12,1.31Zm-.81-1.25c1.14.28,2.32-.04,3.1-.86.76-.79.97-1.9.59-3.03-.63-1.85-7.46-10.75-10.41-14.33-1.1.55-1.75,1.32-1.99,2.32-.71,2.98,2.14,8.18,8.71,15.9Z"/>
        </g>
        <path class="cls-2" d="m60.11,29.03s7.6,9.58,9.37,12.43c1.08,1.73.68,3.56-.5,4.25-.7.41-2.24.71-3.65-.76-2.78-2.9-7.9-10.1-7.9-10.1l2.68-5.82Z"/>
        <path class="cls-8" d="m68.59,44.53c-1.03-.89-7.08-8.63-9.5-11.75l-.78,1.69s4.8,6.47,7.22,9.23c1.11,1.26,2.33,1.49,3.05.83Z"/>
        <path class="cls-1" d="m67.66,46.62c-.84,0-1.82-.31-2.75-1.27-2.78-2.9-7.74-9.87-7.96-10.16l.94-.67c.05.07,5.13,7.2,7.85,10.03,1.42,1.49,2.79.75,2.94.66.38-.22.66-.62.78-1.11.18-.72,0-1.57-.47-2.35-1.73-2.79-9.26-12.28-9.33-12.37l.9-.72c.31.39,7.64,9.64,9.41,12.48.65,1.05.87,2.2.61,3.23-.2.8-.66,1.44-1.31,1.83-.37.22-.94.41-1.61.41Z"/>
      </g>
      <g>
        <circle class="cls-2" cx="67.12" cy="43.13" r=".9"/>
        <path class="cls-8" d="m67.8,42.55c.03.06.04.13.04.21,0,.3-.24.54-.54.54s-.54-.24-.54-.54c0-.25.17-.46.4-.52-.01,0-.03,0-.04,0-.5,0-.9.4-.9.9s.4.9.9.9.9-.4.9-.9c0-.22-.08-.43-.22-.59Z"/>
        <path class="cls-1" d="m67.12,44.5c-.75,0-1.36-.61-1.36-1.36s.61-1.36,1.36-1.36,1.36.61,1.36,1.36-.61,1.36-1.36,1.36Zm0-1.81c-.24,0-.44.2-.44.44s.2.44.44.44.44-.2.44-.44-.2-.44-.44-.44Z"/>
      </g>
    </g>
    <g>
      <path class="cls-9" d="m10.78,12.19c.84-1.63,1.69-2.29,3.12-2.56,3.59-.67,23.56-1.66,26.99-1.66,1.35,0,2.14.03,3.36.51,1.11.44,13.72,5.83,17.17,8.22,1.42.99,1.49,2.02,1.14,4.12-.59,3.51-9.49,36-10.1,37.81-.5,1.5-.96,2.21-2.11,2.74-2.43,1.13-20.67,5.82-23.87,6.21-1.79.21-2.83.04-4.91-.67L10.78,12.19Z"/>
      <path class="cls-2" d="m10.78,12.19c.84-1.63,1.69-2.29,3.12-2.56,3.59-.67,23.56-1.66,26.99-1.66,1.35,0,2.14.03,3.36.51,1.11.44,13.72,5.83,17.17,8.22,1.42.99,1.49,2.02,1.14,4.12-.59,3.51-9.49,36-10.1,37.81-.5,1.5-.96,2.21-2.11,2.74-2.43,1.13-20.67,5.82-23.87,6.21-1.79.21-2.83.04-4.91-.67L10.78,12.19Z"/>
      <path class="cls-7" d="m10.78,12.19c.84-1.63,1.69-2.29,3.12-2.56,3.59-.67,23.56-1.66,26.99-1.66,1.35,0,2.14.03,3.36.51,1.11.44,13.72,5.83,17.17,8.22,1.42.99,1.49,2.02,1.14,4.12-.59,3.51-9.49,36-10.1,37.81-.5,1.5-.96,2.21-2.11,2.74-2.43,1.13-20.67,5.82-23.87,6.21-1.79.21-2.83.04-4.91-.67L10.78,12.19Z"/>
      <path class="cls-7" d="m10.78,12.19c.84-1.63,1.69-2.29,3.12-2.56,3.59-.67,23.56-1.66,26.99-1.66,1.35,0,2.14.03,3.36.51,1.11.44,13.72,5.83,17.17,8.22,1.42.99,1.49,2.02,1.14,4.12-.59,3.51-9.49,36-10.1,37.81-.5,1.5-.96,2.21-2.11,2.74-2.43,1.13-20.67,5.82-23.87,6.21-1.79.21-2.83.04-4.91-.67L10.78,12.19Z"/>
      <path class="cls-6" d="m18.67,12.31s21.04-2.12,23.64-1.87c1.31.13,15.35,6.63,16.4,8.44,1.05,1.81-5.21,23.83-5.21,23.83l-25.35,4.88-5.5-23.87"/>
      <g class="cls-5">
        <path class="cls-2" d="m16.59,11.27l7.24,9.74,6.23-1.74,30.1-3.34c-3.62-2.08-10.91-5.31-14.25-6.74-16.39,1.04-29.32,2.08-29.32,2.08Z"/>
      </g>
      <g class="cls-5">
        <path class="cls-2" d="m61.9,23.72l-38.07,7.16,7.45,7.51,1.8-2.86,27.21-5.56c.64-2.45,1.2-4.61,1.6-6.25Z"/>
      </g>
      <path class="cls-4" d="m32.08,53.37l20.99-4.7s-1.61,6.52-2.07,7.89c-.77,2.27-1.38,2.57-2.82,3.05-2.79.93-12.01,3.15-19.78,4.78l3.69-11.03Z"/>
      <path class="cls-1" d="m25.19,68.26c-1.15,0-2.18-.23-3.81-.79l.37-1.09c2.06.71,3.02.84,4.66.64,3.3-.39,21.45-5.11,23.69-6.16.93-.43,1.32-.95,1.81-2.4.48-1.43,9.47-34.13,10.07-37.72.36-2.13.19-2.8-.9-3.55-3.47-2.41-16.21-7.83-17.05-8.16-1.14-.45-1.87-.47-3.15-.47h-.01c-3.31,0-23.32.99-26.87,1.65-1.28.24-1.96.81-2.71,2.26l-1.03-.53c.9-1.76,1.89-2.56,3.52-2.86,3.64-.68,23.45-1.67,27.08-1.67h.02c1.35,0,2.24.03,3.57.55.84.33,13.74,5.82,17.29,8.28,1.8,1.25,1.71,2.73,1.38,4.69-.6,3.61-9.63,36.46-10.12,37.9-.52,1.54-1.03,2.44-2.41,3.08-2.61,1.22-20.94,5.89-24.04,6.26-.49.06-.94.09-1.36.09Z"/>
    </g>
    <g>
      <path class="cls-7" d="m18.4,11.97l2.33-.67c.3-.95,1.29-9.16-6.38-10.56C4.4-1.09,1.44,13.7,9.54,15.95l8.86-3.98Z"/>
      <path class="cls-4" d="m9.54,15.95l8.86-3.98,2.22-.64c-4.22-1.86-8.57-3.24-10.18-2.41-1.3.67-2.26,4.28-2.69,6.23.52.34,1.12.62,1.79.81Z"/>
      <g class="cls-5">
        <path class="cls-2" d="m12.14.67c-.08-.02-.16-.03-.24-.05-7.93.79-9.76,13.28-2.37,15.33l.58-.26c-5.08-2.23-4.68-8.37-2.45-11.28.55.48,1.73.5,2.92,0,1.14-.48,1.94-1.3,2.03-2,3.04.38,5.95,3.33,5.03,9.9l.76-.34c.95-6.11-.53-10.13-6.26-11.3Z"/>
      </g>
      <path class="cls-4" d="m20.73,11.29c.09-.28.24-1.2.2-2.38-.75,1.19-2.27.62-2.27.62l-.24,2.43,2.31-.67Z"/>
      <g class="cls-5">
        <path class="cls-2" d="m17.32,3.95l1.16,3.59c.09,0,1.58-.19,2.29-.28-.2-1.15-.6-2.38-1.36-3.47-.96.07-2.09.16-2.09.16Z"/>
      </g>
      <path class="cls-1" d="m9.54,16.53c-.05,0-.1,0-.15-.02-4.34-1.2-5.71-5.72-4.83-9.56.5-2.17,1.65-4.05,3.25-5.3C9.64.22,11.94-.3,14.46.16c2.58.47,4.5,1.72,5.7,3.71,1.88,3.12,1.31,7.01,1.12,7.59-.06.18-.2.33-.39.38l-2.29.66-8.83,3.96c-.07.03-.16.05-.24.05ZM12.7,1.15c-3.88,0-6.3,2.89-7.03,6.06-.72,3.15.18,6.99,3.82,8.13l8.67-3.89s.05-.02.08-.03l2-.58c.17-.98.39-3.95-1.07-6.37-1.02-1.69-2.68-2.76-4.92-3.17-.54-.1-1.05-.14-1.55-.14Z"/>
      <path class="cls-11" d="m10.72,12.3c-2.2-.51-2.81-4.85-.26-6.27,2.48-1.38,5.64.95,4.55,4.75l-4.29,1.52Z"/>
      <path class="cls-10" d="m10.46,6.03c-2.55,1.42-1.94,5.76.26,6.27l1.01-.36c-2.41-1.02-1.95-4.48.06-4.52,2.11-.04,2.34,2.72,1.93,3.82l1.29-.46c1.09-3.8-2.07-6.13-4.55-4.75Z"/>
      <path class="cls-1" d="m10.59,12.86c-1.19-.28-2.11-1.47-2.32-3.03-.26-1.83.5-3.52,1.92-4.31,1.33-.74,2.89-.61,4.08.34,1.39,1.1,1.89,3.05,1.31,5.08l-1.11-.32c.46-1.6.12-3.04-.92-3.86-.81-.65-1.89-.74-2.8-.23-1.21.67-1.48,2.11-1.33,3.14.15,1.08.72,1.89,1.44,2.06l-.26,1.12Z"/>
      <path class="cls-1" d="m18.97,12.05l-1.14-.17c.88-5.99-1.4-8.49-2.84-9.44-1.78-1.19-4.21-1.3-5.9-.28l-.59-.99C10.59-.09,13.46.03,15.63,1.48c1.66,1.11,4.31,3.96,3.34,10.57Z"/>
    </g>
    <g>
      <path class="cls-1" d="m28.89,67.73l-.25-1.13c.92-.2,1.09-.43,1.33-1.22.2-.7,10.76-41.9,12.01-46.81l-20.72-9.12.46-1.06,21.17,9.32c.26.11.4.4.33.67-.49,1.91-11.97,46.74-12.15,47.33-.33,1.09-.76,1.7-2.19,2.02Z"/>
      <path class="cls-2" d="m30.53,65.55c.06-.18,1.27-4.9,2.91-11.29.63-2.45,1.32-5.15,2.03-7.93h0c3.36-13.1,7.19-28.08,7.19-28.08l-21.17-9.32c-3.52.24-6.44.49-7.61.71-1.43.27-2.28.93-3.12,2.56l10.8,54.73c2.08.71,3.13.89,4.91.67.47-.06,1.27-.21,2.3-.43,1.12-.25,1.44-.63,1.74-1.62Z"/>
      <path class="cls-8" d="m38.22,26.55s-1.08,6.5-3.65,6.05c-1.81-.31-.57-7.53-.57-7.53"/>
      <path class="cls-8" d="m23.83,65.9c.78.21,3.87-.07,4.48-.42,1.06-.61,6.61-24.71,6.61-24.71l-9.05,23.78-2.04,1.34Z"/>
      <path class="cls-1" d="m25.19,68.26c-1.15,0-2.18-.23-3.81-.79-.19-.07-.34-.23-.38-.43L10.21,12.31c-.03-.13,0-.26.05-.37.9-1.76,1.89-2.56,3.52-2.86,1.1-.2,3.68-.45,7.67-.72.09,0,.19,0,.27.05l21.17,9.32c.26.11.4.4.33.67,0,0-3.84,14.98-7.19,28.08,0,.01,0,.02,0,.03-.71,2.77-1.4,5.46-2.03,7.9-2.55,9.91-2.88,11.21-2.92,11.32,0,0,0,0,0,0-.33,1.09-.76,1.7-2.17,2.01-1.09.23-1.88.38-2.35.43-.49.06-.94.09-1.36.09Zm-3.12-1.78c1.85.61,2.79.72,4.34.54.43-.05,1.19-.19,2.24-.42.91-.2,1.07-.43,1.31-1.22.04-.15.58-2.22,2.91-11.27.63-2.45,1.32-5.15,2.03-7.93,0-.01,0-.02,0-.03,3-11.72,6.39-24.93,7.06-27.57l-20.59-9.07c-3.82.26-6.38.5-7.4.69-1.23.23-1.91.76-2.62,2.08l10.69,54.2Z"/>
      <path class="cls-7" d="m35.47,46.32c-.71,2.78-1.41,5.48-2.03,7.93,0,0-3.57.61-4.53.75-.38.06-.67.08-.93.06l2.05-7.79c.36.09.61.09.97.05.84-.09,4.48-1.01,4.48-1.01Z"/>
      <path class="cls-4" d="m31.6,54.57c.67-2.67,1.35-5.42,1.91-7.76-.32.08-.65.15-.96.22l-3,7.88c.58-.09,1.35-.22,2.05-.34Z"/>
      <path class="cls-1" d="m28.13,55.65c-.06,0-.13,0-.19,0-.17,0-.33-.1-.44-.24-.1-.14-.14-.32-.09-.49l2.05-7.79c.08-.31.39-.49.7-.41.28.07.45.07.77.03.66-.07,3.4-.74,4.4-.99.2-.05.41,0,.55.15.14.14.2.35.15.55-.71,2.78-1.41,5.48-2.04,7.93-.06.22-.24.39-.46.42-.15.02-3.59.61-4.55.75-.34.05-.62.07-.86.07Zm2.32-7.72l-1.71,6.52s.06,0,.09-.01c.76-.11,3.21-.53,4.15-.69.53-2.08,1.11-4.32,1.7-6.63-1.16.28-3.01.72-3.62.79-.22.02-.42.04-.61.03Z"/>
    </g>
    <g>
      <path class="cls-7" d="m32.8,15.33c3.09-4.6,11.42-4.54,13.84.97,2.17,4.94-.27,12.1-9.26,10.8l-4.57-11.77Z"/>
      <g class="cls-5">
        <path class="cls-2" d="m46.64,16.3c-.11-.25-.23-.49-.36-.71l-4.57-.08-2.02,4.64,7.69-.4c-.01-1.18-.27-2.37-.74-3.45Z"/>
      </g>
      <path class="cls-1" d="m39.4,27.83c-.67,0-1.38-.05-2.11-.16l.17-1.14c4.57.66,6.87-.96,8-2.44,1.53-2.01,1.79-4.98.66-7.56-.97-2.21-3.14-3.67-5.8-3.91-2.86-.26-5.62.93-7.03,3.03l-.96-.64c1.64-2.44,4.82-3.82,8.09-3.53,3.09.28,5.61,2,6.75,4.6,1.3,2.96.98,6.38-.8,8.72-1.52,1.99-3.95,3.04-6.97,3.04Z"/>
      <path class="cls-7" d="m31.63,17.74c2.26-7.44,11.63-6.13,13.65-.31,1.44,4.15-1.35,11.92-9.89,9.21l-3.76-8.89Z"/>
      <path class="cls-4" d="m40.09,20.15l-7.86-3.9c-.24.45-.44.95-.61,1.49l3.76,8.89c1.15.37,2.2.54,3.14.56l1.56-7.05Z"/>
      <g class="cls-5">
        <path class="cls-2" d="m45.65,19.84c.01-.86-.11-1.69-.36-2.41-2.02-5.82-11.4-7.13-13.65.31l.4.96c1.77-5.37,7.86-5.91,10.9-2.78-.03,0-.05.01-.07.02-.8.29-1,1.78-.44,3.33.44,1.23,1.23,2.12,1.94,2.29-.67,3.21-3.56,6.09-9.07,4.83l.1.24c6.82,2.16,9.98-2.35,10.24-6.37.01-.14.02-.28.02-.43Z"/>
      </g>
      <path class="cls-1" d="m38.74,27.78c-1.02,0-2.19-.17-3.52-.6l.35-1.1c3.17,1.01,5.78.59,7.54-1.22,1.99-2.04,2.33-5.26,1.64-7.25-.93-2.67-3.67-4.5-6.66-4.44-2.82.06-5.02,1.82-5.9,4.73l-1.1-.33c1.03-3.4,3.64-5.48,6.98-5.54,3.48-.07,6.68,2.07,7.77,5.21.82,2.37.44,6.03-1.9,8.43-1.03,1.06-2.69,2.11-5.2,2.11Z"/>
      <path class="cls-11" d="m34.93,19.31c1-3.21,5.37-3.03,6.15-.11.81,3.07-2.27,5.16-4.75,3.67l-1.39-3.55Z"/>
      <path class="cls-10" d="m36.63,21.98s-.6-.32-.72-.17l.41,1.06c2.48,1.49,5.57-.6,4.75-3.67-.77-2.92-5.15-3.1-6.15.11l.57,1.45.37-.1c.56-2.52,3.29-2.6,3.76-1.01.5,1.69-1.08,3.09-2.99,2.34Z"/>
      <path class="cls-1" d="m38.06,23.93c-.7,0-1.4-.19-2.04-.57l.6-.99c.98.59,2.12.55,2.99-.11.88-.66,1.21-1.75.9-2.92-.35-1.31-1.5-1.79-2.39-1.81-.98-.02-2.19.48-2.65,1.95l-1.1-.34c.53-1.71,2.01-2.8,3.77-2.76,1.7.04,3.06,1.09,3.48,2.67.43,1.62-.08,3.2-1.33,4.13-.66.5-1.45.75-2.25.75Z"/>
    </g>
    <g>
      <path class="cls-2" d="m2.17,56.83c-2.11-1.75-1.69-3.83-1.18-6.77.41-2.38,8.58-34.81,9.31-36.8.93-2.52,2.18-3.29,5.55-2.23,3.57,1.12,18.16,7.75,19.07,8.28,1,.59,1.87,1.37,1.33,3.86-.57,2.61-10.51,40.44-10.85,41.53-.8,2.59-1.75,3.17-4.98,1.79-2.63-1.13-16.91-8.53-18.26-9.66Z"/>
      <path class="cls-7" d="m27.97,55.07c-.32-.01-.6-.08-.94-.21-.43-.15-24.51-11.3-24.51-11.3.54-2.22,1.19-4.83,1.88-7.57,0,0,24.49,10.91,25.15,11.15.18.06.33.11.47.15l-2.05,7.79Z"/>
      <path class="cls-8" d="m23.08,65.48c-.27,0-.83-.1-1.97-.59-2.74-1.17-16.63-8.42-17.84-9.4-1.22-1.02-1.11-2.07-.61-4.95l.4-1.85c0,3.07,1.04,3.64,1.78,4.12,2.36,1.53,13.11,7.31,15.8,6.95,2.69-.36,14.25-38.48,13.93-36.98-.53,2.44-10.42,40.1-10.81,41.39-.31,1-.52,1.24-.57,1.29-.01,0-.05,0-.1,0Z"/>
      <polygon class="cls-6" points="4.32 42.38 5.28 38.39 23.96 46.34 22.75 50.85 4.32 42.38"/>
      <g class="cls-3">
        <polygon class="cls-2" points="3.85 46.74 8.99 27.2 12.57 29.02 7.95 48.22 3.85 46.74"/>
      </g>
      <g class="cls-3">
        <polygon class="cls-2" points="9.99 50 14.66 30.05 17.14 32.98 12.57 51.5 9.99 50"/>
      </g>
      <path class="cls-4" d="m26.32,54.55c.64-2.42,1.35-5.13,2.08-7.91-.42-.18-.93-.41-1.53-.67-.98,2.75-1.94,5.35-2.82,7.54.97.45,1.75.8,2.27,1.04Z"/>
      <path class="cls-1" d="m27.97,55.65s-.02,0-.03,0c-.36-.02-.69-.09-1.11-.24-.44-.16-20.53-9.46-24.56-11.32-.25-.12-.38-.39-.32-.66.59-2.39,1.24-5.01,1.88-7.58.04-.17.15-.3.31-.38.15-.07.33-.08.49,0,6.78,3.02,24.5,10.9,25.11,11.13.17.06.3.1.41.13.15.04.28.13.36.27.08.13.1.29.06.44l-2.05,7.79c-.07.25-.3.43-.56.43ZM3.19,43.24c8.33,3.86,23.51,10.88,24.04,11.09.11.04.22.07.31.1l1.78-6.76c-1.1-.44-20.22-8.95-24.53-10.87-.55,2.19-1.09,4.39-1.6,6.44Z"/>
      <path class="cls-1" d="m23.09,67.79c-.74,0-1.67-.25-2.89-.77-2.7-1.16-17.01-8.58-18.4-9.74h0c-2.31-1.93-1.92-4.22-1.41-7.12l.03-.2c.46-2.67,8.67-35.08,9.34-36.9,1.1-2.97,2.8-3.67,6.27-2.58,3.55,1.11,18.07,7.68,19.19,8.34,1.19.69,2.2,1.72,1.6,4.48-.57,2.6-10.48,40.36-10.86,41.58-.35,1.13-.81,2.24-1.81,2.7-.31.15-.66.22-1.07.22ZM2.54,56.38c1.3,1.09,15.54,8.46,18.12,9.57,1.52.65,2.45.83,3.01.57.47-.22.82-.81,1.19-2,.38-1.22,10.27-38.88,10.84-41.48.47-2.15-.17-2.72-1.06-3.24-.8-.47-15.38-7.11-18.95-8.23-3.2-1-4.04-.26-4.84,1.88-.67,1.8-8.83,34.04-9.29,36.69l-.03.2c-.49,2.83-.79,4.53,1.01,6.03h0Z"/>
    </g>
    <g>
      <g>
        <path class="cls-7" d="m9.02,25.01c-2.23-2.77,1.35-9.18,5.75-8.71,3.72.4,4.16,5.71.95,8.4-2.15,1.8-5.45,1.87-6.7.31Z"/>
        <g>
          <ellipse class="cls-1" cx="13.52" cy="21.01" rx="3" ry="2.74" transform="translate(-10.68 27.21) rotate(-71.6)"/>
          <ellipse class="cls-2" cx="14.55" cy="20.74" rx=".95" ry=".87" transform="translate(-9.72 28) rotate(-71.6)"/>
          <g class="cls-5">
            <ellipse class="cls-2" cx="12.9" cy="21.2" rx=".49" ry=".45" transform="translate(-11.29 26.74) rotate(-71.6)"/>
          </g>
        </g>
      </g>
      <g>
        <path class="cls-7" d="m28.99,32.17c-2.99.44-5.66-3.54-5.66-6.79,0-4.65,5.57-5.74,7.67-2.96,2.16,2.86,1.71,9.2-2.01,9.75Z"/>
        <g>
          <ellipse class="cls-1" cx="27.78" cy="26.07" rx="2.77" ry="3.04"/>
          <ellipse class="cls-2" cx="26.87" cy="25.48" rx=".88" ry=".96"/>
          <g class="cls-5">
            <path class="cls-2" d="m27.86,26.45c0,.28.2.5.46.5s.46-.22.46-.5c0-.28-.2-.5-.46-.5s-.46.22-.46.5Z"/>
          </g>
        </g>
      </g>
      <g>
        <path class="cls-1" d="m19.39,26.64l-.92-.11c.11-.98.49-1.94.5-1.98l.86.34s-.35.89-.45,1.74Z"/>
        <g>
          <ellipse class="cls-1" cx="17.78" cy="31.97" rx="4.87" ry="5.54"/>
          <path class="cls-2" d="m19.21,36.88c-2.48,0-4.5-2.29-4.5-5.12s1.97-5.06,4.41-5.11c-.43-.14-.88-.22-1.35-.22-2.69,0-4.87,2.48-4.87,5.54s2.18,5.54,4.87,5.54c.92,0,1.77-.29,2.5-.79-.34.1-.7.15-1.07.15Z"/>
          <path class="cls-8" d="m14.71,31.76c0-2.79,1.97-5.06,4.41-5.11-.43-.14-.88-.22-1.35-.22-2.69,0-4.87,2.48-4.87,5.54,0,.35.03.69.08,1.03l1.84-.11c-.07-.36-.11-.74-.11-1.13Z"/>
          <path class="cls-1" d="m17.78,38.1c-3.01,0-5.45-2.75-5.45-6.12s2.45-6.12,5.45-6.12,5.45,2.75,5.45,6.12-2.45,6.12-5.45,6.12Zm0-11.09c-2.37,0-4.3,2.23-4.3,4.97s1.93,4.97,4.3,4.97,4.3-2.23,4.3-4.97-1.93-4.97-4.3-4.97Z"/>
        </g>
        <path class="cls-1" d="m19.1,25.23c-.39-.19-1.4-1.15-1.11-1.68.37-.68,3.92.77,3.69,1.41-.19.53-2.19.45-2.58.26Z"/>
        <g class="cls-5">
          <path class="cls-2" d="m19.07,24.45c-.26-.12-.57-.5-.46-.7.1-.18,1.62.32,1.53.59-.05.16-.78.23-1.07.11Z"/>
        </g>
      </g>
    </g>
  </g>
</svg>