<?xml version="1.0" encoding="UTF-8"?>
<svg id="Layer_2" data-name="Layer 2" xmlns="http://www.w3.org/2000/svg" viewBox="0 0 63.31 46.61">
  <defs>
    <style>
      .cls-1 {
        fill: #f3f8f9;
      }

      .cls-2 {
        fill: #bf6b00;
      }

      .cls-3 {
        fill: #ff8f00;
      }

      .cls-4 {
        fill: #ffa533;
      }

      .cls-5 {
        fill: #804800;
      }
    </style>
  </defs>
  <g id="Orange_HL" data-name="Orange HL">
    <path class="cls-4" d="m59.85,4.39c.25-.13.49-.25.66-.36.9-.57,1.07-.93,2-.59-.08-.35-.3-.66-.3-1,0-.62.33-1.84.61-2.41h0c-.1-.05-.22-.04-.33.02-1.44.81-2.75,1.81-4.17,2.67.63.27,1.2.93,1.53,1.67Z"/>
    <path class="cls-3" d="m63.12.39c-.01-.19-.14-.33-.3-.37h0c-.28.58-.61,1.8-.61,2.42,0,.34.22.66.3,1-.93-.34-1.1.02-2,.59-.17.11-.41.23-.66.36.04.08.07.16.1.24.15.4.22.81.19,1.18.76-.54,1.51-1.08,2.25-1.58.63-.42.98-1.16.9-1.92-.07-.64-.12-1.26-.17-1.92Z"/>
    <path class="cls-2" d="m48.55,9.67c1.12,1.54,3.33,6.4,4.44,2.79.4-1.3-.08-2.24.8-3.37.46-.6,1.94-1.44,2.62-1.87.94-.59,2.34-1.83,3.55-2.6-.03-.08-.06-.16-.1-.24-.33-.73-.9-1.4-1.53-1.67-.33-.14-.67-.17-1-.06-3.07,1.09-6.49,2.28-9.72,1.08-2.27-.84-3.72-.94-5.65-.18.95.73,2.12,1.38,2.97,2.09,1.42,1.19,2.55,2.52,3.63,4.01Z"/>
    <path class="cls-5" d="m59.95,4.63c-1.21.77-2.61,2-3.55,2.6-.68.43-2.15,1.27-2.62,1.87-.88,1.14-.4,2.08-.8,3.37-1.11,3.61-3.33-1.25-4.44-2.79-1.08-1.5-2.22-2.83-3.63-4.01-.86-.72-2.02-1.36-2.97-2.09-.38.15-.79.33-1.22.55.14.06.27.13.4.21,2.39,1.56,4.71,4.17,6.51,6.72,1.29,1.82,2.72,4.26,3.58,6.73.3.87.54,1.75.66,2.61.01.09.02.18.03.28,2.41-1.21,3.32-3.13,3.72-5.91.21-1.45.1-2.71.72-4.12.8-1.84,2.18-2.46,3.49-4.01.18-.22.28-.49.3-.8.03-.37-.04-.78-.19-1.18Z"/>
    <path class="cls-3" d="m16.41,40.28c1.32,1.82,8.29-2.51,9.89-3.25,4.9-2.25,9.54-5.32,13.97-8.33,2.96-2.01,5.37-4.27,7.69-6.98,1.13-1.32,2.33-2.5,3.25-3.96-.86-2.48-2.29-4.91-3.58-6.73-1.8-2.54-4.12-5.15-6.51-6.72-.13-.08-.26-.15-.4-.21-.72-.31-1.54-.32-2.27,0-9.32,4.14-17.99,9.59-25.87,16.08-3.25,2.68-7.71,5.99-11.05,9.14,1.25,3.82,2.62,7.96,5.6,10.85,2.91,2.83,5.64,1.23,9.28.1Zm26.24-19.27c.99-.71,2.64-1.77,3.85-1.23-.27,1.52-1.79,2.59-3,3.45-2.03,1.44-23.4,17.13-24.75,15.34l-.02-.03c-1.2-1.67,1.78-3.15,2.83-3.86,6.94-4.72,14.29-8.75,21.1-13.66Zm-18.61-2.67c6.27-3.91,12.54-5.18,14-2.84,1.46,2.34-2.45,7.41-8.72,11.31-6.27,3.91-12.54,5.18-14,2.84-1.46-2.34,2.45-7.41,8.72-11.31Z"/>
    <path class="cls-2" d="m51.22,17.77c-.92,1.45-2.13,2.64-3.25,3.96-2.32,2.71-4.73,4.97-7.69,6.98-4.43,3.01-9.07,6.08-13.97,8.33-1.6.73-8.57,5.06-9.89,3.25-3.64,1.13-6.37,2.73-9.28-.1-2.97-2.89-4.35-7.03-5.6-10.85-.13.12-.26.25-.39.37-.91.88-1.33,2.16-1.08,3.4,1.07,5.21,4.16,9.24,8.19,12.62,1.08.91,2.58,1.14,3.88.58,13.64-5.87,26.66-14.57,38.62-23.3.75-.55,1.18-1.43,1.14-2.35,0-.09-.01-.18-.03-.28-.13-.86-.36-1.73-.66-2.61Z"/>
    <path class="cls-2" d="m18.72,38.54l.02.03c1.35,1.79,22.73-13.9,24.75-15.34,1.2-.86,2.73-1.93,3-3.45-1.2-.54-2.86.52-3.85,1.23-6.81,4.91-14.16,8.94-21.1,13.66-1.05.71-4.03,2.19-2.83,3.86Z"/>
    <path class="cls-1" d="m29.32,26.82c6.27-3.91,10.18-8.97,8.72-11.31-1.46-2.34-7.73-1.07-14,2.84-6.27,3.91-10.18,8.97-8.72,11.31,1.46,2.34,7.73,1.07,14-2.84Z"/>
  </g>
</svg>