<?xml version="1.0" encoding="UTF-8"?>
<svg id="Layer_2" data-name="Layer 2" xmlns="http://www.w3.org/2000/svg" viewBox="0 0 20.38 82.7">
  <defs>
    <style>
      .cls-1 {
        fill: #fff;
      }

      .cls-2 {
        fill: #ffd328;
      }

      .cls-3 {
        fill: #dee5f6;
      }

      .cls-4 {
        fill: #f8f8f6;
      }

      .cls-5 {
        fill: #dbdbd2;
      }

      .cls-6 {
        fill: #d1b200;
      }
    </style>
  </defs>
  <g id="Paper_glue" data-name="Paper glue">
    <path class="cls-6" d="m20.38,8.66v51.83c0,.98-1.33,1.87-3.42,2.48-1.8.52-4.17.83-6.76.83s-5.11-.33-6.93-.88C1.25,62.31,0,61.45,0,60.49V8.66c0,.96,1.25,1.82,3.25,2.43,1.82.55,4.26.88,6.93.88s4.96-.32,6.76-.83c2.1-.61,3.42-1.49,3.42-2.48Z"/>
    <path class="cls-4" d="m20.38,3.31v5.36c0,1.83-4.56,3.31-10.19,3.31S0,10.49,0,8.66V3.31c0,1.1,1.66,2.08,4.22,2.68,1.68.4,3.74.63,5.97.63s4.29-.23,5.97-.63c2.55-.6,4.22-1.58,4.22-2.68Z"/>
    <path class="cls-3" d="m20.38,3.31c0,1.1-1.66,2.08-4.22,2.68-1.68.4-3.74.63-5.97.63s-4.29-.23-5.97-.63C1.66,5.39,0,4.41,0,3.31h20.38Z"/>
    <path class="cls-4" d="m20.38,60.49v18.9c0,.98-1.33,1.87-3.42,2.47-.43.12-.89.24-1.39.34-.86.17-1.81.31-2.81.39-.82.07-1.68.1-2.56.1-.95,0-1.86-.04-2.73-.12-.94-.09-1.83-.21-2.64-.38-.56-.11-1.08-.24-1.56-.39-2-.6-3.25-1.47-3.25-2.42v-18.9c0,.96,1.25,1.82,3.25,2.42.48.14,1,.27,1.56.39.81.16,1.7.29,2.64.38.87.08,1.79.12,2.73.12.88,0,1.74-.04,2.56-.1,1.01-.09,1.96-.22,2.81-.39.49-.1.96-.21,1.39-.34,2.1-.6,3.42-1.49,3.42-2.47Z"/>
    <path class="cls-3" d="m16.16,5.99c-1.68.4-3.74.63-5.97.63s-4.29-.23-5.97-.63c1.68-.4,3.74-.63,5.97-.63s4.29.23,5.97.63Z"/>
    <path class="cls-1" d="m20.38,3.31c0,1.1-1.66,2.08-4.22,2.68-1.68.4-3.74.63-5.97.63s-4.29-.23-5.97-.63C1.66,5.39,0,4.41,0,3.31,0,1.48,4.56,0,10.19,0s10.19,1.48,10.19,3.31Z"/>
    <path class="cls-2" d="m16.95,11.14v51.83c-1.8.52-4.17.83-6.76.83s-5.11-.33-6.93-.88V11.09c1.82.55,4.26.88,6.93.88s4.96-.32,6.76-.83Z"/>
    <path class="cls-5" d="m16.95,62.96v18.9c-.43.12-.89.24-1.39.34-.86.17-1.81.31-2.81.39-.82.07-1.68.1-2.56.1-.95,0-1.86-.04-2.73-.12-.94-.09-1.83-.21-2.64-.38-.56-.11-1.08-.24-1.56-.39v-18.9c.48.14,1,.27,1.56.39.81.16,1.7.29,2.64.38.87.08,1.79.12,2.73.12.88,0,1.74-.04,2.56-.1,1.01-.09,1.96-.22,2.81-.39.49-.1.96-.21,1.39-.34Z"/>
    <path class="cls-4" d="m15.56,63.3v18.9c-.86.17-1.81.31-2.81.39-.82.07-1.68.1-2.56.1-.95,0-1.86-.04-2.73-.12-.94-.09-1.83-.21-2.64-.38v-18.9c.81.16,1.7.29,2.64.38.87.08,1.79.12,2.73.12.88,0,1.74-.04,2.56-.1,1.01-.09,1.96-.22,2.81-.39Z"/>
    <path class="cls-5" d="m12.75,63.69v18.9c-.82.07-1.68.1-2.56.1-.95,0-1.86-.04-2.73-.12v-18.9c.87.08,1.79.12,2.73.12.88,0,1.74-.04,2.56-.1Z"/>
  </g>
</svg>