<?xml version="1.0" encoding="UTF-8"?>
<svg id="Layer_2" data-name="Layer 2" xmlns="http://www.w3.org/2000/svg" viewBox="0 0 54.67 61.03">
  <defs>
    <style>
      .cls-1 {
        fill: #2d2921;
      }

      .cls-2 {
        fill: #cfc4a9;
      }

      .cls-3 {
        fill: #aba79b;
      }

      .cls-4 {
        fill: #f0ead9;
      }
    </style>
  </defs>
  <g id="Paper_tape" data-name="Paper tape">
    <path class="cls-2" d="m54.07,27.99c-2.62-12.36-13.6-21.63-26.73-21.63S3.22,15.64.6,27.99H.05v4.08c-.03.54-.05,1.08-.05,1.63s.02,1.09.05,1.63H.05c.42,7.17,3.6,13.6,8.5,18.23,4.9,4.63,11.51,7.47,18.78,7.47,14.55,0,26.44-11.37,27.28-25.7h.05v-7.34h-.6Zm-16.27,3.39c-.85,2.19-2.36,4.04-4.3,5.31-1.77,1.17-3.89,1.85-6.16,1.85-2.52,0-4.85-.83-6.73-2.24-1.66-1.25-2.97-2.95-3.73-4.92.76-1.97,2.07-3.67,3.73-4.92v-8.11c1.87-1.41,4.2-2.24,6.73-2.24,2.28,0,4.4.68,6.16,1.85v8.11c1.93,1.27,3.45,3.13,4.3,5.31Z"/>
    <path class="cls-4" d="m27.33,0C12.24,0,0,12.24,0,27.33c0,.55.02,1.1.05,1.65.85,14.33,12.74,25.69,27.28,25.69s26.97-11.88,27.33-26.67c0-.22,0-.44,0-.66C54.67,12.24,42.43,0,27.33,0Zm6.16,36.7c-1.77,1.17-3.89,1.85-6.16,1.85-2.52,0-4.85-.83-6.73-2.24-1.66-1.25-2.97-2.95-3.73-4.92.76-1.97,2.07-3.67,3.73-4.92v-8.11c1.87-1.41,4.2-2.24,6.73-2.24,2.28,0,4.4.68,6.16,1.85v8.11c1.93,1.27,3.45,3.13,4.3,5.31-.85,2.19-2.36,4.04-4.3,5.31Z"/>
    <path class="cls-3" d="m27.33,13.67c-7.55,0-13.67,6.12-13.67,13.67s6.12,13.67,13.67,13.67,13.67-6.12,13.67-13.67-6.12-13.67-13.67-13.67Zm6.16,23.04c-1.77,1.17-3.89,1.85-6.16,1.85-2.52,0-4.85-.83-6.73-2.24-1.66-1.25-2.97-2.95-3.73-4.92.76-1.97,2.07-3.67,3.73-4.92v-8.11c1.87-1.41,4.2-2.24,6.73-2.24,2.28,0,4.4.68,6.16,1.85v8.11c1.93,1.27,3.45,3.13,4.3,5.31-.85,2.19-2.36,4.04-4.3,5.31Z"/>
    <path class="cls-1" d="m20.61,18.36v8.11c-1.66,1.25-2.97,2.95-3.73,4.92-.49-1.26-.76-2.62-.76-4.05,0-3.67,1.76-6.93,4.49-8.97Z"/>
    <path class="cls-1" d="m38.55,27.33c0,1.43-.27,2.8-.76,4.05-.85-2.19-2.36-4.04-4.3-5.31v-8.11c3.04,2,5.05,5.45,5.05,9.37Z"/>
    <path class="cls-1" d="m33.5,17.96v8.11c-1.77-1.17-3.89-1.85-6.16-1.85-2.52,0-4.85.83-6.73,2.24v-8.11c1.87-1.41,4.2-2.24,6.73-2.24,2.28,0,4.4.68,6.16,1.85Z"/>
  </g>
</svg>