<?xml version="1.0" encoding="UTF-8"?>
<svg id="Layer_2" data-name="Layer 2" xmlns="http://www.w3.org/2000/svg" viewBox="0 0 8.46 116.2">
  <defs>
    <style>
      .cls-1 {
        fill: #ced8db;
      }

      .cls-2 {
        fill: #004ba8;
      }

      .cls-3 {
        fill: #065ca3;
      }

      .cls-4 {
        fill: #766940;
      }

      .cls-5 {
        fill: #001f39;
      }

      .cls-6 {
        fill: #0084b7;
      }

      .cls-7 {
        fill: #2356ad;
      }

      .cls-8 {
        fill: #ddca88;
      }

      .cls-9 {
        fill: #0066cd;
      }

      .cls-10 {
        fill: #4077c2;
      }

      .cls-11 {
        fill: #0082ca;
      }

      .cls-12 {
        fill: #005990;
      }

      .cls-13 {
        fill: #50a4d4;
      }
    </style>
  </defs>
  <g id="pen_with_cap" data-name="pen with cap">
    <path class="cls-4" d="m6.73,114.21c-.03.11-.06.21-.08.31h-1.94c-.03-.1-.06-.2-.08-.31h2.11Z"/>
    <g>
      <g>
        <polygon class="cls-2" points="4.23 5.55 0 28.17 2.48 28.17 4.23 5.55"/>
        <polygon class="cls-2" points="1.49 28.17 1.49 45.14 0 45.98 0 28.17 1.49 28.17"/>
        <polygon class="cls-9" points=".74 28.17 .74 45.56 0 45.98 0 28.17 .74 28.17"/>
      </g>
      <polygon class="cls-2" points="0 28.17 4.23 28.17 4.23 5.41 0 28.17"/>
    </g>
    <ellipse class="cls-7" cx="5.68" cy="25.78" rx="2.73" ry="25.78"/>
    <path class="cls-10" d="m6.65,25.78c0-14.24-.43-25.78-.97-25.78s-.97,11.54-.97,25.78.43,25.78.97,25.78.97-11.54.97-25.78Z"/>
    <path class="cls-3" d="m8.4,90.48c0,7.43.4,14.35-.87,18.81-.23.81-.2,1.6-.3,2.3-.11.73-.23,1.38-.35,1.95-.05.23-.1.45-.15.66-.03.11-.06.21-.08.31v-24.04h-1.94v24.04c-.03-.1-.06-.2-.08-.31-.05-.21-.1-.43-.15-.66-.12-.57-.24-1.22-.35-1.95-.11-.7-.06-1.5-.3-2.3-1.36-4.46-.87-11.38-.87-18.81,0-10.98.73-20.35,1.76-24.04.3-1.09.63-1.68.97-1.68s.67.59.97,1.68c1.03,3.69,1.76,13.06,1.76,24.04Z"/>
    <path class="cls-11" d="m7.54,90.48v18.81c-.09.83-.2,1.6-.3,2.3-.11.73-.23,1.38-.35,1.95-.05.23-.1.45-.15.66-.03.11-.06.21-.08.31h-1.94c-.03-.1-.06-.2-.08-.31-.05-.21-.1-.43-.15-.66-.12-.57-.24-1.22-.35-1.95-.11-.7-.21-1.47-.3-2.3v-18.81h3.72Z"/>
    <rect class="cls-11" x="3.82" y="83.5" width="3.71" height="6.99"/>
    <rect class="cls-1" x="2.95" y="28.18" width="5.45" height="65.16"/>
    <rect class="cls-5" x="4.71" y="83.5" width="1.94" height="31.02"/>
    <rect class="cls-12" x="4.71" y="28.18" width="1.94" height="65.16"/>
    <path class="cls-6" d="m7.23,111.6c-.11.73-.23,1.38-.35,1.95-.05.23-.1.45-.15.66-.03.11-.06.21-.08.31h-1.94c-.03-.1-.06-.2-.08-.31-.05-.21-.1-.43-.15-.66-.12-.57-.24-1.22-.35-1.95h3.11Z"/>
    <path class="cls-13" d="m6.88,113.55c-.05.23-.1.45-.15.66-.03.11-.06.21-.08.31h-1.94c-.03-.1-.06-.2-.08-.31-.05-.21-.1-.43-.15-.66h2.41Z"/>
    <path class="cls-8" d="m6.39,114.52c-.22,1.09-.46,1.68-.71,1.68s-.49-.59-.71-1.68h1.43Z"/>
  </g>
</svg>