<svg width="1348" height="202" viewBox="0 0 1348 202" fill="none" xmlns="http://www.w3.org/2000/svg">
<rect width="1348" height="201.915" rx="10" fill="white"/>
<path d="M37.736 123.172L30.184 100.772H32.616L39.688 121.86H38.472L45.768 100.772H47.944L55.144 121.86H53.992L61.128 100.772H63.4L55.848 123.172H53.352L46.472 103.172H47.112L40.2 123.172H37.736ZM76.3065 106.212C77.6718 106.212 78.8665 106.479 79.8905 107.012C80.9358 107.524 81.7465 108.313 82.3225 109.38C82.9198 110.447 83.2185 111.791 83.2185 113.412V123.172H80.9465V113.636C80.9465 111.865 80.4985 110.532 79.6025 109.636C78.7278 108.719 77.4905 108.26 75.8905 108.26C74.6958 108.26 73.6505 108.505 72.7545 108.996C71.8798 109.465 71.1972 110.159 70.7065 111.076C70.2372 111.972 70.0025 113.06 70.0025 114.34V123.172H67.7305V99.4279H70.0025V110.98L69.5545 110.116C70.0878 108.9 70.9412 107.951 72.1145 107.268C73.2878 106.564 74.6852 106.212 76.3065 106.212ZM99.8835 123.172V119.46L99.7875 118.852V112.644C99.7875 111.215 99.3822 110.116 98.5715 109.348C97.7822 108.58 96.5982 108.196 95.0195 108.196C93.9315 108.196 92.8968 108.377 91.9155 108.74C90.9342 109.103 90.1022 109.583 89.4195 110.18L88.3955 108.484C89.2488 107.759 90.2728 107.204 91.4675 106.82C92.6622 106.415 93.9208 106.212 95.2435 106.212C97.4195 106.212 99.0942 106.756 100.268 107.844C101.462 108.911 102.06 110.543 102.06 112.74V123.172H99.8835ZM94.0915 123.332C92.8328 123.332 91.7342 123.129 90.7955 122.724C89.8782 122.297 89.1742 121.721 88.6835 120.996C88.1928 120.249 87.9475 119.396 87.9475 118.436C87.9475 117.561 88.1502 116.772 88.5555 116.068C88.9822 115.343 89.6648 114.767 90.6035 114.34C91.5635 113.892 92.8435 113.668 94.4435 113.668H100.236V115.364H94.5075C92.8862 115.364 91.7555 115.652 91.1155 116.228C90.4968 116.804 90.1875 117.519 90.1875 118.372C90.1875 119.332 90.5608 120.1 91.3075 120.676C92.0542 121.252 93.0995 121.54 94.4435 121.54C95.7235 121.54 96.8222 121.252 97.7395 120.676C98.6782 120.079 99.3608 119.225 99.7875 118.116L100.3 119.684C99.8728 120.793 99.1262 121.679 98.0595 122.34C97.0142 123.001 95.6915 123.332 94.0915 123.332ZM113.543 123.332C111.964 123.332 110.748 122.905 109.895 122.052C109.041 121.199 108.615 119.993 108.615 118.436V102.66H110.887V118.308C110.887 119.289 111.132 120.047 111.623 120.58C112.135 121.113 112.86 121.38 113.799 121.38C114.801 121.38 115.633 121.092 116.295 120.516L117.095 122.148C116.647 122.553 116.103 122.852 115.463 123.044C114.844 123.236 114.204 123.332 113.543 123.332ZM105.607 108.26V106.372H116.007V108.26H105.607ZM119.855 107.236L121.263 101.348L121.519 102.692C121.028 102.692 120.612 102.543 120.271 102.244C119.951 101.924 119.791 101.508 119.791 100.996C119.791 100.484 119.951 100.068 120.271 99.7479C120.612 99.4279 121.017 99.2679 121.487 99.2679C121.977 99.2679 122.372 99.4385 122.671 99.7799C122.991 100.1 123.151 100.505 123.151 100.996C123.151 101.167 123.14 101.337 123.119 101.508C123.097 101.679 123.055 101.871 122.991 102.084C122.948 102.276 122.873 102.521 122.766 102.82L121.391 107.236H119.855ZM132.024 123.332C130.637 123.332 129.325 123.14 128.088 122.756C126.85 122.351 125.88 121.849 125.176 121.252L126.2 119.46C126.882 119.972 127.757 120.42 128.824 120.804C129.89 121.167 131.01 121.348 132.184 121.348C133.784 121.348 134.936 121.103 135.64 120.612C136.344 120.1 136.696 119.428 136.696 118.596C136.696 117.977 136.493 117.497 136.088 117.156C135.704 116.793 135.192 116.527 134.552 116.356C133.912 116.164 133.197 116.004 132.408 115.876C131.618 115.748 130.829 115.599 130.04 115.428C129.272 115.257 128.568 115.012 127.928 114.692C127.288 114.351 126.765 113.892 126.36 113.316C125.976 112.74 125.784 111.972 125.784 111.012C125.784 110.095 126.04 109.273 126.552 108.548C127.064 107.823 127.81 107.257 128.792 106.852C129.794 106.425 131.01 106.212 132.44 106.212C133.528 106.212 134.616 106.361 135.704 106.66C136.792 106.937 137.688 107.311 138.392 107.78L137.4 109.604C136.653 109.092 135.853 108.729 135 108.516C134.146 108.281 133.293 108.164 132.44 108.164C130.925 108.164 129.805 108.431 129.08 108.964C128.376 109.476 128.024 110.137 128.024 110.948C128.024 111.588 128.216 112.089 128.6 112.452C129.005 112.815 129.528 113.103 130.168 113.316C130.829 113.508 131.544 113.668 132.312 113.796C133.101 113.924 133.88 114.084 134.648 114.276C135.437 114.447 136.152 114.692 136.792 115.012C137.453 115.311 137.976 115.748 138.36 116.324C138.765 116.879 138.968 117.615 138.968 118.532C138.968 119.513 138.69 120.367 138.136 121.092C137.602 121.796 136.813 122.351 135.768 122.756C134.744 123.14 133.496 123.332 132.024 123.332ZM156.824 123.332C155.245 123.332 154.029 122.905 153.176 122.052C152.322 121.199 151.896 119.993 151.896 118.436V102.66H154.168V118.308C154.168 119.289 154.413 120.047 154.904 120.58C155.416 121.113 156.141 121.38 157.08 121.38C158.082 121.38 158.914 121.092 159.576 120.516L160.376 122.148C159.928 122.553 159.384 122.852 158.744 123.044C158.125 123.236 157.485 123.332 156.824 123.332ZM148.888 108.26V106.372H159.288V108.26H148.888ZM173.088 106.212C174.453 106.212 175.648 106.479 176.672 107.012C177.717 107.524 178.528 108.313 179.104 109.38C179.701 110.447 180 111.791 180 113.412V123.172H177.728V113.636C177.728 111.865 177.28 110.532 176.384 109.636C175.509 108.719 174.272 108.26 172.672 108.26C171.477 108.26 170.432 108.505 169.536 108.996C168.661 109.465 167.978 110.159 167.488 111.076C167.018 111.972 166.784 113.06 166.784 114.34V123.172H164.512V99.4279H166.784V110.98L166.336 110.116C166.869 108.9 167.722 107.951 168.896 107.268C170.069 106.564 171.466 106.212 173.088 106.212ZM193.273 123.332C191.523 123.332 189.987 122.969 188.665 122.244C187.342 121.497 186.307 120.484 185.561 119.204C184.814 117.903 184.441 116.42 184.441 114.756C184.441 113.092 184.793 111.62 185.497 110.34C186.222 109.06 187.203 108.057 188.441 107.332C189.699 106.585 191.107 106.212 192.665 106.212C194.243 106.212 195.641 106.575 196.857 107.3C198.094 108.004 199.065 109.007 199.769 110.308C200.473 111.588 200.825 113.071 200.825 114.756C200.825 114.863 200.814 114.98 200.793 115.108C200.793 115.215 200.793 115.332 200.793 115.46H186.169V113.764H199.577L198.681 114.436C198.681 113.22 198.414 112.143 197.881 111.204C197.369 110.244 196.665 109.497 195.769 108.964C194.873 108.431 193.838 108.164 192.665 108.164C191.513 108.164 190.478 108.431 189.561 108.964C188.643 109.497 187.929 110.244 187.417 111.204C186.905 112.164 186.649 113.263 186.649 114.5V114.852C186.649 116.132 186.926 117.263 187.481 118.244C188.057 119.204 188.846 119.961 189.849 120.516C190.873 121.049 192.035 121.316 193.337 121.316C194.361 121.316 195.31 121.135 196.185 120.772C197.081 120.409 197.849 119.855 198.489 119.108L199.769 120.58C199.022 121.476 198.083 122.159 196.953 122.628C195.843 123.097 194.617 123.332 193.273 123.332ZM222.4 106.212C223.766 106.212 224.96 106.479 225.984 107.012C227.03 107.524 227.84 108.313 228.416 109.38C229.014 110.447 229.312 111.791 229.312 113.412V123.172H227.04V113.636C227.04 111.865 226.592 110.532 225.696 109.636C224.822 108.719 223.584 108.26 221.984 108.26C220.79 108.26 219.744 108.505 218.848 108.996C217.974 109.465 217.291 110.159 216.8 111.076C216.331 111.972 216.096 113.06 216.096 114.34V123.172H213.824V106.372H216V110.98L215.648 110.116C216.182 108.9 217.035 107.951 218.208 107.268C219.382 106.564 220.779 106.212 222.4 106.212ZM245.977 123.172V119.46L245.881 118.852V112.644C245.881 111.215 245.476 110.116 244.665 109.348C243.876 108.58 242.692 108.196 241.113 108.196C240.025 108.196 238.991 108.377 238.009 108.74C237.028 109.103 236.196 109.583 235.513 110.18L234.489 108.484C235.343 107.759 236.367 107.204 237.561 106.82C238.756 106.415 240.015 106.212 241.337 106.212C243.513 106.212 245.188 106.756 246.361 107.844C247.556 108.911 248.153 110.543 248.153 112.74V123.172H245.977ZM240.185 123.332C238.927 123.332 237.828 123.129 236.889 122.724C235.972 122.297 235.268 121.721 234.777 120.996C234.287 120.249 234.041 119.396 234.041 118.436C234.041 117.561 234.244 116.772 234.649 116.068C235.076 115.343 235.759 114.767 236.697 114.34C237.657 113.892 238.937 113.668 240.537 113.668H246.329V115.364H240.601C238.98 115.364 237.849 115.652 237.209 116.228C236.591 116.804 236.281 117.519 236.281 118.372C236.281 119.332 236.655 120.1 237.401 120.676C238.148 121.252 239.193 121.54 240.537 121.54C241.817 121.54 242.916 121.252 243.833 120.676C244.772 120.079 245.455 119.225 245.881 118.116L246.393 119.684C245.967 120.793 245.22 121.679 244.153 122.34C243.108 123.001 241.785 123.332 240.185 123.332ZM275.316 106.212C276.682 106.212 277.866 106.479 278.868 107.012C279.892 107.524 280.682 108.313 281.236 109.38C281.812 110.447 282.1 111.791 282.1 113.412V123.172H279.828V113.636C279.828 111.865 279.402 110.532 278.548 109.636C277.716 108.719 276.532 108.26 274.996 108.26C273.844 108.26 272.842 108.505 271.988 108.996C271.156 109.465 270.506 110.159 270.036 111.076C269.588 111.972 269.364 113.06 269.364 114.34V123.172H267.092V113.636C267.092 111.865 266.666 110.532 265.812 109.636C264.959 108.719 263.764 108.26 262.228 108.26C261.098 108.26 260.106 108.505 259.252 108.996C258.399 109.465 257.738 110.159 257.268 111.076C256.82 111.972 256.596 113.06 256.596 114.34V123.172H254.324V106.372H256.5V110.916L256.148 110.116C256.66 108.9 257.482 107.951 258.612 107.268C259.764 106.564 261.119 106.212 262.676 106.212C264.319 106.212 265.716 106.628 266.868 107.46C268.02 108.271 268.767 109.497 269.108 111.14L268.212 110.788C268.703 109.423 269.567 108.324 270.804 107.492C272.063 106.639 273.567 106.212 275.316 106.212ZM295.398 123.332C293.648 123.332 292.112 122.969 290.79 122.244C289.467 121.497 288.432 120.484 287.686 119.204C286.939 117.903 286.566 116.42 286.566 114.756C286.566 113.092 286.918 111.62 287.622 110.34C288.347 109.06 289.328 108.057 290.566 107.332C291.824 106.585 293.232 106.212 294.79 106.212C296.368 106.212 297.766 106.575 298.982 107.3C300.219 108.004 301.19 109.007 301.894 110.308C302.598 111.588 302.95 113.071 302.95 114.756C302.95 114.863 302.939 114.98 302.918 115.108C302.918 115.215 302.918 115.332 302.918 115.46H288.294V113.764H301.702L300.806 114.436C300.806 113.22 300.539 112.143 300.006 111.204C299.494 110.244 298.79 109.497 297.894 108.964C296.998 108.431 295.963 108.164 294.79 108.164C293.638 108.164 292.603 108.431 291.686 108.964C290.768 109.497 290.054 110.244 289.542 111.204C289.03 112.164 288.774 113.263 288.774 114.5V114.852C288.774 116.132 289.051 117.263 289.606 118.244C290.182 119.204 290.971 119.961 291.974 120.516C292.998 121.049 294.16 121.316 295.462 121.316C296.486 121.316 297.435 121.135 298.31 120.772C299.206 120.409 299.974 119.855 300.614 119.108L301.894 120.58C301.147 121.476 300.208 122.159 299.078 122.628C297.968 123.097 296.742 123.332 295.398 123.332ZM322.797 123.332C321.176 123.332 319.715 122.969 318.413 122.244C317.133 121.497 316.12 120.484 315.373 119.204C314.627 117.903 314.253 116.42 314.253 114.756C314.253 113.071 314.627 111.588 315.373 110.308C316.12 109.028 317.133 108.025 318.413 107.3C319.693 106.575 321.155 106.212 322.797 106.212C324.461 106.212 325.933 106.575 327.213 107.3C328.515 108.025 329.528 109.028 330.253 110.308C331 111.588 331.373 113.071 331.373 114.756C331.373 116.42 331 117.903 330.253 119.204C329.528 120.484 328.515 121.497 327.213 122.244C325.912 122.969 324.44 123.332 322.797 123.332ZM322.797 121.316C324.013 121.316 325.091 121.049 326.029 120.516C326.968 119.961 327.704 119.193 328.237 118.212C328.792 117.209 329.069 116.057 329.069 114.756C329.069 113.433 328.792 112.281 328.237 111.3C327.704 110.319 326.968 109.561 326.029 109.028C325.091 108.473 324.024 108.196 322.829 108.196C321.635 108.196 320.568 108.473 319.629 109.028C318.691 109.561 317.944 110.319 317.389 111.3C316.835 112.281 316.557 113.433 316.557 114.756C316.557 116.057 316.835 117.209 317.389 118.212C317.944 119.193 318.691 119.961 319.629 120.516C320.568 121.049 321.624 121.316 322.797 121.316ZM336.396 123.172V104.26C336.396 102.767 336.833 101.561 337.708 100.644C338.582 99.7265 339.841 99.2679 341.484 99.2679C342.124 99.2679 342.742 99.3532 343.34 99.5239C343.937 99.6945 344.438 99.9612 344.844 100.324L344.076 102.02C343.756 101.743 343.382 101.54 342.956 101.412C342.529 101.263 342.07 101.188 341.58 101.188C340.62 101.188 339.884 101.455 339.372 101.988C338.86 102.521 338.604 103.311 338.604 104.356V106.916L338.668 107.972V123.172H336.396ZM333.388 108.26V106.372H343.788V108.26H333.388ZM360.543 123.332C358.964 123.332 357.748 122.905 356.895 122.052C356.041 121.199 355.615 119.993 355.615 118.436V102.66H357.887V118.308C357.887 119.289 358.132 120.047 358.623 120.58C359.135 121.113 359.86 121.38 360.799 121.38C361.801 121.38 362.633 121.092 363.295 120.516L364.095 122.148C363.647 122.553 363.103 122.852 362.463 123.044C361.844 123.236 361.204 123.332 360.543 123.332ZM352.607 108.26V106.372H363.007V108.26H352.607ZM376.807 106.212C378.172 106.212 379.367 106.479 380.391 107.012C381.436 107.524 382.247 108.313 382.823 109.38C383.42 110.447 383.719 111.791 383.719 113.412V123.172H381.447V113.636C381.447 111.865 380.999 110.532 380.103 109.636C379.228 108.719 377.991 108.26 376.391 108.26C375.196 108.26 374.151 108.505 373.255 108.996C372.38 109.465 371.697 110.159 371.207 111.076C370.737 111.972 370.503 113.06 370.503 114.34V123.172H368.231V99.4279H370.503V110.98L370.055 110.116C370.588 108.9 371.441 107.951 372.615 107.268C373.788 106.564 375.185 106.212 376.807 106.212ZM389.856 123.172V106.372H392.128V123.172H389.856ZM391.008 102.66C390.538 102.66 390.144 102.5 389.824 102.18C389.504 101.86 389.344 101.476 389.344 101.028C389.344 100.58 389.504 100.207 389.824 99.9079C390.144 99.5879 390.538 99.4279 391.008 99.4279C391.477 99.4279 391.872 99.5772 392.192 99.8759C392.512 100.175 392.672 100.548 392.672 100.996C392.672 101.465 392.512 101.86 392.192 102.18C391.893 102.5 391.498 102.66 391.008 102.66ZM402.961 123.332C401.575 123.332 400.263 123.14 399.025 122.756C397.788 122.351 396.817 121.849 396.113 121.252L397.137 119.46C397.82 119.972 398.695 120.42 399.761 120.804C400.828 121.167 401.948 121.348 403.121 121.348C404.721 121.348 405.873 121.103 406.577 120.612C407.281 120.1 407.633 119.428 407.633 118.596C407.633 117.977 407.431 117.497 407.025 117.156C406.641 116.793 406.129 116.527 405.489 116.356C404.849 116.164 404.135 116.004 403.345 115.876C402.556 115.748 401.767 115.599 400.977 115.428C400.209 115.257 399.505 115.012 398.865 114.692C398.225 114.351 397.703 113.892 397.297 113.316C396.913 112.74 396.721 111.972 396.721 111.012C396.721 110.095 396.977 109.273 397.489 108.548C398.001 107.823 398.748 107.257 399.729 106.852C400.732 106.425 401.948 106.212 403.377 106.212C404.465 106.212 405.553 106.361 406.641 106.66C407.729 106.937 408.625 107.311 409.329 107.78L408.337 109.604C407.591 109.092 406.791 108.729 405.937 108.516C405.084 108.281 404.231 108.164 403.377 108.164C401.863 108.164 400.743 108.431 400.017 108.964C399.313 109.476 398.961 110.137 398.961 110.948C398.961 111.588 399.153 112.089 399.537 112.452C399.943 112.815 400.465 113.103 401.105 113.316C401.767 113.508 402.481 113.668 403.249 113.796C404.039 113.924 404.817 114.084 405.585 114.276C406.375 114.447 407.089 114.692 407.729 115.012C408.391 115.311 408.913 115.748 409.297 116.324C409.703 116.879 409.905 117.615 409.905 118.532C409.905 119.513 409.628 120.367 409.073 121.092C408.54 121.796 407.751 122.351 406.705 122.756C405.681 123.14 404.433 123.332 402.961 123.332ZM429.297 123.332C427.676 123.332 426.215 122.969 424.913 122.244C423.633 121.497 422.62 120.484 421.873 119.204C421.127 117.903 420.753 116.42 420.753 114.756C420.753 113.071 421.127 111.588 421.873 110.308C422.62 109.028 423.633 108.025 424.913 107.3C426.193 106.575 427.655 106.212 429.297 106.212C430.961 106.212 432.433 106.575 433.713 107.3C435.015 108.025 436.028 109.028 436.753 110.308C437.5 111.588 437.873 113.071 437.873 114.756C437.873 116.42 437.5 117.903 436.753 119.204C436.028 120.484 435.015 121.497 433.713 122.244C432.412 122.969 430.94 123.332 429.297 123.332ZM429.297 121.316C430.513 121.316 431.591 121.049 432.529 120.516C433.468 119.961 434.204 119.193 434.737 118.212C435.292 117.209 435.569 116.057 435.569 114.756C435.569 113.433 435.292 112.281 434.737 111.3C434.204 110.319 433.468 109.561 432.529 109.028C431.591 108.473 430.524 108.196 429.329 108.196C428.135 108.196 427.068 108.473 426.129 109.028C425.191 109.561 424.444 110.319 423.889 111.3C423.335 112.281 423.057 113.433 423.057 114.756C423.057 116.057 423.335 117.209 423.889 118.212C424.444 119.193 425.191 119.961 426.129 120.516C427.068 121.049 428.124 121.316 429.297 121.316ZM451.184 123.332C449.712 123.332 448.389 123.001 447.216 122.34C446.042 121.657 445.114 120.676 444.432 119.396C443.749 118.116 443.408 116.569 443.408 114.756C443.408 112.921 443.749 111.375 444.432 110.116C445.136 108.836 446.074 107.865 447.248 107.204C448.421 106.543 449.733 106.212 451.184 106.212C452.784 106.212 454.213 106.575 455.472 107.3C456.752 108.004 457.754 108.996 458.48 110.276C459.205 111.556 459.568 113.049 459.568 114.756C459.568 116.441 459.205 117.935 458.48 119.236C457.754 120.516 456.752 121.519 455.472 122.244C454.213 122.969 452.784 123.332 451.184 123.332ZM442.512 123.172V99.4279H444.784V111.332L444.464 114.724L444.688 118.116V123.172H442.512ZM451.024 121.316C452.218 121.316 453.285 121.049 454.224 120.516C455.162 119.961 455.909 119.193 456.464 118.212C457.018 117.209 457.296 116.057 457.296 114.756C457.296 113.433 457.018 112.281 456.464 111.3C455.909 110.319 455.162 109.561 454.224 109.028C453.285 108.473 452.218 108.196 451.024 108.196C449.829 108.196 448.752 108.473 447.792 109.028C446.853 109.561 446.106 110.319 445.552 111.3C445.018 112.281 444.752 113.433 444.752 114.756C444.752 116.057 445.018 117.209 445.552 118.212C446.106 119.193 446.853 119.961 447.792 120.516C448.752 121.049 449.829 121.316 451.024 121.316ZM461.703 129.54C461.021 129.54 460.37 129.444 459.751 129.252C459.111 129.081 458.578 128.815 458.151 128.452L458.951 126.724C459.634 127.3 460.509 127.588 461.575 127.588C462.471 127.588 463.154 127.321 463.623 126.788C464.114 126.255 464.359 125.465 464.359 124.42V106.372H466.631V124.42C466.631 125.977 466.205 127.215 465.351 128.132C464.519 129.071 463.303 129.54 461.703 129.54ZM465.511 102.66C465.042 102.66 464.647 102.5 464.327 102.18C464.007 101.86 463.847 101.476 463.847 101.028C463.847 100.58 464.007 100.207 464.327 99.9079C464.647 99.5879 465.042 99.4279 465.511 99.4279C465.981 99.4279 466.375 99.5772 466.695 99.8759C467.015 100.175 467.175 100.548 467.175 100.996C467.175 101.465 467.015 101.86 466.695 102.18C466.397 102.5 466.002 102.66 465.511 102.66ZM480.117 123.332C478.367 123.332 476.831 122.969 475.509 122.244C474.186 121.497 473.151 120.484 472.405 119.204C471.658 117.903 471.285 116.42 471.285 114.756C471.285 113.092 471.637 111.62 472.341 110.34C473.066 109.06 474.047 108.057 475.285 107.332C476.543 106.585 477.951 106.212 479.509 106.212C481.087 106.212 482.485 106.575 483.701 107.3C484.938 108.004 485.909 109.007 486.613 110.308C487.317 111.588 487.669 113.071 487.669 114.756C487.669 114.863 487.658 114.98 487.637 115.108C487.637 115.215 487.637 115.332 487.637 115.46H473.013V113.764H486.421L485.525 114.436C485.525 113.22 485.258 112.143 484.725 111.204C484.213 110.244 483.509 109.497 482.613 108.964C481.717 108.431 480.682 108.164 479.509 108.164C478.357 108.164 477.322 108.431 476.405 108.964C475.487 109.497 474.773 110.244 474.261 111.204C473.749 112.164 473.493 113.263 473.493 114.5V114.852C473.493 116.132 473.77 117.263 474.325 118.244C474.901 119.204 475.69 119.961 476.693 120.516C477.717 121.049 478.879 121.316 480.181 121.316C481.205 121.316 482.154 121.135 483.029 120.772C483.925 120.409 484.693 119.855 485.333 119.108L486.613 120.58C485.866 121.476 484.927 122.159 483.797 122.628C482.687 123.097 481.461 123.332 480.117 123.332ZM499.269 123.332C497.605 123.332 496.112 122.969 494.789 122.244C493.488 121.497 492.464 120.484 491.717 119.204C490.97 117.903 490.597 116.42 490.597 114.756C490.597 113.071 490.97 111.588 491.717 110.308C492.464 109.028 493.488 108.025 494.789 107.3C496.112 106.575 497.605 106.212 499.269 106.212C500.698 106.212 501.989 106.489 503.141 107.044C504.293 107.599 505.2 108.431 505.861 109.54L504.165 110.692C503.589 109.839 502.874 109.209 502.021 108.804C501.168 108.399 500.24 108.196 499.237 108.196C498.042 108.196 496.965 108.473 496.005 109.028C495.045 109.561 494.288 110.319 493.733 111.3C493.178 112.281 492.901 113.433 492.901 114.756C492.901 116.079 493.178 117.231 493.733 118.212C494.288 119.193 495.045 119.961 496.005 120.516C496.965 121.049 498.042 121.316 499.237 121.316C500.24 121.316 501.168 121.113 502.021 120.708C502.874 120.303 503.589 119.684 504.165 118.852L505.861 120.004C505.2 121.092 504.293 121.924 503.141 122.5C501.989 123.055 500.698 123.332 499.269 123.332ZM515.824 123.332C514.245 123.332 513.029 122.905 512.176 122.052C511.322 121.199 510.896 119.993 510.896 118.436V102.66H513.168V118.308C513.168 119.289 513.413 120.047 513.904 120.58C514.416 121.113 515.141 121.38 516.08 121.38C517.082 121.38 517.914 121.092 518.576 120.516L519.376 122.148C518.928 122.553 518.384 122.852 517.744 123.044C517.125 123.236 516.485 123.332 515.824 123.332ZM507.888 108.26V106.372H518.288V108.26H507.888ZM527.301 116.452C527.301 115.556 527.44 114.788 527.717 114.148C528.016 113.508 528.379 112.943 528.805 112.452C529.253 111.961 529.723 111.503 530.213 111.076C530.725 110.649 531.205 110.223 531.653 109.796C532.101 109.348 532.464 108.868 532.741 108.356C533.019 107.823 533.157 107.204 533.157 106.5C533.157 105.348 532.709 104.409 531.813 103.684C530.917 102.959 529.648 102.596 528.005 102.596C526.64 102.596 525.456 102.82 524.453 103.268C523.451 103.695 522.597 104.335 521.893 105.188L520.197 103.908C521.051 102.841 522.149 102.02 523.493 101.444C524.837 100.868 526.395 100.58 528.165 100.58C529.659 100.58 530.949 100.804 532.037 101.252C533.147 101.7 534 102.34 534.597 103.172C535.216 104.004 535.525 104.996 535.525 106.148C535.525 107.065 535.376 107.855 535.077 108.516C534.8 109.156 534.437 109.732 533.989 110.244C533.563 110.735 533.093 111.204 532.581 111.652C532.091 112.079 531.621 112.516 531.173 112.964C530.725 113.412 530.363 113.913 530.085 114.468C529.808 115.023 529.669 115.684 529.669 116.452H527.301ZM528.485 123.332C528.037 123.332 527.643 123.172 527.301 122.852C526.981 122.511 526.821 122.116 526.821 121.668C526.821 121.199 526.981 120.815 527.301 120.516C527.643 120.196 528.037 120.036 528.485 120.036C528.976 120.036 529.381 120.196 529.701 120.516C530.021 120.815 530.181 121.199 530.181 121.668C530.181 122.116 530.021 122.511 529.701 122.852C529.381 123.172 528.976 123.332 528.485 123.332Z" fill="black"/>
<path d="M36.8309 56.6666C35.0443 56.6666 33.3909 56.3199 31.8709 55.6266C30.3776 54.9333 29.1509 53.9333 28.1909 52.6266L31.1509 49.0666C31.9243 50.1333 32.7643 50.9333 33.6709 51.4666C34.6043 51.9999 35.6176 52.2666 36.7109 52.2666C39.6176 52.2666 41.0709 50.5466 41.0709 47.1066V32.6266H31.1109V28.2666H46.2709V46.8266C46.2709 50.1333 45.4576 52.5999 43.8309 54.2266C42.2309 55.8533 39.8976 56.6666 36.8309 56.6666ZM49.0187 56.2666L61.6188 28.2666H66.7388L79.3788 56.2666H73.9388L63.0988 31.0266H65.1788L54.3788 56.2666H49.0187ZM54.8188 49.7866L56.2188 45.7066H71.3388L72.7387 49.7866H54.8188ZM82.9397 56.2666V28.2666H87.2197L99.4597 48.7066H97.2197L109.26 28.2666H113.54L113.58 56.2666H108.66L108.62 35.9866H109.66L99.4197 53.0666H97.0997L86.6997 35.9866H87.8997V56.2666H82.9397ZM117.183 56.2666L129.783 28.2666H134.903L147.543 56.2666H142.103L131.263 31.0266H133.343L122.543 56.2666H117.183ZM122.983 49.7866L124.383 45.7066H139.503L140.903 49.7866H122.983ZM151.104 56.2666V28.2666H156.304V51.8666H170.944V56.2666H151.104Z" fill="black"/>
</svg>
