<?xml version="1.0" encoding="UTF-8"?>
<svg xmlns="http://www.w3.org/2000/svg" viewBox="0 0 58.28 11.78">
  <defs>
    <style>
      .cls-1, .cls-2, .cls-3 {
        fill: #e30613;
      }

      .cls-1, .cls-4 {
        opacity: .5;
      }

      .cls-5 {
        fill: #7a0812;
      }

      .cls-6 {
        fill: #5f5e5e;
      }

      .cls-2 {
        mix-blend-mode: color-dodge;
      }

      .cls-7 {
        isolation: isolate;
      }

      .cls-8 {
        fill: #919292;
      }

      .cls-9 {
        fill: #fff;
        mix-blend-mode: screen;
        opacity: .6;
      }

      .cls-10 {
        fill: #2b2c2b;
      }

      .cls-11 {
        fill: #b22122;
      }

      .cls-4 {
        fill: #8a8b8b;
        mix-blend-mode: multiply;
      }

      .cls-12 {
        fill: #dcdcdc;
      }
    </style>
  </defs>
  <g class="cls-7">
    <g id="Layer_2" data-name="Layer 2">
      <g id="Red_marker" data-name="Red marker">
        <g>
          <g>
            <path class="cls-6" d="m29.78,8.68l.36-5.48L1.29,1.3h0c-.47-.03-.93,1.17-1.03,2.68-.1,1.51.2,2.76.67,2.79h0l28.85,1.9Z"/>
            <path class="cls-10" d="m.02,3.97C.11,2.53.56,1.01,1.31,1.06l28.85,1.9c.13,0,.23.12.22.25l-.36,5.48c0,.13-.12.23-.25.22L.92,7.02C.17,6.97-.07,5.4.02,3.97Zm29.87-.54L1.28,1.54c-.18-.01-.67.81-.78,2.46-.11,1.65.27,2.53.45,2.54l28.61,1.88.33-5Z"/>
          </g>
          <g>
            <path class="cls-12" d="m44.66,10.87l.52-7.89L3.59.24h0c-.68-.04-1.35,1.69-1.49,3.87-.14,2.18.29,3.98.97,4.03h0l41.59,2.74Z"/>
            <path class="cls-8" d="m1.87,4.09C2,2.01,2.65-.06,3.61,0l41.59,2.74c.13,0,.23.12.22.25l-.52,7.89c0,.13-.12.23-.25.22L3.06,8.37c-.96-.06-1.33-2.2-1.19-4.28Zm43.06-.89L3.58.48c-.4-.03-1.09,1.38-1.23,3.64-.15,2.26.34,3.75.75,3.77l41.35,2.72.49-7.42Z"/>
          </g>
          <path class="cls-1" d="m22.3,8.29c-9.58-.63-17.25-2.49-17.14-4.15.11-1.66,7.96-2.49,17.54-1.86,9.58.63,17.25,2.49,17.14,4.15-.11,1.66-7.96,2.49-17.54,1.86Z"/>
          <path class="cls-4" d="m44.83,8.4L2.1,5.59c.09,1.46.46,2.51.98,2.55l41.59,2.74.16-2.47Z"/>
          <path class="cls-9" d="m44.99,5.93l.09-1.43L2.53,1.7c-.13.41-.23.89-.31,1.42l42.77,2.82Z"/>
          <g>
            <g>
              <path class="cls-3" d="m56.67,11.3l.47-7.18-12.14-1.85s-.08,0-.13,0c-.8-.05-1.58,1.98-1.75,4.54-.17,2.56.34,4.68,1.14,4.73l12.41-.24Z"/>
              <path class="cls-5" d="m42.88,6.79c.16-2.36.91-4.84,2-4.77h.13s12.16,1.86,12.16,1.86c.12.02.21.13.2.25l-.47,7.18c0,.12-.11.22-.23.22l-12.41.24c-1.11-.07-1.54-2.62-1.38-4.99Zm14-2.47l-11.92-1.82h-.11c-.5-.04-1.32,1.59-1.5,4.31-.18,2.73.41,4.45.92,4.48l12.17-.23.44-6.75Z"/>
            </g>
            <g>
              <path class="cls-11" d="m56.67,11.3c-.62-.04-1.01-1.68-.88-3.67.13-1.98.74-3.56,1.35-3.52.62.04,1.01,1.68.88,3.67-.13,1.98-.74,3.56-1.36,3.52Z"/>
              <path class="cls-5" d="m55.54,7.62c.13-1.9.72-3.8,1.61-3.74.89.06,1.23,2.02,1.11,3.92-.13,1.9-.72,3.8-1.61,3.74-.89-.06-1.23-2.02-1.11-3.92Zm2.24.15c.13-2.02-.31-3.39-.66-3.41-.35-.02-.97,1.28-1.1,3.3-.13,2.02.31,3.39.66,3.41.35.02.97-1.28,1.1-3.3Z"/>
            </g>
          </g>
          <path class="cls-2" d="m55.49,5.22s.04-.65-.86-.84c-.91-.19-8.3-1.33-8.3-1.33,0,0-1.17-.44-1.64.68-.47,1.11-.66,3.98.79,4.39,1.45.42,8.42.79,8.42.79,0,0,.91.14,1.06-.89.15-1.03.54-2.8.54-2.8Z"/>
          <path class="cls-9" d="m55.03,4.95l-9.41-1.59s-.99,1.11-.54,1.14c.23.01,9.9,1.21,9.9,1.21l.04-.56v-.2Z"/>
        </g>
      </g>
    </g>
  </g>
</svg>