<?xml version="1.0" encoding="UTF-8"?>
<svg id="Layer_2" data-name="Layer 2" xmlns="http://www.w3.org/2000/svg" viewBox="0 0 74.24 56.63">
  <defs>
    <style>
      .cls-1 {
        fill: #db9b6c;
      }

      .cls-2 {
        fill: #f4cea6;
      }

      .cls-3 {
        fill: #ed1d32;
      }

      .cls-4 {
        fill: #fae9d7;
      }
    </style>
  </defs>
  <g id="Red_textbook" data-name="Red textbook">
    <g id="g39535">
      <path id="path21825" class="cls-4" d="m72.31,37.2s1.63-6.71-1.42-11.58c-3.05-4.87-43.1,13.75-43.1,13.75,0,0-.12,6.24-.05,7.23.07.99-.5,8.92,4.63,8,5.13-.92,40.38-16.68,40.38-16.68l-.44-.72Z"/>
      <path id="path31468" class="cls-2" d="m72.17,28.56l-42.74,17.54-1.7.56c.01.28,0,.94.03,1.79l44.67-18.72c-.07-.39-.17-.78-.28-1.17Zm.5,2.74l-42.65,17.5-2.17.72c.06.56.15,1.15.29,1.72l44.6-18.69c0-.41-.03-.83-.07-1.25h0Zm.04,2.88l-42.3,17.36-1.98.66c.21.55.49,1.06.85,1.47l43.31-18.15c.05-.39.09-.85.12-1.34Z"/>
      <path id="path18963" class="cls-3" d="m4.51,14.34S-1.05,19.06.18,25.26c1.22,6.2,26.87,30.29,30.02,31.33,3.16,1.04,43.79-17.49,43.79-17.49,0,0,1-2.19-.96-2.64s-39.33,17.89-40.94,16.98c-1.61-.92-2.48-7.58.42-10.11s38.04-14.45,39.45-16.31c1.41-1.86,2.14-2.39.47-4.1C70.76,21.22,47.32.95,43.4.05,39.48-.86,8.93,11.54,4.51,14.34h0Z"/>
      <path id="path23149" class="cls-1" d="m5.58,14.86c-1.13,2.34,19.42,22.58,25.28,26.17-2.17,3.6-3.72,9.42-.76,14.43-2.24-7.34.26-12.34,1.46-14.19,6.81-2.47,37.03-13.06,39.99-17.18,0,0-10.62,4.92-16.44,6.96-5.82,2.05-22.28,8.81-23.61,9.05-1.33.24-24.36-22.32-25.92-25.25Z"/>
      <path id="path31079" class="cls-1" d="m6.72,20.64c.19.19-.97,1.86-1.52,4.23,0,.02-.01.05-.02.07-.26,1.26-.33,2.17-.26,2.97.06.72.23,1.17.11,1.26-.11.08-.51-.23-.79-1.03-.29-.83-.35-1.99-.04-3.35,0-.03.01-.05.02-.08.62-2.78,2.27-4.3,2.5-4.07h0Z"/>
      <path id="path31083" class="cls-1" d="m25.75,40.63c.25.1-.37,2.07-.66,4.57,0,.03,0,.07-.01.1-.14,1.39-.2,2.18-.16,3.1.03.76.13,1.25,0,1.32-.12.06-.46-.31-.69-1.13-.25-.86-.31-1.96-.15-3.31,0-.04,0-.07.01-.11.3-2.71,1.37-4.67,1.66-4.54h0Z"/>
      <path id="path31087" class="cls-1" d="m7.76,26.72s.13.49.4.39h0c.11,0,.2-.12.32-.3.18-.34.39-.94.13-1.17-.23-.25-.59-.59-.8-.38-.26.12-.4.52-.55.98h0c-.27,1.04-.3,2.44.38,3.22.31.38.78.61,1.27.61.5.01,1.02-.15,1.61-.32.43-.13.9-.26,1.39-.29.12,0,.25,0,.38,0,.67.05,1.26.45,1.64,1.03.84,1.33.72,3.19-.07,4.4-.35.55-.88.94-1.44,1-.72.03-1.26-.48-1.56-1-.05-.11-.2-.21-.34-.39-.18-.23-.24-.57-.14-.9.16-.48.49-.85.89-.97.39-.09.72.07.94.26.29.23.45.56.5.86.09.72-.39.87-.41.83-.02-.04.31-.34.17-.74-.06-.22-.21-.42-.46-.59-.19-.12-.45-.21-.66-.12-.21.05-.38.32-.49.65-.03.07,0,.18.07.26.08.1.24.2.4.42.28.38.69.76,1.09.68.33-.03.67-.33.93-.72.58-.89.64-2.39,0-3.37-.26-.4-.68-.68-1.13-.71-.1,0-.19,0-.29,0-.39.03-.82.15-1.25.27-.58.17-1.17.33-1.79.32-.68-.02-1.3-.35-1.74-.89-.88-1.17-.81-2.82-.42-4.01h0c.15-.55.44-1.09.92-1.36.63-.24,1.11.21,1.33.6.38.66.06,1.38-.23,1.75-.15.23-.38.37-.59.36h0c-.57-.14-.41-.66-.37-.67h0Z"/>
      <path id="path31095" class="cls-1" d="m15.2,37.29s.16-.77.79-.38h0c.22.2.33.55.33.95.02.34,0,.78-.18,1.21-.13.34-.43.65-.84.62-.61-.1-1.29-.54-1.51-1.45-.14-.73,0-1.54.36-2.25h0c.31-.65.82-1.28,1.51-1.57.73-.26,1.5.02,2,.64.52.65.81,1.47,1.01,2.31.17.7.3,1.41.41,2.13.04.27.06.39.1.65.15.91.29,1.75.54,2.53.23.66.51,1.24.94,1.52.17.15.5.09.84.07.37-.06.69-.1.9-.28h0c0,.2-.11-.03.02-.4.18-.64.32-1.2.25-1.71-.03-.51-.45-.87-.84-.97-.16-.14-.39.29-.5.58-.12.5-.17.89-.05,1.19.01.41.51,0,.57-.08.14-.17.13-.33.16-.34,0,0,.11.14-.03.44-.08.17-.57.76-.98.17-.19-.4-.2-.93-.07-1.49.08-.48.41-1.07,1.02-1.05.56.1,1.15.56,1.29,1.41.09.69-.04,1.37-.22,2.04.02.05.04.39-.29.85h0c-.4.31-.83.41-1.21.45-.35.07-.81.11-1.25-.14-.62-.42-1.01-1.13-1.26-1.89-.29-.86-.44-1.75-.59-2.67-.04-.22-.07-.44-.11-.66-.12-.72-.23-1.4-.39-2.05-.2-.79-.43-1.5-.84-2-.35-.42-.87-.66-1.28-.48-.47.16-.87.65-1.14,1.16h0c-.29.58-.44,1.19-.34,1.7.07.6.6.96,1.07,1.09.09.08.26-.1.36-.27.15-.3.2-.66.21-.96,0-.37-.01-.61-.15-.75h0c-.16-.35-.6.18-.63.15h0Z"/>
      <path id="path34561" class="cls-4" d="m14.96,14.19s-1.19.5-.66,2.11c.53,1.61,6.48,8.49,8.23,8.31,1.76-.17,28.86-9.44,29.34-12.22.48-2.78-7.61-9.13-9.52-9.08-1.9.06-26.41,9.42-27.4,10.88Z"/>
      <path id="path36019" class="cls-1" d="m41.55,5.31c-.55.09-1.41.36-2.47,1.08-.86.61-1.32,1.97-2.25,2.3-.9.4-1.87.3-3.04.16-.98-.14-2.18-.28-3.35.22-.46.22-.82.55-1.13.89-.15.16-.29.32-.42.47-.52.55-.98,1.07-1.53,1.33-.82.42-1.83.41-2.73.43-.91,0-1.81-.05-2.67.47-.59.39-.95,1-1.2,1.49-.33.61-.53,1.06-.91,1.39-1.12,1.08-2.42.68-2.42.76,0,.08,1.1.75,2.66-.43.48-.39.77-.9,1.11-1.49.27-.45.58-.97,1.01-1.2.63-.4,1.39-.29,2.35-.3.89.02,1.99.03,3.03-.45.72-.36,1.27-.93,1.78-1.49.15-.16.29-.31.42-.46.29-.32.56-.59.86-.71.91-.43,2.01-.3,2.99-.2,1.18.15,2.29.19,3.36-.29,1.3-.67,1.63-1.98,2.3-2.49,1.51-1.21,2.96-1.37,2.92-1.45-.01-.03-.26-.08-.69-.01Zm3.53,3.61c-.15.01-1.77,1.57-4.33,1.5-.6-.02-1.55-.22-2.42.11-1.16.48-2.1,1.3-3.12,2.23-.72.64-1.49,1.36-2.31,1.81-.17.09-.35.18-.52.24-1.72.67-3.21,1.19-4.68,1.16-.95-.02-1.79-.1-2.69.24-.99.41-1.72,1.4-2.17,1.93-1.13,1.28-2.16,1.33-2.17,1.41,0,.05,1.04.35,2.45-1.12.51-.5,1.26-1.42,2.02-1.66.74-.27,1.47-.15,2.46-.12,1.62.06,3.22-.45,4.95-1.14.21-.08.41-.18.61-.29.94-.51,1.75-1.27,2.46-1.93,1.03-.94,1.86-1.72,2.88-2.16.6-.29,1.5-.12,2.19-.15,2.98-.1,4.44-1.97,4.39-2.06,0,0,0,0,0,0h0Zm-2.39,4.82c-.18.04-1.15.66-2.39,1.03-.74.23-1.7.19-2.83.57-.94.33-1.81.83-2.73,1.44-.85.56-1.52,1.03-2.28,1.46-1.19.69-2.53.72-3.51,1.01-1.29.37-1.99.79-1.97.88.02.09.79-.18,2.03-.4.69-.12,2.49-.24,3.71-.86.81-.42,1.53-.92,2.36-1.46.91-.6,1.71-1.09,2.56-1.4.94-.36,1.97-.39,2.79-.72,1.72-.7,2.3-1.43,2.3-1.53,0,0-.01-.01-.03,0h0Z"/>
    </g>
  </g>
</svg>