<?xml version="1.0" encoding="UTF-8"?>
<svg xmlns="http://www.w3.org/2000/svg" viewBox="0 0 10.39 72.14">
  <defs>
    <style>
      .cls-1 {
        fill: #8a8c8f;
      }

      .cls-2 {
        isolation: isolate;
      }

      .cls-3 {
        mix-blend-mode: soft-light;
        opacity: .5;
      }

      .cls-3, .cls-4 {
        fill: #d0d2d3;
      }

      .cls-4, .cls-5 {
        mix-blend-mode: multiply;
      }

      .cls-6 {
        fill: #e7a14e;
      }
    </style>
  </defs>
  <g class="cls-2">
    <g id="Layer_2" data-name="Layer 2">
      <g id="Ruler">
        <rect class="cls-6" width="10.39" height="72.14"/>
        <rect class="cls-4" width="5.2" height="72.14"/>
        <g class="cls-5">
          <rect class="cls-1" y="67.11" width="1.68" height=".26"/>
          <rect class="cls-1" y="69.49" width="2.58" height=".26"/>
          <rect class="cls-1" y="64.73" width="2.58" height=".26"/>
          <rect class="cls-1" y="68.9" width="1.42" height=".26"/>
          <rect class="cls-1" y="68.3" width="1.42" height=".26"/>
          <rect class="cls-1" y="67.69" width="1.42" height=".26"/>
          <rect class="cls-1" y="66.53" width="1.42" height=".26"/>
          <rect class="cls-1" y="65.92" width="1.42" height=".26"/>
          <rect class="cls-1" y="65.32" width="1.42" height=".26"/>
          <rect class="cls-1" y="71.88" width="1.68" height=".26"/>
          <rect class="cls-1" y="69.49" width="2.58" height=".26"/>
          <rect class="cls-1" y="71.29" width="1.42" height=".26"/>
          <rect class="cls-1" y="70.69" width="1.42" height=".26"/>
          <rect class="cls-1" y="70.08" width="1.42" height=".26"/>
          <rect class="cls-1" y="62.32" width="1.68" height=".26"/>
          <rect class="cls-1" y="59.94" width="2.58" height=".26"/>
          <rect class="cls-1" y="64.11" width="1.42" height=".26"/>
          <rect class="cls-1" y="63.5" width="1.42" height=".26"/>
          <rect class="cls-1" y="62.9" width="1.42" height=".26"/>
          <rect class="cls-1" y="61.73" width="1.42" height=".26"/>
          <rect class="cls-1" y="61.13" width="1.42" height=".26"/>
          <rect class="cls-1" y="60.52" width="1.42" height=".26"/>
          <rect class="cls-1" y="57.52" width="1.68" height=".26"/>
          <rect class="cls-1" y="55.14" width="2.58" height=".26"/>
          <rect class="cls-1" y="59.32" width="1.42" height=".26"/>
          <rect class="cls-1" y="58.71" width="1.42" height=".26"/>
          <rect class="cls-1" y="58.1" width="1.42" height=".26"/>
          <rect class="cls-1" y="56.94" width="1.42" height=".26"/>
          <rect class="cls-1" y="56.33" width="1.42" height=".26"/>
          <rect class="cls-1" y="55.73" width="1.42" height=".26"/>
          <rect class="cls-1" y="52.73" width="1.68" height=".26"/>
          <rect class="cls-1" y="50.35" width="2.58" height=".26"/>
          <rect class="cls-1" y="54.52" width="1.42" height=".26"/>
          <rect class="cls-1" y="53.91" width="1.42" height=".26"/>
          <rect class="cls-1" y="53.31" width="1.42" height=".26"/>
          <rect class="cls-1" y="52.15" width="1.42" height=".26"/>
          <rect class="cls-1" y="51.54" width="1.42" height=".26"/>
          <rect class="cls-1" y="50.93" width="1.42" height=".26"/>
          <rect class="cls-1" y="47.94" width="1.68" height=".26"/>
          <rect class="cls-1" y="45.56" width="2.58" height=".26"/>
          <rect class="cls-1" y="49.73" width="1.42" height=".26"/>
          <rect class="cls-1" y="49.12" width="1.42" height=".26"/>
          <rect class="cls-1" y="48.51" width="1.42" height=".26"/>
          <rect class="cls-1" y="47.35" width="1.42" height=".26"/>
          <rect class="cls-1" y="46.75" width="1.42" height=".26"/>
          <rect class="cls-1" y="46.14" width="1.42" height=".26"/>
          <rect class="cls-1" y="43.14" width="1.68" height=".26"/>
          <rect class="cls-1" y="40.76" width="2.58" height=".26"/>
          <rect class="cls-1" y="44.93" width="1.42" height=".26"/>
          <rect class="cls-1" y="44.33" width="1.42" height=".26"/>
          <rect class="cls-1" y="43.72" width="1.42" height=".26"/>
          <rect class="cls-1" y="42.56" width="1.42" height=".26"/>
          <rect class="cls-1" y="41.95" width="1.42" height=".26"/>
          <rect class="cls-1" y="41.35" width="1.42" height=".26"/>
          <rect class="cls-1" y="38.35" width="1.68" height=".26"/>
          <rect class="cls-1" y="35.97" width="2.58" height=".26"/>
          <rect class="cls-1" y="40.14" width="1.42" height=".26"/>
          <rect class="cls-1" y="39.53" width="1.42" height=".26"/>
          <rect class="cls-1" y="38.93" width="1.42" height=".26"/>
          <rect class="cls-1" y="37.77" width="1.42" height=".26"/>
          <rect class="cls-1" y="37.16" width="1.42" height=".26"/>
          <rect class="cls-1" y="36.55" width="1.42" height=".26"/>
          <rect class="cls-1" y="33.56" width="1.68" height=".26"/>
          <rect class="cls-1" y="31.17" width="2.58" height=".26"/>
          <rect class="cls-1" y="35.35" width="1.42" height=".26"/>
          <rect class="cls-1" y="34.74" width="1.42" height=".26"/>
          <rect class="cls-1" y="34.13" width="1.42" height=".26"/>
          <rect class="cls-1" y="32.97" width="1.42" height=".26"/>
          <rect class="cls-1" y="32.36" width="1.42" height=".26"/>
          <rect class="cls-1" y="31.76" width="1.42" height=".26"/>
          <rect class="cls-1" y="28.76" width="1.68" height=".26"/>
          <rect class="cls-1" y="26.38" width="2.58" height=".26"/>
          <rect class="cls-1" y="30.55" width="1.42" height=".26"/>
          <rect class="cls-1" y="29.95" width="1.42" height=".26"/>
          <rect class="cls-1" y="29.34" width="1.42" height=".26"/>
          <rect class="cls-1" y="28.18" width="1.42" height=".26"/>
          <rect class="cls-1" y="27.57" width="1.42" height=".26"/>
          <rect class="cls-1" y="26.97" width="1.42" height=".26"/>
          <rect class="cls-1" y="23.97" width="1.68" height=".26"/>
          <rect class="cls-1" y="21.59" width="2.58" height=".26"/>
          <rect class="cls-1" y="25.76" width="1.42" height=".26"/>
          <rect class="cls-1" y="25.15" width="1.42" height=".26"/>
          <rect class="cls-1" y="24.55" width="1.42" height=".26"/>
          <rect class="cls-1" y="23.38" width="1.42" height=".26"/>
          <rect class="cls-1" y="22.78" width="1.42" height=".26"/>
          <rect class="cls-1" y="22.17" width="1.42" height=".26"/>
          <rect class="cls-1" y="19.17" width="1.68" height=".26"/>
          <rect class="cls-1" y="16.79" width="2.58" height=".26"/>
          <rect class="cls-1" y="20.97" width="1.42" height=".26"/>
          <rect class="cls-1" y="20.36" width="1.42" height=".26"/>
          <rect class="cls-1" y="19.75" width="1.42" height=".26"/>
          <rect class="cls-1" y="18.59" width="1.42" height=".26"/>
          <rect class="cls-1" y="17.98" width="1.42" height=".26"/>
          <rect class="cls-1" y="17.38" width="1.42" height=".26"/>
          <rect class="cls-1" y="14.38" width="1.68" height=".26"/>
          <rect class="cls-1" y="12" width="2.58" height=".26"/>
          <rect class="cls-1" y="16.17" width="1.42" height=".26"/>
          <rect class="cls-1" y="15.57" width="1.42" height=".26"/>
          <rect class="cls-1" y="14.96" width="1.42" height=".26"/>
          <rect class="cls-1" y="13.8" width="1.42" height=".26"/>
          <rect class="cls-1" y="13.19" width="1.42" height=".26"/>
          <rect class="cls-1" y="12.58" width="1.42" height=".26"/>
          <rect class="cls-1" y="9.59" width="1.68" height=".26"/>
          <rect class="cls-1" y="7.21" width="2.58" height=".26"/>
          <rect class="cls-1" y="11.38" width="1.42" height=".26"/>
          <rect class="cls-1" y="10.77" width="1.42" height=".26"/>
          <rect class="cls-1" y="10.16" width="1.42" height=".26"/>
          <rect class="cls-1" y="9" width="1.42" height=".26"/>
          <rect class="cls-1" y="8.4" width="1.42" height=".26"/>
          <rect class="cls-1" y="7.79" width="1.42" height=".26"/>
          <rect class="cls-1" y="4.79" width="1.68" height=".26"/>
          <rect class="cls-1" y="2.41" width="2.58" height=".26"/>
          <rect class="cls-1" y="6.58" width="1.42" height=".26"/>
          <rect class="cls-1" y="5.98" width="1.42" height=".26"/>
          <rect class="cls-1" y="5.37" width="1.42" height=".26"/>
          <rect class="cls-1" y="4.21" width="1.42" height=".26"/>
          <rect class="cls-1" y="3.6" width="1.42" height=".26"/>
          <rect class="cls-1" y="3" width="1.42" height=".26"/>
          <rect class="cls-1" width="1.68" height=".26"/>
          <rect class="cls-1" y="1.79" width="1.42" height=".26"/>
          <rect class="cls-1" y="1.18" width="1.42" height=".26"/>
          <rect class="cls-1" y=".58" width="1.42" height=".26"/>
          <path class="cls-1" d="m4.4,69.74h-.96v.16h-.13s-.02-.09-.05-.13c-.03-.04-.06-.07-.11-.09v-.13h1.25v.19Z"/>
          <path class="cls-1" d="m3.5,65.12c-.12,0-.21-.03-.27-.1-.06-.06-.08-.13-.08-.22,0-.08.03-.15.09-.21.06-.06.13-.09.22-.09s.17.02.25.06c.04.02.12.07.23.14.03.02.07.05.14.09l.05.03s.06.04.08.05c0,0,.02,0,.02,0v-.37h.18v.6h-.17s-.03-.01-.07-.04c-.02-.01-.04-.03-.06-.04l-.07-.05s-.1-.07-.19-.13c-.08-.06-.15-.1-.22-.13-.05-.02-.1-.04-.15-.04-.04,0-.07.01-.1.03-.03.02-.04.05-.04.09,0,.05.03.09.09.11.02,0,.04.01.07.01h.05v.19h-.03Z"/>
          <path class="cls-1" d="m4.22,60.16c0-.09-.04-.13-.12-.13h-.07c-.13,0-.19.07-.19.2h-.16c0-.07-.02-.13-.06-.16-.04-.03-.09-.05-.15-.05h-.03c-.08,0-.12.04-.12.11,0,.04.02.07.05.09.02.01.05.02.09.02h.03v.18h-.03c-.09,0-.16-.02-.22-.07-.06-.05-.1-.12-.1-.22s.03-.16.09-.21c.05-.05.12-.07.2-.07h.05c.08,0,.14.02.2.07.02.02.04.04.06.07.03-.06.08-.1.14-.13.03-.02.07-.02.12-.02h.1c.09,0,.17.03.23.09.06.06.09.13.09.22s-.03.15-.09.21c-.06.06-.13.09-.21.09h-.03v-.18s.03,0,.03,0c.03,0,.06-.01.08-.03.02-.02.03-.04.03-.08Z"/>
          <path class="cls-1" d="m3.94,55.52l-.79-.33v-.19h.79v-.12h.19v.12h.27v.19h-.27v.33h-.19Zm0-.33h-.39l.39.16v-.16Z"/>
          <path class="cls-1" d="m3.34,50.66h.27s-.05-.04-.06-.08c0-.02-.01-.04-.01-.06,0-.08.03-.14.09-.18.05-.03.12-.05.21-.05h.27c.09,0,.17.03.23.09.06.06.09.13.09.21s-.03.15-.09.21c-.06.05-.13.08-.21.08h-.03v-.18s.03,0,.03,0c.05,0,.08-.02.1-.06,0-.01,0-.02,0-.03,0-.08-.04-.12-.12-.12h-.31s-.07.01-.09.04c-.01.01-.02.03-.02.05,0,.03.01.06.04.07.02.01.05.02.07.02h.03v.19h-.68v-.55h.19v.36Z"/>
          <path class="cls-1" d="m3.46,45.61h-.03s-.06,0-.08.02c-.02.02-.03.04-.03.07s.01.05.03.07c.02.02.05.02.08.02h.25s-.06-.09-.06-.14c0-.08.03-.15.09-.19.05-.04.12-.05.21-.05h.21c.08,0,.15.03.2.09.05.05.08.12.08.2,0,.08-.03.15-.09.21-.06.05-.13.08-.21.08h-.68c-.06,0-.12-.01-.17-.04-.05-.03-.09-.07-.11-.13-.02-.03-.02-.07-.02-.11,0-.08.03-.15.09-.21.06-.05.13-.08.21-.08h.03v.2Zm.65.19s.06,0,.08-.02c.02-.02.03-.04.03-.07s-.01-.05-.03-.07c-.02-.02-.05-.02-.08-.02h-.23s-.07.01-.09.04c-.01.01-.02.03-.02.05,0,.03.01.06.04.07.02.01.04.02.07.02h.23Z"/>
          <path class="cls-1" d="m3.15,40.62h.19l1.06.26v.18l-1.06-.26v.38h-.19v-.57Z"/>
          <path class="cls-1" d="m4.12,35.75c.08,0,.15.03.21.09.06.06.09.13.09.21h0c0,.1-.03.17-.09.23-.06.06-.13.09-.21.09h-.11c-.08,0-.14-.03-.2-.08-.02-.02-.04-.05-.06-.08-.03.05-.07.09-.13.12-.03.01-.07.02-.12.02h-.07c-.08,0-.15-.02-.2-.07-.06-.05-.09-.12-.09-.21h0c0-.1.03-.17.09-.23.05-.05.12-.07.2-.07h.07c.08,0,.14.02.19.07.02.02.04.04.05.07.03-.06.08-.1.14-.13.03-.02.07-.02.12-.02h.11Zm-.64.18c-.09,0-.14.03-.16.08,0,.01,0,.03,0,.04,0,.03,0,.06.03.08.01.02.03.03.06.04.02,0,.05,0,.09,0,.05,0,.09-.01.12-.03.03-.02.05-.05.05-.1s-.02-.08-.05-.1c-.03-.02-.07-.03-.11-.02Zm.55,0c-.07,0-.12.02-.15.05-.01.02-.02.04-.02.07,0,.05.02.08.06.1.03.01.06.02.1.02h.06s.07-.01.1-.04c.02-.02.03-.05.03-.08,0-.05-.03-.09-.08-.11-.02,0-.04-.01-.06-.01h-.06Z"/>
          <path class="cls-1" d="m3.14,31.3c0-.08.03-.15.09-.21.06-.05.13-.08.21-.08h.68c.08,0,.15.03.21.08.06.05.09.12.09.2s-.03.15-.09.21c-.06.05-.13.08-.21.08h-.03v-.2h.03s.06,0,.08-.02c.02-.02.03-.04.03-.07s-.01-.05-.03-.07c-.02-.02-.05-.02-.08-.02h-.25s.06.09.06.14c0,.08-.03.14-.09.19-.05.04-.12.05-.21.05h-.21c-.06,0-.11-.02-.16-.05-.05-.03-.08-.07-.1-.12-.01-.03-.02-.07-.02-.11Zm.3-.1s-.06,0-.08.02c-.02.02-.03.04-.03.07s.01.05.03.07c.02.02.05.02.08.02h.23s.07-.01.09-.04c.01-.01.02-.03.02-.05,0-.05-.03-.08-.08-.09-.02,0-.03,0-.03,0h-.23Z"/>
          <g>
            <path class="cls-1" d="m4.4,26.93h-.96v.16h-.13s-.02-.09-.05-.13c-.03-.04-.06-.07-.11-.09v-.13h1.25v.19Z"/>
            <path class="cls-1" d="m4.12,25.98c.08,0,.15.03.21.09.06.06.09.13.09.21s-.03.15-.09.21c-.06.06-.13.09-.21.09h-.68c-.08,0-.15-.03-.21-.09-.06-.06-.09-.13-.09-.21s.03-.15.09-.21c.06-.06.13-.09.21-.09h.68Zm-.69.2s-.06.01-.08.03c-.02.02-.03.05-.03.08s.01.06.03.08c.02.02.05.03.08.03h.68s.06-.01.08-.03c.02-.02.03-.05.03-.08s-.01-.06-.03-.08c-.02-.02-.05-.03-.08-.03h-.68Z"/>
          </g>
          <g>
            <path class="cls-1" d="m4.4,22.08h-.96v.16h-.13s-.02-.09-.05-.13c-.03-.04-.06-.07-.11-.09v-.13h1.25v.19Z"/>
            <path class="cls-1" d="m4.4,21.57h-.96v.16h-.13s-.02-.09-.05-.13c-.03-.04-.06-.07-.11-.09v-.13h1.25v.19Z"/>
          </g>
          <g>
            <path class="cls-1" d="m4.4,17.15h-.96v.16h-.13s-.02-.09-.05-.13c-.03-.04-.06-.07-.11-.09v-.13h1.25v.19Z"/>
            <path class="cls-1" d="m3.5,16.81c-.12,0-.21-.03-.27-.1-.06-.06-.08-.13-.08-.22,0-.08.03-.15.09-.21.06-.06.13-.09.22-.09s.17.02.25.06c.04.02.12.07.23.14.03.02.07.05.14.09l.05.03s.06.04.08.05c0,0,.02,0,.02,0v-.37h.18v.6h-.17s-.03-.01-.07-.04c-.02-.01-.04-.03-.06-.04l-.07-.05s-.1-.07-.19-.13c-.08-.06-.15-.1-.22-.13-.05-.02-.1-.04-.15-.04-.04,0-.07.01-.1.03-.03.02-.04.05-.04.09,0,.05.03.09.09.11.02,0,.04.01.07.01h.05v.19h-.03Z"/>
          </g>
          <g>
            <path class="cls-1" d="m4.4,12.49h-.96v.16h-.13s-.02-.09-.05-.13c-.03-.04-.06-.07-.11-.09v-.13h1.25v.19Z"/>
            <path class="cls-1" d="m4.22,11.86c0-.09-.04-.13-.12-.13h-.07c-.13,0-.19.07-.19.2h-.16c0-.07-.02-.13-.06-.16-.04-.03-.09-.05-.15-.05h-.03c-.08,0-.12.04-.12.11,0,.04.02.07.05.09.02.01.05.02.09.02h.03v.18h-.03c-.09,0-.16-.02-.22-.07-.06-.05-.1-.12-.1-.22s.03-.16.09-.21c.05-.05.12-.07.2-.07h.05c.08,0,.14.02.2.07.02.02.04.04.06.07.03-.06.08-.1.14-.13.03-.02.07-.02.12-.02h.1c.09,0,.17.03.23.09.06.06.09.13.09.22s-.03.15-.09.21c-.06.06-.13.09-.21.09h-.03v-.18s.03,0,.03,0c.03,0,.06-.01.08-.03.02-.02.03-.04.03-.08Z"/>
          </g>
          <g>
            <path class="cls-1" d="m4.4,7.7h-.96v.16h-.13s-.02-.09-.05-.13c-.03-.04-.06-.07-.11-.09v-.13h1.25v.19Z"/>
            <path class="cls-1" d="m3.94,7.36l-.79-.33v-.19h.79v-.12h.19v.12h.27v.19h-.27v.33h-.19Zm0-.33h-.39l.39.16v-.16Z"/>
          </g>
          <g>
            <path class="cls-1" d="m4.4,2.9h-.96v.16h-.13s-.02-.09-.05-.13c-.03-.04-.06-.07-.11-.09v-.13h1.25v.19Z"/>
            <path class="cls-1" d="m3.34,2.35h.27s-.05-.04-.06-.08c0-.02-.01-.04-.01-.06,0-.08.03-.14.09-.18.05-.03.12-.05.21-.05h.27c.09,0,.17.03.23.09.06.06.09.13.09.21s-.03.15-.09.21c-.06.05-.13.08-.21.08h-.03v-.18s.03,0,.03,0c.05,0,.08-.02.1-.06,0-.01,0-.02,0-.03,0-.08-.04-.12-.12-.12h-.31s-.07.01-.09.04c-.01.01-.02.03-.02.05,0,.03.01.06.04.07.02.01.05.02.07.02h.03v.19h-.68v-.55h.19v.36Z"/>
          </g>
        </g>
        <rect class="cls-3" x="7.16" width="1.27" height="72.14"/>
      </g>
    </g>
  </g>
</svg>