<svg width="376" height="91" viewBox="0 0 376 91" fill="none" xmlns="http://www.w3.org/2000/svg">
<rect width="376" height="91" rx="15" fill="#FBFAFA"/>
<path d="M45.9286 70.8571C53.0705 70.8571 59.9199 68.02 64.9699 62.9699C70.02 57.9199 72.8571 51.0705 72.8571 43.9286C72.8571 36.7867 70.02 29.9373 64.9699 24.8872C59.9199 19.8371 53.0705 17 45.9286 17C38.7867 17 31.9373 19.8371 26.8872 24.8872C21.8371 29.9373 19 36.7867 19 43.9286C19 51.0705 21.8371 57.9199 26.8872 62.9699C31.9373 68.02 38.7867 70.8571 45.9286 70.8571Z" fill="#FAD265" stroke="black" stroke-width="2.5" stroke-linecap="round" stroke-linejoin="round"/>
<path d="M52.9799 36.5629C52.6008 35.4841 51.8954 34.5499 50.9616 33.89C50.0277 33.2301 48.9117 32.8771 47.7682 32.8799H43.4928C42.2755 32.8779 41.1005 33.3263 40.1941 34.1388C39.2876 34.9513 38.7138 36.0705 38.5832 37.2807C38.4525 38.491 38.7743 39.7068 39.4864 40.6941C40.1986 41.6813 41.2508 42.3702 42.4405 42.628L48.9489 44.0531C50.2795 44.3451 51.4554 45.1182 52.2509 46.2241C53.0464 47.33 53.4054 48.6907 53.259 50.0451C53.1126 51.3995 52.4712 52.6521 51.4578 53.5625C50.4444 54.4729 49.1305 54.9769 47.7682 54.9778H44.0894C42.9454 54.9803 41.829 54.6267 40.8951 53.966C39.9612 53.3053 39.2561 52.3703 38.8776 51.2907M45.9288 32.8799V27.3574V32.8799ZM45.9288 60.5003V54.9737V60.5003Z" fill="#FAD265"/>
<path d="M52.9799 36.5629C52.6008 35.4841 51.8954 34.5499 50.9616 33.89C50.0277 33.2301 48.9117 32.8771 47.7682 32.8799H43.4928C42.2755 32.8779 41.1005 33.3263 40.1941 34.1388C39.2876 34.9513 38.7138 36.0705 38.5832 37.2807C38.4525 38.491 38.7743 39.7068 39.4864 40.6941C40.1986 41.6813 41.2508 42.3702 42.4405 42.628L48.9489 44.0531C50.2795 44.3451 51.4554 45.1182 52.2509 46.2241C53.0464 47.33 53.4054 48.6907 53.259 50.0451C53.1126 51.3995 52.4712 52.6521 51.4578 53.5625C50.4444 54.4729 49.1305 54.9769 47.7682 54.9778H44.0894C42.9454 54.9803 41.829 54.6267 40.8951 53.966C39.9612 53.3053 39.2561 52.3703 38.8776 51.2907M45.9288 32.8799V27.3574M45.9288 60.5003V54.9737" stroke="black" stroke-width="2.5" stroke-linecap="round" stroke-linejoin="round"/>
<path d="M103.832 63.384C101.272 63.384 98.824 63 96.488 62.232C94.152 61.432 92.312 60.408 90.968 59.16L92.744 55.416C94.024 56.536 95.656 57.464 97.64 58.2C99.624 58.936 101.688 59.304 103.832 59.304C105.784 59.304 107.368 59.08 108.584 58.632C109.8 58.184 110.696 57.576 111.272 56.808C111.848 56.008 112.136 55.112 112.136 54.12C112.136 52.968 111.752 52.04 110.984 51.336C110.248 50.632 109.272 50.072 108.056 49.656C106.872 49.208 105.56 48.824 104.12 48.504C102.68 48.184 101.224 47.816 99.752 47.4C98.312 46.952 96.984 46.392 95.768 45.72C94.584 45.048 93.624 44.152 92.888 43.032C92.152 41.88 91.784 40.408 91.784 38.616C91.784 36.888 92.232 35.304 93.128 33.864C94.056 32.392 95.464 31.224 97.352 30.36C99.272 29.464 101.704 29.016 104.648 29.016C106.6 29.016 108.536 29.272 110.456 29.784C112.376 30.296 114.04 31.032 115.448 31.992L113.864 35.832C112.424 34.872 110.904 34.184 109.304 33.768C107.704 33.32 106.152 33.096 104.648 33.096C102.76 33.096 101.208 33.336 99.992 33.816C98.776 34.296 97.88 34.936 97.304 35.736C96.76 36.536 96.488 37.432 96.488 38.424C96.488 39.608 96.856 40.552 97.592 41.256C98.36 41.96 99.336 42.52 100.52 42.936C101.736 43.352 103.064 43.736 104.504 44.088C105.944 44.408 107.384 44.776 108.824 45.192C110.296 45.608 111.624 46.152 112.808 46.824C114.024 47.496 115 48.392 115.736 49.512C116.472 50.632 116.84 52.072 116.84 53.832C116.84 55.528 116.376 57.112 115.448 58.584C114.52 60.024 113.08 61.192 111.128 62.088C109.208 62.952 106.776 63.384 103.832 63.384ZM138.877 63.384C136.317 63.384 133.949 62.968 131.773 62.136C129.629 61.272 127.757 60.072 126.157 58.536C124.589 56.968 123.357 55.144 122.461 53.064C121.565 50.984 121.117 48.696 121.117 46.2C121.117 43.704 121.565 41.416 122.461 39.336C123.357 37.256 124.605 35.448 126.205 33.912C127.805 32.344 129.677 31.144 131.821 30.312C133.997 29.448 136.365 29.016 138.925 29.016C141.517 29.016 143.901 29.464 146.077 30.36C148.285 31.224 150.157 32.52 151.693 34.248L148.573 37.272C147.293 35.928 145.853 34.936 144.253 34.296C142.653 33.624 140.941 33.288 139.117 33.288C137.229 33.288 135.469 33.608 133.837 34.248C132.237 34.888 130.845 35.784 129.661 36.936C128.477 38.088 127.549 39.464 126.877 41.064C126.237 42.632 125.917 44.344 125.917 46.2C125.917 48.056 126.237 49.784 126.877 51.384C127.549 52.952 128.477 54.312 129.661 55.464C130.845 56.616 132.237 57.512 133.837 58.152C135.469 58.792 137.229 59.112 139.117 59.112C140.941 59.112 142.653 58.792 144.253 58.152C145.853 57.48 147.293 56.456 148.573 55.08L151.693 58.104C150.157 59.832 148.285 61.144 146.077 62.04C143.901 62.936 141.501 63.384 138.877 63.384ZM173.005 63.384C170.445 63.384 168.061 62.952 165.853 62.088C163.677 61.224 161.789 60.024 160.189 58.488C158.589 56.92 157.341 55.096 156.445 53.016C155.549 50.936 155.101 48.664 155.101 46.2C155.101 43.736 155.549 41.464 156.445 39.384C157.341 37.304 158.589 35.496 160.189 33.96C161.789 32.392 163.677 31.176 165.853 30.312C168.029 29.448 170.413 29.016 173.005 29.016C175.565 29.016 177.917 29.448 180.061 30.312C182.237 31.144 184.125 32.344 185.725 33.912C187.357 35.448 188.605 37.256 189.469 39.336C190.365 41.416 190.813 43.704 190.813 46.2C190.813 48.696 190.365 50.984 189.469 53.064C188.605 55.144 187.357 56.968 185.725 58.536C184.125 60.072 182.237 61.272 180.061 62.136C177.917 62.968 175.565 63.384 173.005 63.384ZM173.005 59.112C174.861 59.112 176.573 58.792 178.141 58.152C179.741 57.512 181.117 56.616 182.269 55.464C183.453 54.28 184.365 52.904 185.005 51.336C185.677 49.768 186.013 48.056 186.013 46.2C186.013 44.344 185.677 42.632 185.005 41.064C184.365 39.496 183.453 38.136 182.269 36.984C181.117 35.8 179.741 34.888 178.141 34.248C176.573 33.608 174.861 33.288 173.005 33.288C171.117 33.288 169.373 33.608 167.773 34.248C166.205 34.888 164.829 35.8 163.645 36.984C162.461 38.136 161.533 39.496 160.861 41.064C160.221 42.632 159.901 44.344 159.901 46.2C159.901 48.056 160.221 49.768 160.861 51.336C161.533 52.904 162.461 54.28 163.645 55.464C164.829 56.616 166.205 57.512 167.773 58.152C169.373 58.792 171.117 59.112 173.005 59.112ZM198.149 63V29.4H211.253C214.197 29.4 216.709 29.864 218.789 30.792C220.869 31.72 222.469 33.064 223.589 34.824C224.709 36.584 225.269 38.68 225.269 41.112C225.269 43.544 224.709 45.64 223.589 47.4C222.469 49.128 220.869 50.456 218.789 51.384C216.709 52.312 214.197 52.776 211.253 52.776H200.789L202.949 50.568V63H198.149ZM220.613 63L212.069 50.808H217.205L225.845 63H220.613ZM202.949 51.048L200.789 48.696H211.109C214.181 48.696 216.501 48.04 218.069 46.728C219.669 45.384 220.469 43.512 220.469 41.112C220.469 38.712 219.669 36.856 218.069 35.544C216.501 34.232 214.181 33.576 211.109 33.576H200.789L202.949 31.176V51.048ZM237.392 43.896H254.672V47.976H237.392V43.896ZM237.824 58.824H257.408V63H233.024V29.4H256.736V33.576H237.824V58.824ZM278.503 43.896C277.607 43.896 276.839 43.592 276.199 42.984C275.559 42.344 275.239 41.544 275.239 40.584C275.239 39.624 275.559 38.84 276.199 38.232C276.839 37.624 277.607 37.32 278.503 37.32C279.367 37.32 280.103 37.624 280.711 38.232C281.351 38.84 281.671 39.624 281.671 40.584C281.671 41.544 281.351 42.344 280.711 42.984C280.103 43.592 279.367 43.896 278.503 43.896ZM278.503 63.288C277.607 63.288 276.839 62.984 276.199 62.376C275.559 61.736 275.239 60.936 275.239 59.976C275.239 59.016 275.559 58.232 276.199 57.624C276.839 57.016 277.607 56.712 278.503 56.712C279.367 56.712 280.103 57.016 280.711 57.624C281.351 58.232 281.671 59.016 281.671 59.976C281.671 60.936 281.351 61.736 280.711 62.376C280.103 62.984 279.367 63.288 278.503 63.288Z" fill="black"/>
</svg>
