<?xml version="1.0" encoding="UTF-8"?>
<svg id="Layer_2" data-name="Layer 2" xmlns="http://www.w3.org/2000/svg" viewBox="0 0 48.99 57.03">
  <defs>
    <style>
      .cls-1 {
        fill: #a21414;
      }

      .cls-2 {
        fill: #7bb0bc;
      }

      .cls-3 {
        fill: #97c4d1;
      }

      .cls-4 {
        fill: #f6653d;
      }

      .cls-5 {
        fill: #f5502a;
      }

      .cls-6 {
        fill: #ea3814;
      }

      .cls-7 {
        fill: #d8f0f4;
      }

      .cls-8 {
        fill: #acd6e0;
      }
    </style>
  </defs>
  <g id="sharpener">
    <path class="cls-6" d="m48.99,6.89l-.29,17.2s-4.26,1.39-4.94,7.96c-.68,6.57,3.9,10.6,3.9,10.6l.06,10.35-36.75,4.03L0,50.4s20.37-8.58,20.57-13.52c.21-4.93-13.33-19.57-13.33-19.57l.93-13.73,12.19,5.22-.36,15.4,5.64-.73,2.92-.39L36.22,0l12.77,6.89Z"/>
    <path class="cls-5" d="m48.99,6.89l-.29,16.96v.23s-4.27,1.39-4.95,7.96c-.66,6.33,3.57,10.29,3.89,10.59l.02.02.06,10.35-12.76-6.88-3.02,1.8-9.03-17.17,2.73-7.28,2.33-.31.59-.07,3.4-10.26L36.22,0l12.77,6.89Z"/>
    <path class="cls-6" d="m48.7,23.85v.23s-4.27,1.39-4.95,7.96c-.66,6.33,3.57,10.29,3.89,10.59l-12.75-6.86-7.6-4.5.67-8.12,1.12-13.49,2.87,3.16,3.98,4.38,12.76,6.65Z"/>
    <path class="cls-4" d="m8.18,3.58l-.94,13.73,8.56-1.12.4-13.81L36.22,0l-.28,17.2s-4.27,1.38-4.94,7.96c-.68,6.58,3.91,10.61,3.91,10.61l.06,10.34L0,50.39l1.16-10.81s4.69.82,6.65-9.58c.92-4.85-5.83-8-5.83-8l.5-17.51,5.7-.91Z"/>
    <polygon class="cls-7" points="16.11 5.42 21.03 5.02 20.24 44.52 14.31 45.38 16.11 5.42"/>
    <polygon class="cls-3" points="21.03 5.02 29.94 4.33 27.99 43.75 19.86 44.69 21.03 5.02"/>
    <g>
      <path class="cls-8" d="m23.61,23.83c.04,1.72-1.31,3.14-3.03,3.19-1.72.04-3.14-1.31-3.19-3.03s1.31-3.14,3.03-3.19c1.72-.04,3.14,1.31,3.19,3.03Z"/>
      <path class="cls-2" d="m20.97,21.13s-.83,1.14-1.09,2.36c-.39,1.84.7,3.53.7,3.53,0,0-2.16-1.06-1.88-3.26.28-2.2,2.26-2.63,2.26-2.63Z"/>
    </g>
    <path class="cls-1" d="m28.78,51.19c.19,1.33-2.89,2.86-6.88,3.42-3.98.56-7.37-.07-7.55-1.4-.19-1.33,2.89-2.86,6.88-3.42,3.98-.56,7.37.07,7.55,1.4Z"/>
  </g>
</svg>