<?xml version="1.0" encoding="UTF-8"?>
<svg id="Layer_2" data-name="Layer 2" xmlns="http://www.w3.org/2000/svg" viewBox="0 0 23.18 55.33">
  <defs>
    <style>
      .cls-1 {
        fill: #505050;
      }

      .cls-2 {
        fill: #e5e8ed;
      }
    </style>
  </defs>
  <g id="Silver_paper_clip" data-name="Silver paper clip">
    <g>
      <rect class="cls-1" x="7.64" y="34.6" width="1" height=".05" transform="translate(-27.02 39.98) rotate(-85.44)"/>
      <path class="cls-1" d="m16.55,1.38c-3.14-.25-5.9,2.1-6.15,5.24l-.08,1c.25-3.14,3.01-5.5,6.15-5.24s5.5,3.01,5.24,6.15l.08-1c.25-3.14-2.1-5.9-5.24-6.15Z"/>
      <rect class="cls-1" x="19.74" y="34.91" width="1" height="1.36" transform="translate(-16.85 52.93) rotate(-85.44)"/>
      <path class="cls-1" d="m15.6,13.35c-1.8-.14-3.38,1.2-3.53,3l-.08,1c.14-1.8,1.73-3.15,3.53-3s3.15,1.73,3,3.53l.08-1c.14-1.8-1.2-3.38-3-3.53Z"/>
      <rect class="cls-1" x="16.66" y="35.19" width="1" height=".05" transform="translate(-19.3 49.51) rotate(-85.44)"/>
      <rect class="cls-1" x="9.43" y="33.95" width="1" height="1.36" transform="translate(-25.38 41.77) rotate(-85.44)"/>
      <path class="cls-1" d="m11.54,48.78c-3.22-.26-5.62-3.18-5.36-6.52l-.08,1c-.27,3.34,2.14,6.26,5.36,6.52s6.06-2.25,6.32-5.58l.08-1c-.27,3.34-3.1,5.84-6.32,5.58Z"/>
      <path class="cls-2" d="m16.66.02c-3.89-.31-7.31,2.6-7.62,6.49l-.08,1-1.74,21.77-.08,1-.3,3.75-.08,1-.58,7.25c-.27,3.34,2.14,6.26,5.36,6.52s6.06-2.25,6.32-5.58l.59-7.38.08-1,.29-3.61.08-1,.98-12.23.08-1c.2-2.55-1.7-4.79-4.25-4.99s-4.79,1.7-4.99,4.25l-.08,1-1.34,16.84,1.36.11,1.34-16.84.08-1c.14-1.8,1.73-3.15,3.53-3s3.15,1.73,3,3.53l-.08,1-1.34,16.84h.05s-.08,1-.08,1l-.59,7.38c-.21,2.59-2.41,4.53-4.9,4.33s-4.36-2.47-4.16-5.05l.58-7.25.08-1h.05s2.12-26.5,2.12-26.5l.08-1c.25-3.14,3.01-5.5,6.15-5.24s5.5,3.01,5.24,6.15l-.08,1-2.12,26.51,1.36.11,2.12-26.51.08-1C23.46,3.75,20.55.33,16.66.02Z"/>
    </g>
    <g>
      <rect class="cls-1" x="1.31" y="39.99" width=".05" height="1"/>
      <path class="cls-1" d="m7.08,6.68c-3.15,0-5.72,2.56-5.72,5.72v1c0-3.15,2.56-5.72,5.72-5.72s5.72,2.56,5.72,5.72v-1c0-3.15-2.56-5.72-5.72-5.72Z"/>
      <rect class="cls-1" x="12.8" y="39.99" width="1.36" height="1"/>
      <path class="cls-1" d="m7.08,18.69c-1.81,0-3.28,1.47-3.28,3.28v1c0-1.81,1.47-3.28,3.28-3.28s3.28,1.47,3.28,3.28v-1c0-1.81-1.47-3.28-3.28-3.28Z"/>
      <rect class="cls-1" x="10.35" y="39.85" width=".05" height="1"/>
      <rect class="cls-1" x="2.44" y="39.85" width="1.36" height="1"/>
      <path class="cls-1" d="m5.86,54.33c-3.23,0-5.86-2.72-5.86-6.07v1c0,3.35,2.63,6.07,5.86,6.07s5.86-2.72,5.86-6.07v-1c0,3.35-2.63,6.07-5.86,6.07Z"/>
      <path class="cls-2" d="m7.08,5.32c-3.9,0-7.08,3.17-7.08,7.08v35.86c0,3.35,2.63,6.07,5.86,6.07s5.86-2.72,5.86-6.07v-26.29c0-2.56-2.08-4.64-4.64-4.64s-4.64,2.08-4.64,4.64v17.89h1.36v-17.89c0-1.81,1.47-3.28,3.28-3.28s3.28,1.47,3.28,3.28v17.89h.05v8.4c0,2.6-2.04,4.71-4.54,4.71s-4.54-2.11-4.54-4.71v-8.27h.05V12.4c0-3.15,2.56-5.72,5.72-5.72s5.72,2.56,5.72,5.72v27.59h1.36V12.4c0-3.9-3.18-7.08-7.08-7.08Z"/>
    </g>
  </g>
</svg>