<svg width="309" height="195" viewBox="0 0 309 195" fill="none" xmlns="http://www.w3.org/2000/svg">
<path opacity="0.39" d="M8.84045 164.676L25.9231 194.652H299.295L269.238 172.69L12.6916 171.435" fill="#E48267"/>
<path d="M157.836 91.7488H154.202V138.633H157.836V91.7488Z" fill="#5B4848"/>
<path d="M114.713 91.7488H111.078V138.633H114.713V91.7488Z" fill="#5B4848"/>
<path d="M89.5784 107.265H179.903L172.581 87.6787H94.5312L89.5784 107.265Z" fill="#F8966F"/>
<path d="M179.903 107.265H89.5784V112.11H179.903V107.265Z" fill="#C95047"/>
<path d="M164.148 24.8276L172.582 43.7028H164.148V24.8276Z" fill="#C95047"/>
<path d="M108.422 24.8276L117.359 43.7028H108.422L108.453 26.8888" fill="#C95047"/>
<path d="M108.844 24.8276H104.148V162.144H108.844V24.8276Z" fill="#726160"/>
<path d="M164.571 24.8276H159.875V162.144H164.571V24.8276Z" fill="#726160"/>
<path d="M173.879 0.783691H98.7529C96.5806 0.783691 94.8195 2.57315 94.8195 4.78055V39.7059C94.8195 41.9133 96.5806 43.7028 98.7529 43.7028H173.879C176.051 43.7028 177.812 41.9133 177.812 39.7059V4.78055C177.812 2.57315 176.051 0.783691 173.879 0.783691Z" fill="#F8966F"/>
<path d="M25.9128 164.791H20.2908V194.652H25.9128V164.791Z" fill="#D35F59"/>
<path d="M8.83031 134.814H3.20813V164.675H8.83031V134.814Z" fill="#D35F59"/>
<path d="M304.917 164.791H299.295V194.652H304.917V164.791Z" fill="#D35F59"/>
<path d="M308.16 81.4636L264.224 62.0234H0.180908L20.7128 81.4636H308.16Z" fill="#E48267"/>
<path d="M305.792 81.4636H20.2908V92.816H305.792V81.4636Z" fill="#D35F59"/>
<path d="M305.792 92.8159H20.2908V164.791H305.792V92.8159Z" fill="#BF4B4B"/>
<path d="M20.2907 81.4636L0.180908 62.0234V73.1351L20.2907 92.8159V81.4636Z" fill="#D35F59"/>
<path d="M3.20813 76.1064V143.069L20.2907 164.791V92.8158L3.20813 76.1064Z" fill="#D35F59"/>
</svg>
