<?xml version="1.0" encoding="UTF-8"?>
<svg xmlns="http://www.w3.org/2000/svg" viewBox="0 0 51.33 45.59">
  <defs>
    <style>
      .cls-1 {
        fill: #8a8c8f;
      }

      .cls-2 {
        fill: #f4824e;
      }

      .cls-3 {
        isolation: isolate;
      }

      .cls-4 {
        fill: #d0d2d3;
      }

      .cls-4, .cls-5 {
        mix-blend-mode: multiply;
      }
    </style>
  </defs>
  <g class="cls-3">
    <g id="Layer_2" data-name="Layer 2">
      <g id="Triangle_Ruler" data-name="Triangle Ruler">
        <path class="cls-2" d="m0,0v45.59h51.33L0,0Zm8.07,18.66l21.5,19.1H8.07v-19.1Z"/>
        <path class="cls-4" d="m0,0v45.59h51.33L0,0Zm3.61,9.5l36.04,32.01H3.61V9.5Z"/>
        <g class="cls-5">
          <rect class="cls-1" y="41.47" width="1.38" height=".22"/>
          <rect class="cls-1" y="43.42" width="2.12" height=".22"/>
          <rect class="cls-1" y="39.51" width="2.12" height=".22"/>
          <rect class="cls-1" y="42.94" width="1.17" height=".22"/>
          <rect class="cls-1" y="42.44" width="1.17" height=".22"/>
          <rect class="cls-1" y="41.94" width="1.17" height=".22"/>
          <rect class="cls-1" y="40.99" width="1.17" height=".22"/>
          <rect class="cls-1" y="40.49" width="1.17" height=".22"/>
          <rect class="cls-1" y="39.99" width="1.17" height=".22"/>
          <rect class="cls-1" y="45.38" width="1.38" height=".22"/>
          <rect class="cls-1" y="43.42" width="2.12" height=".22"/>
          <rect class="cls-1" y="44.9" width="1.17" height=".22"/>
          <rect class="cls-1" y="44.4" width="1.17" height=".22"/>
          <rect class="cls-1" y="43.9" width="1.17" height=".22"/>
          <rect class="cls-1" y="37.53" width="1.38" height=".22"/>
          <rect class="cls-1" y="35.58" width="2.12" height=".22"/>
          <rect class="cls-1" y="39" width="1.17" height=".22"/>
          <rect class="cls-1" y="38.51" width="1.17" height=".22"/>
          <rect class="cls-1" y="38.01" width="1.17" height=".22"/>
          <rect class="cls-1" y="37.05" width="1.17" height=".22"/>
          <rect class="cls-1" y="36.56" width="1.17" height=".22"/>
          <rect class="cls-1" y="36.06" width="1.17" height=".22"/>
          <rect class="cls-1" y="33.6" width="1.38" height=".22"/>
          <rect class="cls-1" y="31.64" width="2.12" height=".22"/>
          <rect class="cls-1" y="35.07" width="1.17" height=".22"/>
          <rect class="cls-1" y="34.57" width="1.17" height=".22"/>
          <rect class="cls-1" y="34.07" width="1.17" height=".22"/>
          <rect class="cls-1" y="33.12" width="1.17" height=".22"/>
          <rect class="cls-1" y="32.62" width="1.17" height=".22"/>
          <rect class="cls-1" y="32.12" width="1.17" height=".22"/>
          <rect class="cls-1" y="29.66" width="1.38" height=".22"/>
          <rect class="cls-1" y="27.71" width="2.12" height=".22"/>
          <rect class="cls-1" y="31.13" width="1.17" height=".22"/>
          <rect class="cls-1" y="30.64" width="1.17" height=".22"/>
          <rect class="cls-1" y="30.14" width="1.17" height=".22"/>
          <rect class="cls-1" y="29.18" width="1.17" height=".22"/>
          <rect class="cls-1" y="28.69" width="1.17" height=".22"/>
          <rect class="cls-1" y="28.19" width="1.17" height=".22"/>
          <rect class="cls-1" y="25.73" width="1.38" height=".22"/>
          <rect class="cls-1" y="23.77" width="2.12" height=".22"/>
          <rect class="cls-1" y="27.2" width="1.17" height=".22"/>
          <rect class="cls-1" y="26.7" width="1.17" height=".22"/>
          <rect class="cls-1" y="26.2" width="1.17" height=".22"/>
          <rect class="cls-1" y="25.25" width="1.17" height=".22"/>
          <rect class="cls-1" y="24.75" width="1.17" height=".22"/>
          <rect class="cls-1" y="24.25" width="1.17" height=".22"/>
          <rect class="cls-1" y="21.79" width="1.38" height=".22"/>
          <rect class="cls-1" y="19.84" width="2.12" height=".22"/>
          <rect class="cls-1" y="23.26" width="1.17" height=".22"/>
          <rect class="cls-1" y="22.77" width="1.17" height=".22"/>
          <rect class="cls-1" y="22.27" width="1.17" height=".22"/>
          <rect class="cls-1" y="21.31" width="1.17" height=".22"/>
          <rect class="cls-1" y="20.82" width="1.17" height=".22"/>
          <rect class="cls-1" y="20.32" width="1.17" height=".22"/>
          <rect class="cls-1" y="17.86" width="1.38" height=".22"/>
          <rect class="cls-1" y="15.9" width="2.12" height=".22"/>
          <rect class="cls-1" y="19.33" width="1.17" height=".22"/>
          <rect class="cls-1" y="18.83" width="1.17" height=".22"/>
          <rect class="cls-1" y="18.33" width="1.17" height=".22"/>
          <rect class="cls-1" y="17.38" width="1.17" height=".22"/>
          <rect class="cls-1" y="16.88" width="1.17" height=".22"/>
          <rect class="cls-1" y="16.38" width="1.17" height=".22"/>
          <rect class="cls-1" y="13.93" width="1.38" height=".22"/>
          <rect class="cls-1" y="11.97" width="2.12" height=".22"/>
          <rect class="cls-1" y="15.39" width="1.17" height=".22"/>
          <rect class="cls-1" y="14.9" width="1.17" height=".22"/>
          <rect class="cls-1" y="14.4" width="1.17" height=".22"/>
          <rect class="cls-1" y="13.45" width="1.17" height=".22"/>
          <rect class="cls-1" y="12.95" width="1.17" height=".22"/>
          <rect class="cls-1" y="12.45" width="1.17" height=".22"/>
          <rect class="cls-1" y="9.99" width="1.38" height=".22"/>
          <rect class="cls-1" y="8.03" width="2.12" height=".22"/>
          <rect class="cls-1" y="11.46" width="1.17" height=".22"/>
          <rect class="cls-1" y="10.96" width="1.17" height=".22"/>
          <rect class="cls-1" y="10.46" width="1.17" height=".22"/>
          <rect class="cls-1" y="9.51" width="1.17" height=".22"/>
          <rect class="cls-1" y="9.01" width="1.17" height=".22"/>
          <rect class="cls-1" y="8.51" width="1.17" height=".22"/>
          <rect class="cls-1" y="6.06" width="1.38" height=".22"/>
          <rect class="cls-1" y="4.1" width="2.12" height=".22"/>
          <rect class="cls-1" y="7.53" width="1.17" height=".22"/>
          <rect class="cls-1" y="7.03" width="1.17" height=".22"/>
          <rect class="cls-1" y="6.53" width="1.17" height=".22"/>
          <rect class="cls-1" y="5.58" width="1.17" height=".22"/>
          <rect class="cls-1" y="5.08" width="1.17" height=".22"/>
          <rect class="cls-1" y="4.58" width="1.17" height=".22"/>
          <rect class="cls-1" y="3.63" width="1.17" height=".18"/>
          <path class="cls-1" d="m3.61,43.62h-.79v.13h-.11s-.02-.07-.04-.11c-.02-.03-.05-.06-.09-.07v-.11h1.03v.15Z"/>
          <path class="cls-1" d="m2.88,39.83c-.1,0-.17-.03-.22-.08-.05-.05-.07-.1-.07-.18,0-.07.03-.13.08-.17.05-.05.11-.07.18-.07s.14.02.2.05c.04.02.1.06.19.12.02.02.06.04.11.08l.04.03s.05.03.06.04c0,0,.01,0,.01,0v-.3h.15v.49h-.14s-.02-.01-.06-.03c-.02-.01-.03-.02-.05-.04l-.06-.04s-.08-.06-.15-.11c-.07-.05-.13-.08-.18-.11-.04-.02-.09-.03-.12-.03-.03,0-.06,0-.08.03-.02.02-.03.04-.03.07,0,.04.02.07.07.09.02,0,.04,0,.06,0h.04v.15h-.03Z"/>
          <path class="cls-1" d="m3.47,35.76c0-.07-.03-.11-.1-.11h-.06c-.11,0-.16.06-.16.17h-.13c0-.06-.02-.1-.05-.13-.03-.03-.07-.04-.13-.04h-.02c-.07,0-.1.03-.1.09,0,.03.01.06.04.07.02.01.04.02.07.02h.03v.15h-.02c-.07,0-.13-.02-.18-.06-.05-.04-.08-.1-.08-.18s.02-.13.07-.17c.04-.04.1-.06.17-.06h.04c.06,0,.12.02.17.06.02.02.04.04.05.06.03-.05.06-.08.12-.11.03-.01.06-.02.1-.02h.08c.08,0,.14.03.19.08.05.05.07.11.07.18s-.02.13-.07.17c-.05.05-.11.07-.17.07h-.03v-.15s.02,0,.02,0c.03,0,.05-.01.06-.03.02-.02.02-.04.02-.06Z"/>
          <path class="cls-1" d="m3.24,31.95l-.65-.27v-.15h.65v-.1h.16v.1h.22v.15h-.22v.27h-.16Zm0-.27h-.32l.32.13v-.13Z"/>
          <path class="cls-1" d="m2.74,27.97h.22s-.04-.04-.05-.06c0-.01,0-.03,0-.05,0-.07.02-.12.07-.15.04-.03.1-.04.17-.04h.22c.08,0,.14.02.19.07.05.05.07.1.07.17s-.02.12-.07.17c-.05.04-.1.06-.17.06h-.02v-.15s.02,0,.02,0c.04,0,.07-.02.08-.05,0,0,0-.02,0-.03,0-.06-.03-.09-.1-.09h-.25s-.05.01-.07.03c0,.01-.01.02-.01.04,0,.03.01.05.03.06.02.01.04.02.06.02h.03v.15h-.56v-.45h.16v.3Z"/>
          <path class="cls-1" d="m2.84,23.82h-.03s-.05,0-.06.02c-.02.01-.03.03-.03.06s0,.04.03.06c.02.01.04.02.06.02h.2s-.05-.07-.05-.12c0-.07.02-.12.07-.15.04-.03.1-.05.17-.05h.18c.07,0,.12.03.16.07.04.04.07.1.07.16,0,.07-.02.12-.07.17-.05.04-.1.06-.17.06h-.56c-.05,0-.1-.01-.14-.04-.04-.02-.07-.06-.09-.1-.01-.03-.02-.06-.02-.09,0-.07.02-.12.07-.17.05-.04.1-.06.17-.06h.02v.16Zm.54.15s.05,0,.06-.02c.02-.01.03-.03.03-.06s0-.04-.03-.06c-.02-.01-.04-.02-.06-.02h-.19s-.05.01-.07.03c0,.01-.01.02-.01.04,0,.03.01.05.03.06.02.01.04.02.06.02h.19Z"/>
          <path class="cls-1" d="m2.59,19.72h.16l.87.22v.15l-.87-.22v.31h-.16v-.46Z"/>
          <path class="cls-1" d="m3.38,15.73c.07,0,.13.02.17.07.05.05.07.11.07.17h0c0,.08-.02.14-.07.19-.05.05-.11.07-.17.07h-.09c-.06,0-.12-.02-.16-.06-.02-.02-.04-.04-.05-.06-.02.04-.06.07-.11.1-.03.01-.06.02-.1.02h-.06c-.07,0-.12-.02-.17-.06-.05-.04-.07-.1-.07-.17h0c0-.08.02-.14.07-.19.04-.04.1-.06.17-.06h.06c.06,0,.12.02.16.06.02.02.03.04.04.06.03-.05.06-.08.12-.11.03-.01.06-.02.1-.02h.09Zm-.52.15c-.07,0-.11.02-.13.07,0,0,0,.02,0,.04,0,.03,0,.05.02.07.01.01.03.02.05.03.02,0,.04,0,.07,0,.04,0,.08,0,.1-.02.03-.02.04-.04.04-.08s-.01-.06-.04-.08c-.02-.01-.05-.02-.09-.02Zm.45,0c-.06,0-.1.01-.12.04,0,.01-.01.03-.01.05,0,.04.02.07.05.08.02,0,.05.01.09.01h.05s.06-.01.08-.03c.02-.02.03-.04.03-.07,0-.04-.02-.07-.06-.09-.01,0-.03,0-.05,0h-.05Z"/>
          <path class="cls-1" d="m2.57,12.07c0-.07.02-.12.07-.17.05-.04.1-.06.17-.06h.56c.07,0,.13.02.17.07.05.04.07.1.07.17s-.02.12-.07.17c-.05.04-.1.06-.17.06h-.02v-.16h.03s.05,0,.06-.02c.02-.01.03-.03.03-.06s0-.04-.03-.06c-.02-.01-.04-.02-.06-.02h-.21s.05.07.05.12c0,.07-.02.12-.07.15-.04.03-.1.05-.17.05h-.18s-.09-.02-.13-.04c-.04-.02-.07-.06-.08-.1-.01-.03-.02-.06-.02-.09Zm.25-.08s-.05,0-.06.02c-.02.01-.03.03-.03.06s0,.04.03.06c.02.01.04.02.06.02h.19s.05-.01.07-.03c0,0,.01-.02.01-.04,0-.04-.02-.06-.06-.07-.01,0-.02,0-.03,0h-.19Z"/>
          <g>
            <path class="cls-1" d="m3.61,8.49h-.79v.13h-.11s-.02-.07-.04-.11c-.02-.03-.05-.06-.09-.07v-.11h1.03v.15Z"/>
            <path class="cls-1" d="m3.38,7.71c.07,0,.13.02.17.07.05.05.07.11.07.17s-.02.13-.07.17c-.05.05-.11.07-.17.07h-.56c-.07,0-.13-.02-.17-.07-.05-.05-.07-.11-.07-.17s.02-.13.07-.17c.05-.05.11-.07.17-.07h.56Zm-.56.16s-.05,0-.06.03c-.02.02-.03.04-.03.06s0,.05.03.06c.02.02.04.03.06.03h.56s.05,0,.06-.03c.02-.02.03-.04.03-.06s0-.05-.03-.06c-.02-.02-.04-.03-.06-.03h-.56Z"/>
          </g>
          <g>
            <path class="cls-1" d="m3.61,4.5h-.79v.13h-.11s-.02-.07-.04-.11c-.02-.03-.05-.06-.09-.07v-.11h1.03v.15Z"/>
            <path class="cls-1" d="m3.61,4.09h-.79v.13h-.11s-.02-.07-.04-.11c-.02-.03-.05-.06-.09-.07v-.11h1.03v.15Z"/>
          </g>
        </g>
      </g>
    </g>
  </g>
</svg>