<?xml version="1.0" encoding="UTF-8"?>
<svg xmlns="http://www.w3.org/2000/svg" xmlns:xlink="http://www.w3.org/1999/xlink" viewBox="0 0 347.23 192.21">
  <defs>
    <style>
      .cls-1 {
        fill: url(#radial-gradient-11);
      }

      .cls-1, .cls-2, .cls-3, .cls-4, .cls-5, .cls-6, .cls-7, .cls-8, .cls-9, .cls-10, .cls-11, .cls-12, .cls-13, .cls-14, .cls-15, .cls-16, .cls-17, .cls-18, .cls-19, .cls-20, .cls-21, .cls-22, .cls-23, .cls-24, .cls-25 {
        mix-blend-mode: multiply;
      }

      .cls-26 {
        fill: url(#linear-gradient-2);
      }

      .cls-27 {
        fill: #fff;
      }

      .cls-28, .cls-29, .cls-30, .cls-31, .cls-32, .cls-33, .cls-34, .cls-35, .cls-36, .cls-37 {
        mix-blend-mode: screen;
      }

      .cls-28, .cls-29, .cls-32, .cls-33, .cls-35 {
        opacity: .7;
      }

      .cls-2 {
        fill: url(#radial-gradient-20);
      }

      .cls-2, .cls-4, .cls-12, .cls-17 {
        opacity: .66;
      }

      .cls-38, .cls-29, .cls-30 {
        fill: #f65d22;
      }

      .cls-3 {
        fill: url(#radial-gradient-18);
      }

      .cls-4 {
        fill: url(#radial-gradient-13);
      }

      .cls-5 {
        fill: url(#radial-gradient-8);
      }

      .cls-39 {
        fill: url(#radial-gradient-16);
      }

      .cls-40, .cls-31, .cls-32 {
        fill: #80e618;
      }

      .cls-6 {
        fill: url(#radial-gradient-22);
      }

      .cls-41, .cls-33, .cls-34 {
        fill: #93c6e7;
      }

      .cls-42 {
        isolation: isolate;
      }

      .cls-7, .cls-30, .cls-31, .cls-34, .cls-37 {
        opacity: .4;
      }

      .cls-7, .cls-43 {
        fill: #7a7c7c;
      }

      .cls-8 {
        fill: url(#radial-gradient-4);
      }

      .cls-44 {
        fill: #555557;
      }

      .cls-45 {
        fill: #afb1b4;
      }

      .cls-9 {
        fill: url(#radial-gradient-5);
      }

      .cls-10 {
        fill: url(#radial-gradient);
      }

      .cls-11 {
        fill: url(#radial-gradient-19);
      }

      .cls-12 {
        fill: url(#radial-gradient-27);
      }

      .cls-35, .cls-37, .cls-46 {
        fill: #eeaa2d;
      }

      .cls-47 {
        fill: url(#radial-gradient-2);
      }

      .cls-36 {
        opacity: .19;
      }

      .cls-13 {
        fill: url(#radial-gradient-15);
      }

      .cls-48 {
        fill: #d1d3d4;
      }

      .cls-14 {
        fill: url(#radial-gradient-14);
      }

      .cls-15 {
        fill: url(#radial-gradient-17);
      }

      .cls-49 {
        fill: url(#linear-gradient-3);
      }

      .cls-16 {
        fill: #b2c7cf;
      }

      .cls-17 {
        fill: url(#radial-gradient-6);
      }

      .cls-50 {
        fill: url(#linear-gradient);
      }

      .cls-51 {
        fill: url(#radial-gradient-23);
      }

      .cls-18 {
        fill: url(#radial-gradient-10);
      }

      .cls-19 {
        fill: url(#radial-gradient-3);
      }

      .cls-20 {
        fill: url(#radial-gradient-26);
      }

      .cls-21 {
        fill: url(#radial-gradient-7);
      }

      .cls-22 {
        fill: url(#radial-gradient-25);
      }

      .cls-52 {
        fill: url(#linear-gradient-4);
      }

      .cls-53 {
        fill: url(#radial-gradient-9);
      }

      .cls-23 {
        fill: url(#radial-gradient-21);
      }

      .cls-24 {
        fill: url(#radial-gradient-12);
      }

      .cls-25 {
        fill: url(#radial-gradient-24);
      }
    </style>
    <radialGradient id="radial-gradient" cx="-1486.41" cy="31.72" fx="-1486.41" fy="31.72" r="5.5" gradientTransform="translate(-1195) rotate(-180) scale(1 -1)" gradientUnits="userSpaceOnUse">
      <stop offset=".32" stop-color="#241f20"/>
      <stop offset="1" stop-color="#fff"/>
    </radialGradient>
    <radialGradient id="radial-gradient-2" cx="-1474.32" cy="18.42" fx="-1474.32" fy="18.42" r="17.95" gradientTransform="translate(-1195) rotate(-180) scale(1 -1)" gradientUnits="userSpaceOnUse">
      <stop offset="0" stop-color="#fff"/>
      <stop offset="1" stop-color="#93c6e7"/>
    </radialGradient>
    <radialGradient id="radial-gradient-3" cx="-1481.43" cy="24.99" fx="-1481.43" fy="24.99" r="12.55" gradientTransform="translate(-1195) rotate(-180) scale(1 -1)" gradientUnits="userSpaceOnUse">
      <stop offset="0" stop-color="#fff"/>
      <stop offset=".23" stop-color="#fbfdfe"/>
      <stop offset=".42" stop-color="#f1f7fc"/>
      <stop offset=".59" stop-color="#e0eef8"/>
      <stop offset=".75" stop-color="#c8e2f2"/>
      <stop offset=".9" stop-color="#aad2ec"/>
      <stop offset="1" stop-color="#93c6e7"/>
    </radialGradient>
    <radialGradient id="radial-gradient-4" cx="-1484.87" cy="30.23" fx="-1484.87" fy="30.23" r="7.54" gradientTransform="translate(-1195) rotate(-180) scale(1 -1)" gradientUnits="userSpaceOnUse">
      <stop offset="0" stop-color="#fff"/>
      <stop offset=".44" stop-color="#fdfefe"/>
      <stop offset=".6" stop-color="#f6fafd"/>
      <stop offset=".72" stop-color="#eaf4fa"/>
      <stop offset=".81" stop-color="#d9ebf6"/>
      <stop offset=".89" stop-color="#c3dff1"/>
      <stop offset=".95" stop-color="#a9d1eb"/>
      <stop offset="1" stop-color="#93c6e7"/>
    </radialGradient>
    <radialGradient id="radial-gradient-5" cx="-1483.92" cy="28.46" fx="-1483.92" fy="28.46" r="12.21" gradientTransform="translate(-1195) rotate(-180) scale(1 -1)" gradientUnits="userSpaceOnUse">
      <stop offset="0" stop-color="#fff"/>
      <stop offset=".41" stop-color="#fdfefe"/>
      <stop offset=".56" stop-color="#f6fafd"/>
      <stop offset=".67" stop-color="#eaf4fa"/>
      <stop offset=".75" stop-color="#d9ebf6"/>
      <stop offset=".83" stop-color="#c3dff1"/>
      <stop offset=".89" stop-color="#a9d1eb"/>
      <stop offset=".93" stop-color="#93c6e7"/>
    </radialGradient>
    <radialGradient id="radial-gradient-6" cx="-1482.34" cy="27.73" fx="-1482.34" fy="27.73" r="12.42" gradientTransform="translate(-1195) rotate(-180) scale(1 -1)" gradientUnits="userSpaceOnUse">
      <stop offset="0" stop-color="#fff"/>
      <stop offset=".19" stop-color="#fafcfe"/>
      <stop offset=".38" stop-color="#eef6fb"/>
      <stop offset=".58" stop-color="#d9ebf6"/>
      <stop offset=".78" stop-color="#bcdbf0"/>
      <stop offset=".98" stop-color="#96c8e7"/>
      <stop offset="1" stop-color="#93c6e7"/>
    </radialGradient>
    <linearGradient id="linear-gradient" x1="-1480.69" y1="27.53" x2="-1482.77" y2="28.88" gradientTransform="translate(-1195) rotate(-180) scale(1 -1)" gradientUnits="userSpaceOnUse">
      <stop offset="0" stop-color="#fff"/>
      <stop offset=".12" stop-color="#e7e7e7"/>
      <stop offset=".37" stop-color="#aba9aa"/>
      <stop offset=".73" stop-color="#4c4849"/>
      <stop offset=".87" stop-color="#241f20"/>
    </linearGradient>
    <radialGradient id="radial-gradient-7" cx="-1505.15" cy="43.12" fx="-1505.15" fy="43.12" r="5.5" xlink:href="#radial-gradient"/>
    <radialGradient id="radial-gradient-8" cx="-1505.15" cy="43.12" fx="-1505.15" fy="43.12" r="5.5" xlink:href="#radial-gradient"/>
    <radialGradient id="radial-gradient-9" cx="-1493.07" cy="29.82" fx="-1493.07" fy="29.82" r="17.95" gradientTransform="translate(-1195) rotate(-180) scale(1 -1)" gradientUnits="userSpaceOnUse">
      <stop offset="0" stop-color="#fff"/>
      <stop offset="1" stop-color="#80e618"/>
    </radialGradient>
    <radialGradient id="radial-gradient-10" cx="-1500.17" cy="36.4" fx="-1500.17" fy="36.4" r="12.55" gradientTransform="translate(-1195) rotate(-180) scale(1 -1)" gradientUnits="userSpaceOnUse">
      <stop offset="0" stop-color="#fff"/>
      <stop offset=".17" stop-color="#fdfefb"/>
      <stop offset=".3" stop-color="#f7fdf1"/>
      <stop offset=".43" stop-color="#eefbe0"/>
      <stop offset=".54" stop-color="#e1f9c8"/>
      <stop offset=".66" stop-color="#d0f5a9"/>
      <stop offset=".77" stop-color="#bbf183"/>
      <stop offset=".88" stop-color="#a2ec56"/>
      <stop offset=".98" stop-color="#86e723"/>
      <stop offset="1" stop-color="#80e618"/>
    </radialGradient>
    <radialGradient id="radial-gradient-11" cx="-1503.62" cy="41.63" fx="-1503.62" fy="41.63" r="7.54" gradientTransform="translate(-1195) rotate(-180) scale(1 -1)" gradientUnits="userSpaceOnUse">
      <stop offset="0" stop-color="#fff"/>
      <stop offset=".38" stop-color="#fdfefd"/>
      <stop offset=".52" stop-color="#fafef6"/>
      <stop offset=".61" stop-color="#f3fcea"/>
      <stop offset=".69" stop-color="#eafad9"/>
      <stop offset=".76" stop-color="#def8c3"/>
      <stop offset=".82" stop-color="#cff5a8"/>
      <stop offset=".87" stop-color="#bdf287"/>
      <stop offset=".92" stop-color="#a8ee62"/>
      <stop offset=".97" stop-color="#92e939"/>
      <stop offset="1" stop-color="#80e618"/>
    </radialGradient>
    <radialGradient id="radial-gradient-12" cx="-1502.67" cy="39.87" fx="-1502.67" fy="39.87" r="12.21" gradientTransform="translate(-1195) rotate(-180) scale(1 -1)" gradientUnits="userSpaceOnUse">
      <stop offset="0" stop-color="#fff"/>
      <stop offset=".35" stop-color="#fdfefd"/>
      <stop offset=".48" stop-color="#fafef6"/>
      <stop offset=".57" stop-color="#f3fcea"/>
      <stop offset=".65" stop-color="#eafad9"/>
      <stop offset=".71" stop-color="#def8c3"/>
      <stop offset=".76" stop-color="#cff5a8"/>
      <stop offset=".81" stop-color="#bdf287"/>
      <stop offset=".86" stop-color="#a8ee62"/>
      <stop offset=".9" stop-color="#92e939"/>
      <stop offset=".93" stop-color="#80e618"/>
    </radialGradient>
    <radialGradient id="radial-gradient-13" cx="-1501.09" cy="39.13" fx="-1501.09" fy="39.13" r="12.42" gradientTransform="translate(-1195) rotate(-180) scale(1 -1)" gradientUnits="userSpaceOnUse">
      <stop offset="0" stop-color="#fff"/>
      <stop offset=".13" stop-color="#fcfefa"/>
      <stop offset=".26" stop-color="#f5fdee"/>
      <stop offset=".39" stop-color="#eafad9"/>
      <stop offset=".53" stop-color="#daf7bc"/>
      <stop offset=".66" stop-color="#c5f396"/>
      <stop offset=".8" stop-color="#acee68"/>
      <stop offset=".94" stop-color="#8ee832"/>
      <stop offset="1" stop-color="#80e618"/>
    </radialGradient>
    <linearGradient id="linear-gradient-2" x1="-1499.44" y1="38.93" x2="-1501.52" y2="40.28" xlink:href="#linear-gradient"/>
    <radialGradient id="radial-gradient-14" cx="-1472" cy="51.64" fx="-1472" fy="51.64" r="5.5" xlink:href="#radial-gradient"/>
    <radialGradient id="radial-gradient-15" cx="-1472" cy="51.64" fx="-1472" fy="51.64" r="5.5" xlink:href="#radial-gradient"/>
    <radialGradient id="radial-gradient-16" cx="-1459.91" cy="38.34" fx="-1459.91" fy="38.34" r="17.95" gradientTransform="translate(-1195) rotate(-180) scale(1 -1)" gradientUnits="userSpaceOnUse">
      <stop offset="0" stop-color="#fff"/>
      <stop offset="1" stop-color="#eeaa2d"/>
    </radialGradient>
    <radialGradient id="radial-gradient-17" cx="-1467.02" cy="44.91" fx="-1467.02" fy="44.91" r="12.55" gradientTransform="translate(-1195) rotate(-180) scale(1 -1)" gradientUnits="userSpaceOnUse">
      <stop offset="0" stop-color="#fff"/>
      <stop offset=".17" stop-color="#fefdfb"/>
      <stop offset=".31" stop-color="#fdf9f1"/>
      <stop offset=".44" stop-color="#fcf2e0"/>
      <stop offset=".57" stop-color="#fae8c8"/>
      <stop offset=".69" stop-color="#f8dca9"/>
      <stop offset=".8" stop-color="#f5cd83"/>
      <stop offset=".91" stop-color="#f1bb57"/>
      <stop offset="1" stop-color="#eeaa2d"/>
    </radialGradient>
    <radialGradient id="radial-gradient-18" cx="-1470.46" cy="50.15" fx="-1470.46" fy="50.15" r="7.54" gradientTransform="translate(-1195) rotate(-180) scale(1 -1)" gradientUnits="userSpaceOnUse">
      <stop offset="0" stop-color="#fff"/>
      <stop offset=".39" stop-color="#fefefd"/>
      <stop offset=".53" stop-color="#fefbf6"/>
      <stop offset=".63" stop-color="#fdf6ea"/>
      <stop offset=".71" stop-color="#fbefd9"/>
      <stop offset=".78" stop-color="#fae6c3"/>
      <stop offset=".84" stop-color="#f7dba8"/>
      <stop offset=".89" stop-color="#f5ce87"/>
      <stop offset=".94" stop-color="#f2bf62"/>
      <stop offset=".99" stop-color="#eeae39"/>
      <stop offset="1" stop-color="#eeaa2d"/>
    </radialGradient>
    <radialGradient id="radial-gradient-19" cx="-1469.51" cy="48.39" fx="-1469.51" fy="48.39" r="12.21" gradientTransform="translate(-1195) rotate(-180) scale(1 -1)" gradientUnits="userSpaceOnUse">
      <stop offset="0" stop-color="#fff"/>
      <stop offset=".36" stop-color="#fefefd"/>
      <stop offset=".49" stop-color="#fefbf6"/>
      <stop offset=".58" stop-color="#fdf6ea"/>
      <stop offset=".66" stop-color="#fbefd9"/>
      <stop offset=".72" stop-color="#fae6c3"/>
      <stop offset=".78" stop-color="#f7dba8"/>
      <stop offset=".83" stop-color="#f5ce87"/>
      <stop offset=".88" stop-color="#f2bf62"/>
      <stop offset=".92" stop-color="#eeae39"/>
      <stop offset=".93" stop-color="#eeaa2d"/>
    </radialGradient>
    <radialGradient id="radial-gradient-20" cx="-1467.94" cy="47.65" fx="-1467.94" fy="47.65" r="12.42" gradientTransform="translate(-1195) rotate(-180) scale(1 -1)" gradientUnits="userSpaceOnUse">
      <stop offset="0" stop-color="#fff"/>
      <stop offset=".13" stop-color="#fefdfa"/>
      <stop offset=".27" stop-color="#fdf8ee"/>
      <stop offset=".41" stop-color="#fbefd9"/>
      <stop offset=".55" stop-color="#f9e3bc"/>
      <stop offset=".7" stop-color="#f6d496"/>
      <stop offset=".84" stop-color="#f2c168"/>
      <stop offset=".99" stop-color="#eeac32"/>
      <stop offset="1" stop-color="#eeaa2d"/>
    </radialGradient>
    <linearGradient id="linear-gradient-3" x1="-1466.28" y1="47.45" x2="-1468.36" y2="48.8" xlink:href="#linear-gradient"/>
    <radialGradient id="radial-gradient-21" cx="-1503.23" cy="77.47" fx="-1503.23" fy="77.47" r="5.5" xlink:href="#radial-gradient"/>
    <radialGradient id="radial-gradient-22" cx="-1503.23" cy="77.47" fx="-1503.23" fy="77.47" r="5.5" xlink:href="#radial-gradient"/>
    <radialGradient id="radial-gradient-23" cx="-1491.14" cy="64.17" fx="-1491.14" fy="64.17" r="17.95" gradientTransform="translate(-1195) rotate(-180) scale(1 -1)" gradientUnits="userSpaceOnUse">
      <stop offset="0" stop-color="#fff"/>
      <stop offset="1" stop-color="#f65d22"/>
    </radialGradient>
    <radialGradient id="radial-gradient-24" cx="-1498.25" cy="70.75" fx="-1498.25" fy="70.75" r="12.55" gradientTransform="translate(-1195) rotate(-180) scale(1 -1)" gradientUnits="userSpaceOnUse">
      <stop offset="0" stop-color="#fff"/>
      <stop offset=".17" stop-color="#fefcfb"/>
      <stop offset=".31" stop-color="#fef5f1"/>
      <stop offset=".43" stop-color="#fde8e0"/>
      <stop offset=".55" stop-color="#fcd7c8"/>
      <stop offset=".67" stop-color="#fbc0a9"/>
      <stop offset=".78" stop-color="#f9a483"/>
      <stop offset=".89" stop-color="#f88356"/>
      <stop offset="1" stop-color="#f65e23"/>
      <stop offset="1" stop-color="#f65d22"/>
    </radialGradient>
    <radialGradient id="radial-gradient-25" cx="-1501.7" cy="75.98" fx="-1501.7" fy="75.98" r="7.54" gradientTransform="translate(-1195) rotate(-180) scale(1 -1)" gradientUnits="userSpaceOnUse">
      <stop offset="0" stop-color="#fff"/>
      <stop offset=".38" stop-color="#fefdfd"/>
      <stop offset=".52" stop-color="#fef8f6"/>
      <stop offset=".62" stop-color="#feefea"/>
      <stop offset=".7" stop-color="#fde3d9"/>
      <stop offset=".77" stop-color="#fcd3c3"/>
      <stop offset=".83" stop-color="#fbbfa8"/>
      <stop offset=".88" stop-color="#faa787"/>
      <stop offset=".93" stop-color="#f88c62"/>
      <stop offset=".98" stop-color="#f66d39"/>
      <stop offset="1" stop-color="#f65d22"/>
    </radialGradient>
    <radialGradient id="radial-gradient-26" cx="-1500.75" cy="74.22" fx="-1500.75" fy="74.22" r="12.21" gradientTransform="translate(-1195) rotate(-180) scale(1 -1)" gradientUnits="userSpaceOnUse">
      <stop offset="0" stop-color="#fff"/>
      <stop offset=".36" stop-color="#fefdfd"/>
      <stop offset=".49" stop-color="#fef8f6"/>
      <stop offset=".58" stop-color="#feefea"/>
      <stop offset=".65" stop-color="#fde3d9"/>
      <stop offset=".72" stop-color="#fcd3c3"/>
      <stop offset=".77" stop-color="#fbbfa8"/>
      <stop offset=".82" stop-color="#faa787"/>
      <stop offset=".87" stop-color="#f88c62"/>
      <stop offset=".91" stop-color="#f66d39"/>
      <stop offset=".93" stop-color="#f65d22"/>
    </radialGradient>
    <radialGradient id="radial-gradient-27" cx="-1499.17" cy="73.48" fx="-1499.17" fy="73.48" r="12.42" gradientTransform="translate(-1195) rotate(-180) scale(1 -1)" gradientUnits="userSpaceOnUse">
      <stop offset="0" stop-color="#fff"/>
      <stop offset=".13" stop-color="#fefbfa"/>
      <stop offset=".26" stop-color="#fef2ee"/>
      <stop offset=".4" stop-color="#fde3d9"/>
      <stop offset=".54" stop-color="#fccdbc"/>
      <stop offset=".68" stop-color="#fab296"/>
      <stop offset=".82" stop-color="#f89068"/>
      <stop offset=".96" stop-color="#f66932"/>
      <stop offset="1" stop-color="#f65d22"/>
    </radialGradient>
    <linearGradient id="linear-gradient-4" x1="-1497.52" y1="73.28" x2="-1499.6" y2="74.63" xlink:href="#linear-gradient"/>
  </defs>
  <g class="cls-42">
    <g id="Layer_2" data-name="Layer 2">
      <g id="Whiteboard">
        <g>
          <g>
            <rect class="cls-16" width="347.23" height="182.74" rx="2.26" ry="2.26"/>
            <g>
              <rect class="cls-48" x="1.54" y="1.74" width="342.5" height="177.69" rx="2.21" ry="2.21"/>
              <path class="cls-27" d="m335.77,179.7H9.8c-4.71,0-8.54-3.83-8.54-8.54V10.01C1.26,5.3,5.09,1.47,9.8,1.47h325.97c4.71,0,8.54,3.83,8.54,8.54v161.15c0,4.71-3.83,8.54-8.54,8.54ZM9.8,2.02c-4.41,0-7.99,3.59-7.99,7.99v161.15c0,4.41,3.59,7.99,7.99,7.99h325.97c4.41,0,7.99-3.59,7.99-7.99V10.01c0-4.41-3.59-7.99-7.99-7.99H9.8Z"/>
            </g>
            <g>
              <path class="cls-44" d="m14.65,1.74h-4.84C5.24,1.74,1.54,5.44,1.54,10.01v6.74h13.11V1.74Z"/>
              <path class="cls-44" d="m344.04,16.74v-6.74c0-4.57-3.7-8.27-8.27-8.27h-4.84v15h13.11Z"/>
              <path class="cls-44" d="m1.54,166.3v4.86c0,4.57,3.7,8.27,8.27,8.27h4.84v-13.13H1.54Z"/>
              <path class="cls-44" d="m330.93,179.43h4.84c4.57,0,8.27-3.7,8.27-8.27v-4.86h-13.11v13.13Z"/>
            </g>
            <g>
              <rect class="cls-45" x="7.74" y="7.71" width="330.1" height="165.75" rx="2.1" ry="2.1"/>
              <rect class="cls-27" x="9.53" y="9.97" width="326.52" height="161.69" rx="2.06" ry="2.06"/>
            </g>
          </g>
          <g>
            <path class="cls-10" d="m285.82,31.73c0,3.07,2.49,5.57,5.57,5.57s5.57-2.49,5.57-5.57-2.49-5.57-5.57-5.57-5.57,2.49-5.57,5.57Z"/>
            <path class="cls-10" d="m285.82,31.73c0,3.07,2.49,5.57,5.57,5.57s5.57-2.49,5.57-5.57-2.49-5.57-5.57-5.57-5.57,2.49-5.57,5.57Z"/>
            <g>
              <circle class="cls-47" cx="290.18" cy="30.69" r="5.84"/>
              <circle class="cls-19" cx="290.18" cy="30.69" r="5.84"/>
              <path class="cls-8" d="m289.73,35.18c3.08,0,5.57-2.49,5.57-5.57,0-1.03-.28-1.99-.76-2.82.93,1.03,1.49,2.4,1.49,3.9,0,3.23-2.62,5.84-5.84,5.84s-5.63-2.4-5.83-5.45c.65,2.36,2.81,4.09,5.37,4.09Z"/>
              <path class="cls-9" d="m289.73,35.18c3.08,0,5.57-2.49,5.57-5.57,0-1.03-.28-1.99-.76-2.82.93,1.03,1.49,2.4,1.49,3.9,0,3.23-2.62,5.84-5.84,5.84s-5.63-2.4-5.83-5.45c.65,2.36,2.81,4.09,5.37,4.09Z"/>
              <circle class="cls-17" cx="290.18" cy="30.69" r="5.84"/>
              <g class="cls-28">
                <path class="cls-50" d="m290.05,25.6c-2.22,2.68-1.93,5.88-1.93,5.88-1.17.38-2.26.49-2.85.53-.11-.42-.18-.87-.18-1.33,0-2.77,2.21-5.02,4.96-5.08Z"/>
              </g>
              <path class="cls-33" d="m289.13,25.55c-2.22.45-3.93,2.31-4.16,4.61-.14,0-.31,0-.48-.04.2-2.07,1.51-3.81,3.32-4.64.37-.02.84-.01,1.32.07Z"/>
              <path class="cls-34" d="m289.13,25.55c-2.22.45-3.93,2.31-4.16,4.61-.14,0-.31,0-.48-.04.2-2.07,1.51-3.81,3.32-4.64.37-.02.84-.01,1.32.07Z"/>
              <path class="cls-34" d="m289.88,36c3.1,0,5.62-2.52,5.62-5.62,0-1.95-.99-3.67-2.5-4.68,1.74.98,2.92,2.85,2.92,4.99,0,3.16-2.56,5.73-5.72,5.73-2.14,0-4.01-1.18-4.99-2.92,1.01,1.51,2.73,2.5,4.68,2.5Z"/>
              <path class="cls-33" d="m284.63,30.15s-.09-.02-.14-.03c.2-2.07,1.51-3.81,3.32-4.64.05,0,.11,0,.17,0-1.81.86-3.11,2.6-3.34,4.67Z"/>
              <path class="cls-33" d="m284.63,30.15s-.09-.02-.14-.03c.2-2.07,1.51-3.81,3.32-4.64.05,0,.11,0,.17,0-1.81.86-3.11,2.6-3.34,4.67Z"/>
              <g class="cls-36">
                <path class="cls-41" d="m290.05,25.6c-2.22,2.68-1.93,5.88-1.93,5.88-1.17.38-2.26.49-2.85.53-.11-.42-.18-.87-.18-1.33,0-2.77,2.21-5.02,4.96-5.08Z"/>
              </g>
            </g>
          </g>
          <g>
            <path class="cls-21" d="m304.57,43.14c0,3.07,2.49,5.57,5.57,5.57s5.57-2.49,5.57-5.57-2.49-5.57-5.57-5.57-5.57,2.49-5.57,5.57Z"/>
            <path class="cls-5" d="m304.57,43.14c0,3.07,2.49,5.57,5.57,5.57s5.57-2.49,5.57-5.57-2.49-5.57-5.57-5.57-5.57,2.49-5.57,5.57Z"/>
            <g>
              <circle class="cls-53" cx="308.93" cy="42.09" r="5.84"/>
              <circle class="cls-18" cx="308.93" cy="42.09" r="5.84"/>
              <path class="cls-1" d="m308.47,46.58c3.08,0,5.57-2.49,5.57-5.57,0-1.03-.28-1.99-.76-2.82.93,1.03,1.49,2.4,1.49,3.9,0,3.23-2.62,5.84-5.84,5.84s-5.63-2.4-5.83-5.45c.65,2.36,2.81,4.09,5.37,4.09Z"/>
              <path class="cls-24" d="m308.47,46.58c3.08,0,5.57-2.49,5.57-5.57,0-1.03-.28-1.99-.76-2.82.93,1.03,1.49,2.4,1.49,3.9,0,3.23-2.62,5.84-5.84,5.84s-5.63-2.4-5.83-5.45c.65,2.36,2.81,4.09,5.37,4.09Z"/>
              <circle class="cls-4" cx="308.93" cy="42.09" r="5.84"/>
              <g class="cls-28">
                <path class="cls-26" d="m308.8,37.01c-2.22,2.68-1.93,5.88-1.93,5.88-1.17.38-2.26.49-2.85.53-.11-.42-.18-.87-.18-1.33,0-2.77,2.21-5.02,4.96-5.08Z"/>
              </g>
              <path class="cls-32" d="m307.88,36.96c-2.22.45-3.93,2.31-4.16,4.61-.14,0-.31,0-.48-.04.2-2.07,1.51-3.81,3.32-4.64.37-.02.84-.01,1.32.07Z"/>
              <path class="cls-31" d="m307.88,36.96c-2.22.45-3.93,2.31-4.16,4.61-.14,0-.31,0-.48-.04.2-2.07,1.51-3.81,3.32-4.64.37-.02.84-.01,1.32.07Z"/>
              <path class="cls-31" d="m308.63,47.41c3.1,0,5.62-2.52,5.62-5.62,0-1.95-.99-3.67-2.5-4.68,1.74.98,2.92,2.85,2.92,4.99,0,3.16-2.56,5.72-5.72,5.72-2.14,0-4.01-1.18-4.99-2.92,1.01,1.51,2.73,2.5,4.68,2.5Z"/>
              <path class="cls-32" d="m303.38,41.55s-.09-.02-.14-.03c.2-2.07,1.51-3.81,3.32-4.64.05,0,.11,0,.17,0-1.81.86-3.11,2.6-3.34,4.67Z"/>
              <path class="cls-32" d="m303.38,41.55s-.09-.02-.14-.03c.2-2.07,1.51-3.81,3.32-4.64.05,0,.11,0,.17,0-1.81.86-3.11,2.6-3.34,4.67Z"/>
              <g class="cls-36">
                <path class="cls-40" d="m308.8,37.01c-2.22,2.68-1.93,5.88-1.93,5.88-1.17.38-2.26.49-2.85.53-.11-.42-.18-.87-.18-1.33,0-2.77,2.21-5.02,4.96-5.08Z"/>
              </g>
            </g>
          </g>
          <g>
            <path class="cls-14" d="m271.41,51.65c0,3.07,2.49,5.57,5.57,5.57s5.57-2.49,5.57-5.57-2.49-5.57-5.57-5.57-5.57,2.49-5.57,5.57Z"/>
            <path class="cls-13" d="m271.41,51.65c0,3.07,2.49,5.57,5.57,5.57s5.57-2.49,5.57-5.57-2.49-5.57-5.57-5.57-5.57,2.49-5.57,5.57Z"/>
            <g>
              <circle class="cls-39" cx="275.78" cy="50.61" r="5.84"/>
              <circle class="cls-15" cx="275.78" cy="50.61" r="5.84"/>
              <path class="cls-3" d="m275.32,55.1c3.08,0,5.57-2.49,5.57-5.57,0-1.03-.28-1.99-.76-2.82.93,1.03,1.49,2.4,1.49,3.9,0,3.23-2.62,5.84-5.84,5.84s-5.63-2.4-5.83-5.45c.65,2.36,2.81,4.09,5.37,4.09Z"/>
              <path class="cls-11" d="m275.32,55.1c3.08,0,5.57-2.49,5.57-5.57,0-1.03-.28-1.99-.76-2.82.93,1.03,1.49,2.4,1.49,3.9,0,3.23-2.62,5.84-5.84,5.84s-5.63-2.4-5.83-5.45c.65,2.36,2.81,4.09,5.37,4.09Z"/>
              <circle class="cls-2" cx="275.78" cy="50.61" r="5.84"/>
              <g class="cls-28">
                <path class="cls-49" d="m275.64,45.53c-2.22,2.68-1.93,5.88-1.93,5.88-1.17.38-2.26.49-2.85.53-.11-.42-.18-.87-.18-1.33,0-2.77,2.21-5.02,4.96-5.08Z"/>
              </g>
              <path class="cls-35" d="m274.72,45.47c-2.22.45-3.93,2.31-4.16,4.61-.14,0-.31,0-.48-.04.2-2.07,1.51-3.81,3.32-4.64.37-.02.84-.01,1.32.07Z"/>
              <path class="cls-37" d="m274.72,45.47c-2.22.45-3.93,2.31-4.16,4.61-.14,0-.31,0-.48-.04.2-2.07,1.51-3.81,3.32-4.64.37-.02.84-.01,1.32.07Z"/>
              <path class="cls-37" d="m275.47,55.92c3.1,0,5.62-2.52,5.62-5.62,0-1.95-.99-3.67-2.5-4.68,1.74.98,2.92,2.85,2.92,4.99,0,3.16-2.56,5.73-5.72,5.73-2.14,0-4.01-1.18-4.99-2.92,1.01,1.51,2.73,2.5,4.68,2.5Z"/>
              <path class="cls-35" d="m270.22,50.07s-.09-.02-.14-.03c.2-2.07,1.51-3.81,3.32-4.64.05,0,.11,0,.17,0-1.81.86-3.11,2.6-3.34,4.67Z"/>
              <path class="cls-35" d="m270.22,50.07s-.09-.02-.14-.03c.2-2.07,1.51-3.81,3.32-4.64.05,0,.11,0,.17,0-1.81.86-3.11,2.6-3.34,4.67Z"/>
              <g class="cls-36">
                <path class="cls-46" d="m275.64,45.53c-2.22,2.68-1.93,5.88-1.93,5.88-1.17.38-2.26.49-2.85.53-.11-.42-.18-.87-.18-1.33,0-2.77,2.21-5.02,4.96-5.08Z"/>
              </g>
            </g>
          </g>
          <g>
            <circle class="cls-23" cx="308.21" cy="77.49" r="5.57"/>
            <circle class="cls-6" cx="308.21" cy="77.49" r="5.57"/>
            <g>
              <circle class="cls-51" cx="307.01" cy="76.44" r="5.84"/>
              <circle class="cls-25" cx="307.01" cy="76.44" r="5.84"/>
              <path class="cls-22" d="m306.55,80.93c3.08,0,5.57-2.49,5.57-5.57,0-1.03-.28-1.99-.76-2.82.93,1.03,1.49,2.4,1.49,3.9,0,3.23-2.62,5.84-5.84,5.84s-5.63-2.4-5.83-5.45c.65,2.36,2.81,4.09,5.37,4.09Z"/>
              <path class="cls-20" d="m306.55,80.93c3.08,0,5.57-2.49,5.57-5.57,0-1.03-.28-1.99-.76-2.82.93,1.03,1.49,2.4,1.49,3.9,0,3.23-2.62,5.84-5.84,5.84s-5.63-2.4-5.83-5.45c.65,2.36,2.81,4.09,5.37,4.09Z"/>
              <circle class="cls-12" cx="307.01" cy="76.44" r="5.84"/>
              <g class="cls-28">
                <path class="cls-52" d="m306.88,71.36c-2.22,2.68-1.93,5.88-1.93,5.88-1.17.38-2.26.49-2.85.53-.11-.42-.18-.87-.18-1.33,0-2.77,2.21-5.02,4.96-5.08Z"/>
              </g>
              <path class="cls-29" d="m305.95,71.31c-2.22.45-3.93,2.31-4.16,4.61-.14,0-.31,0-.48-.04.2-2.07,1.51-3.81,3.32-4.64.37-.02.84-.01,1.32.07Z"/>
              <path class="cls-30" d="m305.95,71.31c-2.22.45-3.93,2.31-4.16,4.61-.14,0-.31,0-.48-.04.2-2.07,1.51-3.81,3.32-4.64.37-.02.84-.01,1.32.07Z"/>
              <path class="cls-30" d="m306.7,81.76c3.1,0,5.62-2.52,5.62-5.62,0-1.95-.99-3.67-2.5-4.68,1.74.98,2.92,2.85,2.92,4.99,0,3.16-2.56,5.73-5.72,5.73-2.14,0-4.01-1.18-4.99-2.92,1.01,1.51,2.73,2.5,4.68,2.5Z"/>
              <path class="cls-29" d="m301.45,75.9s-.09-.02-.14-.03c.2-2.07,1.51-3.81,3.32-4.64.05,0,.11,0,.17,0-1.81.86-3.11,2.6-3.34,4.67Z"/>
              <path class="cls-29" d="m301.45,75.9s-.09-.02-.14-.03c.2-2.07,1.51-3.81,3.32-4.64.05,0,.11,0,.17,0-1.81.86-3.11,2.6-3.34,4.67Z"/>
              <g class="cls-36">
                <path class="cls-38" d="m306.88,71.36c-2.22,2.68-1.93,5.88-1.93,5.88-1.17.38-2.26.49-2.85.53-.11-.42-.18-.87-.18-1.33,0-2.77,2.21-5.02,4.96-5.08Z"/>
              </g>
            </g>
          </g>
          <g>
            <rect class="cls-43" x="23.62" y="179.3" width="299.99" height="12.9"/>
            <rect class="cls-7" x="23.62" y="186.11" width="299.99" height="6.1"/>
          </g>
        </g>
      </g>
    </g>
  </g>
</svg>