<?xml version="1.0" encoding="UTF-8"?>
<svg id="Layer_2" data-name="Layer 2" xmlns="http://www.w3.org/2000/svg" viewBox="0 0 292.79 192.51">
  <defs>
    <style>
      .cls-1 {
        fill: #b3812d;
      }

      .cls-2 {
        fill: #e6b944;
      }

      .cls-3 {
        fill: #d69737;
      }

      .cls-4 {
        fill: #b6812c;
      }

      .cls-5 {
        fill: #ad8b33;
      }
    </style>
  </defs>
  <g id="YC_L">
    <g>
      <rect class="cls-4" x="22.81" y="89.72" width="9.86" height="102.79"/>
      <rect class="cls-1" x="53.37" y="52.24" width="9.86" height="102.79"/>
      <rect class="cls-4" x="228.81" y="89.72" width="9.86" height="102.79"/>
      <rect class="cls-1" x="261.45" y="30.56" width="9.86" height="118.51"/>
      <rect class="cls-2" x="4.08" y="63.08" width="258.25" height="38.44"/>
      <path class="cls-5" d="m291.5,15.5c-9.94,29.21-19.88,58.42-29.82,87.63v-38.44c10.15-21,20.31-42,30.46-63-.21,4.6-.43,9.21-.64,13.81Z"/>
      <path class="cls-3" d="m269.23,61.11H.14L36.61,0c85.39.03,170.79.05,256.18.08-7.85,20.34-15.71,40.69-23.56,61.03Z"/>
      <rect class="cls-1" x="0" y="61.08" width="269.21" height="4.16"/>
    </g>
  </g>
</svg>