<?xml version="1.0" encoding="UTF-8"?>
<svg id="Layer_2" data-name="Layer 2" xmlns="http://www.w3.org/2000/svg" viewBox="0 0 68.87 60.89">
  <defs>
    <style>
      .cls-1 {
        fill: #f1c4b3;
      }

      .cls-2 {
        fill: #f29e07;
      }

      .cls-3 {
        fill: #f7bc55;
      }

      .cls-4 {
        fill: #f8bc54;
      }

      .cls-5 {
        fill: #fae9d7;
      }
    </style>
  </defs>
  <g id="Yellow_textbook" data-name="Yellow textbook">
    <g id="g98366">
      <g id="g98364">
        <path id="path98354" class="cls-2" d="m3.99,4.83S.83,5.33.03,13.19c-.8,7.86,15.6,45.08,18.23,47.34,2.63,2.26,46.21-6.87,46.21-6.87,2.18-.29,2.2-2.72.25-3l1.34-10.32c3.21-.88,3.23-2.84,2.21-5.42-1.02-2.59-22.82-31.93-26.2-34.27C38.69-1.69,9,2.86,3.99,4.83h0Z"/>
        <path id="path98356" class="cls-5" d="m66.13,40.33h.02s-.06.02-.09.02l-1.34,10.32c.12.02.22.04.32.07-11.56,2.25-25.91,5.57-43.48,7.07,0,0-1.4-4.34,1.94-8.75,10.41-2.22,42.62-8.72,42.62-8.72Z"/>
        <path id="path98358" class="cls-4" d="m66.82,38.42s-42.83,8.03-44.7,8.6c-1.87.56-3.61,8.61-2.49,12.85.04,1.18-.96.58-1.48-1.46-.52-2.04-.12-9.11,1.91-11.92C12.62,30.54,3.57,7.8,3.69,6.69c0,0,.63-.66,1.57,1.34.94,2,16.36,37.75,16.36,37.75,0,0,42.79-8.78,44.11-8.82,1.33-.04,2.1.59,1.09,1.46h0Z"/>
        <path id="path98360" class="cls-3" d="m45.57,12.04l-5.13-7.91-28.79,4.45,4.99,9.34,28.93-5.89Z"/>
        <path id="path98362" class="cls-1" d="m24.65,50.27l41.03-6.92.19-1.47-41.22,8.39Zm-.84,3.31l41.43-6.89.12-.91-41.55,7.8Zm3.16,1.58l37.82-5,.13-1.01-37.95,6.01Z"/>
      </g>
    </g>
  </g>
</svg>